<svg width="20" height="20" viewBox="0 0 20 20" fill="none" xmlns="http://www.w3.org/2000/svg">
<path fill-rule="evenodd" clip-rule="evenodd" d="M5.85458 7.43644V5.9118C5.85458 3.56979 7.73426 1.66666 10.0587 1.66666C12.3831 1.66666 14.2628 3.56979 14.2628 5.9118V7.43644H15.4527C16.1291 7.43644 16.6666 7.99134 16.6666 8.6631V17.1067C16.6666 17.7784 16.1291 18.3333 15.4527 18.3333H4.54714C3.87078 18.3333 3.33325 17.7784 3.33325 17.1067V8.6631C3.33325 7.99134 3.87078 7.43644 4.54714 7.43644H5.85458ZM4.85224 8.95158V16.8182H15.1476V8.95158H4.85224ZM12.7438 7.4131V5.91181C12.7438 4.40157 11.5391 3.18183 10.0587 3.18183C8.57833 3.18183 7.37361 4.40157 7.37361 5.91181V7.4131H12.7438Z" fill="#92929D"/>
</svg>
