<svg width="20" height="20" viewBox="0 0 20 20" fill="none" xmlns="http://www.w3.org/2000/svg">
<path fill-rule="evenodd" clip-rule="evenodd" d="M18.1048 1.88522C17.8047 1.59151 17.3223 1.59417 17.0255 1.8912L13.9718 4.94653C12.7558 4.29542 11.4046 3.9394 10.0001 3.9394C6.47874 3.9394 3.29264 6.17732 1.73192 9.69259C1.64502 9.88832 1.64502 10.1117 1.73192 10.3074C2.43689 11.8952 3.47347 13.2224 4.72278 14.2005L1.88929 17.0355C1.59021 17.3348 1.59294 17.8189 1.89533 18.1148C2.19549 18.4085 2.67783 18.4058 2.97469 18.1088L6.02839 15.0535C7.24438 15.7046 8.59556 16.0606 10.0001 16.0606C13.5214 16.0606 16.7075 13.8227 18.2682 10.3074C18.3551 10.1117 18.3551 9.88832 18.2682 9.69259C17.5633 8.10477 16.5267 6.77757 15.2774 5.79949L18.1109 2.96449C18.41 2.66525 18.4072 2.18112 18.1048 1.88522ZM12.8416 6.07736C11.9519 5.67219 10.9903 5.45456 10.0001 5.45456C7.1981 5.45456 4.62632 7.19704 3.25985 10C3.88593 11.2843 4.76504 12.3459 5.80339 13.1193L7.38679 11.5351C7.12177 11.0849 6.96976 10.5602 6.96976 9.99998C6.96976 8.32639 8.32647 6.96968 10.0001 6.96968C10.5597 6.96968 11.0839 7.12137 11.5337 7.38588L12.8416 6.07736ZM12.6134 8.46496L14.1968 6.8807C15.2351 7.65411 16.1143 8.71575 16.7403 10C15.3739 12.803 12.8021 14.5455 10.0001 14.5455C9.00983 14.5455 8.04832 14.3278 7.1586 13.9227L8.46644 12.6141C8.9163 12.8786 9.44047 13.0303 10.0001 13.0303C11.6737 13.0303 13.0304 11.6736 13.0304 9.99998C13.0304 9.43981 12.8784 8.91514 12.6134 8.46496ZM10.3859 8.53439C10.2627 8.50206 10.1334 8.48484 10.0001 8.48484C9.16332 8.48484 8.48496 9.1632 8.48496 9.99999C8.48496 10.1336 8.50225 10.2631 8.53471 10.3865L10.3859 8.53439ZM9.61434 11.4656L11.4655 9.61343C11.498 9.73684 11.5153 9.8664 11.5153 9.99999C11.5153 10.8368 10.8369 11.5151 10.0001 11.5151C9.8668 11.5151 9.73751 11.4979 9.61434 11.4656Z" fill="#B5B5BE"/>
</svg>
