<svg width="20" height="20" viewBox="0 0 20 20" fill="none" xmlns="http://www.w3.org/2000/svg">
<path fill-rule="evenodd" clip-rule="evenodd" d="M1.7584 9.53125C3.29528 5.75682 6.4661 3.33334 10.0001 3.33334C13.5341 3.33334 16.7049 5.75682 18.2418 9.53125C18.364 9.83138 18.364 10.1686 18.2418 10.4688C16.7049 14.2432 13.5341 16.6667 10.0001 16.6667C6.4661 16.6667 3.29528 14.2432 1.7584 10.4688C1.6362 10.1686 1.6362 9.83138 1.7584 9.53125ZM10.0001 15.1247C12.8493 15.1247 15.4615 13.1556 16.7917 10C15.4615 6.84438 12.8493 4.87529 10.0001 4.87529C7.15087 4.87529 4.53862 6.84438 3.20849 10C4.53862 13.1556 7.15087 15.1247 10.0001 15.1247ZM10.0001 13.0385C8.35112 13.0385 7.01436 11.6781 7.01436 10C7.01436 8.32186 8.35112 6.96145 10.0001 6.96145C11.6491 6.96145 12.9858 8.32186 12.9858 10C12.9858 11.6781 11.6491 13.0385 10.0001 13.0385ZM10.0001 11.4966C10.8123 11.4966 11.4707 10.8265 11.4707 10C11.4707 9.17345 10.8123 8.5034 10.0001 8.5034C9.18789 8.5034 8.52948 9.17345 8.52948 10C8.52948 10.8265 9.18789 11.4966 10.0001 11.4966Z" fill="#92929D"/>
</svg>
