<svg width="431" height="401" viewBox="0 0 431 401" fill="none" xmlns="http://www.w3.org/2000/svg">
<g filter="url(#filter0_i)">
<rect x="0.418701" y="46.998" width="376" height="353.933" rx="44.1498" fill="#EFF7FF"/>
</g>
<path opacity="0.8" d="M297.715 156.167C340.668 156.167 375.489 121.347 375.489 78.3942C375.489 35.4413 340.668 0.621094 297.715 0.621094C254.763 0.621094 219.942 35.4413 219.942 78.3942C219.942 121.347 254.763 156.167 297.715 156.167Z" fill="#D6EAFF"/>
<path d="M394.875 87.4869L383.495 84.9707V88.4591L394.875 87.4869Z" fill="#7229B2"/>
<path d="M189.046 110.819L260.929 121.741V81.4822L189.046 61.1812V110.819Z" fill="#16BFB2"/>
<path d="M260.929 121.741L189.046 128.832L216.724 114.993L260.929 121.741Z" fill="#23E2D8"/>
<path d="M383.495 45.1686L311.612 34.2461V74.5051L383.495 94.8062V45.1686Z" fill="#16BFB2"/>
<path d="M189.046 110.898L395.046 94.8004V44.8979L189.046 60.9955V110.898Z" fill="#23E2D8"/>
<path d="M311.612 34.2464L383.495 27.1553L355.816 40.9371L311.612 34.2464Z" fill="#23E2D8"/>
<path d="M194.046 107.898V57.1021L194.551 57.0446L397.046 40.8979V91.6938L396.541 91.7513L194.046 107.898ZM195.056 57.964V106.864L395.973 90.8894V41.9897L195.056 57.964Z" fill="black"/>
<path d="M385.836 86.4776L388.626 83.6875L385.836 80.8974L383.046 83.6875L385.836 86.4776Z" fill="black"/>
<path d="M215.539 66.8428C213.938 66.8428 213.938 69.359 215.539 69.359C217.14 69.359 217.14 66.8428 215.539 66.8428Z" fill="black"/>
<path d="M274.498 36.0193L272.725 13.8311L279.473 15.4894L274.498 36.0193Z" fill="#993ADC"/>
<path d="M279.53 37.22L289.423 19.8926L296.286 26.2402L279.53 37.22Z" fill="#FFCB0E"/>
<path d="M269.466 35.7336L262.432 15.0322L255.855 17.7772L269.466 35.7336Z" fill="#FFCB0E"/>
<path d="M251.607 34.541L254.841 32.2808L252.581 29.0463L249.347 31.3065L251.607 34.541Z" fill="#993ADC"/>
<path d="M302.652 31.0783L306.427 29.9292L305.278 26.1542L301.503 27.3033L302.652 31.0783Z" fill="#993ADC"/>
<path d="M289.538 38.0211C287.994 37.5064 287.25 39.9082 288.794 40.4229C290.281 40.9376 291.082 38.5357 289.538 38.0211Z" fill="black"/>
<path d="M247.735 10.9717C246.191 10.4571 245.447 12.8589 246.991 13.3736C248.478 13.831 249.279 11.4292 247.735 10.9717Z" fill="black"/>
<path d="M309.903 120.565L313.815 120.045L313.295 116.133L309.384 116.653L309.903 120.565Z" fill="#993ADC"/>
<path d="M276.816 129.083L277.721 125.242L273.88 124.337L272.976 128.178L276.816 129.083Z" fill="#993ADC"/>
<path d="M282.39 110.247L304.063 115.165L300.518 121.112L282.39 110.247Z" fill="#993ADC"/>
<path d="M279.702 114.707L293.255 129.289L285.192 133.922L279.702 114.707Z" fill="#FFCB0E"/>
<path d="M304.063 105.844C302.462 105.844 302.462 108.36 304.063 108.36C305.664 108.36 305.664 105.844 304.063 105.844Z" fill="black"/>
<path d="M289.709 138.726C288.108 138.726 288.108 141.242 289.709 141.242C291.311 141.242 291.311 138.726 289.709 138.726Z" fill="black"/>
<path d="M220.361 91.9938C217.571 92.236 215.504 91.6905 214.159 90.3572C212.831 89.0059 212.167 86.7886 212.167 83.7052C212.167 77.7719 214.939 74.5645 220.485 74.083C221.315 74.0109 222.162 74.029 223.026 74.1374C223.889 74.2291 224.562 74.3957 225.043 74.6373C225.475 74.8498 225.691 75.0977 225.691 75.381C225.691 75.6144 225.599 75.9306 225.417 76.3298C225.234 76.7124 225.01 77.0651 224.744 77.3882C224.495 77.6932 224.271 77.8543 224.072 77.8716C224.022 77.8759 223.823 77.8182 223.474 77.6985C223.125 77.5788 222.702 77.4822 222.204 77.4088C221.706 77.3354 221.108 77.3289 220.411 77.3895C218.949 77.5163 217.862 78.0774 217.148 79.0727C216.45 80.0666 216.102 81.5052 216.102 83.3886C216.102 87.1886 217.521 88.9653 220.361 88.7188C221.108 88.6539 221.755 88.5227 222.303 88.3251C222.851 88.1276 223.383 87.8898 223.897 87.6117C224.163 87.4553 224.346 87.3728 224.445 87.3642C224.694 87.3425 224.927 87.464 225.143 87.7286C225.375 87.9918 225.558 88.3009 225.691 88.656C225.84 88.9931 225.915 89.2449 225.915 89.4116C225.915 89.8449 225.624 90.2535 225.043 90.6373C224.495 91.0015 223.773 91.3059 222.876 91.5504C221.98 91.7782 221.141 91.926 220.361 91.9938ZM235.096 90.7145C232.522 90.9379 230.546 90.3428 229.168 88.9291C227.79 87.4988 227.101 85.342 227.101 82.4586C227.101 79.5753 227.79 77.3071 229.168 75.6541C230.546 73.9845 232.522 73.0379 235.096 72.8145C237.669 72.591 239.637 73.1952 240.998 74.627C242.376 76.0407 243.066 78.1892 243.066 81.0725C243.066 83.9559 242.376 86.2323 240.998 87.902C239.637 89.5535 237.669 90.491 235.096 90.7145ZM235.096 87.4395C236.424 87.3242 237.428 86.7536 238.109 85.7278C238.79 84.7021 239.13 83.2642 239.13 81.4142C239.13 79.5642 238.79 78.1937 238.109 77.3028C237.428 76.3953 236.424 75.9992 235.096 76.1145C233.767 76.2298 232.754 76.8011 232.057 77.8283C231.376 78.8374 231.036 80.267 231.036 82.117C231.036 83.967 231.376 85.3457 232.057 86.2533C232.754 87.1594 233.767 87.5548 235.096 87.4395ZM254.334 84.6691C253.903 84.7066 253.571 84.5771 253.338 84.2806L250.275 79.0466C250.059 78.6987 249.876 78.3896 249.727 78.1192L249.627 78.1528V79.3778V88.5028C249.627 89.0362 249.129 89.3461 248.133 89.4326L247.41 89.4953C246.414 89.5818 245.916 89.3584 245.916 88.825V72.825C245.916 72.2917 246.414 71.9818 247.41 71.8953L248.73 71.7807C249.527 71.7115 250.05 71.8911 250.299 72.3195L254.434 79.3605L254.683 79.7639L254.907 79.3194L259.116 71.554C259.365 71.0823 259.888 70.8119 260.685 70.7427L261.981 70.6303C262.977 70.5438 263.475 70.7672 263.475 71.3005V87.3005C263.475 87.8339 262.977 88.1438 261.981 88.2303L261.258 88.293C260.262 88.3795 259.764 88.1561 259.764 87.6227V78.4977V77.2727L259.664 77.2564C259.515 77.5527 259.332 77.8936 259.116 78.279L256.053 84.0449C255.82 84.3818 255.488 84.569 255.057 84.6064L254.334 84.6691ZM268.276 87.7087C267.28 87.7952 266.782 87.5634 266.782 87.0134V71.0134C266.782 70.4634 267.28 70.1452 268.276 70.0587L269.148 69.983C270.144 69.8965 270.642 70.1283 270.642 70.6783V86.6783C270.642 87.2283 270.144 87.5465 269.148 87.633L268.276 87.7087ZM275.454 87.0605C274.458 87.147 273.96 86.9236 273.96 86.3902V70.3902C273.96 69.8569 274.458 69.547 275.454 69.4605L276.525 69.3675C276.924 69.3329 277.256 69.3541 277.521 69.431C277.787 69.4913 278.003 69.6475 278.169 69.8998L283.773 78.0882C284.105 78.5427 284.404 79.0084 284.67 79.4854L284.769 79.4517C284.736 79.0713 284.719 78.5061 284.719 77.7561V69.4561C284.719 68.9227 285.218 68.6128 286.214 68.5263L286.936 68.4636C287.932 68.3771 288.43 68.6005 288.43 69.1339V85.1339C288.43 85.6672 287.932 85.9771 286.936 86.0636L285.99 86.1458C285.591 86.1804 285.259 86.1675 284.993 86.1073C284.728 86.0303 284.512 85.8657 284.346 85.6135L278.617 77.3108C278.285 76.8563 277.986 76.3906 277.721 75.9137L277.621 75.9473C277.654 76.3278 277.671 76.893 277.671 77.643V86.068C277.671 86.6014 277.173 86.9113 276.177 86.9978L275.454 87.0605ZM304.265 74.7841C304.613 74.7538 304.862 74.8155 305.012 74.9692C305.178 75.1048 305.261 75.3476 305.261 75.6976V82.6476C305.261 83.3976 304.638 83.9683 303.393 84.3598C302.148 84.7512 300.836 85.0068 299.458 85.1265C296.668 85.3686 294.601 84.8231 293.256 83.4899C291.928 82.1386 291.264 79.9212 291.264 76.8379C291.264 70.9046 294.036 67.6971 299.582 67.2156C300.346 67.1493 301.143 67.1551 301.973 67.233C302.803 67.311 303.501 67.4588 304.065 67.6764C304.63 67.8941 304.912 68.1695 304.912 68.5029C304.912 68.7362 304.821 69.0525 304.638 69.4517C304.456 69.8342 304.231 70.187 303.966 70.5101C303.717 70.815 303.493 70.9761 303.293 70.9934C303.243 70.9978 303.036 70.9408 302.671 70.8225C302.305 70.7042 301.857 70.6098 301.326 70.5393C300.811 70.4673 300.205 70.4616 299.508 70.5221C298.046 70.649 296.959 71.2101 296.245 72.2054C295.547 73.1993 295.199 74.6379 295.199 76.5212C295.199 80.3212 296.618 82.098 299.458 81.8515C300.122 81.7938 300.769 81.6792 301.4 81.5078V78.3328L299.209 78.5231C298.943 78.5461 298.752 78.4627 298.636 78.2728C298.52 78.0829 298.461 77.7713 298.461 77.3379V76.5379C298.461 76.1046 298.52 75.7829 298.636 75.5728C298.752 75.3627 298.943 75.2461 299.209 75.2231L304.265 74.7841ZM319.261 83.4071C318.082 83.5095 317.053 83.4822 316.173 83.3252C315.293 83.1683 314.603 82.9281 314.105 82.6047C313.64 82.3284 313.408 82.0319 313.408 81.7153C313.408 81.4653 313.499 81.1573 313.682 80.7915C313.865 80.4256 314.08 80.0985 314.329 79.8103C314.579 79.522 314.786 79.3706 314.952 79.3562C315.052 79.3475 315.284 79.4274 315.65 79.5956C316.181 79.8162 316.662 79.9827 317.094 80.0952C317.526 80.2077 318.032 80.2388 318.613 80.1883C319.261 80.1321 319.809 79.9595 320.257 79.6706C320.722 79.3636 320.955 78.8851 320.955 78.2351C320.955 77.7017 320.739 77.3038 320.307 77.0413C319.892 76.7607 319.211 76.4698 318.265 76.1686L317.119 75.7681C316.073 75.3589 315.251 74.8136 314.653 74.1321C314.056 73.434 313.757 72.4017 313.757 71.035C313.757 69.9017 314.031 68.9362 314.579 68.1386C315.143 67.323 315.874 66.7012 316.77 66.2733C317.667 65.8288 318.63 65.5619 319.659 65.4725C320.506 65.399 321.27 65.4243 321.951 65.5486C322.648 65.6547 323.196 65.8321 323.595 66.0808C323.96 66.3158 324.143 66.5666 324.143 66.8333C324.143 67.0666 324.068 67.3648 323.918 67.7277C323.769 68.0907 323.586 68.4149 323.37 68.7003C323.155 68.969 322.955 69.1113 322.773 69.1272C322.69 69.1344 322.549 69.105 322.349 69.039C322.167 68.9715 322.009 68.9185 321.876 68.88C321.278 68.7319 320.656 68.686 320.008 68.7422C319.145 68.8172 318.539 69.0115 318.19 69.3251C317.858 69.6372 317.692 69.9767 317.692 70.3433C317.692 70.7767 317.808 71.1249 318.041 71.3881C318.273 71.6512 318.555 71.86 318.887 72.0145C319.219 72.1524 319.709 72.3348 320.357 72.562C321.303 72.8798 322.075 73.1961 322.673 73.5108C323.271 73.8089 323.786 74.2809 324.217 74.9268C324.666 75.5545 324.89 76.3934 324.89 77.4434C324.89 78.7267 324.616 79.8005 324.068 80.6648C323.537 81.5276 322.847 82.179 322.001 82.6192C321.154 83.0594 320.241 83.322 319.261 83.4071ZM334.429 82.0902C331.855 82.3136 329.879 81.7185 328.501 80.3048C327.123 78.8745 326.434 76.7177 326.434 73.8343C326.434 70.951 327.123 68.6828 328.501 67.0298C329.879 65.3602 331.855 64.4136 334.429 64.1902C337.003 63.9667 338.97 64.5709 340.332 66.0027C341.71 67.4164 342.399 69.5649 342.399 72.4482C342.399 75.3316 341.71 77.608 340.332 79.2777C338.97 80.9292 337.003 81.8667 334.429 82.0902ZM334.429 78.8152C335.757 78.6999 336.762 78.1293 337.443 77.1035C338.123 76.0778 338.464 74.6399 338.464 72.7899C338.464 70.9399 338.123 69.5694 337.443 68.6785C336.762 67.771 335.757 67.3749 334.429 67.4902C333.101 67.6055 332.088 68.1768 331.39 69.204C330.71 70.2131 330.369 71.6427 330.369 73.4927C330.369 75.3427 330.71 76.7214 331.39 77.629C332.088 78.5351 333.101 78.9305 334.429 78.8152ZM352.646 80.5085C350.073 80.732 348.097 80.1368 346.719 78.7232C345.341 77.2928 344.652 75.136 344.652 72.2526C344.652 69.3693 345.341 67.1011 346.719 65.4482C348.097 63.7785 350.073 62.832 352.646 62.6085C355.22 62.3851 357.188 62.9892 358.549 64.421C359.927 65.8347 360.617 67.9832 360.617 70.8665C360.617 73.7499 359.927 76.0264 358.549 77.696C357.188 79.3476 355.22 80.2851 352.646 80.5085ZM352.646 77.2335C353.975 77.1182 354.979 76.5476 355.66 75.5219C356.341 74.4961 356.681 73.0582 356.681 71.2082C356.681 69.3582 356.341 67.9877 355.66 67.0969C354.979 66.1893 353.975 65.7932 352.646 65.9085C351.318 66.0238 350.305 66.5951 349.608 67.6223C348.927 68.6314 348.587 70.061 348.587 71.911C348.587 73.761 348.927 75.1398 349.608 76.0473C350.305 76.9534 351.318 77.3488 352.646 77.2335ZM364.961 79.2893C363.965 79.3758 363.467 79.1524 363.467 78.6191V62.6191C363.467 62.0857 363.965 61.7758 364.961 61.6893L366.032 61.5963C366.431 61.5617 366.763 61.5829 367.029 61.6598C367.294 61.7201 367.51 61.8764 367.676 62.1286L373.28 70.3171C373.612 70.7716 373.911 71.2373 374.177 71.7142L374.276 71.6806C374.243 71.3001 374.226 70.7349 374.226 69.9849V61.6849C374.226 61.1516 374.725 60.8416 375.721 60.7551L376.443 60.6924C377.439 60.6059 377.937 60.8294 377.937 61.3627V77.3627C377.937 77.896 377.439 78.2059 376.443 78.2924L375.497 78.3746C375.098 78.4092 374.766 78.3964 374.5 78.3361C374.235 78.2592 374.019 78.0946 373.853 77.8423L368.124 69.5397C367.792 69.0852 367.493 68.6195 367.228 68.1425L367.128 68.1762C367.161 68.5566 367.178 69.1219 367.178 69.8719V78.2969C367.178 78.8302 366.68 79.1401 365.684 79.2266L364.961 79.2893Z" fill="white"/>
<path d="M426.327 72.39L418.55 73.0762C418.092 73.1334 417.749 73.5337 417.749 73.9912C417.806 74.4487 418.149 74.7918 418.607 74.7918H418.664L426.441 74.1056C426.899 74.0484 427.242 73.6481 427.242 73.1906C427.185 72.6759 426.784 72.3328 426.327 72.39Z" fill="#FFCB0E"/>
<path d="M416.148 46.0844L403.796 39.9083L407.913 34.9331L416.148 46.0844Z" fill="#FF6699"/>
<path d="M230.808 25.9549L221.829 13.8887L218.112 17.0339L230.808 25.9549Z" fill="#23E2D8"/>
<path d="M413.389 124.949L416.855 122.052L413.957 118.586L410.491 121.483L413.389 124.949Z" fill="#23E2D8"/>
<path d="M205.074 2.7373C202.844 2.7373 202.844 6.16847 205.074 6.16847C207.304 6.16847 207.304 2.7373 205.074 2.7373Z" fill="#E6E6E6"/>
<path d="M190.892 62.2109C188.662 62.2109 188.662 65.6421 190.892 65.6421C193.065 65.6421 193.065 62.2109 190.892 62.2109Z" fill="#E6E6E6"/>
<path d="M165.673 131.349C163.442 131.349 163.442 134.78 165.673 134.78C167.903 134.78 167.903 131.349 165.673 131.349Z" fill="#E6E6E6"/>
<path d="M228.978 142.328C226.747 142.328 226.747 145.759 228.978 145.759C231.208 145.759 231.208 142.328 228.978 142.328Z" fill="#E6E6E6"/>
<path d="M404.139 70.6172C401.908 70.6172 401.908 74.0484 404.139 74.0484C406.312 74.0484 406.312 70.6172 404.139 70.6172Z" fill="#E6E6E6"/>
<path d="M429.301 31.1587C427.07 31.1587 427.07 34.5899 429.301 34.5899C431.531 34.5899 431.531 31.1587 429.301 31.1587Z" fill="#E6E6E6"/>
<path d="M369.255 4.05273C367.025 4.05273 367.025 7.4839 369.255 7.4839C371.428 7.4839 371.428 4.05273 369.255 4.05273Z" fill="#E6E6E6"/>
<path d="M375.91 53.764C375.452 53.764 375.109 53.4208 375.052 52.9634C374.995 52.5059 375.338 52.0484 375.853 52.0484L389.177 50.9047C389.634 50.8475 390.092 51.1906 390.092 51.7053C390.149 52.1628 389.806 52.6202 389.291 52.6202L375.967 53.764C375.967 53.764 375.967 53.764 375.91 53.764Z" fill="#993ADC"/>
<path d="M195.124 99.096C194.666 99.096 194.323 98.7529 194.266 98.2954C194.209 97.8379 194.552 97.3804 195.066 97.3804L208.391 96.2367C208.848 96.1795 209.306 96.5226 209.306 97.0373C209.363 97.4948 209.02 97.9523 208.505 97.9523L195.181 99.096C195.181 99.096 195.181 99.096 195.124 99.096Z" fill="#993ADC"/>
<path d="M293.253 321.302C293.253 337.201 289.834 352.416 283.85 366.264H78.7007C72.7171 352.587 69.298 337.372 69.298 321.302C69.298 259.415 119.389 209.324 181.275 209.324C243.162 209.495 293.253 259.586 293.253 321.302Z" fill="#E0F0FF"/>
<path d="M127.253 301.983C106.054 311.215 90.8387 332.756 88.9581 355.664C95.7964 337.201 110.328 321.302 127.937 312.412C127.766 308.822 127.595 305.574 127.253 301.983Z" fill="#F8AE41"/>
<path d="M155.803 248.645C155.803 248.645 155.803 208.812 179.566 208.812C198.884 208.812 198.542 248.645 198.542 248.645" stroke="#5581EA" stroke-width="1.10375" stroke-miterlimit="10"/>
<path d="M141.442 237.02H131.868L108.618 366.264H135.63L141.442 361.477L145.032 240.952L141.442 237.02Z" fill="#5581EA"/>
<path d="M261.284 366.264H135.63L141.442 237.02H236.666L261.284 366.264Z" fill="#83A5FF"/>
<path d="M108.618 366.263L124.688 347.629L135.63 366.263H108.618Z" fill="#385EBA"/>
<path d="M168.112 251.893C169.906 251.893 171.36 250.439 171.36 248.645C171.36 246.851 169.906 245.396 168.112 245.396C166.318 245.396 164.864 246.851 164.864 248.645C164.864 250.439 166.318 251.893 168.112 251.893Z" fill="#5581EA"/>
<path d="M210.851 251.893C212.645 251.893 214.099 250.439 214.099 248.645C214.099 246.851 212.645 245.396 210.851 245.396C209.057 245.396 207.603 246.851 207.603 248.645C207.603 250.439 209.057 251.893 210.851 251.893Z" fill="#5581EA"/>
<path d="M168.112 248.645C168.112 248.645 168.112 208.812 191.875 208.812C211.193 208.812 210.851 248.645 210.851 248.645" stroke="#5581EA" stroke-width="1.10375" stroke-miterlimit="10"/>
<path d="M130.843 366.264H54.7666C55.2795 363.871 56.3052 360.965 58.6986 360.11C61.092 359.255 63.8274 359.597 65.708 361.135C63.3145 357.716 65.0241 352.417 68.1013 349.681C71.1785 346.946 75.7944 346.262 79.7264 347.63C83.6585 348.997 86.7357 352.075 88.6163 355.665C88.6163 352.759 90.6677 349.51 93.4031 348.827C96.3094 348.143 99.3867 349.51 100.754 352.246C100.583 348.827 103.319 345.578 106.567 345.236C109.986 344.894 113.234 346.775 115.115 349.51C116.995 352.246 117.679 355.836 117.508 359.084C122.979 358.058 128.962 361.306 130.843 366.264Z" fill="#F8AE41"/>
<path d="M276.841 221.462C274.448 218.043 269.832 216.163 265.9 217.359C263.335 218.043 260.771 220.095 259.574 222.488C258.377 220.095 255.813 218.043 253.249 217.359C249.317 216.163 244.701 218.043 242.307 221.462C239.914 224.881 239.572 229.497 240.769 233.429C242.136 237.361 244.872 240.61 248.291 243.003C251.539 245.225 255.471 247.619 259.403 247.961C263.335 247.619 267.267 245.225 270.516 243.003C273.935 240.61 276.841 237.361 278.038 233.429C279.576 229.497 279.234 224.881 276.841 221.462Z" fill="#83A5FF"/>
<path d="M274.106 325.918C276.844 325.918 279.064 323.698 279.064 320.96C279.064 318.222 276.844 316.002 274.106 316.002C271.368 316.002 269.148 318.222 269.148 320.96C269.148 323.698 271.368 325.918 274.106 325.918Z" fill="#5581EA"/>
<path d="M189.481 197.358C192.031 197.358 194.097 195.291 194.097 192.742C194.097 190.193 192.031 188.126 189.481 188.126C186.932 188.126 184.866 190.193 184.866 192.742C184.866 195.291 186.932 197.358 189.481 197.358Z" fill="#5581EA"/>
<path d="M97.8482 294.291C100.586 294.291 102.806 292.071 102.806 289.333C102.806 286.595 100.586 284.375 97.8482 284.375C95.1101 284.375 92.8904 286.595 92.8904 289.333C92.8904 292.071 95.1101 294.291 97.8482 294.291Z" fill="#5581EA"/>
<path d="M66.9047 236.165C68.9819 236.165 70.6658 234.481 70.6658 232.404C70.6658 230.326 68.9819 228.643 66.9047 228.643C64.8275 228.643 63.1437 230.326 63.1437 232.404C63.1437 234.481 64.8275 236.165 66.9047 236.165Z" fill="#5581EA"/>
<path d="M276.841 346.433H296.672" stroke="#5581EA" stroke-width="1.10375" stroke-miterlimit="10"/>
<path d="M278.038 276.169H297.014" stroke="#5581EA" stroke-width="1.10375" stroke-miterlimit="10"/>
<path d="M219.741 205.905H227.947" stroke="#5581EA" stroke-width="1.10375" stroke-miterlimit="10"/>
<path d="M62.2889 244.542H77.1622" stroke="#5581EA" stroke-width="1.10375" stroke-miterlimit="10"/>
<path d="M73.4011 312.754H90.3259" stroke="#5581EA" stroke-width="1.10375" stroke-miterlimit="10"/>
<path d="M101.609 194.109C101.609 194.109 85.0262 204.367 85.0262 232.062C92.7194 224.369 102.977 220.437 116.141 220.437L101.609 194.109Z" fill="#133479"/>
<path d="M135.459 194.109C135.459 194.109 152.042 204.367 152.042 232.062C144.349 224.369 134.091 220.437 120.927 220.437L135.459 194.109Z" fill="#133479"/>
<path d="M118.534 144.189C105.883 153.592 97.8479 168.465 97.8479 185.39C97.8479 202.315 106.054 217.189 118.534 226.591C131.185 217.189 139.22 202.315 139.22 185.39C139.22 168.465 131.185 153.592 118.534 144.189Z" fill="#F8AE41"/>
<path d="M118.534 194.964C125.521 194.964 131.185 189.3 131.185 182.313C131.185 175.326 125.521 169.662 118.534 169.662C111.547 169.662 105.883 175.326 105.883 182.313C105.883 189.3 111.547 194.964 118.534 194.964Z" fill="#133479"/>
<path d="M126.056 220.437H111.012V229.668H126.056V220.437Z" fill="#133479"/>
<path d="M240.256 256.167C252.736 260.099 262.139 271.041 264.361 283.863C266.584 296.684 261.284 310.532 250.856 318.567C244.017 323.867 235.469 326.431 227.092 327.97C208.287 331.56 187.943 332.073 170.505 324.209C123.663 302.839 113.576 255.996 113.918 232.746H120.928C122.295 259.245 132.724 283.179 153.922 297.197C174.95 311.045 203.329 312.925 226.067 302.155C232.905 298.907 239.572 294.291 243.333 287.624C247.094 280.956 246.753 272.066 242.137 266.083L240.256 256.167Z" fill="#F8AE41"/>
<path d="M305.049 366.264H283.851H78.8719H57.6732" stroke="#5581EA" stroke-width="1.10375" stroke-miterlimit="10"/>
<defs>
<filter id="filter0_i" x="0.418701" y="46.998" width="381.887" height="359.82" filterUnits="userSpaceOnUse" color-interpolation-filters="sRGB">
<feFlood flood-opacity="0" result="BackgroundImageFix"/>
<feBlend mode="normal" in="SourceGraphic" in2="BackgroundImageFix" result="shape"/>
<feColorMatrix in="SourceAlpha" type="matrix" values="0 0 0 0 0 0 0 0 0 0 0 0 0 0 0 0 0 0 127 0" result="hardAlpha"/>
<feOffset dx="8.82997" dy="8.82997"/>
<feGaussianBlur stdDeviation="2.94332"/>
<feComposite in2="hardAlpha" operator="arithmetic" k2="-1" k3="1"/>
<feColorMatrix type="matrix" values="0 0 0 0 0.849479 0 0 0 0 0.910156 0 0 0 0 0.970833 0 0 0 0.52 0"/>
<feBlend mode="normal" in2="shape" result="effect1_innerShadow"/>
</filter>
</defs>
</svg>
