<svg width="427" height="373" viewBox="0 0 427 373" fill="none" xmlns="http://www.w3.org/2000/svg">
<g filter="url(#filter0_i)">
<rect y="18.8853" width="376" height="353.933" rx="44.1498" fill="#EFF7FF"/>
</g>
<path d="M324.704 277.366C324.704 295.775 320.745 313.394 313.817 329.428H76.2698C69.3413 313.591 65.3822 295.973 65.3822 277.366C65.3822 205.706 123.383 147.705 195.043 147.705C266.703 147.903 324.704 205.904 324.704 277.366Z" fill="#E0F0FF"/>
<path d="M193.558 201.533C193.558 201.533 217.313 169.86 225.627 176.591C234.139 183.321 200.685 216.38 200.685 216.38L193.558 201.533Z" fill="#E48766"/>
<path d="M193.558 224.496C193.558 224.496 217.313 192.823 225.627 199.554C234.139 206.284 200.685 239.343 200.685 239.343L193.558 224.496Z" fill="#E48766"/>
<path d="M193.558 247.459C193.558 247.459 217.313 215.786 225.627 222.516C234.139 229.247 200.685 262.305 200.685 262.305L193.558 247.459Z" fill="#E48766"/>
<path d="M213.156 180.352V202.919C214.739 201.138 216.125 199.356 217.709 197.376V177.383C216.125 178.175 214.739 179.164 213.156 180.352Z" fill="#202640"/>
<path d="M213.156 203.315V225.882C214.739 224.1 216.125 222.319 217.709 220.339V200.346C216.125 201.138 214.739 202.127 213.156 203.315Z" fill="#202640"/>
<path d="M213.156 226.278V248.845C214.739 247.063 216.125 245.282 217.709 243.302V223.309C216.125 224.1 214.739 225.09 213.156 226.278Z" fill="#202640"/>
<path d="M188.411 269.828H124.868V330.402H188.411V269.828Z" fill="#E48766"/>
<path d="M207.613 269.828C207.415 272.401 206.623 274.579 205.634 276.558C203.654 280.122 200.883 282.695 197.715 284.675C194.548 286.654 191.183 288.04 188.411 288.832C185.244 289.821 182.869 290.217 182.869 290.217V269.63H207.613V269.828Z" fill="#E48766"/>
<path d="M205.634 271.61V276.757C203.654 280.32 200.883 282.893 197.715 284.873L188.411 284.081L182.869 283.685L140.308 279.924L142.09 271.61H205.634Z" fill="#202640"/>
<path d="M200.685 279.924H151.196C143.08 279.924 136.349 273.391 136.349 265.077V159.765C136.349 151.648 142.882 144.918 151.196 144.918H200.685C208.801 144.918 215.531 151.451 215.531 159.765V265.077C215.531 273.193 208.801 279.924 200.685 279.924Z" fill="#133479"/>
<path d="M151.196 270.026C148.424 270.026 146.247 267.849 146.247 265.077V159.765C146.247 156.993 148.424 154.816 151.196 154.816H200.685C203.456 154.816 205.634 156.993 205.634 159.765V265.077C205.634 267.849 203.456 270.026 200.685 270.026H151.196Z" fill="#83A5FF"/>
<path d="M141.496 284.476C141.496 284.476 171.189 248.053 139.318 232.414C139.318 232.414 157.53 214.202 150.8 206.68C144.465 199.553 107.25 214.994 110.021 243.5C110.417 247.459 111.605 251.22 113.386 254.783C122.888 274.183 141.496 284.476 141.496 284.476Z" fill="#E48766"/>
<path d="M199.497 209.253H152.383V227.069H199.497V209.253Z" fill="#FFC65B"/>
<path d="M155.17 225.629L163.853 212.708C164.278 212.076 165.226 212.131 165.578 212.806C167.515 216.519 170.417 221.884 170.848 221.884C171.269 221.884 174.704 217.159 177.112 213.747C177.587 213.074 178.628 213.224 178.895 214.002C180.225 217.866 182.157 223.186 182.576 223.186C183.07 223.186 189.942 211.573 193.316 205.766" stroke="#F84242"/>
<path d="M160.225 224.754L168.68 215.214C169.113 214.726 169.89 214.776 170.26 215.314C172.133 218.037 174.964 222.009 175.383 222.009C175.793 222.009 179.176 218.478 181.507 215.971C181.998 215.442 182.871 215.587 183.169 216.244C184.455 219.076 186.317 222.964 186.722 222.964C187.199 222.964 193.843 214.449 197.106 210.192" stroke="#FFEBEB" stroke-width="0.5"/>
<path d="M302.038 330.402H236.515L230.972 304.074L236.317 280.121L287.785 269.828L302.038 330.402Z" fill="#E48766"/>
<path d="M287.785 269.828L284.222 289.623L273.928 251.022L271.355 241.718C272.345 241.718 273.136 241.718 273.928 241.916C286.993 244.489 287.785 269.828 287.785 269.828Z" fill="#E48766"/>
<path d="M283.034 272.995L273.928 251.22L271.355 241.916C272.345 241.916 273.136 241.916 273.928 242.114C276.7 244.291 279.669 248.251 281.45 255.575C284.222 264.681 283.034 272.995 283.034 272.995Z" fill="#202640"/>
<path d="M284.222 279.33C284.024 289.623 271.355 292.197 271.355 292.197L254.924 273.985L238.692 234.196C238.692 234.196 243.047 232.612 249.58 232.414C251.559 232.414 253.935 232.414 256.31 232.81C259.082 233.206 262.249 233.998 265.416 235.383C279.471 241.52 284.42 269.234 284.222 279.33Z" fill="#E48766"/>
<path d="M267 268.64L249.58 232.414C251.559 232.414 253.935 232.414 256.31 232.81C259.477 237.561 267.396 250.824 267 268.64Z" fill="#202640"/>
<path d="M267.99 280.319C267.792 291.999 255.122 294.77 255.122 294.77L238.692 274.183L222.46 229.049C222.46 229.049 223.449 228.653 225.429 228.059C227.211 227.663 229.586 227.069 232.555 227.069C237.108 226.871 243.047 227.465 249.184 230.434C263.239 237.363 268.187 268.838 267.99 280.319Z" fill="#E48766"/>
<path d="M249.778 267.65L225.627 228.059C227.409 227.663 229.784 227.069 232.753 227.069C235.921 229.247 239.286 231.424 243.047 235.977C248.194 247.261 249.778 267.65 249.778 267.65Z" fill="#202640"/>
<path d="M245.423 303.084L230.774 304.074C230.774 304.074 205.238 307.835 197.715 280.319C192.569 259.138 198.705 249.636 202.268 249.438C211.572 248.646 212.166 264.681 214.938 271.411C215.531 272.995 217.313 273.985 219.095 273.589C221.074 273.193 222.46 271.213 222.064 269.234L218.303 247.063C218.303 247.063 188.016 224.892 192.766 214.994C197.517 205.096 236.713 231.82 239.286 235.977C241.859 239.936 246.808 255.773 246.808 255.773L254.727 294.968L245.423 303.084Z" fill="#E48766"/>
<path d="M304.413 270.422C307.037 270.422 309.164 268.295 309.164 265.671C309.164 263.047 307.037 260.92 304.413 260.92C301.79 260.92 299.663 263.047 299.663 265.671C299.663 268.295 301.79 270.422 304.413 270.422Z" fill="#5581EA"/>
<path d="M240.474 194.011C243.098 194.011 245.225 191.884 245.225 189.26C245.225 186.636 243.098 184.509 240.474 184.509C237.85 184.509 235.723 186.636 235.723 189.26C235.723 191.884 237.85 194.011 240.474 194.011Z" fill="#5581EA"/>
<path d="M107.448 209.254C110.399 209.254 112.792 206.861 112.792 203.909C112.792 200.957 110.399 198.564 107.448 198.564C104.496 198.564 102.103 200.957 102.103 203.909C102.103 206.861 104.496 209.254 107.448 209.254Z" fill="#5581EA"/>
<path d="M321.834 288.436H338.858" stroke="#5581EA" stroke-width="1.10375" stroke-miterlimit="10"/>
<path d="M272.74 208.66H286.597" stroke="#5581EA" stroke-width="1.10375" stroke-miterlimit="10"/>
<path d="M78.546 274.381H97.1539" stroke="#5581EA" stroke-width="1.10375" stroke-miterlimit="10"/>
<path d="M294.664 166.916C336.67 166.916 370.723 132.863 370.723 90.8567C370.723 48.8503 336.67 14.7974 294.664 14.7974C252.658 14.7974 218.605 48.8503 218.605 90.8567C218.605 132.863 252.658 166.916 294.664 166.916Z" fill="#F9FBFF"/>
<g filter="url(#filter1_dd)">
<path d="M236.951 96.2777L247.492 90.1543L303.405 120.872L292.764 126.995L236.951 96.2777Z" fill="#FFC65B"/>
<path d="M303.405 120.872L303.405 127.396L292.764 133.52L292.764 126.995L303.405 120.872Z" fill="#FF9F2C"/>
<path d="M236.951 102.802L236.951 96.2773L292.764 126.995L292.764 133.52L236.951 102.802Z" fill="#FFB92C"/>
<path d="M242.272 78.0081L252.812 71.8848L322.277 110.03L311.737 116.154L242.272 78.0081Z" fill="#64D0DA"/>
<path d="M322.277 110.03L322.277 116.555L311.737 122.679L311.737 116.154L322.277 110.03Z" fill="#33AFAF"/>
<path d="M242.272 84.5327L242.272 78.0078L311.737 116.153L311.737 122.678L242.272 84.5327Z" fill="#3DC1C1"/>
<path d="M286.641 81.12L297.282 74.9966L341.149 99.1889L330.609 105.312L286.641 81.12Z" fill="#877BEB"/>
<path d="M341.149 99.189L341.149 105.714L330.609 111.837L330.609 105.312L341.149 99.189Z" fill="#5B52AF"/>
<path d="M286.641 87.645L286.641 81.1201L330.609 105.312L330.609 111.837L286.641 87.645Z" fill="#6A6ACC"/>
<path d="M318.764 77.4056L329.304 71.2822L360.122 88.3474L349.481 94.3704L318.764 77.4056Z" fill="#EA4A66"/>
<path d="M360.122 88.3472L360.122 94.8721L349.481 100.895L349.481 94.3702L360.122 88.3472Z" fill="#AF2E56"/>
<path d="M318.764 83.9307L318.764 77.4058L349.481 94.3705L349.481 100.895L318.764 83.9307Z" fill="#D14261"/>
<path d="M240.465 66.8656L240.465 56.9277L238.256 58.1323L244.079 46.9897L250.804 50.9047L247.692 52.7116L247.692 62.7499L240.465 66.8656Z" fill="#64D0DA"/>
<path d="M282.626 75.7997L282.626 65.8618L280.417 67.0664L286.24 55.9238L292.965 59.8388L289.853 61.6457L289.853 71.684L282.626 75.7997Z" fill="#877BEB"/>
<path d="M316.355 72.5873L316.355 62.549L314.246 63.7536L319.968 52.7114L326.694 56.526L323.582 58.3329L323.582 68.3712L316.355 72.5873Z" fill="#EA4A66"/>
<path d="M231.129 90.1542L231.129 80.1159L229.021 81.4209L234.743 70.2783L241.469 74.1933L238.357 76.0001L238.357 85.9381L231.129 90.1542Z" fill="#FFC65B"/>
<path d="M291.761 121.474L292.363 122.277L290.054 123.582L286.842 118.262L289.05 116.957L298.286 118.764L296.077 120.069L294.672 119.768L291.761 121.474ZM290.958 120.37L292.664 119.366L289.753 118.664L290.958 120.37Z" fill="white"/>
<path d="M309.328 112.139L303.104 108.525L306.818 106.417C308.525 105.413 310.331 105.212 311.436 105.814C312.239 106.316 312.239 106.919 311.536 107.521C312.44 107.22 313.443 107.22 314.046 107.621C315.049 108.224 314.548 109.127 312.841 110.131L309.328 112.139ZM310.131 110.131L311.436 109.428C311.837 109.227 311.938 108.926 311.636 108.725C311.335 108.525 310.833 108.525 310.432 108.826L309.127 109.529L310.131 110.131ZM307.722 108.826L309.026 108.123C309.528 107.822 309.729 107.521 309.328 107.32C308.926 107.119 308.424 107.22 307.822 107.521L306.517 108.224L307.722 108.826Z" fill="white"/>
<path d="M331.713 98.9885C329.505 100.294 326.493 100.494 324.686 99.3901C322.879 98.2858 323.08 96.5793 325.289 95.3747C326.393 94.7724 327.999 94.3709 329.505 94.2705L329.404 95.6759C328.501 95.6759 327.497 95.977 326.995 96.2782C325.991 96.8805 325.991 97.6835 326.895 98.1855C327.798 98.6874 329.204 98.6874 330.207 98.0851C330.81 97.7839 331.111 97.1816 331.111 96.5793L333.62 96.5793C333.52 97.4828 332.817 98.3862 331.713 98.9885Z" fill="white"/>
<path d="M346.67 90.3554L340.446 86.7416L343.558 84.9347C345.968 83.5293 348.778 83.4289 350.585 84.4328C352.492 85.537 352.191 87.1431 349.782 88.4481L346.67 90.3554ZM347.373 88.2473L348.377 87.645C349.381 87.0427 349.481 86.2396 348.477 85.6374C347.473 85.0351 346.168 85.0351 345.164 85.6374L344.06 86.2397L347.373 88.2473Z" fill="white"/>
<path d="M229.024 55.1095L369.037 54.3404" stroke="#E4E4E4" stroke-opacity="0.2" stroke-width="0.405755" stroke-linecap="square"/>
<path d="M210.786 160.798L241.469 123.582" stroke="#5581EA" stroke-width="1.10375" stroke-miterlimit="10"/>
</g>
<path d="M338.166 329.428H313.817H76.2702H51.9217" stroke="#5581EA" stroke-width="1.10375" stroke-miterlimit="10"/>
<path d="M33.0014 138.425C32.6328 138.425 32.3871 138.18 32.3871 137.811V89.5274C32.3871 89.1588 32.6328 88.9131 33.0014 88.9131C33.37 88.9131 33.6157 89.1588 33.6157 89.5274V137.934C33.4928 138.18 33.2471 138.425 33.0014 138.425Z" fill="#83A5FF"/>
<path d="M110.526 138.425H25.8756C25.507 138.425 25.2613 138.18 25.2613 137.811C25.2613 137.442 25.507 137.197 25.8756 137.197H110.526C110.894 137.197 111.14 137.442 111.14 137.811C111.14 138.18 110.894 138.425 110.526 138.425Z" fill="#83A5FF"/>
<path d="M47.6216 98.7417H37.1786V132.651H47.6216V98.7417Z" fill="#FFB92C"/>
<path d="M62.3648 122.331H51.9217V132.774H62.3648V122.331Z" fill="#64D0DA"/>
<path d="M77.1079 90.7559H66.6648V132.774H77.1079V90.7559Z" fill="#6A6ACC"/>
<path d="M91.9738 107.465H81.5308V132.651H91.9738V107.465Z" fill="#D64462"/>
<path d="M106.717 117.293H96.2739V132.774H106.717V117.293Z" fill="#FFC65B"/>
<defs>
<filter id="filter0_i" x="0" y="18.8853" width="381.887" height="359.82" filterUnits="userSpaceOnUse" color-interpolation-filters="sRGB">
<feFlood flood-opacity="0" result="BackgroundImageFix"/>
<feBlend mode="normal" in="SourceGraphic" in2="BackgroundImageFix" result="shape"/>
<feColorMatrix in="SourceAlpha" type="matrix" values="0 0 0 0 0 0 0 0 0 0 0 0 0 0 0 0 0 0 127 0" result="hardAlpha"/>
<feOffset dx="8.82997" dy="8.82997"/>
<feGaussianBlur stdDeviation="2.94332"/>
<feComposite in2="hardAlpha" operator="arithmetic" k2="-1" k3="1"/>
<feColorMatrix type="matrix" values="0 0 0 0 0.849479 0 0 0 0 0.910156 0 0 0 0 0.970833 0 0 0 0.52 0"/>
<feBlend mode="normal" in2="shape" result="effect1_innerShadow"/>
</filter>
<filter id="filter1_dd" x="161.669" y="0.443762" width="265.15" height="217.511" filterUnits="userSpaceOnUse" color-interpolation-filters="sRGB">
<feFlood flood-opacity="0" result="BackgroundImageFix"/>
<feColorMatrix in="SourceAlpha" type="matrix" values="0 0 0 0 0 0 0 0 0 0 0 0 0 0 0 0 0 0 127 0"/>
<feOffset dx="-8.1151" dy="16.2302"/>
<feGaussianBlur stdDeviation="20.2878"/>
<feColorMatrix type="matrix" values="0 0 0 0 0.345 0 0 0 0 0.360333 0 0 0 0 0.383333 0 0 0 0.04 0"/>
<feBlend mode="normal" in2="BackgroundImageFix" result="effect1_dropShadow"/>
<feColorMatrix in="SourceAlpha" type="matrix" values="0 0 0 0 0 0 0 0 0 0 0 0 0 0 0 0 0 0 127 0"/>
<feOffset dx="-6.08633" dy="16.2302"/>
<feGaussianBlur stdDeviation="20.2878"/>
<feColorMatrix type="matrix" values="0 0 0 0 0.26 0 0 0 0 0 0 0 0 0 1 0 0 0 0.08 0"/>
<feBlend mode="normal" in2="effect1_dropShadow" result="effect2_dropShadow"/>
<feBlend mode="normal" in="SourceGraphic" in2="effect2_dropShadow" result="shape"/>
</filter>
</defs>
</svg>
