<svg width="429" height="645" viewBox="0 0 429 645" fill="none" xmlns="http://www.w3.org/2000/svg">
<g filter="url(#filter0_i)">
<rect x="32.2252" y="63.6411" width="376" height="353.933" rx="44.1498" fill="#EFF7FF"/>
</g>
<path d="M198.082 637.17L190.304 637.857C189.847 637.914 189.504 638.314 189.504 638.771C189.561 639.229 189.904 639.572 190.361 639.572H190.419L198.196 638.886C198.653 638.829 198.997 638.428 198.997 637.971C198.939 637.456 198.539 637.113 198.082 637.17Z" fill="#FFCB0E"/>
<path d="M85.0189 641.35L85.6694 636.879L81.1987 636.228L80.5482 640.699L85.0189 641.35Z" fill="#FF6699"/>
<path d="M48.8258 641.517C46.5955 641.517 46.5955 644.948 48.8258 644.948C51.056 644.948 51.056 641.517 48.8258 641.517Z" fill="#E6E6E6"/>
<path d="M217.525 627.277C215.295 627.277 215.295 630.709 217.525 630.709C219.698 630.709 219.698 627.277 217.525 627.277Z" fill="#E6E6E6"/>
<path opacity="0.8" d="M108.67 155.546C151.623 155.546 186.443 120.726 186.443 77.7731C186.443 34.8202 151.623 0 108.67 0C65.7168 0 30.8965 34.8202 30.8965 77.7731C30.8965 120.726 65.7168 155.546 108.67 155.546Z" fill="#D6EAFF"/>
<path d="M205.829 86.8658L194.449 84.3496V87.838L205.829 86.8658Z" fill="#7229B2"/>
<path d="M0 110.198L71.8829 121.12V80.8611L0 60.5601V110.198Z" fill="#16BFB2"/>
<path d="M71.8829 121.12L0 128.211L27.6781 114.372L71.8829 121.12Z" fill="#23E2D8"/>
<path d="M194.449 44.5475L122.566 33.625V73.884L194.449 94.1851V44.5475Z" fill="#16BFB2"/>
<path d="M0 110.277L206 94.1793V44.2769L0 60.3744V110.277Z" fill="#23E2D8"/>
<path d="M122.566 33.6253L194.449 26.5342L166.771 40.316L122.566 33.6253Z" fill="#23E2D8"/>
<path d="M5 107.277V56.481L5.50498 56.4235L208 40.2769V91.0727L207.495 91.1302L5 107.277ZM6.00995 57.3429V106.243L206.927 90.2683V41.3686L6.00995 57.3429Z" fill="black"/>
<path d="M196.79 85.857L199.58 83.0669L196.79 80.2768L194 83.0669L196.79 85.857Z" fill="black"/>
<path d="M26.4932 66.2217C24.892 66.2217 24.892 68.7379 26.4932 68.7379C28.0944 68.7379 28.0944 66.2217 26.4932 66.2217Z" fill="black"/>
<path d="M85.4521 35.3982L83.6793 13.21L90.4273 14.8684L85.4521 35.3982Z" fill="#993ADC"/>
<path d="M90.4845 36.5989L100.378 19.2715L107.24 25.6191L90.4845 36.5989Z" fill="#FFCB0E"/>
<path d="M80.4197 35.1125L73.3858 14.4111L66.8094 17.1561L80.4197 35.1125Z" fill="#FFCB0E"/>
<path d="M62.5612 33.9199L65.7956 31.6597L63.5355 28.4253L60.3011 30.6855L62.5612 33.9199Z" fill="#993ADC"/>
<path d="M113.606 30.4572L117.381 29.3081L116.232 25.5331L112.457 26.6822L113.606 30.4572Z" fill="#993ADC"/>
<path d="M100.492 37.4C98.948 36.8853 98.2046 39.2871 99.7486 39.8018C101.235 40.3165 102.036 37.9146 100.492 37.4Z" fill="black"/>
<path d="M58.689 10.3507C57.145 9.83598 56.4016 12.2378 57.9456 12.7525C59.4324 13.21 60.233 10.8081 58.689 10.3507Z" fill="black"/>
<path d="M120.857 119.943L124.769 119.424L124.249 115.512L120.338 116.032L120.857 119.943Z" fill="#993ADC"/>
<path d="M87.7707 128.462L88.6755 124.621L84.8346 123.716L83.9298 127.557L87.7707 128.462Z" fill="#993ADC"/>
<path d="M93.3438 109.626L115.017 114.544L111.472 120.491L93.3438 109.626Z" fill="#993ADC"/>
<path d="M90.656 114.086L104.209 128.668L96.1459 133.3L90.656 114.086Z" fill="#FFCB0E"/>
<path d="M115.017 105.223C113.416 105.223 113.416 107.739 115.017 107.739C116.619 107.739 116.619 105.223 115.017 105.223Z" fill="black"/>
<path d="M100.664 138.104C99.0624 138.104 99.0624 140.621 100.664 140.621C102.265 140.621 102.265 138.104 100.664 138.104Z" fill="black"/>
<path d="M31.3149 91.3727C28.5254 91.6149 26.4582 91.0694 25.1133 89.7361C23.7849 88.3848 23.1208 86.1675 23.1208 83.0841C23.1208 77.1508 25.8937 73.9434 31.4395 73.4619C32.2697 73.3898 33.1165 73.408 33.9799 73.5163C34.8433 73.608 35.5158 73.7746 35.9973 74.0162C36.429 74.2287 36.6449 74.4766 36.6449 74.7599C36.6449 74.9933 36.5536 75.3095 36.3709 75.7087C36.1883 76.0913 35.9641 76.4441 35.6985 76.7671C35.4494 77.0721 35.2252 77.2332 35.026 77.2505C34.9762 77.2548 34.7769 77.1971 34.4282 77.0774C34.0795 76.9577 33.6561 76.8611 33.158 76.7877C32.6599 76.7143 32.0621 76.7078 31.3648 76.7684C29.9036 76.8952 28.816 77.4563 28.102 78.4517C27.4047 79.4455 27.056 80.8841 27.056 82.7675C27.056 86.5675 28.4756 88.3442 31.3149 88.0977C32.0621 88.0328 32.7097 87.9016 33.2576 87.704C33.8056 87.5065 34.3369 87.2687 34.8516 86.9906C35.1173 86.8342 35.3 86.7517 35.3996 86.7431C35.6486 86.7214 35.8811 86.8429 36.097 87.1075C36.3294 87.3707 36.5121 87.6798 36.6449 88.0349C36.7943 88.372 36.869 88.6238 36.869 88.7905C36.869 89.2238 36.5785 89.6324 35.9973 90.0162C35.4494 90.3804 34.7271 90.6848 33.8305 90.9293C32.9339 91.1571 32.0953 91.3049 31.3149 91.3727ZM46.0497 90.0934C43.4761 90.3168 41.5002 89.7217 40.122 88.3081C38.7439 86.8777 38.0548 84.7209 38.0548 81.8375C38.0548 78.9542 38.7439 76.686 40.122 75.0331C41.5002 73.3634 43.4761 72.4168 46.0497 72.1934C48.6234 71.97 50.591 72.5741 51.9525 74.0059C53.3307 75.4196 54.0198 77.5681 54.0198 80.4514C54.0198 83.3348 53.3307 85.6113 51.9525 87.2809C50.591 88.9325 48.6234 89.87 46.0497 90.0934ZM46.0497 86.8184C47.3781 86.7031 48.3826 86.1325 49.0634 85.1067C49.7442 84.081 50.0846 82.6431 50.0846 80.7931C50.0846 78.9431 49.7442 77.5726 49.0634 76.6817C48.3826 75.7742 47.3781 75.3781 46.0497 75.4934C44.7214 75.6087 43.7086 76.18 43.0112 77.2072C42.3304 78.2163 41.99 79.6459 41.99 81.4959C41.99 83.3459 42.3304 84.7247 43.0112 85.6322C43.7086 86.5383 44.7214 86.9337 46.0497 86.8184ZM65.2885 84.0481C64.8568 84.0855 64.5247 83.956 64.2923 83.6596L61.2288 78.4255C61.0129 78.0776 60.8303 77.7685 60.6808 77.4981L60.5812 77.5318V78.7568V87.8818C60.5812 88.4151 60.0831 88.725 59.0868 88.8115L58.3646 88.8742C57.3683 88.9607 56.8702 88.7373 56.8702 88.204V72.204C56.8702 71.6706 57.3683 71.3607 58.3646 71.2742L59.6846 71.1596C60.4816 71.0904 61.0046 71.27 61.2537 71.6984L65.3881 78.7394L65.6372 79.1428L65.8613 78.6983L70.0705 70.9329C70.3196 70.4612 70.8426 70.1908 71.6396 70.1216L72.9347 70.0092C73.931 69.9227 74.4291 70.1461 74.4291 70.6795V86.6795C74.4291 87.2128 73.931 87.5227 72.9347 87.6092L72.2125 87.6719C71.2162 87.7584 70.7181 87.535 70.7181 87.0017V77.8767V76.6516L70.6185 76.6353C70.469 76.9316 70.2864 77.2725 70.0705 77.6579L67.007 83.4238C66.7746 83.7607 66.4425 83.9479 66.0108 83.9853L65.2885 84.0481ZM79.2304 87.0876C78.2341 87.1741 77.736 86.9423 77.736 86.3923V70.3923C77.736 69.8423 78.2341 69.5241 79.2304 69.4376L80.1021 69.3619C81.0984 69.2754 81.5965 69.5072 81.5965 70.0572V86.0572C81.5965 86.6072 81.0984 86.9254 80.1021 87.0119L79.2304 87.0876ZM86.4085 86.4394C85.4122 86.5259 84.9141 86.3025 84.9141 85.7691V69.7691C84.9141 69.2358 85.4122 68.9259 86.4085 68.8394L87.4794 68.7464C87.8779 68.7118 88.21 68.733 88.4757 68.8099C88.7414 68.8702 88.9572 69.0264 89.1233 69.2787L94.7272 77.4671C95.0593 77.9216 95.3581 78.3874 95.6238 78.8643L95.7234 78.8306C95.6902 78.4502 95.6736 77.885 95.6736 77.135V68.835C95.6736 68.3016 96.1717 67.9917 97.168 67.9052L97.8903 67.8425C98.8865 67.756 99.3847 67.9794 99.3847 68.5128V84.5128C99.3847 85.0461 98.8865 85.356 97.8903 85.4425L96.9438 85.5247C96.5453 85.5593 96.2132 85.5464 95.9476 85.4862C95.6819 85.4092 95.4661 85.2447 95.3 84.9924L89.5716 76.6898C89.2395 76.2353 88.9406 75.7695 88.6749 75.2926L88.5753 75.3263C88.6085 75.7067 88.6251 76.2719 88.6251 77.0219V85.4469C88.6251 85.9803 88.127 86.2902 87.1307 86.3767L86.4085 86.4394ZM115.219 74.163C115.568 74.1327 115.817 74.1944 115.966 74.3481C116.132 74.4837 116.215 74.7265 116.215 75.0765V82.0265C116.215 82.7765 115.592 83.3472 114.347 83.7387C113.102 84.1302 111.79 84.3857 110.412 84.5054C107.622 84.7475 105.555 84.202 104.21 82.8688C102.882 81.5175 102.218 79.3001 102.218 76.2168C102.218 70.2835 104.991 67.076 110.536 66.5945C111.3 66.5282 112.097 66.534 112.927 66.612C113.758 66.6899 114.455 66.8377 115.02 67.0553C115.584 67.273 115.866 67.5485 115.866 67.8818C115.866 68.1151 115.775 68.4314 115.592 68.8306C115.41 69.2131 115.186 69.5659 114.92 69.889C114.671 70.1939 114.447 70.355 114.247 70.3723C114.198 70.3767 113.99 70.3197 113.625 70.2014C113.26 70.0831 112.811 69.9887 112.28 69.9182C111.765 69.8462 111.159 69.8405 110.462 69.901C109.001 70.0279 107.913 70.589 107.199 71.5843C106.502 72.5782 106.153 74.0168 106.153 75.9001C106.153 79.7001 107.573 81.4769 110.412 81.2304C111.076 81.1727 111.724 81.0581 112.355 80.8867V77.7117L110.163 77.902C109.897 77.925 109.706 77.8416 109.59 77.6517C109.474 77.4618 109.416 77.1502 109.416 76.7169V75.9169C109.416 75.4835 109.474 75.1618 109.59 74.9517C109.706 74.7416 109.897 74.625 110.163 74.602L115.219 74.163ZM130.215 82.786C129.036 82.8884 128.007 82.8611 127.127 82.7041C126.247 82.5472 125.558 82.307 125.06 81.9836C124.595 81.7073 124.362 81.4108 124.362 81.0942C124.362 80.8442 124.453 80.5362 124.636 80.1704C124.819 79.8045 125.035 79.4775 125.284 79.1892C125.533 78.9009 125.74 78.7495 125.906 78.7351C126.006 78.7265 126.238 78.8063 126.604 78.9746C127.135 79.1951 127.617 79.3616 128.048 79.4741C128.48 79.5867 128.986 79.6177 129.568 79.5672C130.215 79.511 130.763 79.3384 131.211 79.0495C131.676 78.7425 131.909 78.264 131.909 77.614C131.909 77.0806 131.693 76.6827 131.261 76.4202C130.846 76.1396 130.165 75.8487 129.219 75.5475L128.073 75.147C127.027 74.7378 126.205 74.1925 125.607 73.5111C125.01 72.8129 124.711 71.7806 124.711 70.4139C124.711 69.2806 124.985 68.3151 125.533 67.5175C126.097 66.7019 126.828 66.0801 127.725 65.6522C128.621 65.2077 129.584 64.9408 130.614 64.8514C131.46 64.7779 132.224 64.8032 132.905 64.9275C133.602 65.0336 134.15 65.211 134.549 65.4597C134.914 65.6947 135.097 65.9455 135.097 66.2122C135.097 66.4455 135.022 66.7437 134.873 67.1066C134.723 67.4696 134.541 67.7938 134.325 68.0792C134.109 68.3479 133.91 68.4902 133.727 68.5061C133.644 68.5133 133.503 68.4839 133.304 68.4179C133.121 68.3504 132.963 68.2974 132.83 68.259C132.233 68.1108 131.61 68.0649 130.962 68.1211C130.099 68.1961 129.493 68.3904 129.144 68.704C128.812 69.0162 128.646 69.3556 128.646 69.7222C128.646 70.1556 128.762 70.5038 128.995 70.767C129.227 71.0301 129.509 71.2389 129.842 71.3934C130.174 71.5313 130.663 71.7137 131.311 71.9409C132.257 72.2587 133.03 72.575 133.627 72.8898C134.225 73.1879 134.74 73.6598 135.172 74.3057C135.62 74.9334 135.844 75.7723 135.844 76.8223C135.844 78.1056 135.57 79.1794 135.022 80.0437C134.491 80.9065 133.802 81.558 132.955 81.9981C132.108 82.4383 131.195 82.701 130.215 82.786ZM145.383 81.4691C142.809 81.6925 140.834 81.0974 139.455 79.6838C138.077 78.2534 137.388 76.0966 137.388 73.2132C137.388 70.3299 138.077 68.0617 139.455 66.4088C140.834 64.7391 142.809 63.7925 145.383 63.5691C147.957 63.3456 149.924 63.9498 151.286 65.3816C152.664 66.7953 153.353 68.9438 153.353 71.8271C153.353 74.7105 152.664 76.987 151.286 78.6566C149.924 80.3082 147.957 81.2456 145.383 81.4691ZM145.383 78.1941C146.711 78.0788 147.716 77.5082 148.397 76.4824C149.078 75.4567 149.418 74.0188 149.418 72.1688C149.418 70.3188 149.078 68.9483 148.397 68.0574C147.716 67.1499 146.711 66.7538 145.383 66.8691C144.055 66.9844 143.042 67.5557 142.345 68.5829C141.664 69.592 141.323 71.0216 141.323 72.8716C141.323 74.7216 141.664 76.1003 142.345 77.0079C143.042 77.914 144.055 78.3094 145.383 78.1941ZM163.601 79.8874C161.027 80.1109 159.051 79.5157 157.673 78.1021C156.295 76.6717 155.606 74.5149 155.606 71.6315C155.606 68.7482 156.295 66.4801 157.673 64.8271C159.051 63.1574 161.027 62.2109 163.601 61.9874C166.174 61.764 168.142 62.3681 169.503 63.7999C170.882 65.2136 171.571 67.3621 171.571 70.2454C171.571 73.1288 170.882 75.4053 169.503 77.0749C168.142 78.7265 166.174 79.664 163.601 79.8874ZM163.601 76.6124C164.929 76.4971 165.934 75.9265 166.614 74.9008C167.295 73.875 167.636 72.4371 167.636 70.5871C167.636 68.7371 167.295 67.3667 166.614 66.4758C165.934 65.5682 164.929 65.1721 163.601 65.2874C162.272 65.4027 161.26 65.974 160.562 67.0012C159.881 68.0103 159.541 69.4399 159.541 71.2899C159.541 73.1399 159.881 74.5187 160.562 75.4262C161.26 76.3323 162.272 76.7277 163.601 76.6124ZM175.915 78.6682C174.919 78.7547 174.421 78.5313 174.421 77.998V61.998C174.421 61.4646 174.919 61.1547 175.915 61.0682L176.986 60.9752C177.385 60.9406 177.717 60.9618 177.983 61.0387C178.248 61.099 178.464 61.2553 178.63 61.5075L184.234 69.696C184.566 70.1505 184.865 70.6162 185.131 71.0931L185.23 71.0595C185.197 70.679 185.181 70.1138 185.181 69.3638V61.0638C185.181 60.5305 185.679 60.2206 186.675 60.1341L187.397 60.0713C188.394 59.9848 188.892 60.2083 188.892 60.7416V76.7416C188.892 77.2749 188.394 77.5848 187.397 77.6713L186.451 77.7535C186.052 77.7881 185.72 77.7753 185.455 77.715C185.189 77.6381 184.973 77.4735 184.807 77.2212L179.079 68.9186C178.747 68.4641 178.448 67.9984 178.182 67.5214L178.082 67.5551C178.116 67.9355 178.132 68.5008 178.132 69.2508V77.6758C178.132 78.2091 177.634 78.519 176.638 78.6055L175.915 78.6682Z" fill="white"/>
<path d="M237.281 71.7684L229.504 72.4547C229.046 72.5118 228.703 72.9121 228.703 73.3696C228.761 73.8271 229.104 74.1702 229.561 74.1702H229.618L237.396 73.484C237.853 73.4268 238.196 73.0265 238.196 72.569C238.139 72.0543 237.739 71.7112 237.281 71.7684Z" fill="#FFCB0E"/>
<path d="M227.102 45.4628L214.75 39.2867L218.867 34.3115L227.102 45.4628Z" fill="#FF6699"/>
<path d="M41.762 25.3334L32.7837 13.2671L29.0667 16.4123L41.762 25.3334Z" fill="#23E2D8"/>
<path d="M224.343 124.328L227.809 121.431L224.911 117.965L221.445 120.862L224.343 124.328Z" fill="#23E2D8"/>
<path d="M16.0282 2.11621C13.7979 2.11621 13.7979 5.54738 16.0282 5.54738C18.2584 5.54738 18.2584 2.11621 16.0282 2.11621Z" fill="#E6E6E6"/>
<path d="M39.932 141.707C37.7017 141.707 37.7017 145.138 39.932 145.138C42.1622 145.138 42.1622 141.707 39.932 141.707Z" fill="#E6E6E6"/>
<path d="M215.093 69.9961C212.863 69.9961 212.863 73.4273 215.093 73.4273C217.266 73.4273 217.266 69.9961 215.093 69.9961Z" fill="#E6E6E6"/>
<path d="M240.255 30.5371C238.025 30.5371 238.025 33.9683 240.255 33.9683C242.485 33.9683 242.485 30.5371 240.255 30.5371Z" fill="#E6E6E6"/>
<path d="M180.21 3.43115C177.979 3.43115 177.979 6.86232 180.21 6.86232C182.383 6.86232 182.383 3.43115 180.21 3.43115Z" fill="#E6E6E6"/>
<path d="M186.864 53.1424C186.407 53.1424 186.063 52.7993 186.006 52.3418C185.949 51.8843 186.292 51.4268 186.807 51.4268L200.131 50.2831C200.589 50.2259 201.046 50.569 201.046 51.0837C201.103 51.5412 200.76 51.9987 200.246 51.9987L186.921 53.1424C186.921 53.1424 186.921 53.1424 186.864 53.1424Z" fill="#993ADC"/>
<path d="M6.07775 98.4749C5.62026 98.4749 5.27714 98.1318 5.21996 97.6743C5.16277 97.2168 5.50589 96.7593 6.02056 96.7593L19.3449 95.6156C19.8024 95.5584 20.2599 95.9015 20.2599 96.4162C20.3171 96.8737 19.974 97.3312 19.4593 97.3312L6.13494 98.4749C6.13494 98.4749 6.13494 98.4749 6.07775 98.4749Z" fill="#993ADC"/>
<path d="M132.479 408.862L66.9614 371.06L109.519 346.46L175.037 384.262L132.479 408.862Z" fill="#E6E6E6"/>
<path d="M330.099 356.71L294.511 377.292C294.101 377.538 294.101 377.948 294.511 378.194L331.739 399.596C332.149 399.842 332.887 399.842 333.297 399.596L368.885 379.014C369.295 378.768 369.295 378.358 368.885 378.112L331.657 356.71C331.247 356.464 330.509 356.464 330.099 356.71Z" fill="#E6E6E6"/>
<path d="M247.607 368.19C251.543 366.96 254.577 364.254 256.873 360.482C257.775 359.006 259.087 357.038 260.891 356.546C262.531 356.136 264.253 356.956 265.893 357.038C267.369 357.12 268.845 357.448 270.321 357.612C274.175 357.858 277.947 358.596 281.801 359.252C285.655 359.908 289.837 360.81 292.133 363.844C292.871 364.828 293.363 365.894 294.019 366.878C294.757 367.862 295.741 368.682 296.971 368.682C298.201 368.682 299.267 367.944 300.251 367.124C301.727 365.976 303.121 364.828 304.187 363.27C305.253 361.712 305.745 359.744 305.171 358.022C304.433 355.89 302.219 354.66 300.169 353.676C295.413 351.298 290.493 349.166 285.573 347.034C281.801 345.394 279.177 342.606 275.405 340.884C271.223 338.916 266.713 337.686 262.121 336.702C252.363 334.652 242.195 333.75 232.519 331.29C222.269 328.666 212.265 325.796 201.851 324.074C191.109 322.27 180.695 318.908 170.609 314.89C170.199 314.726 169.789 314.562 169.379 314.398C153.881 308.166 138.875 298.08 122.475 294.554C113.127 292.586 103.287 292.504 93.9394 294.472C91.8894 294.882 89.5114 295.702 88.6914 297.67C87.6254 300.376 90.1674 303 92.0534 305.214C94.5134 308.084 97.5474 312.676 97.8754 316.53C98.2034 321.122 96.2354 325.632 99.6794 329.568C106.649 337.604 117.965 343.344 127.641 347.444C140.597 353.02 149.945 356.136 163.229 360.728C169.953 363.024 179.383 364.828 185.615 368.272C190.289 370.896 194.963 374.586 200.129 376.062C205.377 377.62 210.953 378.112 216.447 377.702C219.727 377.456 222.433 376.39 225.385 374.996C227.845 373.766 229.485 372.208 231.535 370.404C234.487 367.862 239.735 369.01 243.425 368.846C244.901 368.764 246.295 368.518 247.607 368.19Z" fill="#E6E6E6"/>
<path d="M132.479 405.827L70.8154 370.239L110.175 347.443L171.921 383.031L132.479 405.827Z" fill="#BA68C8"/>
<path opacity="0.15" d="M132.479 405.827L70.8154 370.239L110.175 347.443L171.921 383.031L132.479 405.827Z" fill="black"/>
<path d="M102.467 387.542V386.476C102.467 385.082 100.007 381.228 97.0554 379.506L72.5374 365.32V370.24L102.467 387.542Z" fill="#F5F5F5"/>
<path d="M72.5374 365.32L97.0554 379.506C100.089 381.228 102.549 385.164 102.467 386.476V387.542L140.187 365.73V364.664C140.187 363.27 137.727 359.416 134.775 357.694L110.257 343.59L72.5374 365.32Z" fill="#FAFAFA"/>
<path d="M72.5374 365.32L97.0554 379.506C100.089 381.228 102.549 385.164 102.467 386.476V387.542L140.187 365.73V364.664C140.187 363.27 137.727 359.416 134.775 357.694L110.257 343.508L72.5374 365.32Z" fill="#FAFAFA"/>
<path d="M102.467 386.558L104.845 385.164L107.961 383.36C106.239 383.196 105.009 383.442 104.189 383.934C102.959 384.59 102.549 385.656 102.467 386.558Z" fill="#F0F0F0"/>
<path d="M102.467 386.558L104.845 385.164L107.961 383.36C106.239 383.196 105.009 383.442 104.189 383.934C102.959 384.59 102.549 385.656 102.467 386.558Z" fill="#E0E0E0"/>
<path d="M132.479 406.894V405.828L171.921 383.032V384.098L132.479 406.894Z" fill="#BA68C8"/>
<path opacity="0.3" d="M132.479 406.894V405.828L171.921 383.032V384.098L132.479 406.894Z" fill="black"/>
<path d="M132.479 406.894L70.8154 371.224V370.24L132.479 405.828V406.894Z" fill="#BA68C8"/>
<path d="M102.467 386.558C102.467 385.164 104.927 384.098 107.961 385.82L132.479 399.842V404.926L102.467 387.624C102.467 387.542 102.467 387.87 102.467 386.558Z" fill="#F5F5F5"/>
<path d="M132.479 404.926V399.842L170.199 378.03V383.114L132.479 404.926Z" fill="#EBEBEB"/>
<path d="M107.961 385.738L109.027 386.394L132.397 399.842L165.689 380.572L170.117 378.03L145.599 364.008C143.385 362.696 142.155 362.86 141.253 363.352L103.041 385.41C104.517 384.59 106.157 384.754 107.961 385.738Z" fill="#FAFAFA"/>
<path d="M134.201 395.987L113.373 383.933L112.225 383.277L111.487 383.769L112.553 384.425L133.381 396.479L134.201 395.987Z" fill="#E0E0E0"/>
<path d="M136.169 394.839L115.259 382.867L114.193 382.211L113.373 382.621L114.439 383.277L135.349 395.331L136.169 394.839Z" fill="#E0E0E0"/>
<path d="M138.055 393.773L117.227 381.719L116.079 381.063L115.341 381.555L116.407 382.211L137.235 394.183L138.055 393.773Z" fill="#E0E0E0"/>
<path d="M140.023 392.625L119.113 380.571L118.047 379.997L117.227 380.407L118.293 381.063L139.203 393.117L140.023 392.625Z" fill="#E0E0E0"/>
<path d="M141.909 391.56L121.081 379.506L119.933 378.85L119.195 379.342L120.261 379.916L141.089 391.97L141.909 391.56Z" fill="#E0E0E0"/>
<path d="M143.877 390.411L122.967 378.357L121.901 377.783L121.081 378.193L122.147 378.849L143.057 390.903L143.877 390.411Z" fill="#E0E0E0"/>
<path d="M145.763 389.346L124.935 377.292L123.787 376.636L123.049 377.128L124.115 377.702L144.943 389.756L145.763 389.346Z" fill="#E0E0E0"/>
<path d="M147.731 388.197L126.821 376.143L125.755 375.487L124.935 375.979L126.001 376.635L146.911 388.689L147.731 388.197Z" fill="#E0E0E0"/>
<path d="M149.617 387.05L128.789 375.078L127.641 374.422L126.903 374.914L127.969 375.488L148.797 387.542L149.617 387.05Z" fill="#E0E0E0"/>
<path d="M151.585 385.983L130.675 373.929L129.609 373.273L128.789 373.765L129.855 374.421L150.765 386.393L151.585 385.983Z" fill="#E0E0E0"/>
<path d="M153.471 384.835L132.643 372.781L131.495 372.207L130.757 372.617L131.823 373.273L152.651 385.327L153.471 384.835Z" fill="#E0E0E0"/>
<path d="M155.439 383.77L134.529 371.716L133.463 371.06L132.643 371.552L133.709 372.126L154.619 384.18L155.439 383.77Z" fill="#E0E0E0"/>
<path d="M157.325 382.621L136.497 370.567L135.349 369.993L134.611 370.403L135.677 371.059L156.505 383.113L157.325 382.621Z" fill="#E0E0E0"/>
<path d="M159.293 381.556L138.383 369.502L137.317 368.846L136.497 369.338L137.563 369.912L158.473 381.966L159.293 381.556Z" fill="#E0E0E0"/>
<path d="M161.179 380.407L140.351 368.353L139.203 367.697L138.465 368.189L139.531 368.845L160.359 380.899L161.179 380.407Z" fill="#E0E0E0"/>
<path d="M163.147 379.26L142.237 367.288L141.171 366.632L140.351 367.124L141.417 367.698L162.327 379.752L163.147 379.26Z" fill="#E0E0E0"/>
<path d="M165.033 378.193L144.205 366.139L143.057 365.483L142.319 365.975L143.385 366.631L164.213 378.603L165.033 378.193Z" fill="#E0E0E0"/>
<path opacity="0.1" d="M107.797 384.425C108.289 384.507 109.191 384.753 109.765 384.917C111.979 385.409 115.915 387.213 119.687 389.099C124.689 391.641 129.445 394.265 129.445 394.265L163.967 374.339L145.763 363.925C144.861 363.433 144.123 363.105 143.549 363.023C142.893 363.105 142.401 363.351 141.991 363.597L141.745 363.187C141.663 363.187 141.581 363.269 141.499 363.351L103.287 385.409C105.255 384.179 106.321 384.343 107.797 384.425Z" fill="black"/>
<path d="M132.561 400.907L128.789 399.021L132.479 401.317L136.251 399.103L132.561 400.907Z" fill="#E6E6E6"/>
<path d="M132.479 403.449L125.673 399.513L132.479 403.204L140.187 399.021L132.479 403.449Z" fill="#E6E6E6"/>
<path d="M170.199 379.178L164.459 382.622L170.199 379.67V379.178Z" fill="#E6E6E6"/>
<path d="M170.199 381.146L161.671 386.393L170.199 381.637V381.146Z" fill="#E6E6E6"/>
<path d="M107.879 383.36C108.371 383.442 108.863 383.524 109.355 383.606C111.569 384.098 115.505 385.902 119.277 387.788C124.279 390.33 129.035 392.954 129.035 392.954L166.755 371.224C166.755 371.224 152.405 362.942 146.747 361.876C144.123 361.384 142.483 361.712 141.499 362.286L104.025 383.934C104.927 383.442 106.157 383.196 107.879 383.36Z" fill="#F5F5F5"/>
<path d="M108.371 381.474C109.191 380.982 110.421 380.736 112.143 380.9C112.635 380.982 113.127 381.064 113.619 381.146C115.095 381.474 117.309 382.376 119.769 383.524C120.999 384.098 122.311 384.672 123.541 385.328C126.575 386.804 129.527 388.444 131.331 389.428L130.511 389.92C128.625 388.936 125.755 387.296 122.721 385.82C121.491 385.164 120.179 384.59 118.949 384.016C116.489 382.868 114.275 381.966 112.799 381.638C112.307 381.556 111.815 381.474 111.323 381.392C109.601 381.228 108.371 381.474 107.551 381.966L108.371 381.474Z" fill="#E0E0E0"/>
<path d="M110.339 380.326C111.159 379.834 112.389 379.588 114.111 379.752C114.603 379.834 115.095 379.916 115.587 379.998C117.063 380.326 119.277 381.228 121.737 382.376C122.967 382.95 124.279 383.524 125.509 384.18C128.543 385.656 131.495 387.296 133.299 388.28L132.479 388.772C130.593 387.788 127.723 386.148 124.689 384.672C123.459 384.016 122.147 383.442 120.917 382.868C118.457 381.72 116.243 380.818 114.767 380.49C114.275 380.408 113.783 380.326 113.291 380.244C111.569 380.08 110.339 380.326 109.519 380.818L110.339 380.326Z" fill="#E0E0E0"/>
<path d="M112.225 379.26C113.045 378.768 114.275 378.522 115.997 378.686C116.489 378.768 116.981 378.85 117.473 378.932C118.949 379.26 121.163 380.162 123.623 381.31C124.853 381.884 126.165 382.458 127.395 383.114C130.429 384.59 133.381 386.23 135.185 387.214L134.365 387.706C132.479 386.722 129.609 385.082 126.575 383.606C125.345 382.95 124.033 382.376 122.803 381.802C120.343 380.654 118.129 379.752 116.653 379.424C116.161 379.342 115.669 379.26 115.177 379.178C113.455 379.014 112.225 379.26 111.405 379.752L112.225 379.26Z" fill="#E0E0E0"/>
<path d="M114.193 378.112C115.013 377.62 116.243 377.374 117.965 377.538C118.457 377.62 118.949 377.702 119.441 377.784C120.917 378.112 123.131 379.014 125.591 380.162C126.821 380.736 128.133 381.31 129.363 381.966C132.397 383.442 135.349 385.082 137.153 386.066L136.333 386.558C134.447 385.574 131.577 383.934 128.543 382.458C127.313 381.802 126.001 381.228 124.771 380.654C122.311 379.506 120.097 378.604 118.621 378.276C118.129 378.194 117.637 378.112 117.145 378.03C115.423 377.866 114.193 378.112 113.373 378.604L114.193 378.112Z" fill="#E0E0E0"/>
<path d="M116.079 376.964C116.899 376.472 118.129 376.226 119.851 376.39C120.343 376.472 120.835 376.554 121.327 376.636C122.803 376.964 125.017 377.866 127.477 379.014C128.707 379.588 130.019 380.162 131.249 380.818C134.283 382.294 137.235 383.934 139.039 384.918L138.219 385.41C136.333 384.426 133.463 382.786 130.429 381.31C129.199 380.654 127.887 380.08 126.657 379.506C124.197 378.358 121.983 377.456 120.507 377.128C120.015 377.046 119.523 376.964 119.031 376.882C117.309 376.718 116.079 376.964 115.259 377.456L116.079 376.964Z" fill="#E0E0E0"/>
<path d="M118.047 375.898C118.867 375.406 120.097 375.16 121.819 375.324C122.311 375.406 122.803 375.488 123.295 375.57C124.771 375.898 126.985 376.8 129.445 377.948C130.675 378.522 131.987 379.096 133.217 379.752C136.251 381.228 139.203 382.868 141.007 383.852L140.187 384.344C138.301 383.36 135.431 381.72 132.397 380.244C131.167 379.588 129.855 379.014 128.625 378.44C126.165 377.292 123.951 376.39 122.475 376.062C121.983 375.98 121.491 375.898 120.999 375.816C119.277 375.652 118.047 375.898 117.227 376.39L118.047 375.898Z" fill="#E0E0E0"/>
<path d="M119.933 374.751C120.753 374.259 121.983 374.013 123.705 374.177C124.197 374.259 124.689 374.341 125.181 374.423C126.657 374.751 128.871 375.653 131.331 376.801C132.561 377.375 133.873 377.949 135.103 378.605C138.137 380.081 141.089 381.721 142.893 382.705L142.073 383.197C140.187 382.213 137.317 380.573 134.283 379.097C133.053 378.441 131.741 377.867 130.511 377.293C128.051 376.145 125.837 375.243 124.361 374.915C123.869 374.833 123.377 374.751 122.885 374.669C121.163 374.505 119.933 374.751 119.113 375.243L119.933 374.751Z" fill="#E0E0E0"/>
<path d="M121.901 373.684C122.721 373.192 123.951 372.946 125.673 373.11C126.165 373.192 126.657 373.274 127.149 373.356C128.625 373.684 130.839 374.586 133.299 375.734C134.529 376.308 135.841 376.882 137.071 377.538C140.105 379.014 143.057 380.654 144.861 381.638L144.041 382.13C142.155 381.146 139.285 379.506 136.251 378.03C135.021 377.374 133.709 376.8 132.479 376.226C130.019 375.078 127.805 374.176 126.329 373.848C125.837 373.766 125.345 373.684 124.853 373.602C123.131 373.438 121.901 373.684 121.081 374.176L121.901 373.684Z" fill="#E0E0E0"/>
<path d="M126.821 372.455C127.313 372.537 127.805 372.619 128.297 372.701C130.511 373.193 134.447 374.997 138.219 376.883C141.253 378.359 144.205 379.999 146.009 380.983L146.829 380.491C144.943 379.507 142.073 377.867 139.039 376.391C135.267 374.505 131.331 372.701 129.117 372.209C128.625 372.127 128.133 372.045 127.641 371.963C125.919 371.799 124.689 372.045 123.869 372.537L123.049 373.029C123.787 372.537 125.017 372.291 126.821 372.455Z" fill="#E0E0E0"/>
<path d="M128.707 371.388C129.199 371.47 129.691 371.552 130.183 371.634C132.397 372.126 136.333 373.93 140.105 375.816C143.139 377.292 146.091 378.932 147.895 379.916L148.715 379.424C146.829 378.44 143.959 376.8 140.925 375.324C137.153 373.438 133.217 371.634 131.003 371.142C130.511 371.06 130.019 370.978 129.527 370.896C127.805 370.732 126.575 370.978 125.755 371.47L124.935 371.962C125.755 371.388 126.985 371.142 128.707 371.388Z" fill="#E0E0E0"/>
<path d="M130.675 370.24C131.167 370.322 131.659 370.404 132.151 370.486C134.365 370.978 138.301 372.782 142.073 374.668C145.107 376.144 148.059 377.784 149.863 378.768L150.683 378.276C148.797 377.292 145.927 375.652 142.893 374.176C139.121 372.29 135.185 370.486 132.971 369.994C132.479 369.912 131.987 369.83 131.495 369.748C129.773 369.584 128.543 369.83 127.723 370.322L126.903 370.814C127.723 370.322 128.871 370.076 130.675 370.24Z" fill="#E0E0E0"/>
<path d="M132.561 369.092C133.053 369.174 133.545 369.256 134.037 369.338C136.251 369.83 140.187 371.634 143.959 373.52C146.993 374.996 149.945 376.636 151.749 377.62L152.569 377.128C150.683 376.144 147.813 374.504 144.779 373.028C141.007 371.142 137.071 369.338 134.857 368.846C134.365 368.764 133.873 368.682 133.381 368.6C131.659 368.436 130.429 368.682 129.609 369.174L128.789 369.666C129.609 369.174 130.839 368.928 132.561 369.092Z" fill="#E0E0E0"/>
<path d="M134.529 368.026C135.021 368.108 135.513 368.19 136.005 368.272C138.219 368.764 142.155 370.568 145.927 372.454C148.961 373.93 151.913 375.57 153.717 376.554L154.537 376.062C152.651 375.078 149.781 373.438 146.747 371.962C142.975 370.076 139.039 368.272 136.825 367.78C136.333 367.698 135.841 367.616 135.349 367.534C133.627 367.37 132.397 367.616 131.577 368.108L130.757 368.6C131.577 368.108 132.807 367.78 134.529 368.026Z" fill="#E0E0E0"/>
<path d="M136.415 366.879C136.907 366.961 137.399 367.043 137.891 367.125C140.105 367.617 144.041 369.421 147.813 371.307C150.847 372.783 153.799 374.423 155.603 375.407L156.423 374.915C154.537 373.931 151.667 372.291 148.633 370.815C144.861 368.929 140.925 367.125 138.711 366.633C138.219 366.551 137.727 366.469 137.235 366.387C135.513 366.223 134.283 366.469 133.463 366.961L132.643 367.453C133.463 366.961 134.693 366.715 136.415 366.879Z" fill="#E0E0E0"/>
<path d="M138.383 365.812C138.875 365.894 139.367 365.976 139.859 366.058C142.073 366.55 146.009 368.354 149.781 370.24C152.815 371.716 155.767 373.356 157.571 374.34L158.391 373.848C156.505 372.864 153.635 371.224 150.601 369.748C146.829 367.862 142.893 366.058 140.679 365.566C140.187 365.484 139.695 365.402 139.203 365.32C137.481 365.156 136.251 365.402 135.431 365.894L134.611 366.386C135.431 365.812 136.661 365.566 138.383 365.812Z" fill="#E0E0E0"/>
<path d="M140.269 364.665C140.761 364.747 141.253 364.829 141.745 364.911C143.959 365.403 147.895 367.207 151.667 369.093C154.701 370.569 157.653 372.209 159.457 373.193L160.277 372.701C158.391 371.717 155.521 370.077 152.487 368.601C148.715 366.715 144.779 364.911 142.565 364.419C142.073 364.337 141.581 364.255 141.089 364.173C139.367 364.009 138.137 364.255 137.317 364.747L136.497 365.239C137.317 364.747 138.547 364.501 140.269 364.665Z" fill="#E0E0E0"/>
<path d="M142.237 363.598C142.729 363.68 143.221 363.762 143.713 363.844C145.927 364.336 149.863 366.14 153.635 368.026C156.669 369.502 159.621 371.142 161.425 372.126L162.245 371.634C160.359 370.65 157.489 369.01 154.455 367.534C150.683 365.648 146.747 363.844 144.533 363.352C144.041 363.27 143.549 363.188 143.057 363.106C141.335 362.942 140.105 363.188 139.285 363.68L138.465 364.172C139.285 363.598 140.515 363.352 142.237 363.598Z" fill="#E0E0E0"/>
<path d="M100.581 377.456C101.729 378.112 102.795 379.096 103.615 380.08L104.435 379.588C103.533 378.604 102.549 377.62 101.401 376.964L79.4254 364.336L78.6054 364.828L100.581 377.456Z" fill="#E0E0E0"/>
<path d="M100.581 377.456C101.729 378.112 102.795 379.096 103.615 380.08L104.435 379.588C103.533 378.604 102.549 377.62 101.401 376.964L79.4254 364.336L78.6054 364.828L100.581 377.456Z" fill="#E0E0E0"/>
<path opacity="0.3" d="M105.009 379.67L104.681 379.342C103.697 378.194 102.631 377.292 101.565 376.636L79.4254 363.844L77.8674 364.746L100.417 377.784C101.401 378.358 102.467 379.26 103.369 380.326L103.615 380.572L105.009 379.67Z" fill="#BA68C8"/>
<path d="M102.467 376.307C103.615 376.963 104.681 377.947 105.501 378.931L106.321 378.439C105.419 377.455 104.435 376.472 103.287 375.816L81.3114 363.188L80.4914 363.68L102.467 376.307Z" fill="#E0E0E0"/>
<path d="M104.435 375.16C105.583 375.816 106.649 376.8 107.469 377.784L108.289 377.292C107.387 376.308 106.403 375.324 105.255 374.668L83.2794 362.04L82.4594 362.532L104.435 375.16Z" fill="#E0E0E0"/>
<path d="M106.321 374.094C107.469 374.75 108.535 375.734 109.355 376.718L110.175 376.226C109.273 375.242 108.289 374.258 107.141 373.602L85.1654 360.974L84.3454 361.466L106.321 374.094Z" fill="#E0E0E0"/>
<path d="M108.289 372.946C109.437 373.602 110.503 374.586 111.323 375.57L112.143 375.078C111.241 374.094 110.257 373.11 109.109 372.454L87.1334 359.826L86.3134 360.318L108.289 372.946Z" fill="#E0E0E0"/>
<path d="M110.175 371.88C111.323 372.536 112.389 373.52 113.209 374.504L114.029 374.012C113.127 373.028 112.143 372.044 110.995 371.388L89.0194 358.76L88.1994 359.252L110.175 371.88Z" fill="#E0E0E0"/>
<path d="M112.143 370.732C113.291 371.388 114.357 372.372 115.177 373.356L115.997 372.864C115.095 371.88 114.111 370.896 112.963 370.24L90.9054 357.612L90.0854 358.104L112.143 370.732Z" fill="#E0E0E0"/>
<path d="M114.029 369.666C115.177 370.322 116.243 371.306 117.063 372.29L117.883 371.798C116.981 370.814 115.997 369.83 114.849 369.174L92.8734 356.546L92.0534 357.038L114.029 369.666Z" fill="#E0E0E0"/>
<path d="M115.997 368.518C117.145 369.174 118.211 370.158 119.031 371.142L119.851 370.65C118.949 369.666 117.965 368.682 116.817 368.026L94.8414 355.398L94.0214 355.89L115.997 368.518Z" fill="#E0E0E0"/>
<path d="M117.883 367.37C119.031 368.026 120.097 369.01 120.917 369.994L121.737 369.502C120.835 368.518 119.851 367.534 118.703 366.878L96.7274 354.332L95.9074 354.824L117.883 367.37Z" fill="#E0E0E0"/>
<path d="M119.851 366.304C120.999 366.96 122.065 367.944 122.885 368.928L123.705 368.436C122.803 367.452 121.819 366.468 120.671 365.812L98.6954 353.184L97.8754 353.676L119.851 366.304Z" fill="#E0E0E0"/>
<path d="M121.737 365.156C122.885 365.812 123.951 366.796 124.771 367.78L125.591 367.288C124.689 366.304 123.705 365.32 122.557 364.664L100.581 352.036L99.7614 352.528L121.737 365.156Z" fill="#E0E0E0"/>
<path d="M123.705 364.09C124.853 364.746 125.919 365.73 126.739 366.714L127.559 366.222C126.657 365.238 125.673 364.254 124.525 363.598L102.549 350.97L101.729 351.462L123.705 364.09Z" fill="#E0E0E0"/>
<path d="M125.591 362.942C126.739 363.598 127.805 364.582 128.625 365.566L129.445 365.074C128.543 364.09 127.559 363.106 126.411 362.45L104.435 349.822L103.615 350.314L125.591 362.942Z" fill="#E0E0E0"/>
<path d="M127.559 361.876C128.707 362.532 129.773 363.516 130.593 364.5L131.413 364.008C130.511 363.024 129.527 362.04 128.379 361.384L106.403 348.756L105.583 349.248L127.559 361.876Z" fill="#E0E0E0"/>
<path d="M129.445 360.728C130.593 361.384 131.659 362.368 132.479 363.352L133.299 362.86C132.397 361.876 131.413 360.892 130.265 360.236L108.289 347.608L107.469 348.1L129.445 360.728Z" fill="#E0E0E0"/>
<path d="M131.413 359.58C132.561 360.236 133.627 361.22 134.447 362.204L135.267 361.712C134.365 360.728 133.381 359.744 132.233 359.088L110.257 346.46L109.437 346.952L131.413 359.58Z" fill="#E0E0E0"/>
<path opacity="0.3" d="M106.895 378.522L106.567 378.194C105.583 377.046 104.517 376.144 103.451 375.488L81.3114 362.696L79.7534 363.598L102.303 376.636C103.287 377.21 104.353 378.112 105.255 379.178L105.501 379.424L106.895 378.522Z" fill="#BA68C8"/>
<path opacity="0.3" d="M108.781 377.374L108.453 377.046C107.469 375.898 106.403 374.996 105.337 374.34L83.1974 361.548L81.6394 362.45L104.189 375.488C105.173 376.062 106.239 376.964 107.141 378.03L107.387 378.276L108.781 377.374Z" fill="#BA68C8"/>
<path opacity="0.3" d="M110.749 376.308L110.421 375.98C109.437 374.832 108.371 373.93 107.305 373.274L85.1654 360.482L83.6074 361.384L106.157 374.422C107.141 374.996 108.207 375.898 109.109 376.964L109.355 377.21L110.749 376.308Z" fill="#BA68C8"/>
<path opacity="0.3" d="M122.311 369.584L121.983 369.256C120.999 368.108 119.933 367.206 118.867 366.55L96.7274 353.758L95.1694 354.66L117.719 367.698C118.703 368.272 119.769 369.174 120.671 370.24L120.917 370.486L122.311 369.584Z" fill="#BA68C8"/>
<path opacity="0.3" d="M124.197 368.436L123.869 368.108C122.885 366.96 121.819 366.058 120.753 365.402L98.6134 352.61L97.0554 353.512L119.605 366.55C120.589 367.124 121.655 368.026 122.557 369.092L122.803 369.338L124.197 368.436Z" fill="#BA68C8"/>
<path opacity="0.3" d="M126.083 367.288L125.755 366.96C124.771 365.812 123.705 364.91 122.639 364.254L100.499 351.462L98.9414 352.364L121.491 365.402C122.475 365.976 123.541 366.878 124.443 367.944L124.689 368.19L126.083 367.288Z" fill="#BA68C8"/>
<path d="M77.6214 369.666L72.5374 366.878V366.468L77.6214 369.666Z" fill="#E6E6E6"/>
<path d="M72.5374 368.435L81.0654 373.191L72.5374 368.107V368.435Z" fill="#E6E6E6"/>
<path opacity="0.02" d="M160.933 368.026C156.341 365.566 150.109 362.532 146.829 361.876C144.205 361.384 142.565 361.712 141.581 362.286L104.107 383.934C104.927 383.442 106.157 383.196 107.879 383.36C107.879 383.36 126.411 372.044 138.383 368.19C150.437 364.336 160.933 368.026 160.933 368.026Z" fill="black"/>
<path d="M328.787 358.268L297.545 374.996L296.971 375.816V376.472C296.971 376.8 297.135 377.128 297.545 377.292L332.067 397.218C332.313 397.382 332.641 397.464 332.969 397.464C333.297 397.464 333.625 397.382 333.871 397.218L364.539 379.424V378.932L328.787 358.268Z" fill="#263238"/>
<path d="M332.969 396.889C332.641 396.889 332.313 396.807 332.067 396.643L297.545 376.717C297.217 376.553 296.971 376.225 296.971 375.897C296.971 375.569 297.135 375.241 297.545 375.077L327.639 357.611L364.539 378.931L333.871 396.725C333.625 396.807 333.297 396.889 332.969 396.889Z" fill="#BA68C8"/>
<path d="M327.557 355.562L297.709 372.864L297.545 373.192V375.816C297.545 375.98 297.627 376.062 297.791 376.144L332.313 396.07C332.641 396.234 333.215 396.234 333.543 396.07L363.391 378.768V376.144L327.557 355.562Z" fill="#EBEBEB"/>
<path d="M363.391 376.226L363.063 376.39L359.045 378.686L358.307 379.096L333.625 393.446C333.297 393.61 332.723 393.61 332.395 393.446L297.873 373.52C297.545 373.356 297.545 373.028 297.873 372.782L298.201 372.618L327.639 355.562L363.145 376.062L363.227 376.144L363.391 376.226Z" fill="#F0F0F0"/>
<path d="M332.969 393.691V396.315C332.723 396.315 332.559 396.233 332.395 396.151L297.873 376.225C297.709 376.143 297.627 375.979 297.627 375.897V373.191C297.627 373.355 297.709 373.437 297.873 373.519L332.395 393.445C332.477 393.609 332.723 393.691 332.969 393.691Z" fill="#E0E0E0"/>
<path d="M363.391 375.897L358.963 378.439L358.225 378.849L333.543 393.117C333.215 393.281 332.641 393.281 332.313 393.117L301.399 375.241C301.153 375.077 300.825 374.913 300.661 374.831C299.431 374.093 298.611 373.355 298.119 372.617C298.119 372.617 298.119 372.535 298.037 372.535C298.037 372.453 297.955 372.453 297.955 372.371C297.873 372.125 298.119 371.797 298.365 371.715C298.939 371.551 299.841 371.223 300.661 370.731L327.475 355.151L363.391 375.897Z" fill="white"/>
<path opacity="0.1" d="M358.717 375.569C358.389 375.733 358.389 376.061 358.717 376.225C359.045 376.389 359.537 376.389 359.865 376.225C360.193 376.061 360.193 375.733 359.865 375.569C359.619 375.405 359.045 375.405 358.717 375.569Z" fill="black"/>
<path d="M362.407 373.437C361.997 373.191 361.423 373.191 360.849 373.519C359.947 374.011 359.209 375.159 358.881 376.307C359.045 376.389 359.127 376.389 359.291 376.389C359.619 375.323 360.275 374.339 361.013 373.929C361.259 373.765 361.505 373.683 361.751 373.683C361.915 373.683 362.079 373.683 362.161 373.765C362.571 374.011 362.735 374.503 362.735 375.159C362.735 375.241 362.735 375.405 362.735 375.487L363.145 375.733C363.145 375.569 363.227 375.323 363.227 375.159C363.227 374.339 362.981 373.683 362.407 373.437Z" fill="#263238"/>
<path d="M363.145 375.979V376.062L363.063 375.979H363.145Z" fill="#263238"/>
<path opacity="0.1" d="M355.273 373.601C354.945 373.765 354.945 374.093 355.273 374.257C355.601 374.421 356.093 374.421 356.421 374.257C356.749 374.093 356.749 373.765 356.421 373.601C356.093 373.355 355.601 373.355 355.273 373.601Z" fill="black"/>
<path d="M358.963 371.387C358.553 371.141 357.979 371.141 357.405 371.469C356.503 371.961 355.765 373.109 355.437 374.257C355.601 374.339 355.683 374.339 355.847 374.339C356.175 373.273 356.831 372.289 357.569 371.879C357.815 371.715 358.061 371.633 358.307 371.633C358.471 371.633 358.635 371.633 358.717 371.715C359.127 371.961 359.291 372.453 359.291 373.109C359.291 373.191 359.291 373.355 359.291 373.437L359.701 373.683C359.701 373.519 359.783 373.273 359.783 373.109C359.783 372.371 359.455 371.715 358.963 371.387Z" fill="#263238"/>
<path opacity="0.1" d="M351.829 371.552C351.501 371.716 351.501 372.044 351.829 372.208C352.157 372.372 352.649 372.372 352.977 372.208C353.305 372.044 353.305 371.716 352.977 371.552C352.649 371.388 352.157 371.388 351.829 371.552Z" fill="black"/>
<path d="M355.519 369.419C355.109 369.173 354.535 369.173 353.961 369.501C353.059 369.993 352.321 371.141 351.993 372.289C352.157 372.371 352.239 372.371 352.403 372.371C352.731 371.305 353.387 370.321 354.125 369.911C354.371 369.747 354.617 369.666 354.863 369.666C355.027 369.666 355.191 369.665 355.273 369.747C355.683 369.993 355.847 370.485 355.847 371.141C355.847 371.223 355.847 371.387 355.847 371.469L356.257 371.716C356.257 371.552 356.339 371.305 356.339 371.141C356.339 370.403 356.011 369.747 355.519 369.419Z" fill="#263238"/>
<path opacity="0.1" d="M348.385 369.583C348.057 369.747 348.057 370.075 348.385 370.239C348.713 370.403 349.205 370.403 349.533 370.239C349.861 370.075 349.861 369.747 349.533 369.583C349.205 369.419 348.713 369.419 348.385 369.583Z" fill="black"/>
<path d="M352.075 367.451C351.665 367.205 351.091 367.205 350.517 367.533C349.615 368.025 348.877 369.173 348.549 370.321C348.713 370.403 348.795 370.403 348.959 370.403C349.287 369.337 349.943 368.353 350.681 367.943C350.927 367.779 351.173 367.697 351.419 367.697C351.583 367.697 351.747 367.697 351.829 367.779C352.239 368.025 352.403 368.517 352.403 369.173C352.403 369.255 352.403 369.419 352.403 369.501L352.813 369.747C352.813 369.583 352.895 369.337 352.895 369.173C352.895 368.353 352.567 367.697 352.075 367.451Z" fill="#263238"/>
<path opacity="0.1" d="M344.941 367.533C344.613 367.697 344.613 368.025 344.941 368.189C345.269 368.353 345.761 368.353 346.089 368.189C346.417 368.025 346.417 367.697 346.089 367.533C345.761 367.369 345.187 367.369 344.941 367.533Z" fill="black"/>
<path d="M348.631 365.401C348.221 365.155 347.647 365.155 347.073 365.483C346.171 365.975 345.433 367.123 345.105 368.271C345.269 368.353 345.351 368.353 345.515 368.353C345.843 367.287 346.499 366.303 347.237 365.893C347.483 365.729 347.729 365.647 347.975 365.647C348.139 365.647 348.303 365.647 348.385 365.729C348.795 365.975 348.959 366.467 348.959 367.123C348.959 367.205 348.959 367.369 348.959 367.451L349.369 367.697C349.369 367.533 349.451 367.287 349.451 367.123C349.369 366.385 349.123 365.729 348.631 365.401Z" fill="#263238"/>
<path opacity="0.1" d="M341.415 365.565C341.087 365.729 341.087 366.057 341.415 366.221C341.743 366.385 342.235 366.385 342.563 366.221C342.891 366.057 342.891 365.729 342.563 365.565C342.235 365.401 341.743 365.401 341.415 365.565Z" fill="black"/>
<path d="M345.105 363.433C344.695 363.187 344.121 363.187 343.547 363.515C342.645 364.007 341.907 365.155 341.579 366.303C341.743 366.385 341.825 366.385 341.989 366.385C342.317 365.319 342.973 364.335 343.711 363.925C343.957 363.761 344.203 363.679 344.449 363.679C344.613 363.679 344.777 363.679 344.859 363.761C345.269 364.007 345.433 364.499 345.433 365.155C345.433 365.237 345.433 365.401 345.433 365.483L345.843 365.729C345.843 365.565 345.925 365.319 345.925 365.155C345.925 364.335 345.679 363.679 345.105 363.433Z" fill="#263238"/>
<path opacity="0.1" d="M337.971 363.598C337.643 363.762 337.643 364.09 337.971 364.254C338.299 364.418 338.791 364.418 339.119 364.254C339.447 364.09 339.447 363.762 339.119 363.598C338.791 363.352 338.299 363.352 337.971 363.598Z" fill="black"/>
<path d="M341.661 361.383C341.251 361.137 340.677 361.137 340.103 361.465C339.201 361.957 338.463 363.105 338.135 364.253C338.299 364.335 338.381 364.335 338.545 364.335C338.873 363.269 339.529 362.285 340.267 361.875C340.513 361.711 340.759 361.629 341.005 361.629C341.169 361.629 341.333 361.629 341.415 361.711C341.825 361.957 341.989 362.449 341.989 363.105C341.989 363.187 341.989 363.351 341.989 363.433L342.399 363.679C342.399 363.515 342.481 363.269 342.481 363.105C342.481 362.367 342.153 361.711 341.661 361.383Z" fill="#263238"/>
<path opacity="0.1" d="M334.527 361.547C334.199 361.711 334.199 362.039 334.527 362.203C334.855 362.367 335.347 362.367 335.675 362.203C336.003 362.039 336.003 361.711 335.675 361.547C335.347 361.383 334.855 361.383 334.527 361.547Z" fill="black"/>
<path d="M338.217 359.415C337.807 359.169 337.233 359.169 336.659 359.497C335.757 359.989 335.019 361.137 334.691 362.285C334.855 362.367 334.937 362.367 335.101 362.367C335.429 361.301 336.085 360.317 336.823 359.907C337.069 359.743 337.315 359.661 337.561 359.661C337.725 359.661 337.889 359.661 337.971 359.743C338.381 359.989 338.545 360.481 338.545 361.137C338.545 361.219 338.545 361.383 338.545 361.465L338.955 361.711C338.955 361.547 339.037 361.301 339.037 361.137C339.037 360.399 338.709 359.743 338.217 359.415Z" fill="#263238"/>
<path opacity="0.1" d="M331.083 359.579C330.755 359.743 330.755 360.071 331.083 360.235C331.411 360.399 331.903 360.399 332.231 360.235C332.559 360.071 332.559 359.743 332.231 359.579C331.903 359.415 331.411 359.415 331.083 359.579Z" fill="black"/>
<path d="M334.773 357.447C334.363 357.201 333.789 357.201 333.215 357.529C332.313 358.021 331.575 359.169 331.247 360.317C331.411 360.399 331.493 360.399 331.657 360.399C331.985 359.333 332.641 358.349 333.379 357.939C333.625 357.775 333.871 357.693 334.117 357.693C334.281 357.693 334.445 357.693 334.527 357.775C334.937 358.021 335.101 358.513 335.101 359.169C335.101 359.251 335.101 359.415 335.101 359.497L335.511 359.743C335.511 359.579 335.593 359.333 335.593 359.169C335.511 358.349 335.265 357.693 334.773 357.447Z" fill="#263238"/>
<path opacity="0.1" d="M327.557 357.611C327.229 357.775 327.229 358.103 327.557 358.267C327.885 358.431 328.377 358.431 328.705 358.267C329.033 358.103 329.033 357.775 328.705 357.611C328.459 357.365 327.885 357.365 327.557 357.611Z" fill="black"/>
<path d="M331.247 355.397C330.837 355.151 330.263 355.151 329.689 355.479C328.787 355.971 328.049 357.119 327.721 358.267C327.885 358.349 327.967 358.349 328.131 358.349C328.459 357.283 329.115 356.299 329.853 355.889C330.099 355.725 330.345 355.643 330.591 355.643C330.755 355.643 330.919 355.643 331.001 355.725C331.411 355.971 331.575 356.463 331.575 357.119C331.575 357.201 331.575 357.365 331.575 357.447L331.985 357.693C331.985 357.529 332.067 357.283 332.067 357.119C332.067 356.381 331.821 355.725 331.247 355.397Z" fill="#263238"/>
<path d="M329.525 389.591C329.361 389.591 329.279 389.509 329.197 389.427C329.115 389.263 329.115 389.017 329.361 388.853L353.469 374.913C353.633 374.831 353.879 374.831 354.043 375.077C354.125 375.241 354.125 375.487 353.879 375.651L329.771 389.591C329.607 389.591 329.525 389.591 329.525 389.591Z" fill="#EBEBEB"/>
<path d="M327.147 388.279C326.983 388.279 326.901 388.197 326.819 388.115C326.737 387.951 326.737 387.705 326.983 387.541L351.091 373.601C351.255 373.519 351.501 373.519 351.665 373.765C351.747 373.929 351.747 374.175 351.501 374.339L327.393 388.279C327.311 388.197 327.229 388.279 327.147 388.279Z" fill="#EBEBEB"/>
<path d="M324.851 386.885C324.687 386.885 324.605 386.803 324.523 386.721C324.441 386.557 324.441 386.311 324.687 386.147L348.795 372.207C348.959 372.125 349.205 372.125 349.369 372.371C349.451 372.535 349.451 372.781 349.205 372.945L325.097 386.885C325.015 386.885 324.933 386.885 324.851 386.885Z" fill="#EBEBEB"/>
<path d="M322.555 385.573C322.391 385.573 322.309 385.491 322.227 385.409C322.145 385.245 322.145 384.999 322.391 384.835L346.499 370.895C346.663 370.813 346.909 370.813 347.073 371.059C347.155 371.223 347.155 371.469 346.909 371.633L322.801 385.573C322.719 385.573 322.637 385.573 322.555 385.573Z" fill="#EBEBEB"/>
<path d="M320.259 384.261C320.095 384.261 320.013 384.179 319.931 384.097C319.849 383.933 319.849 383.687 320.095 383.523L344.203 369.583C344.367 369.501 344.613 369.501 344.695 369.747C344.777 369.911 344.777 370.157 344.531 370.321L320.423 384.261C320.423 384.261 320.341 384.261 320.259 384.261Z" fill="#EBEBEB"/>
<path d="M317.963 382.949C317.799 382.949 317.717 382.867 317.635 382.785C317.553 382.621 317.553 382.375 317.799 382.211L341.907 368.271C342.071 368.189 342.317 368.189 342.481 368.435C342.563 368.599 342.563 368.845 342.317 369.009L318.209 382.949C318.045 382.867 318.045 382.949 317.963 382.949Z" fill="#EBEBEB"/>
<path d="M315.667 381.555C315.503 381.555 315.421 381.473 315.339 381.391C315.257 381.227 315.257 380.981 315.503 380.817L339.611 366.877C339.775 366.795 340.021 366.795 340.185 367.041C340.267 367.205 340.267 367.451 340.021 367.615L315.913 381.555C315.749 381.555 315.667 381.555 315.667 381.555Z" fill="#EBEBEB"/>
<path d="M313.289 380.243C313.125 380.243 313.043 380.161 312.961 380.079C312.879 379.915 312.879 379.669 313.125 379.505L337.233 365.565C337.397 365.483 337.643 365.483 337.807 365.729C337.889 365.893 337.889 366.139 337.643 366.303L313.535 380.243C313.453 380.243 313.371 380.243 313.289 380.243Z" fill="#EBEBEB"/>
<path d="M310.993 378.931C310.829 378.931 310.747 378.849 310.665 378.767C310.583 378.603 310.583 378.357 310.829 378.193L334.937 364.253C335.101 364.171 335.347 364.171 335.511 364.417C335.593 364.581 335.593 364.827 335.347 364.991L311.239 378.931C311.157 378.931 311.075 378.931 310.993 378.931Z" fill="#EBEBEB"/>
<path d="M308.697 377.619C308.533 377.619 308.451 377.537 308.369 377.455C308.287 377.291 308.287 377.045 308.533 376.881L332.641 362.941C332.805 362.859 333.051 362.859 333.215 363.105C333.297 363.269 333.297 363.515 333.051 363.679L308.943 377.619C308.861 377.537 308.779 377.619 308.697 377.619Z" fill="#EBEBEB"/>
<path d="M306.401 376.225C306.237 376.225 306.155 376.143 306.073 376.061C305.991 375.897 305.991 375.651 306.237 375.487L330.345 361.547C330.509 361.465 330.755 361.465 330.919 361.711C331.001 361.875 331.001 362.121 330.755 362.285L306.647 376.225C306.565 376.225 306.483 376.225 306.401 376.225Z" fill="#EBEBEB"/>
<path d="M304.105 374.913C303.941 374.913 303.859 374.831 303.777 374.749C303.695 374.585 303.695 374.339 303.941 374.175L328.049 360.235C328.213 360.153 328.459 360.153 328.623 360.399C328.705 360.563 328.705 360.809 328.459 360.973L304.351 374.913C304.187 374.913 304.187 374.913 304.105 374.913Z" fill="#EBEBEB"/>
<path d="M301.809 373.601C301.645 373.601 301.563 373.519 301.481 373.437C301.399 373.273 301.399 373.027 301.645 372.863L325.753 358.923C325.917 358.841 326.163 358.841 326.327 359.087C326.409 359.251 326.409 359.497 326.163 359.661L302.055 373.601C301.891 373.601 301.891 373.601 301.809 373.601Z" fill="#EBEBEB"/>
<path d="M331.821 390.904C331.657 390.904 331.575 390.822 331.493 390.74C331.411 390.576 331.411 390.33 331.657 390.166L356.831 375.57C356.995 375.488 357.241 375.488 357.405 375.734C357.487 375.898 357.487 376.144 357.241 376.308L331.985 390.904C331.985 390.904 331.903 390.904 331.821 390.904Z" fill="#BA68C8"/>
<path d="M144.779 236.005C143.959 239.039 143.303 240.843 141.827 244.287C141.089 245.927 140.023 248.469 138.137 248.387C138.301 247.977 138.383 247.485 138.465 247.075C138.465 247.075 138.383 245.353 132.643 243.877C126.903 242.483 124.935 243.795 124.935 243.795C124.935 244.205 124.935 244.533 124.853 244.861C123.869 244.533 123.131 244.123 122.229 243.713C120.917 243.139 118.785 242.155 118.047 240.761C117.801 240.269 117.637 239.695 117.555 239.121C117.391 238.055 117.145 236.907 116.981 235.841C116.735 234.365 116.407 232.807 116.653 231.249C116.817 230.183 117.227 229.035 118.211 228.543C118.785 228.297 119.359 228.215 119.933 228.215C121.983 228.133 124.689 227.231 126.739 227.067C128.707 226.903 130.511 226.411 132.479 226.247C133.955 226.083 136.169 226.411 138.301 227.067C142.401 228.297 145.927 232.069 144.779 236.005Z" fill="#455A64"/>
<path d="M116.899 219.195C118.867 220.179 120.671 220.917 121.983 222.721C123.459 224.689 123.295 227.805 123.049 230.183C122.803 232.151 122.639 233.873 122.639 235.841C122.639 237.973 123.623 241.171 124.361 243.795C127.231 253.553 131.249 262.737 135.513 271.921C139.367 280.203 143.877 288.731 145.599 297.751C155.685 299.555 166.099 302.179 170.691 303.245C175.775 303.327 179.629 304.065 181.515 304.803C197.177 310.543 201.769 332.847 206.197 340.637L191.683 342.605C175.857 333.667 141.909 317.841 133.545 313.905C125.181 309.969 122.229 309.231 120.097 305.623C118.129 302.343 117.145 298.325 116.243 294.635C113.865 284.385 113.045 273.069 111.077 262.737C110.011 257.243 109.027 251.667 107.961 246.173C107.551 243.959 107.059 241.663 106.321 239.531C105.501 236.989 104.189 234.693 102.631 232.479C102.057 231.659 101.565 230.675 100.827 230.019C100.171 229.363 99.2694 228.953 98.5314 228.379C95.7434 226.411 92.4634 225.181 89.5934 223.295C85.7394 220.753 79.8354 217.227 80.7374 211.651C80.9834 210.257 82.1314 207.961 83.1974 206.977C84.5094 205.747 87.6254 206.321 89.2654 206.567C94.1034 207.141 98.1214 209.847 102.139 212.307C104.435 213.701 106.977 215.013 109.519 215.915C110.831 216.407 112.143 216.899 113.455 217.391C114.849 217.965 115.833 218.703 116.899 219.195Z" fill="#FFA8A7"/>
<path d="M120.425 275.693L126.247 249.699C125.591 247.813 124.935 245.845 124.361 243.877C124.197 243.385 124.033 242.811 123.869 242.237L114.521 271.593L120.425 275.693Z" fill="#F28F8F"/>
<path d="M145.271 333.749L171.921 341.867L192.175 308.985C188.567 305.049 183.811 303.655 178.481 302.999C174.217 302.507 172.905 303.081 169.707 302.425C166.509 301.769 161.507 300.621 161.507 300.621C153.717 298.735 149.863 298.161 146.009 297.341C144.369 288.157 139.941 280.367 133.053 266.591C133.053 266.591 124.689 271.757 112.553 271.019C112.553 271.019 113.619 281.597 114.685 291.109C115.669 300.621 116.079 316.775 120.425 321.613C124.689 326.615 137.563 331.371 145.271 333.749Z" fill="#37474F"/>
<path d="M178.317 312.429C171.429 306.853 160.195 310.297 160.195 310.297C160.195 310.297 154.865 309.149 151.175 308.411V308.329C151.093 308.329 150.355 308.247 149.207 308.083C148.961 308.001 148.715 308.001 148.551 308.001C144.041 307.263 135.185 305.787 135.185 305.787C135.185 305.787 137.481 301.769 137.727 294.553C137.891 290.371 138.055 282.335 137.973 276.595C136.497 273.643 134.857 270.445 133.053 266.837C133.053 266.837 125.673 271.429 114.685 271.347C113.701 274.217 113.045 276.185 113.045 276.185L114.111 285.861C114.111 285.861 115.669 291.847 116.407 294.963C117.309 298.653 118.293 302.671 120.261 305.951C122.393 309.559 125.345 310.297 133.709 314.233C133.873 314.315 134.037 314.397 134.201 314.479C134.365 314.561 134.529 314.643 134.775 314.725C135.021 314.889 135.349 314.971 135.677 315.135C135.923 315.217 136.087 315.381 136.415 315.463C136.661 315.545 136.907 315.709 137.153 315.791C137.399 315.873 137.645 316.037 137.891 316.119C138.875 316.611 140.023 317.103 141.171 317.677C141.335 317.759 141.499 317.841 141.581 317.923C142.073 318.169 142.565 318.415 143.139 318.661C143.303 318.743 143.385 318.825 143.549 318.825C144.205 319.153 144.779 319.399 145.517 319.727C145.599 319.727 145.599 319.809 145.681 319.809C146.419 320.137 147.157 320.465 147.895 320.875H147.977L149.043 316.939L149.289 317.349L161.753 319.809C161.589 319.645 185.205 318.005 178.317 312.429Z" fill="#263238"/>
<path d="M159.047 313.086C144.041 308.986 131.413 307.756 131.413 307.756C134.611 301.442 135.431 287.174 136.169 273.316C136.579 264.87 136.989 256.588 137.809 250.274C137.891 249.618 138.055 248.962 138.219 248.388L138.547 247.076C138.547 247.076 139.121 245.19 132.807 243.714C126.493 242.238 124.935 243.796 124.935 243.796L124.853 244.862C124.853 244.944 124.771 245.026 124.771 245.108C123.623 248.388 118.703 262.738 114.111 278.318C108.453 297.588 103.205 318.662 106.239 322.68C112.061 330.388 142.155 345.968 168.313 354.906L176.923 334.816L185.123 315.71C185.123 315.874 173.069 308.658 159.047 313.086Z" fill="#FFA8A7"/>
<path d="M133.463 341.868C146.665 348.018 160.851 354.25 172.249 356.464C181.925 358.35 185.861 315.218 185.861 315.218C179.629 312.43 174.709 311.118 169.461 310.954C164.213 310.79 160.933 312.266 158.883 312.348C156.833 312.512 154.045 310.79 146.993 309.56C139.367 307.838 132.069 307.51 132.069 307.51C132.069 307.51 134.939 300.294 135.267 286.436C135.267 286.436 120.753 290.454 112.963 282.336C112.963 282.336 109.683 290.372 107.387 300.622C105.419 309.56 104.927 316.038 104.927 317.842C104.845 319.646 104.927 322.762 107.879 325.796C112.881 331.126 124.115 337.522 133.463 341.868Z" fill="#455A64"/>
<path d="M123.049 230.921C122.803 232.889 122.639 233.955 122.639 235.923C122.639 238.055 123.623 241.253 124.443 243.877C124.689 244.123 124.853 244.451 124.935 244.861C125.099 243.549 124.853 241.417 124.443 238.547C124.033 235.677 126.001 230.757 125.673 227.231C125.099 227.313 123.869 227.559 123.295 227.723C123.213 228.297 123.131 230.429 123.049 230.921Z" fill="#37474F"/>
<path d="M118.867 309.559C126.903 310.215 132.151 307.591 132.151 307.591C132.151 307.591 133.135 305.131 133.955 300.457C130.429 306.525 118.867 309.559 118.867 309.559Z" fill="#37474F"/>
<path d="M78.2774 210.667C77.9494 213.619 78.2774 217.473 82.1314 221.081C85.9034 224.689 95.0054 229.281 98.6954 231.413C103.451 234.201 106.649 240.105 106.649 240.105C106.649 240.105 108.945 242.811 115.423 241.827C120.015 241.171 122.147 239.121 122.803 237.809C122.803 237.809 122.885 235.923 123.049 234.693C123.213 233.463 123.623 228.625 123.131 224.033L78.2774 210.667Z" fill="#455A64"/>
<path d="M123.213 224.115C123.213 219.851 114.603 215.915 110.503 214.275C105.255 212.307 99.4334 204.353 88.8554 203.779C81.3114 203.369 78.6054 205.419 78.3594 208.125C78.3594 208.617 78.2774 210.421 78.1954 210.831C78.0314 213.209 79.9174 215.997 82.3774 217.883C86.2314 220.835 96.1534 225.345 103.533 229.609C110.913 233.955 117.309 233.217 121.081 230.429C122.721 229.199 123.295 228.051 123.295 226.821C123.377 226.247 123.213 224.525 123.213 224.115Z" fill="#263238"/>
<path d="M120.999 227.641C117.227 230.429 110.913 231.085 103.533 226.821C96.2353 222.557 86.3954 218.129 82.5414 215.177C77.3754 211.241 74.5874 202.959 88.8553 203.779C99.4333 204.353 105.173 212.225 110.503 214.275C115.751 216.325 128.297 222.229 120.999 227.641Z" fill="#37474F"/>
<path d="M263.925 311.527C258.513 299.309 254.413 296.193 244.491 299.145L250.559 328.501C250.559 328.501 258.595 343.343 260.563 347.197L275.077 337.849C275.077 337.849 270.075 325.221 263.925 311.527Z" fill="#FFA8A7"/>
<path d="M229.403 298.243C229.403 298.243 212.183 301.277 208.001 303.409C203.327 305.787 203.409 307.509 200.211 312.101C196.439 312.675 194.389 310.215 191.273 308.083C188.239 307.837 174.709 313.085 168.887 324.483C162.737 336.537 163.967 348.755 167.985 355.479C177.333 358.349 188.403 362.203 206.935 360.891C215.381 360.235 227.353 358.267 234.405 356.381C238.669 355.233 240.637 354.249 243.753 351.707C259.005 349.083 259.743 337.521 256.873 327.927C253.265 315.791 249.739 306.115 247.197 301.277C245.311 297.833 238.423 297.095 229.403 298.243Z" fill="#BA68C8"/>
<path opacity="0.1" d="M256.299 299.883C253.265 297.669 249.657 297.587 244.491 299.063V299.145C242.441 298.243 239.571 297.751 236.127 297.833C236.865 300.621 238.587 303.245 242.441 303.655C249.247 304.393 253.347 302.999 256.299 299.883Z" fill="black"/>
<path opacity="0.1" d="M239.653 350.887C237.685 353.019 230.879 354.249 225.467 351.789C220.711 349.575 217.841 343.917 218.005 339.407C218.005 339.407 215.709 349.247 224.647 353.265C232.847 356.955 239.489 352.117 239.653 350.887Z" fill="black"/>
<path d="M201.195 253.717C201.113 254.455 201.195 255.193 201.441 255.849C202.179 257.407 204.147 258.391 203.573 260.523C203.245 261.999 201.195 262.163 199.883 261.671C199.637 264.377 203.491 264.377 205.131 263.967C205.213 265.853 205.541 266.673 207.509 267.411C210.461 268.477 212.183 267.575 214.315 265.689C216.283 263.967 218.825 265.361 221.203 265.279C223.909 265.197 225.713 263.311 226.369 260.605C226.697 259.047 225.385 257.079 225.959 255.849C227.271 253.143 231.699 255.849 233.749 254.537C236.537 252.733 235.881 247.813 233.093 246.255C232.273 245.763 231.125 245.927 230.305 245.435C229.403 244.943 229.321 244.041 228.993 243.139C227.927 240.187 225.795 237.973 222.597 237.399C221.367 237.153 220.137 237.153 218.989 237.563C217.677 238.055 216.857 239.203 215.545 239.777C213.167 240.843 210.215 239.531 208.083 241.581C207.099 242.483 206.607 243.631 206.607 244.861C206.607 245.763 207.181 246.665 206.853 247.485C206.279 249.043 203.819 249.453 202.753 250.437C201.933 251.175 201.359 252.487 201.195 253.717Z" fill="#37474F"/>
<path d="M222.597 300.868C222.515 300.704 224.893 298.572 225.139 298.408C229.977 293.652 234.733 288.978 239.571 284.222C242.195 281.598 244.901 278.974 247.525 276.432C249.001 275.038 250.313 273.07 252.527 272.906C254.167 272.742 255.315 273.316 256.709 273.972C258.431 274.874 260.317 275.202 262.203 274.136C263.187 273.562 263.679 272.742 263.761 271.676C263.761 271.266 263.679 270.774 263.679 270.446C263.269 272.004 261.711 272.086 260.891 271.594C259.907 271.102 259.825 270.118 259.661 269.052C259.497 267.904 259.661 266.51 259.005 265.526C258.431 264.706 257.447 264.214 256.463 264.46C257.037 263.312 257.857 262.328 258.267 261.18C258.677 260.032 258.759 258.802 258.513 257.572C258.185 255.44 256.463 254.21 254.741 253.144C252.691 251.914 250.641 251.996 248.263 251.996C246.623 251.996 244.983 252.324 243.343 252.16C241.949 251.996 240.555 251.668 239.161 251.422C235.553 250.848 231.863 251.094 228.337 251.832C209.969 255.604 206.525 272.742 209.231 281.516C213.167 293.652 219.317 292.996 222.597 300.868Z" fill="#37474F"/>
<path d="M257.611 280.777C258.677 295.045 254.331 298.325 252.117 299.637C249.903 300.867 247.033 301.195 242.605 300.867L241.375 306.115C241.211 312.265 226.943 312.019 222.187 305.459L223.417 290.043C223.417 290.043 221.859 292.585 217.923 290.699C214.151 288.895 213.167 283.073 214.889 280.367C216.447 277.907 220.301 277.907 221.777 280.203C222.351 281.105 222.433 281.515 222.679 282.745C222.761 283.319 222.761 284.139 223.253 284.303C225.385 285.205 226.943 282.171 226.861 279.875C228.911 278.153 229.977 276.185 229.485 272.331C231.535 273.315 235.061 272.003 236.783 270.527C239.817 268.067 239.899 265.689 240.801 262.901C241.703 260.195 244.573 259.621 247.197 260.195C248.591 260.523 251.625 261.999 253.593 265.115C254.495 266.591 254.987 268.313 255.479 269.953C256.709 273.725 257.365 276.841 257.611 280.777Z" fill="#FFA8A7"/>
<path d="M229.567 286.436L224.893 299.474C220.547 300.458 220.629 306.28 222.433 310.38C225.139 316.53 228.747 320.794 232.519 322.68C235.881 324.32 242.605 325.632 243.589 320.876C245.065 314.152 241.539 305.214 241.539 305.214L229.567 286.436Z" fill="#FFA8A7"/>
<path d="M221.941 288.239C223.417 287.583 225.057 289.387 225.057 289.387C225.057 289.387 226.615 288.567 227.845 289.387C228.829 290.043 229.157 291.109 229.157 291.109C229.157 291.109 230.141 290.535 231.371 291.519C232.437 292.421 232.929 293.815 232.929 293.815C232.929 293.815 234.241 293.569 235.389 295.045C236.209 296.111 237.931 297.751 239.735 298.407C241.375 298.981 240.637 301.113 238.177 301.031C223.663 300.785 220.383 289.797 220.383 289.797C220.383 289.797 220.465 288.895 221.941 288.239Z" fill="#F28F8F"/>
<path d="M242.605 300.785C238.833 300.293 234.651 299.309 231.617 297.505C229.239 296.111 227.763 293.897 226.943 292.339C226.943 292.339 227.927 297.751 230.961 299.883C233.995 302.015 241.949 303.573 241.949 303.573L242.605 300.785Z" fill="#F28F8F"/>
<path d="M240.555 279.22C240.719 280.286 240.063 281.27 239.079 281.434C238.095 281.598 237.111 280.942 236.865 279.876C236.701 278.81 237.357 277.826 238.341 277.662C239.407 277.498 240.391 278.154 240.555 279.22Z" fill="#263238"/>
<path d="M253.511 275.694C253.675 276.678 253.101 277.662 252.117 277.826C251.051 277.99 250.231 277.416 249.985 276.35C249.821 275.366 250.395 274.382 251.379 274.218C252.363 273.972 253.347 274.628 253.511 275.694Z" fill="#263238"/>
<path d="M244.655 276.021L247.935 288.157L253.593 284.877L244.655 276.021Z" fill="#F28F8F"/>
<path d="M237.275 273.643L233.913 277.251C232.929 276.267 232.847 274.709 233.749 273.725C234.733 272.741 236.291 272.741 237.275 273.643Z" fill="#263238"/>
<path d="M253.511 272.741L249.165 270.445C249.739 269.215 251.215 268.723 252.445 269.379C253.593 269.953 254.085 271.511 253.511 272.741Z" fill="#263238"/>
<path d="M243.589 293.487C244.359 293.487 244.983 292.863 244.983 292.093C244.983 291.323 244.359 290.699 243.589 290.699C242.819 290.699 242.195 291.323 242.195 292.093C242.195 292.863 242.819 293.487 243.589 293.487Z" fill="#B16668"/>
<path d="M207.919 303.409C199.473 305.623 195.619 312.265 195.619 317.513C195.701 322.761 201.441 341.211 208.985 355.807C215.217 367.861 220.301 366.303 220.301 366.303L226.779 352.035L215.217 314.151C215.299 314.233 212.839 303.737 207.919 303.409Z" fill="#FFA8A7"/>
<path d="M219.399 327.6C216.775 331.618 211.199 342.852 212.265 350.56L220.219 330.224L219.399 327.6Z" fill="#F28F8F"/>
<path d="M239.161 314.561C240.063 311.117 240.801 306.607 240.227 304.803C239.489 302.425 238.259 302.097 238.259 302.097C238.669 301.933 239.243 301.769 239.489 301.523C239.981 301.113 240.063 300.703 240.063 300.293C240.063 299.637 238.669 299.391 238.095 299.063C236.209 297.997 235.553 297.177 234.077 295.701C233.831 295.455 233.175 294.799 232.437 294.799C231.945 293.651 231.453 292.585 230.551 292.257C230.059 292.093 229.485 292.011 228.747 292.339C228.747 292.339 228.173 290.863 227.107 290.453C226.123 290.125 225.221 290.617 225.221 290.617C225.221 290.617 224.319 289.633 223.745 289.223C222.761 288.567 221.367 288.895 220.465 289.633C219.317 290.617 218.989 292.011 218.497 293.323C218.087 294.553 217.759 295.783 217.595 297.095C217.431 298.243 217.267 299.473 217.185 300.703C217.185 301.113 217.185 302.343 217.431 302.753C218.087 304.147 226.615 313.249 226.615 313.249C226.369 318.087 214.725 339.735 212.757 346.295C210.707 353.101 214.151 364.171 217.513 365.647C220.875 367.123 225.139 367.123 229.731 358.841C234.979 349.657 236.947 323.007 239.161 314.561Z" fill="#FFA8A7"/>
<path d="M238.423 301.934C237.685 302.18 236.783 302.18 236.127 302.098C234.159 301.934 233.421 300.786 233.421 300.786C233.421 300.786 233.011 297.67 232.765 297.916C232.437 298.162 232.765 300.622 232.765 300.622C232.765 300.622 232.109 300.376 231.453 299.72C230.797 300.212 231.781 300.868 232.765 301.36C233.175 301.606 233.749 302.016 234.569 302.262C235.471 302.59 236.455 302.59 237.603 302.59C238.423 302.59 238.833 302.59 239.407 303.082C238.915 302.59 238.423 301.934 238.423 301.934Z" fill="#B16668"/>
<path d="M233.175 294.8C233.093 294.8 232.929 294.964 232.847 294.964C231.781 294.882 230.715 295.292 229.403 296.358C227.845 297.506 226.451 299.966 226.451 299.966C226.451 299.966 226.533 298.49 228.337 296.604C230.141 294.718 232.027 294.226 233.175 294.8Z" fill="#B16668"/>
<path d="M228.993 292.094V292.422C225.549 293.898 223.991 296.44 222.925 298.408C222.925 298.408 222.925 296.768 225.303 294.39C227.025 292.504 228.993 292.094 228.993 292.094Z" fill="#B16668"/>
<path d="M224.893 290.044C224.237 290.29 223.499 291.11 222.515 292.422C221.367 293.98 220.465 295.866 220.301 296.85C220.875 295.702 222.925 291.93 225.713 290.7C225.631 290.618 225.221 290.618 224.893 290.044Z" fill="#B16668"/>
<path d="M223.581 309.806C226.287 311.938 229.649 313.25 231.289 313.25C231.289 313.25 229.321 313.824 226.779 313.332L223.581 309.806Z" fill="#B16668"/>
<path d="M234.569 342.442C235.717 335.636 236.619 328.748 237.685 321.86C237.931 320.138 238.259 318.416 238.587 316.694C238.915 314.972 239.407 313.332 239.735 311.61C240.063 309.888 240.309 308.166 240.309 306.444C240.309 306.034 240.309 305.624 240.227 305.132C240.145 304.722 239.981 304.312 239.817 303.902C239.489 303.164 238.997 302.344 238.259 302.098C238.177 302.098 238.177 302.016 238.177 301.934L238.259 301.852C238.751 301.688 239.243 301.524 239.571 301.196C239.735 301.032 239.899 300.786 239.981 300.622C240.063 300.376 240.063 300.13 239.981 299.966C239.735 299.638 239.161 299.474 238.751 299.31C238.259 299.146 237.767 298.818 237.357 298.572C236.455 297.998 235.717 297.26 234.979 296.522C234.651 296.194 234.241 295.784 233.913 295.374C233.585 295.046 233.093 294.8 232.683 294.8C232.601 294.8 232.519 294.8 232.519 294.718C232.191 293.98 231.863 293.16 231.289 292.586C231.043 292.34 230.633 292.176 230.223 292.094C229.813 292.012 229.403 292.176 229.075 292.258C228.993 292.258 228.911 292.258 228.829 292.176C228.583 291.52 228.091 290.864 227.517 290.536C226.943 290.208 226.123 290.29 225.549 290.536C225.467 290.536 225.385 290.536 225.385 290.536C224.893 289.962 224.319 289.306 223.581 288.978C222.843 288.65 222.023 288.814 221.367 289.142C220.711 289.47 220.137 290.126 219.809 290.782C219.399 291.438 219.235 292.258 218.907 292.996C218.333 294.472 218.087 296.112 217.841 297.67C217.759 298.49 217.677 299.228 217.595 300.048C217.595 300.458 217.595 300.868 217.595 301.278C217.595 301.688 217.677 302.098 217.841 302.426C218.415 303.41 219.235 304.23 219.973 305.132C220.711 306.034 221.531 306.854 222.269 307.756C223.827 309.478 225.385 311.2 226.943 312.922V313.004C226.861 313.824 226.615 314.644 226.369 315.382C226.123 316.12 225.795 316.858 225.467 317.596C224.811 319.072 224.155 320.548 223.417 322.024C222.023 324.894 220.629 327.846 219.317 330.798C220.629 327.846 221.941 324.894 223.335 322.024C223.991 320.548 224.647 319.072 225.303 317.596C225.631 316.858 225.959 316.12 226.205 315.382C226.451 314.644 226.697 313.824 226.779 313.086V313.168C225.221 311.446 223.581 309.724 222.023 308.002C221.203 307.1 220.465 306.28 219.727 305.378C218.989 304.476 218.169 303.656 217.595 302.59C217.349 302.18 217.349 301.77 217.349 301.36C217.349 300.95 217.349 300.54 217.349 300.13C217.431 299.31 217.513 298.49 217.595 297.67C217.841 296.03 218.169 294.472 218.661 292.914C218.907 292.176 219.153 291.356 219.563 290.618C219.973 289.88 220.547 289.224 221.285 288.814C222.023 288.404 222.925 288.322 223.745 288.65C224.155 288.814 224.483 289.06 224.811 289.388C225.139 289.634 225.385 289.962 225.631 290.29H225.467C225.795 290.126 226.205 290.044 226.615 289.962C227.025 289.962 227.435 290.044 227.763 290.208C228.091 290.372 228.419 290.7 228.665 291.028C228.911 291.356 229.075 291.684 229.239 292.012L228.993 291.93C229.403 291.766 229.895 291.684 230.305 291.684C230.715 291.766 231.207 291.93 231.535 292.258C232.191 292.914 232.519 293.734 232.847 294.472L232.683 294.39C233.257 294.39 233.749 294.718 234.159 295.046C234.569 295.456 234.897 295.784 235.225 296.194C235.963 296.932 236.701 297.67 237.521 298.162C237.931 298.408 238.341 298.736 238.833 298.9C239.325 299.146 239.817 299.228 240.227 299.72C240.473 300.294 240.145 300.868 239.817 301.278C239.407 301.688 238.915 301.852 238.423 302.016V301.77C239.325 302.18 239.817 303 240.145 303.738C240.309 304.148 240.473 304.558 240.555 304.968C240.637 305.378 240.637 305.87 240.637 306.28C240.637 308.002 240.309 309.724 239.981 311.446C239.653 313.168 239.161 314.808 238.833 316.53C238.505 318.252 238.177 319.974 237.931 321.614L236.291 331.864C235.717 335.636 235.143 338.998 234.569 342.442Z" fill="#B16668"/>
<path d="M314.355 327.19C313.043 326.124 311.321 325.55 309.435 325.222C304.761 325.55 300.333 327.6 297.791 329.158C295.413 330.634 294.429 330.88 290.575 331.372C287.213 331.864 272.781 333.422 272.617 333.176L258.103 342.442C260.563 347.116 262.285 351.38 269.091 350.314C273.273 349.658 289.099 344.82 294.183 343.426C299.349 341.95 302.629 342.77 304.597 343.098C308.943 343.918 311.485 343.18 316.159 342.606C323.867 341.622 318.701 330.716 314.355 327.19Z" fill="#FFA8A7"/>
<path d="M309.763 332.848L314.847 342.77C314.847 342.77 314.273 342.852 313.699 342.934L308.697 333.668C308.697 333.668 306.401 331.946 304.761 332.438C306.073 329.568 309.763 332.848 309.763 332.848Z" fill="#F28F8F"/>
<path d="M309.845 334.979C309.845 334.979 307.877 338.423 303.941 338.833C303.941 338.833 307.057 339.899 310.583 336.291L309.845 334.979Z" fill="#F28F8F"/>
<path d="M322.063 345.968L323.047 352.938C323.047 353.102 322.801 353.266 322.719 353.102L317.635 348.182L322.063 345.968Z" fill="#FFA8A7"/>
<path d="M322.719 353.101C322.883 353.265 323.129 353.101 323.047 352.937L322.883 351.543C322.637 351.871 322.227 352.117 321.735 352.035H321.653L322.719 353.101Z" fill="#263238"/>
<path d="M304.023 321.695L304.351 322.269L304.679 323.007L317.553 348.263C318.291 348.591 319.111 348.509 319.849 348.181C320.997 347.771 321.899 346.869 321.981 346.049L309.107 320.875L308.451 319.563C308.861 320.301 304.433 322.597 304.023 321.695Z" fill="#BA68C8"/>
<path opacity="0.15" d="M304.023 321.695L304.351 322.269L304.679 323.007L317.553 348.263C318.291 348.591 319.111 348.509 319.849 348.181C320.997 347.771 321.899 346.869 321.981 346.049L309.107 320.875L308.451 319.563C308.861 320.301 304.433 322.597 304.023 321.695Z" fill="black"/>
<path d="M305.171 323.909L305.827 325.221C305.991 325.631 306.893 325.467 307.877 325.057C309.189 324.565 310.419 323.499 310.173 322.925L309.681 321.941L309.517 321.613C309.763 322.105 308.451 323.171 307.221 323.745C306.319 324.073 305.417 324.237 305.171 323.909Z" fill="#EBEBEB"/>
<path d="M305.335 324.237C305.745 325.139 310.173 322.843 309.763 321.941L309.107 320.629C309.517 321.531 305.171 323.827 304.679 322.925L305.335 324.237Z" fill="#BA68C8"/>
<path d="M304.023 321.695L304.679 323.007C305.089 323.909 309.353 321.695 309.107 320.793C309.107 320.793 309.107 320.793 309.107 320.711L308.451 319.399C308.861 320.301 304.433 322.597 304.023 321.695Z" fill="#EBEBEB"/>
<path opacity="0.15" d="M322.883 353.183L323.047 352.937L320.505 347.771L306.893 321.121C306.975 321.039 306.975 321.039 306.893 321.039C305.745 321.695 304.269 322.187 304.023 321.695L304.351 322.269L304.679 323.007L317.553 348.263L322.637 353.183C322.719 353.183 322.883 353.183 322.883 353.183Z" fill="black"/>
<path d="M301.317 316.201L304.105 321.613C304.269 322.023 305.171 321.859 306.155 321.449C307.467 320.957 308.697 319.891 308.533 319.317L305.745 313.823C305.171 312.757 302.875 313.577 301.727 314.725C301.317 315.299 301.071 315.791 301.317 316.201Z" fill="#F28F8F"/>
<path opacity="0.1" d="M302.957 316.611C304.187 316.365 305.417 315.463 305.663 314.561C305.745 314.233 305.745 313.987 305.581 313.741C304.843 312.921 302.711 313.741 301.727 314.807C301.317 315.217 301.153 315.709 301.317 316.119C301.481 316.611 302.137 316.775 302.957 316.611Z" fill="black"/>
<path d="M311.731 325.876C312.879 325.794 313.945 325.958 314.191 325.958C315.585 326.122 316.569 326.368 317.717 327.024C318.127 327.27 318.537 327.516 318.783 327.926C319.029 328.336 319.111 328.828 319.193 329.32C319.685 331.78 321.735 333.175 322.227 335.635C322.309 336.373 322.063 339.407 321.817 341.621C321.735 342.605 321.735 343.589 321.735 343.589C321.407 344.245 320.833 343.999 320.423 343.753C319.685 343.261 319.521 342.523 319.357 341.703C319.275 341.293 319.111 340.391 319.111 340.391C318.865 340.883 318.455 340.965 317.881 340.719C317.143 340.473 316.897 339.243 316.733 338.505C316.405 336.701 316.487 335.88 316.159 334.568C316.159 334.568 315.339 332.929 315.175 332.683C315.257 332.765 311.731 325.876 311.731 325.876Z" fill="#FFA8A7"/>
<path d="M320.915 343.999C320.423 343.589 320.013 343.015 319.849 341.867C319.685 340.719 320.013 338.587 320.259 337.603C320.505 336.619 320.669 335.061 320.341 334.077C320.013 333.093 319.521 330.961 319.521 330.961C319.521 330.961 319.603 331.699 319.767 332.929C319.931 334.159 319.931 335.717 319.767 336.619C319.521 337.603 319.357 338.997 319.193 340.227C319.193 340.227 319.357 341.211 319.439 341.539C319.603 342.359 319.767 343.097 320.505 343.589C320.587 343.835 320.751 343.917 320.915 343.999Z" fill="#F28F8F"/>
<path d="M316.323 330.469C316.323 330.469 316.979 331.043 316.405 332.273C315.995 333.175 315.503 333.339 315.503 333.339L315.175 332.683L316.323 330.469Z" fill="#F28F8F"/>
<path d="M297.791 329.157C301.153 327.353 302.957 324.975 306.319 325.631C308.533 326.041 310.091 327.353 313.453 329.157C314.683 329.813 316.323 330.305 316.323 330.469C316.897 332.519 314.273 333.667 310.829 333.093C309.025 332.765 306.319 331.207 304.761 332.437C303.941 335.143 301.317 336.373 301.317 336.373C301.317 336.373 297.709 334.569 297.791 329.157Z" fill="#FFA8A7"/>
<path d="M235.553 236.826C237.138 236.826 238.423 235.541 238.423 233.956C238.423 232.371 237.138 231.086 235.553 231.086C233.968 231.086 232.683 232.371 232.683 233.956C232.683 235.541 233.968 236.826 235.553 236.826Z" fill="#37474F"/>
<path d="M232.109 234.12C230.223 232.972 230.223 231.25 232.191 230.102C234.077 229.036 237.193 229.036 239.079 230.184C240.965 231.332 240.965 233.054 238.997 234.202C237.111 235.268 233.995 235.268 232.109 234.12Z" fill="#455A64"/>
<path d="M232.027 233.136C230.059 231.988 230.059 230.184 232.109 229.036C234.077 227.888 237.275 227.97 239.243 229.118C241.211 230.266 241.211 232.07 239.161 233.218C237.193 234.284 233.995 234.284 232.027 233.136Z" fill="#37474F"/>
<path d="M231.945 232.07C229.895 230.84 229.977 228.954 232.027 227.806C234.077 226.658 237.357 226.658 239.325 227.888C241.375 229.118 241.293 231.004 239.243 232.152C237.193 233.3 233.913 233.218 231.945 232.07Z" fill="#455A64"/>
<path d="M231.863 230.923C229.813 229.693 229.813 227.725 231.945 226.577C234.077 225.429 237.439 225.429 239.489 226.659C241.539 227.889 241.539 229.857 239.407 231.005C237.275 232.235 233.913 232.153 231.863 230.923Z" fill="#37474F"/>
<path d="M231.781 229.774C229.649 228.544 229.649 226.494 231.863 225.346C233.995 224.116 237.439 224.198 239.571 225.428C241.703 226.658 241.703 228.708 239.489 229.856C237.357 231.086 233.913 231.004 231.781 229.774Z" fill="#455A64"/>
<path d="M235.963 196.318C228.419 196.236 222.187 202.304 222.105 209.848C222.023 220.754 230.961 222.64 230.879 226.986C230.879 227.724 231.289 228.38 232.273 228.954C234.077 230.02 237.111 230.102 238.915 229.036C239.817 228.544 240.309 227.806 240.309 227.15C240.391 222.804 249.329 221.082 249.493 210.176C249.575 202.632 243.507 196.4 235.963 196.318Z" fill="#BA68C8"/>
<g opacity="0.6">
<path opacity="0.6" d="M235.963 196.318C228.419 196.236 222.187 202.304 222.105 209.848C222.023 220.754 230.961 222.64 230.879 226.986C230.879 227.724 231.289 228.38 232.273 228.954C234.077 230.02 237.111 230.102 238.915 229.036C239.817 228.544 240.309 227.806 240.309 227.15C240.391 222.804 249.329 221.082 249.493 210.176C249.575 202.632 243.507 196.4 235.963 196.318Z" fill="white"/>
</g>
<path d="M233.093 228.38C231.699 227.56 231.699 226.248 233.093 225.51C234.487 224.69 236.701 224.772 238.095 225.592C239.489 226.412 239.489 227.724 238.095 228.462C236.783 229.2 234.487 229.2 233.093 228.38Z" fill="#BA68C8"/>
<path d="M237.439 226.659C237.193 226.659 236.947 226.413 236.947 226.167C236.947 226.003 236.947 222.477 238.013 218.377C238.259 217.557 238.423 216.819 238.751 216.245C238.341 216.081 238.013 215.917 237.603 215.671C236.865 215.179 236.291 214.687 235.799 214.113C235.307 214.687 234.733 215.179 233.995 215.589C233.585 215.835 233.175 215.999 232.765 216.163C233.011 216.819 233.257 217.557 233.421 218.377C234.405 222.559 234.323 226.085 234.323 226.249C234.323 226.495 234.077 226.659 233.831 226.659C233.585 226.659 233.339 226.413 233.421 226.167C233.421 226.167 233.503 222.641 232.601 218.541C232.437 217.721 232.191 216.983 231.945 216.327C230.797 216.491 229.895 216.163 229.403 215.507C228.911 214.933 228.829 214.113 229.239 213.621C229.567 213.211 230.059 212.965 230.469 213.129C231.207 213.293 231.945 214.031 232.519 215.261C232.847 215.179 233.257 215.015 233.585 214.769C234.323 214.359 234.897 213.785 235.307 213.293C234.651 212.309 234.487 211.325 234.651 210.669C234.815 210.095 235.307 209.767 235.881 209.767C236.537 209.767 236.947 210.095 237.111 210.669C237.275 211.325 237.029 212.309 236.373 213.293C236.783 213.785 237.357 214.359 238.095 214.769C238.505 215.015 238.833 215.179 239.161 215.261C239.817 214.031 240.473 213.293 241.211 213.129C241.703 213.047 242.195 213.211 242.441 213.703C242.851 214.277 242.769 215.015 242.195 215.589C241.621 216.163 240.719 216.491 239.571 216.327C239.325 216.901 239.079 217.639 238.833 218.459C237.767 222.477 237.849 226.003 237.849 226.003C237.931 226.413 237.767 226.659 237.439 226.659C237.521 226.659 237.521 226.659 237.439 226.659ZM230.059 214.031C229.977 214.031 229.895 214.031 229.813 214.195C229.567 214.523 229.813 214.851 229.895 214.933C230.223 215.261 230.715 215.507 231.371 215.425C230.961 214.523 230.469 214.113 230.059 214.031C230.141 214.031 230.141 214.031 230.059 214.031ZM240.145 215.589C240.801 215.671 241.293 215.425 241.621 215.097C241.703 215.015 241.949 214.687 241.785 214.359C241.621 214.195 241.539 214.195 241.457 214.195C241.129 214.195 240.637 214.687 240.145 215.589ZM235.799 210.669C235.553 210.669 235.471 210.751 235.471 210.915C235.389 211.243 235.471 211.817 235.799 212.473C236.127 211.817 236.291 211.325 236.209 210.915C236.127 210.833 236.045 210.669 235.799 210.669Z" fill="white"/>
<path d="M236.127 191.07C236.045 191.07 235.963 191.07 235.881 191.07C235.389 191.07 234.979 190.66 234.979 190.168V185.494C234.979 185.002 235.389 184.592 235.881 184.592C236.373 184.592 236.783 185.002 236.783 185.494V190.168C236.783 190.66 236.455 190.988 236.127 191.07Z" fill="#E0E0E0"/>
<path d="M226.123 193.776C225.713 193.858 225.303 193.694 225.139 193.366L222.843 189.348C222.597 188.938 222.761 188.364 223.171 188.118C223.581 187.872 224.155 188.036 224.401 188.446L226.697 192.464C226.943 192.874 226.779 193.448 226.369 193.694C226.287 193.694 226.205 193.694 226.123 193.776Z" fill="#E0E0E0"/>
<path d="M218.825 200.992C218.579 201.074 218.333 200.992 218.169 200.91L214.151 198.532C213.741 198.286 213.577 197.712 213.823 197.302C214.069 196.892 214.643 196.728 215.053 196.974L219.071 199.352C219.481 199.598 219.645 200.172 219.399 200.582C219.235 200.828 219.071 200.91 218.825 200.992Z" fill="#E0E0E0"/>
<path d="M216.119 210.913C216.037 210.913 215.955 210.913 215.873 210.913H211.199C210.707 210.913 210.297 210.503 210.297 210.011C210.297 209.519 210.707 209.109 211.199 209.109H215.873C216.365 209.109 216.775 209.519 216.775 210.011C216.775 210.503 216.529 210.831 216.119 210.913Z" fill="#E0E0E0"/>
<path d="M257.283 223.378C257.037 223.46 256.791 223.378 256.627 223.296L252.609 220.918C252.199 220.672 252.035 220.098 252.281 219.688C252.527 219.278 253.101 219.114 253.511 219.36L257.529 221.738C257.939 221.984 258.103 222.558 257.857 222.968C257.693 223.214 257.447 223.296 257.283 223.378Z" fill="#E0E0E0"/>
<path d="M214.479 223.378C214.725 223.46 214.971 223.378 215.135 223.296L219.153 220.918C219.563 220.672 219.727 220.098 219.481 219.688C219.235 219.278 218.661 219.114 218.251 219.36L214.233 221.738C213.823 221.984 213.659 222.558 213.905 222.968C214.069 223.214 214.315 223.296 214.479 223.378Z" fill="#E0E0E0"/>
<path d="M260.563 211.077C260.481 211.077 260.399 211.077 260.317 211.077H255.643C255.151 211.077 254.741 210.667 254.741 210.175C254.741 209.683 255.151 209.273 255.643 209.273H260.317C260.809 209.273 261.219 209.683 261.219 210.175C261.219 210.667 260.973 210.995 260.563 211.077Z" fill="#E0E0E0"/>
<path d="M253.265 201.156C252.855 201.238 252.445 201.074 252.281 200.746C252.035 200.336 252.199 199.762 252.609 199.516L256.627 197.22C257.037 196.974 257.611 197.138 257.857 197.548C258.103 197.958 257.939 198.532 257.529 198.778L253.511 201.074C253.429 201.074 253.347 201.156 253.265 201.156Z" fill="#E0E0E0"/>
<path d="M246.049 193.858C245.803 193.94 245.557 193.858 245.393 193.776C244.983 193.53 244.819 192.956 245.065 192.546L247.443 188.528C247.689 188.118 248.263 187.954 248.673 188.2C249.083 188.446 249.247 189.02 249.001 189.43L246.623 193.448C246.459 193.612 246.295 193.776 246.049 193.858Z" fill="#E0E0E0"/>
<path d="M212.839 189.183C213.79 189.183 214.561 188.412 214.561 187.461C214.561 186.51 213.79 185.739 212.839 185.739C211.888 185.739 211.117 186.51 211.117 187.461C211.117 188.412 211.888 189.183 212.839 189.183Z" fill="#E0E0E0"/>
<path d="M289.755 141.131H255.807C252.855 141.131 250.395 138.671 250.395 135.719V104.067C250.395 101.115 252.855 98.6553 255.807 98.6553H289.755C292.707 98.6553 295.167 101.115 295.167 104.067V135.719C295.167 138.671 292.707 141.131 289.755 141.131Z" fill="#FAFAFA" stroke="#E0E0E0" stroke-miterlimit="10"/>
<path d="M283.195 130.389C280.489 133.341 276.471 135.227 272.125 135.227C263.843 135.227 257.037 128.503 257.037 120.139C257.037 111.857 263.761 105.051 272.125 105.051C273.601 105.051 274.995 105.297 276.307 105.625L271.797 119.975C271.797 119.975 271.797 119.975 271.797 120.057C271.797 120.139 271.879 120.303 271.879 120.303L283.195 130.389Z" fill="#BA68C8"/>
<path opacity="0.3" d="M283.195 130.389C280.489 133.341 276.471 135.227 272.125 135.227C263.843 135.227 257.037 128.503 257.037 120.139C257.037 111.857 263.761 105.051 272.125 105.051C273.601 105.051 274.995 105.297 276.307 105.625L271.797 119.975C271.797 119.975 271.797 119.975 271.797 120.057C271.797 120.139 271.879 120.303 271.879 120.303L283.195 130.389Z" fill="black"/>
<path d="M287.295 110.299L273.929 118.499L278.685 103.575C282.211 104.805 285.245 107.183 287.295 110.299Z" fill="#BA68C8"/>
<path d="M290.001 120.221C290.001 124.321 288.525 128.093 286.065 130.963L273.929 120.303L287.705 111.857C289.181 114.317 290.001 117.187 290.001 120.221Z" fill="#BA68C8"/>
<g opacity="0.3">
<path opacity="0.3" d="M290.001 120.221C290.001 124.321 288.525 128.093 286.065 130.963L273.929 120.303L287.705 111.857C289.181 114.317 290.001 117.187 290.001 120.221Z" fill="white"/>
</g>
<path d="M243.753 182.788C244.704 182.788 245.475 182.017 245.475 181.066C245.475 180.115 244.704 179.344 243.753 179.344C242.802 179.344 242.031 180.115 242.031 181.066C242.031 182.017 242.802 182.788 243.753 182.788Z" fill="#E0E0E0"/>
<path d="M243.753 181.476C243.671 181.476 243.671 181.476 243.589 181.476C243.425 181.394 243.261 181.148 243.343 180.984L256.463 149.25C256.545 149.086 256.709 149.004 256.791 149.004H272.289V141.132C272.289 140.886 272.453 140.722 272.699 140.722C272.945 140.722 273.109 140.886 273.109 141.132V149.414C273.109 149.66 272.945 149.824 272.699 149.824H257.037L243.999 181.312C244.081 181.394 243.917 181.476 243.753 181.476Z" fill="#E0E0E0"/>
<path d="M392.419 177.211H348.631C345.925 177.211 343.711 179.425 343.711 182.131V204.189C343.711 206.895 345.925 209.109 348.631 209.109H353.633V216.243C353.633 216.899 354.453 217.309 354.945 216.817L362.653 209.109H392.419C395.125 209.109 397.339 206.895 397.339 204.189V182.131C397.339 179.425 395.125 177.211 392.419 177.211Z" fill="#BA68C8"/>
<path d="M388.811 187.133H352.321C351.583 187.133 350.927 186.477 350.927 185.739C350.927 185.001 351.583 184.345 352.321 184.345H388.811C389.549 184.345 390.205 185.001 390.205 185.739C390.205 186.477 389.549 187.133 388.811 187.133Z" fill="#FAFAFA"/>
<path d="M388.811 194.759H352.321C351.583 194.759 350.927 194.103 350.927 193.365C350.927 192.627 351.583 191.971 352.321 191.971H388.811C389.549 191.971 390.205 192.627 390.205 193.365C390.205 194.103 389.549 194.759 388.811 194.759Z" fill="#FAFAFA"/>
<path d="M388.811 202.385H352.321C351.583 202.385 350.927 201.729 350.927 200.991C350.927 200.253 351.583 199.597 352.321 199.597H388.811C389.549 199.597 390.205 200.253 390.205 200.991C390.205 201.729 389.549 202.385 388.811 202.385Z" fill="#FAFAFA"/>
<path d="M268.599 255.602C269.55 255.602 270.321 254.831 270.321 253.88C270.321 252.929 269.55 252.158 268.599 252.158C267.648 252.158 266.877 252.929 266.877 253.88C266.877 254.831 267.648 255.602 268.599 255.602Z" fill="#E0E0E0"/>
<path d="M287.377 254.291H268.681C268.435 254.291 268.271 254.127 268.271 253.881C268.271 253.635 268.435 253.471 268.681 253.471H287.213L323.457 194.513C323.539 194.431 323.621 194.349 323.785 194.349H340.841C341.087 194.349 341.251 194.513 341.251 194.759C341.251 195.005 341.087 195.169 340.841 195.169H324.031L287.705 254.127C287.623 254.209 287.459 254.291 287.377 254.291Z" fill="#E0E0E0"/>
<path d="M374.379 275.12H315.831C312.879 275.12 310.419 272.66 310.419 269.708V238.056C310.419 235.104 312.879 232.644 315.831 232.644H374.379C377.331 232.644 379.791 235.104 379.791 238.056V269.708C379.791 272.742 377.331 275.12 374.379 275.12Z" fill="#FAFAFA" stroke="#E0E0E0" stroke-miterlimit="10"/>
<path d="M361.423 245.846L349.533 269.052H373.231L361.423 245.846Z" fill="#BA68C8"/>
<path opacity="0.3" d="M361.423 245.846L349.533 269.052H373.231L361.423 245.846Z" fill="white"/>
<path d="M345.105 237.81L333.215 269.052H356.913L345.105 237.81Z" fill="#BA68C8"/>
<path d="M328.951 250.191L317.061 269.051H340.759L328.951 250.191Z" fill="#BA68C8"/>
<path opacity="0.3" d="M328.951 250.191L317.061 269.051H340.759L328.951 250.191Z" fill="black"/>
<path d="M319.357 239.122H317.471C317.307 239.122 317.061 238.958 317.061 238.712V236.826C317.061 236.662 317.225 236.416 317.471 236.416H319.357C319.521 236.416 319.767 236.58 319.767 236.826V238.712C319.685 238.958 319.521 239.122 319.357 239.122Z" fill="#BA68C8"/>
<path opacity="0.3" d="M319.357 239.122H317.471C317.307 239.122 317.061 238.958 317.061 238.712V236.826C317.061 236.662 317.225 236.416 317.471 236.416H319.357C319.521 236.416 319.767 236.58 319.767 236.826V238.712C319.685 238.958 319.521 239.122 319.357 239.122Z" fill="black"/>
<path d="M319.357 242.976H317.471C317.307 242.976 317.061 242.812 317.061 242.566V240.68C317.061 240.516 317.225 240.27 317.471 240.27H319.357C319.521 240.27 319.767 240.434 319.767 240.68V242.566C319.685 242.812 319.521 242.976 319.357 242.976Z" fill="#BA68C8"/>
<path d="M319.357 246.748H317.471C317.307 246.748 317.061 246.584 317.061 246.338V244.452C317.061 244.288 317.225 244.042 317.471 244.042H319.357C319.521 244.042 319.767 244.206 319.767 244.452V246.338C319.685 246.584 319.521 246.748 319.357 246.748Z" fill="#BA68C8"/>
<path opacity="0.3" d="M319.357 246.748H317.471C317.307 246.748 317.061 246.584 317.061 246.338V244.452C317.061 244.288 317.225 244.042 317.471 244.042H319.357C319.521 244.042 319.767 244.206 319.767 244.452V246.338C319.685 246.584 319.521 246.748 319.357 246.748Z" fill="white"/>
<path d="M331.821 288.814H268.599C268.353 288.814 268.189 288.65 268.189 288.404C268.189 288.158 268.353 287.994 268.599 287.994H331.657L344.859 274.792C345.023 274.628 345.269 274.628 345.433 274.792C345.597 274.956 345.597 275.202 345.433 275.366L332.067 288.732C331.985 288.814 331.903 288.814 331.821 288.814Z" fill="#E0E0E0"/>
<path d="M268.599 290.126C269.55 290.126 270.321 289.355 270.321 288.404C270.321 287.453 269.55 286.682 268.599 286.682C267.648 286.682 266.877 287.453 266.877 288.404C266.877 289.355 267.648 290.126 268.599 290.126Z" fill="#E0E0E0"/>
<path d="M382.994 277.002L381.371 278.626L387.227 284.482L388.851 282.859L382.994 277.002Z" fill="#E0E0E0"/>
<path d="M397.093 292.749C396.273 293.569 395.043 293.569 394.223 292.749L385.777 284.303L388.647 281.433L397.093 289.879C397.913 290.699 397.913 291.929 397.093 292.749Z" fill="#BA68C8"/>
<path opacity="0.4" d="M375.281 282.663C381.757 282.663 387.007 277.413 387.007 270.937C387.007 264.461 381.757 259.211 375.281 259.211C368.805 259.211 363.555 264.461 363.555 270.937C363.555 277.413 368.805 282.663 375.281 282.663Z" fill="white"/>
<path d="M375.281 259.211C368.803 259.211 363.555 264.459 363.555 270.937C363.555 277.415 368.803 282.663 375.281 282.663C381.759 282.663 387.007 277.415 387.007 270.937C387.007 264.459 381.759 259.211 375.281 259.211ZM375.281 279.629C370.443 279.629 366.507 275.693 366.507 270.855C366.507 266.017 370.443 262.081 375.281 262.081C380.119 262.081 384.055 266.017 384.055 270.855C384.055 275.693 380.119 279.629 375.281 279.629Z" fill="#455A64"/>
<defs>
<filter id="filter0_i" x="32.2252" y="63.6411" width="381.887" height="359.82" filterUnits="userSpaceOnUse" color-interpolation-filters="sRGB">
<feFlood flood-opacity="0" result="BackgroundImageFix"/>
<feBlend mode="normal" in="SourceGraphic" in2="BackgroundImageFix" result="shape"/>
<feColorMatrix in="SourceAlpha" type="matrix" values="0 0 0 0 0 0 0 0 0 0 0 0 0 0 0 0 0 0 127 0" result="hardAlpha"/>
<feOffset dx="8.82997" dy="8.82997"/>
<feGaussianBlur stdDeviation="2.94332"/>
<feComposite in2="hardAlpha" operator="arithmetic" k2="-1" k3="1"/>
<feColorMatrix type="matrix" values="0 0 0 0 0.849479 0 0 0 0 0.910156 0 0 0 0 0.970833 0 0 0 0.52 0"/>
<feBlend mode="normal" in2="shape" result="effect1_innerShadow"/>
</filter>
</defs>
</svg>
