<svg width="432" height="452" viewBox="0 0 432 452" fill="none" xmlns="http://www.w3.org/2000/svg">
<g filter="url(#filter0_i)">
<rect x="0.0449219" y="97.998" width="376" height="353.933" rx="44.1498" fill="#EFF7FF"/>
</g>
<path opacity="0.8" d="M298.715 183.167C341.668 183.167 376.489 148.347 376.489 105.394C376.489 62.4413 341.668 27.6211 298.715 27.6211C255.763 27.6211 220.942 62.4413 220.942 105.394C220.942 148.347 255.763 183.167 298.715 183.167Z" fill="#D6EAFF"/>
<path d="M395.875 114.487L384.495 111.971V115.459L395.875 114.487Z" fill="#7229B2"/>
<path d="M190.046 137.819L261.929 148.741V108.482L190.046 88.1812V137.819Z" fill="#16BFB2"/>
<path d="M261.929 148.741L190.046 155.832L217.724 141.993L261.929 148.741Z" fill="#23E2D8"/>
<path d="M384.495 72.1686L312.612 61.2461V101.505L384.495 121.806V72.1686Z" fill="#16BFB2"/>
<path d="M190.046 137.898L396.046 121.8V71.8979L190.046 87.9955V137.898Z" fill="#23E2D8"/>
<path d="M312.612 61.2464L384.495 54.1553L356.817 67.9371L312.612 61.2464Z" fill="#23E2D8"/>
<path d="M195.046 134.898V84.1021L195.551 84.0446L398.046 67.8979V118.694L397.541 118.751L195.046 134.898ZM196.056 84.964V133.864L396.973 117.889V68.9897L196.056 84.964Z" fill="black"/>
<path d="M386.836 113.478L389.626 110.688L386.836 107.898L384.046 110.688L386.836 113.478Z" fill="black"/>
<path d="M216.539 93.8428C214.938 93.8428 214.938 96.359 216.539 96.359C218.14 96.359 218.14 93.8428 216.539 93.8428Z" fill="black"/>
<path d="M275.498 63.0193L273.725 40.8311L280.473 42.4894L275.498 63.0193Z" fill="#993ADC"/>
<path d="M280.53 64.22L290.423 46.8926L297.286 53.2402L280.53 64.22Z" fill="#FFCB0E"/>
<path d="M270.466 62.7336L263.432 42.0322L256.855 44.7772L270.466 62.7336Z" fill="#FFCB0E"/>
<path d="M252.607 61.541L255.841 59.2808L253.581 56.0463L250.347 58.3065L252.607 61.541Z" fill="#993ADC"/>
<path d="M303.652 58.0783L307.427 56.9292L306.278 53.1542L302.503 54.3033L303.652 58.0783Z" fill="#993ADC"/>
<path d="M290.538 65.0211C288.994 64.5064 288.25 66.9082 289.794 67.4229C291.281 67.9376 292.082 65.5357 290.538 65.0211Z" fill="black"/>
<path d="M248.735 37.9717C247.191 37.4571 246.447 39.8589 247.991 40.3736C249.478 40.831 250.279 38.4292 248.735 37.9717Z" fill="black"/>
<path d="M310.903 147.565L314.815 147.045L314.295 143.133L310.384 143.653L310.903 147.565Z" fill="#993ADC"/>
<path d="M277.816 156.083L278.721 152.242L274.88 151.337L273.976 155.178L277.816 156.083Z" fill="#993ADC"/>
<path d="M283.39 137.247L305.063 142.165L301.518 148.112L283.39 137.247Z" fill="#993ADC"/>
<path d="M280.702 141.707L294.255 156.289L286.192 160.922L280.702 141.707Z" fill="#FFCB0E"/>
<path d="M305.063 132.844C303.462 132.844 303.462 135.36 305.063 135.36C306.664 135.36 306.664 132.844 305.063 132.844Z" fill="black"/>
<path d="M290.709 165.726C289.108 165.726 289.108 168.242 290.709 168.242C292.311 168.242 292.311 165.726 290.709 165.726Z" fill="black"/>
<path d="M221.361 118.994C218.571 119.236 216.504 118.69 215.159 117.357C213.831 116.006 213.167 113.789 213.167 110.705C213.167 104.772 215.939 101.564 221.485 101.083C222.315 101.011 223.162 101.029 224.026 101.137C224.889 101.229 225.562 101.396 226.043 101.637C226.475 101.85 226.691 102.098 226.691 102.381C226.691 102.614 226.599 102.931 226.417 103.33C226.234 103.712 226.01 104.065 225.744 104.388C225.495 104.693 225.271 104.854 225.072 104.872C225.022 104.876 224.823 104.818 224.474 104.698C224.125 104.579 223.702 104.482 223.204 104.409C222.706 104.335 222.108 104.329 221.411 104.389C219.949 104.516 218.862 105.077 218.148 106.073C217.45 107.067 217.102 108.505 217.102 110.389C217.102 114.189 218.521 115.965 221.361 115.719C222.108 115.654 222.755 115.523 223.303 115.325C223.851 115.128 224.383 114.89 224.897 114.612C225.163 114.455 225.346 114.373 225.445 114.364C225.694 114.343 225.927 114.464 226.143 114.729C226.375 114.992 226.558 115.301 226.691 115.656C226.84 115.993 226.915 116.245 226.915 116.412C226.915 116.845 226.624 117.253 226.043 117.637C225.495 118.002 224.773 118.306 223.876 118.55C222.98 118.778 222.141 118.926 221.361 118.994ZM236.096 117.714C233.522 117.938 231.546 117.343 230.168 115.929C228.79 114.499 228.101 112.342 228.101 109.459C228.101 106.575 228.79 104.307 230.168 102.654C231.546 100.984 233.522 100.038 236.096 99.8145C238.669 99.591 240.637 100.195 241.998 101.627C243.376 103.041 244.066 105.189 244.066 108.073C244.066 110.956 243.376 113.232 241.998 114.902C240.637 116.554 238.669 117.491 236.096 117.714ZM236.096 114.439C237.424 114.324 238.428 113.754 239.109 112.728C239.79 111.702 240.13 110.264 240.13 108.414C240.13 106.564 239.79 105.194 239.109 104.303C238.428 103.395 237.424 102.999 236.096 103.114C234.767 103.23 233.754 103.801 233.057 104.828C232.376 105.837 232.036 107.267 232.036 109.117C232.036 110.967 232.376 112.346 233.057 113.253C233.754 114.159 234.767 114.555 236.096 114.439ZM255.334 111.669C254.903 111.707 254.571 111.577 254.338 111.281L251.275 106.047C251.059 105.699 250.876 105.39 250.727 105.119L250.627 105.153V106.378V115.503C250.627 116.036 250.129 116.346 249.133 116.433L248.41 116.495C247.414 116.582 246.916 116.358 246.916 115.825V99.825C246.916 99.2917 247.414 98.9818 248.41 98.8953L249.73 98.7807C250.527 98.7115 251.05 98.8911 251.299 99.3195L255.434 106.361L255.683 106.764L255.907 106.319L260.116 98.554C260.365 98.0823 260.888 97.8119 261.685 97.7427L262.981 97.6303C263.977 97.5438 264.475 97.7672 264.475 98.3005V114.301C264.475 114.834 263.977 115.144 262.981 115.23L262.258 115.293C261.262 115.379 260.764 115.156 260.764 114.623V105.498V104.273L260.664 104.256C260.515 104.553 260.332 104.894 260.116 105.279L257.053 111.045C256.82 111.382 256.488 111.569 256.057 111.606L255.334 111.669ZM269.276 114.709C268.28 114.795 267.782 114.563 267.782 114.013V98.0134C267.782 97.4634 268.28 97.1452 269.276 97.0587L270.148 96.983C271.144 96.8965 271.642 97.1283 271.642 97.6783V113.678C271.642 114.228 271.144 114.547 270.148 114.633L269.276 114.709ZM276.454 114.06C275.458 114.147 274.96 113.924 274.96 113.39V97.3902C274.96 96.8569 275.458 96.547 276.454 96.4605L277.525 96.3675C277.924 96.3329 278.256 96.3541 278.521 96.431C278.787 96.4913 279.003 96.6475 279.169 96.8998L284.773 105.088C285.105 105.543 285.404 106.008 285.67 106.485L285.769 106.452C285.736 106.071 285.719 105.506 285.719 104.756V96.4561C285.719 95.9227 286.218 95.6128 287.214 95.5263L287.936 95.4636C288.932 95.3771 289.43 95.6005 289.43 96.1339V112.134C289.43 112.667 288.932 112.977 287.936 113.064L286.99 113.146C286.591 113.18 286.259 113.168 285.993 113.107C285.728 113.03 285.512 112.866 285.346 112.613L279.617 104.311C279.285 103.856 278.986 103.391 278.721 102.914L278.621 102.947C278.654 103.328 278.671 103.893 278.671 104.643V113.068C278.671 113.601 278.173 113.911 277.177 113.998L276.454 114.06ZM305.265 101.784C305.613 101.754 305.862 101.816 306.012 101.969C306.178 102.105 306.261 102.348 306.261 102.698V109.648C306.261 110.398 305.638 110.968 304.393 111.36C303.148 111.751 301.836 112.007 300.458 112.126C297.668 112.369 295.601 111.823 294.256 110.49C292.928 109.139 292.264 106.921 292.264 103.838C292.264 97.9046 295.036 94.6971 300.582 94.2156C301.346 94.1493 302.143 94.1551 302.973 94.233C303.803 94.311 304.501 94.4588 305.065 94.6764C305.63 94.8941 305.912 95.1695 305.912 95.5029C305.912 95.7362 305.821 96.0525 305.638 96.4517C305.456 96.8342 305.231 97.187 304.966 97.5101C304.717 97.815 304.493 97.9761 304.293 97.9934C304.243 97.9978 304.036 97.9408 303.671 97.8225C303.305 97.7042 302.857 97.6098 302.326 97.5393C301.811 97.4673 301.205 97.4616 300.508 97.5221C299.046 97.649 297.959 98.2101 297.245 99.2054C296.547 100.199 296.199 101.638 296.199 103.521C296.199 107.321 297.618 109.098 300.458 108.851C301.122 108.794 301.769 108.679 302.4 108.508V105.333L300.209 105.523C299.943 105.546 299.752 105.463 299.636 105.273C299.52 105.083 299.461 104.771 299.461 104.338V103.538C299.461 103.105 299.52 102.783 299.636 102.573C299.752 102.363 299.943 102.246 300.209 102.223L305.265 101.784ZM320.261 110.407C319.082 110.509 318.053 110.482 317.173 110.325C316.293 110.168 315.603 109.928 315.105 109.605C314.64 109.328 314.408 109.032 314.408 108.715C314.408 108.465 314.499 108.157 314.682 107.791C314.865 107.426 315.08 107.099 315.329 106.81C315.579 106.522 315.786 106.371 315.952 106.356C316.052 106.348 316.284 106.427 316.65 106.596C317.181 106.816 317.662 106.983 318.094 107.095C318.526 107.208 319.032 107.239 319.613 107.188C320.261 107.132 320.809 106.96 321.257 106.671C321.722 106.364 321.955 105.885 321.955 105.235C321.955 104.702 321.739 104.304 321.307 104.041C320.892 103.761 320.211 103.47 319.265 103.169L318.119 102.768C317.073 102.359 316.251 101.814 315.653 101.132C315.056 100.434 314.757 99.4017 314.757 98.035C314.757 96.9017 315.031 95.9362 315.579 95.1386C316.143 94.323 316.874 93.7012 317.77 93.2733C318.667 92.8288 319.63 92.5619 320.659 92.4725C321.506 92.399 322.27 92.4243 322.951 92.5486C323.648 92.6547 324.196 92.8321 324.595 93.0808C324.96 93.3158 325.143 93.5666 325.143 93.8333C325.143 94.0666 325.068 94.3648 324.918 94.7277C324.769 95.0907 324.586 95.4149 324.37 95.7003C324.155 95.969 323.955 96.1113 323.773 96.1272C323.69 96.1344 323.549 96.105 323.349 96.039C323.167 95.9715 323.009 95.9185 322.876 95.88C322.278 95.7319 321.656 95.686 321.008 95.7422C320.145 95.8172 319.539 96.0115 319.19 96.3251C318.858 96.6372 318.692 96.9767 318.692 97.3433C318.692 97.7767 318.808 98.1249 319.041 98.3881C319.273 98.6512 319.555 98.86 319.887 99.0145C320.219 99.1524 320.709 99.3348 321.357 99.562C322.303 99.8798 323.075 100.196 323.673 100.511C324.271 100.809 324.786 101.281 325.217 101.927C325.666 102.555 325.89 103.393 325.89 104.443C325.89 105.727 325.616 106.801 325.068 107.665C324.537 108.528 323.847 109.179 323.001 109.619C322.154 110.059 321.241 110.322 320.261 110.407ZM335.429 109.09C332.855 109.314 330.879 108.719 329.501 107.305C328.123 105.874 327.434 103.718 327.434 100.834C327.434 97.951 328.123 95.6828 329.501 94.0298C330.879 92.3602 332.855 91.4136 335.429 91.1902C338.003 90.9667 339.97 91.5709 341.332 93.0027C342.71 94.4164 343.399 96.5649 343.399 99.4482C343.399 102.332 342.71 104.608 341.332 106.278C339.97 107.929 338.003 108.867 335.429 109.09ZM335.429 105.815C336.757 105.7 337.762 105.129 338.443 104.104C339.123 103.078 339.464 101.64 339.464 99.7899C339.464 97.9399 339.123 96.5694 338.443 95.6785C337.762 94.771 336.757 94.3749 335.429 94.4902C334.101 94.6055 333.088 95.1768 332.39 96.204C331.71 97.2131 331.369 98.6427 331.369 100.493C331.369 102.343 331.71 103.721 332.39 104.629C333.088 105.535 334.101 105.931 335.429 105.815ZM353.646 107.509C351.073 107.732 349.097 107.137 347.719 105.723C346.341 104.293 345.652 102.136 345.652 99.2526C345.652 96.3693 346.341 94.1011 347.719 92.4482C349.097 90.7785 351.073 89.832 353.646 89.6085C356.22 89.3851 358.188 89.9892 359.549 91.421C360.927 92.8347 361.617 94.9832 361.617 97.8665C361.617 100.75 360.927 103.026 359.549 104.696C358.188 106.348 356.22 107.285 353.646 107.509ZM353.646 104.234C354.975 104.118 355.979 103.548 356.66 102.522C357.341 101.496 357.681 100.058 357.681 98.2082C357.681 96.3582 357.341 94.9877 356.66 94.0969C355.979 93.1893 354.975 92.7932 353.646 92.9085C352.318 93.0238 351.305 93.5951 350.608 94.6223C349.927 95.6314 349.587 97.061 349.587 98.911C349.587 100.761 349.927 102.14 350.608 103.047C351.305 103.953 352.318 104.349 353.646 104.234ZM365.961 106.289C364.965 106.376 364.467 106.152 364.467 105.619V89.6191C364.467 89.0857 364.965 88.7758 365.961 88.6893L367.032 88.5963C367.431 88.5617 367.763 88.5829 368.029 88.6598C368.294 88.7201 368.51 88.8764 368.676 89.1286L374.28 97.3171C374.612 97.7716 374.911 98.2373 375.177 98.7142L375.276 98.6806C375.243 98.3001 375.226 97.7349 375.226 96.9849V88.6849C375.226 88.1516 375.725 87.8416 376.721 87.7551L377.443 87.6924C378.439 87.6059 378.937 87.8294 378.937 88.3627V104.363C378.937 104.896 378.439 105.206 377.443 105.292L376.497 105.375C376.098 105.409 375.766 105.396 375.5 105.336C375.235 105.259 375.019 105.095 374.853 104.842L369.124 96.5397C368.792 96.0852 368.493 95.6195 368.228 95.1425L368.128 95.1762C368.161 95.5566 368.178 96.1219 368.178 96.8719V105.297C368.178 105.83 367.68 106.14 366.684 106.227L365.961 106.289Z" fill="white"/>
<path d="M405.082 9.89293L397.304 10.5792C396.847 10.6363 396.504 11.0367 396.504 11.4941C396.561 11.9516 396.904 12.2947 397.361 12.2947H397.419L405.196 11.6085C405.653 11.5513 405.997 11.151 405.997 10.6935C405.939 10.1789 405.539 9.83575 405.082 9.89293Z" fill="#FFCB0E"/>
<path d="M427.327 99.3895L419.55 100.076C419.092 100.133 418.749 100.533 418.749 100.991C418.806 101.448 419.149 101.791 419.607 101.791H419.664L427.441 101.105C427.899 101.048 428.242 100.648 428.242 100.19C428.185 99.6754 427.784 99.3323 427.327 99.3895Z" fill="#FFCB0E"/>
<path d="M417.148 73.0839L404.796 66.9078L408.913 61.9326L417.148 73.0839Z" fill="#FF6699"/>
<path d="M231.808 52.9545L222.829 40.8882L219.112 44.0334L231.808 52.9545Z" fill="#23E2D8"/>
<path d="M292.019 14.0723L292.669 9.60156L288.199 8.951L287.548 13.4217L292.019 14.0723Z" fill="#FF6699"/>
<path d="M414.389 151.949L417.855 149.052L414.957 145.586L411.491 148.483L414.389 151.949Z" fill="#23E2D8"/>
<path d="M255.826 14.2393C253.596 14.2393 253.596 17.6704 255.826 17.6704C258.056 17.6704 258.056 14.2393 255.826 14.2393Z" fill="#E6E6E6"/>
<path d="M206.074 29.7368C203.844 29.7368 203.844 33.168 206.074 33.168C208.304 33.168 208.304 29.7368 206.074 29.7368Z" fill="#E6E6E6"/>
<path d="M191.892 89.2104C189.662 89.2104 189.662 92.6416 191.892 92.6416C194.065 92.6416 194.065 89.2104 191.892 89.2104Z" fill="#E6E6E6"/>
<path d="M166.673 158.349C164.442 158.349 164.442 161.78 166.673 161.78C168.903 161.78 168.903 158.349 166.673 158.349Z" fill="#E6E6E6"/>
<path d="M229.978 169.328C227.747 169.328 227.747 172.759 229.978 172.759C232.208 172.759 232.208 169.328 229.978 169.328Z" fill="#E6E6E6"/>
<path d="M405.139 97.6167C402.909 97.6167 402.909 101.048 405.139 101.048C407.312 101.048 407.312 97.6167 405.139 97.6167Z" fill="#E6E6E6"/>
<path d="M430.301 58.1582C428.07 58.1582 428.07 61.5894 430.301 61.5894C432.531 61.5894 432.531 58.1582 430.301 58.1582Z" fill="#E6E6E6"/>
<path d="M370.255 31.0518C368.025 31.0518 368.025 34.4829 370.255 34.4829C372.428 34.4829 372.428 31.0518 370.255 31.0518Z" fill="#E6E6E6"/>
<path d="M424.525 0C422.295 0 422.295 3.43117 424.525 3.43117C426.698 3.43117 426.698 0 424.525 0Z" fill="#E6E6E6"/>
<path d="M376.91 80.7635C376.452 80.7635 376.109 80.4204 376.052 79.9629C375.995 79.5054 376.338 79.0479 376.853 79.0479L390.177 77.9042C390.634 77.847 391.092 78.1901 391.092 78.7048C391.149 79.1623 390.806 79.6197 390.291 79.6197L376.967 80.7635C376.967 80.7635 376.967 80.7635 376.91 80.7635Z" fill="#993ADC"/>
<path d="M196.124 126.095C195.666 126.095 195.323 125.752 195.266 125.295C195.209 124.837 195.552 124.38 196.066 124.38L209.391 123.236C209.848 123.179 210.306 123.522 210.306 124.037C210.363 124.494 210.02 124.952 209.505 124.952L196.181 126.095C196.181 126.095 196.181 126.095 196.124 126.095Z" fill="#993ADC"/>
<path opacity="0.56" d="M189.462 427.341C253.735 427.341 305.839 418.172 305.839 406.862C305.839 395.552 253.735 386.384 189.462 386.384C125.19 386.384 73.0862 395.552 73.0862 406.862C73.0862 418.172 125.19 427.341 189.462 427.341Z" fill="#D2EBFF"/>
<path d="M178.897 394.703C138.033 385.904 106.958 354.706 88.9345 304.79C76.0384 269.273 74.3292 236.316 74.3292 234.876L73.5524 220.637L182.626 180.96L291.7 220.637L290.923 234.876C290.923 236.316 289.058 269.113 276.317 304.79C258.294 354.706 227.219 385.744 186.355 394.703L182.471 395.503L178.897 394.703Z" fill="#89CAF7"/>
<path d="M269.17 235.996L182.781 204.479L96.3926 235.996C96.3926 235.996 102.297 355.186 182.781 372.625C263.266 355.186 269.17 235.996 269.17 235.996Z" fill="#D2EBFF"/>
<path d="M182.471 360.467L222.091 354.707H256.895L288.126 360.947L234.521 388.784L182.471 360.467Z" fill="#073A93"/>
<path d="M255.186 389.904C255.186 389.904 185.112 350.227 176.877 363.186C164.913 381.905 183.247 391.344 248.194 409.422L255.186 389.904Z" fill="#073A93"/>
<path d="M274.608 409.742C276.317 405.422 274.298 400.463 270.102 398.703L253.943 391.823L247.728 407.502L263.887 414.381C268.083 415.981 272.899 414.061 274.608 409.742Z" fill="#1858B5"/>
<path d="M252.856 394.223L265.13 399.502C267.927 400.782 269.326 404.142 268.083 407.022C266.84 409.901 263.577 411.341 260.78 410.061L248.505 404.782L252.856 394.223Z" fill="#489BFF"/>
<path opacity="0.45" d="M248.661 404.782L264.82 411.662C268.549 413.262 272.744 411.822 274.919 408.302C274.764 408.782 274.764 409.262 274.453 409.742C272.744 414.061 267.927 416.141 263.732 414.381L247.573 407.502L248.661 404.782Z" fill="#063272"/>
<path d="M254.099 404.942L256.74 398.543C256.895 398.223 257.206 398.063 257.517 398.223C257.828 398.383 257.983 398.703 257.828 399.023L255.186 405.422C255.031 405.742 254.72 405.902 254.409 405.742C254.099 405.742 253.943 405.262 254.099 404.942Z" fill="#E6E6E6"/>
<path d="M257.828 406.542L260.469 400.143C260.625 399.823 260.935 399.663 261.246 399.823C261.557 399.983 261.712 400.302 261.557 400.622L258.915 407.022C258.76 407.342 258.449 407.502 258.139 407.342C257.828 407.342 257.672 406.862 257.828 406.542Z" fill="#E6E6E6"/>
<path d="M262.023 408.462L264.664 402.062C264.82 401.742 265.13 401.582 265.441 401.742C265.752 401.902 265.907 402.222 265.752 402.542L263.111 408.942C262.955 409.262 262.644 409.422 262.334 409.262C262.023 409.102 261.867 408.782 262.023 408.462Z" fill="#E6E6E6"/>
<path d="M280.668 336.309C279.58 332.469 274.297 326.07 269.481 312.791C264.509 299.032 243.378 297.592 243.378 297.592L235.143 302.071L226.908 297.592C226.908 297.592 205.777 299.032 200.805 312.791C195.988 326.07 190.705 332.469 189.618 336.309C188.53 340.148 194.435 364.786 211.06 368.306H234.521H235.764H259.226C275.851 364.786 281.756 339.988 280.668 336.309Z" fill="#489BFF"/>
<path d="M244.31 297.592V304.311C244.31 304.311 242.756 311.831 235.609 313.111C228.151 311.351 227.063 304.311 227.063 304.311V297.592H244.31Z" fill="#F49290"/>
<path d="M219.139 284.312C219.139 284.312 216.653 268.473 222.557 266.554C224.111 266.074 223.024 260.794 231.88 260.794C243.999 260.634 253.633 259.034 251.923 284.632L219.139 284.312Z" fill="#073A93"/>
<path d="M222.713 290.391C225.03 290.391 226.908 288.457 226.908 286.072C226.908 283.686 225.03 281.752 222.713 281.752C220.396 281.752 218.518 283.686 218.518 286.072C218.518 288.457 220.396 290.391 222.713 290.391Z" fill="#FFB5B1"/>
<path d="M248.194 290.391C250.511 290.391 252.39 288.457 252.39 286.072C252.39 283.686 250.511 281.752 248.194 281.752C245.878 281.752 243.999 283.686 243.999 286.072C243.999 288.457 245.878 290.391 248.194 290.391Z" fill="#FFB5B1"/>
<path d="M249.593 278.713C249.437 278.713 246.019 277.433 245.398 272.953L243.533 273.433C238.406 274.873 233.123 274.873 227.996 273.273L226.597 272.953C225.976 277.433 222.402 278.553 222.247 278.713L222.091 285.752C222.091 289.752 223.8 294.711 226.442 298.551C228.617 301.591 232.191 303.511 235.92 303.511C239.649 303.511 243.222 301.751 245.398 298.551C248.039 294.711 249.748 289.752 249.748 285.752L249.593 278.713Z" fill="#FFB5B1"/>
<path d="M257.672 336.628H213.546C211.06 336.628 209.04 338.708 209.04 341.268V368.625C209.04 371.185 211.06 373.265 213.546 373.265H257.672C260.158 373.265 262.178 371.185 262.178 368.625V341.268C262.178 338.708 260.158 336.628 257.672 336.628Z" fill="#D2EBFF"/>
<path d="M235.454 360.146C238.457 360.146 240.892 357.639 240.892 354.547C240.892 351.454 238.457 348.947 235.454 348.947C232.45 348.947 230.016 351.454 230.016 354.547C230.016 357.639 232.45 360.146 235.454 360.146Z" fill="#89CAF7"/>
<path d="M213.701 389.904C213.701 389.904 283.775 350.227 292.01 363.186C303.974 381.905 285.64 391.344 220.693 409.422L213.701 389.904Z" fill="#073A93"/>
<path d="M194.279 409.742C192.57 405.422 194.59 400.463 198.785 398.703L214.944 391.823L221.159 407.502L205 414.381C200.805 415.981 196.144 414.061 194.279 409.742Z" fill="#1858B5"/>
<path d="M220.227 404.782L207.952 410.061C205.155 411.341 201.892 409.901 200.649 407.022C199.406 404.142 200.805 400.782 203.602 399.502L215.876 394.223L220.227 404.782Z" fill="#489BFF"/>
<path opacity="0.45" d="M220.227 404.782L204.068 411.662C200.339 413.262 196.144 411.822 193.968 408.302C194.124 408.782 194.124 409.262 194.434 409.742C196.144 414.061 200.96 416.141 205.155 414.381L221.314 407.502L220.227 404.782Z" fill="#063272"/>
<path d="M214.789 404.942L212.147 398.543C211.992 398.223 211.681 398.063 211.37 398.223C211.06 398.383 210.904 398.703 211.06 399.023L213.701 405.422C213.856 405.742 214.167 405.902 214.478 405.742C214.789 405.742 214.944 405.262 214.789 404.942Z" fill="#E6E6E6"/>
<path d="M211.06 406.542L208.418 400.143C208.263 399.823 207.952 399.663 207.641 399.823C207.331 399.983 207.175 400.302 207.331 400.622L209.972 407.022C210.127 407.342 210.438 407.502 210.749 407.342C211.06 407.342 211.215 406.862 211.06 406.542Z" fill="#E6E6E6"/>
<path d="M206.865 408.462L204.223 402.062C204.068 401.742 203.757 401.582 203.446 401.742C203.136 401.902 202.98 402.222 203.136 402.542L205.777 408.942C205.932 409.262 206.243 409.422 206.554 409.262C206.865 409.102 207.02 408.782 206.865 408.462Z" fill="#E6E6E6"/>
<path d="M106.647 360.945C106.647 360.945 88.1577 330.388 93.7512 326.068C99.5001 321.589 105.094 339.667 108.046 336.787C110.998 333.908 97.791 308.31 104.006 302.71C110.221 297.111 109.755 315.989 115.038 319.349C120.32 322.868 112.241 293.751 118.456 289.271C124.826 284.792 127.778 299.19 127.778 299.19C127.778 299.19 134.77 270.393 144.248 276.152C153.726 281.752 129.798 310.709 135.392 309.75C140.985 308.79 146.734 299.03 151.706 305.59C156.523 312.149 124.671 328.948 129.798 328.468C134.926 327.988 143.937 321.589 145.491 327.348C147.045 333.108 119.699 343.667 122.496 345.587C125.292 347.666 139.742 336.147 141.918 344.627C144.404 352.946 112.396 366.385 106.647 360.945Z" fill="#073A93"/>
<path d="M104.472 372.945C107.89 367.025 110.843 360.466 113.018 353.746C114.261 350.227 115.193 346.547 116.125 342.867C116.591 341.267 117.058 339.667 117.524 338.067C122.651 319.989 129.798 302.55 138.965 286.392L139.276 286.552C130.109 302.87 122.962 320.149 117.834 338.227C117.368 339.827 116.902 341.427 116.436 343.027C115.504 346.547 114.416 350.227 113.328 353.906C111.153 360.786 108.201 367.185 104.627 373.105L104.472 372.945Z" fill="#D2EBFF"/>
<path d="M124.671 316.469C124.671 316.469 124.671 316.309 124.671 316.469C122.496 309.749 121.097 303.03 120.32 296.15C120.32 295.99 120.32 295.99 120.476 295.99C120.631 295.99 120.631 295.99 120.631 296.15C121.253 303.03 122.806 309.749 124.826 316.309C124.826 316.469 124.826 316.469 124.671 316.629C124.826 316.469 124.826 316.469 124.671 316.469Z" fill="#D2EBFF"/>
<path d="M122.185 324.308C122.03 324.308 122.03 324.308 122.185 324.308C122.03 324.148 122.03 323.988 122.185 323.988C127.934 319.669 133.838 315.189 140.208 311.669C141.451 311.029 142.694 310.389 143.937 310.069C144.093 310.069 144.093 310.069 144.248 310.229C144.248 310.389 144.248 310.389 144.093 310.549C142.694 310.869 141.607 311.509 140.364 312.149C133.993 315.669 128.089 320.149 122.34 324.468C122.34 324.468 122.185 324.468 122.185 324.308Z" fill="#D2EBFF"/>
<path d="M117.99 337.428C117.99 337.428 117.99 337.268 117.99 337.428C115.504 333.588 112.396 328.628 110.221 323.189C108.667 319.509 107.58 315.509 106.492 311.83C106.492 311.67 106.492 311.67 106.647 311.51C106.803 311.51 106.803 311.51 106.958 311.67C108.046 315.509 109.133 319.349 110.687 323.029C112.862 328.468 115.97 333.428 118.3 337.108C118.3 337.268 118.3 337.268 118.3 337.428C118.145 337.428 117.99 337.428 117.99 337.428Z" fill="#D2EBFF"/>
<path d="M117.834 337.587C117.834 337.587 117.679 337.427 117.679 337.267C117.679 337.107 117.834 337.107 117.99 337.107C118.611 337.267 119.233 337.267 119.854 337.107C121.563 336.788 123.273 336.148 124.826 335.508C125.137 335.348 125.448 335.348 125.759 335.188C130.575 333.428 135.392 331.988 140.208 330.708C140.364 330.708 140.364 330.708 140.519 330.868C140.519 331.028 140.519 331.028 140.364 331.188C135.547 332.468 130.575 333.908 125.914 335.668C125.603 335.828 125.292 335.828 124.982 335.988C123.428 336.628 121.719 337.267 120.01 337.587C119.388 337.747 118.611 337.907 117.834 337.587C117.99 337.587 117.834 337.587 117.834 337.587Z" fill="#D2EBFF"/>
<path d="M112.862 354.706C107.269 350.707 100.898 340.148 97.1694 332.308C97.1694 332.148 97.1694 332.148 97.3248 331.988C97.4802 331.988 97.4802 331.988 97.6356 332.148C101.365 339.988 107.735 350.547 113.173 354.386C113.329 354.386 113.329 354.546 113.173 354.706C113.018 354.706 112.862 354.866 112.862 354.706Z" fill="#D2EBFF"/>
<path d="M113.173 354.866C113.173 354.866 113.018 354.866 113.173 354.866C112.862 354.706 112.862 354.546 113.018 354.386C113.018 354.226 113.173 354.226 113.328 354.386C114.105 355.026 115.348 354.866 116.436 354.546L136.635 348.786C136.79 348.786 136.79 348.786 136.946 348.946C136.946 349.106 136.946 349.106 136.79 349.266L116.591 355.026C115.348 355.346 114.105 355.506 113.173 354.866Z" fill="#D2EBFF"/>
<path d="M104.317 360.465C104.317 360.465 72.154 346.066 74.4846 339.187C76.8152 332.147 91.2652 343.666 92.1975 339.667C92.9743 335.507 67.9589 322.068 70.1341 313.909C72.154 305.75 82.098 321.428 88.4684 321.268C94.6834 321.108 71.9986 301.91 74.7954 294.39C77.5921 287.031 88.0023 297.11 88.0023 297.11C88.0023 297.11 77.9029 269.272 88.7792 268.472C99.6555 267.673 95.9265 305.43 99.9662 301.27C104.006 297.11 103.384 285.751 110.998 288.311C118.611 290.871 101.52 323.348 105.56 319.988C109.599 316.629 113.484 305.91 117.834 309.909C122.34 313.749 105.56 338.547 108.978 338.547C112.396 338.547 117.99 320.788 124.516 326.388C130.886 331.827 111.93 361.585 104.317 360.465Z" fill="#489BFF"/>
<path d="M108.978 371.504C108.512 364.624 107.424 357.585 105.56 350.706C104.628 347.026 103.385 343.506 102.142 339.986C101.675 338.387 101.054 336.787 100.588 335.187C94.8389 317.268 91.2653 298.71 89.8669 279.991H90.333C91.7314 298.71 95.4604 317.268 101.054 335.187C101.52 336.787 102.142 338.387 102.608 339.986C103.695 343.506 104.938 347.186 106.026 350.706C107.89 357.585 109.133 364.624 109.6 371.664L108.978 371.504Z" fill="#D2EBFF"/>
<path d="M94.5281 313.11C89.09 308.79 84.118 304.15 79.7675 298.871C79.7675 298.711 79.7675 298.711 79.7675 298.551C79.9228 298.551 79.9228 298.551 80.0782 298.551C84.4287 303.83 89.2453 308.63 94.6835 312.79C94.8388 312.79 94.8388 312.95 94.6835 313.11C94.6835 313.11 94.6835 313.11 94.5281 313.11Z" fill="#D2EBFF"/>
<path d="M96.7034 321.269C96.548 321.269 96.3926 321.109 96.548 320.949C98.8786 314.069 101.365 306.87 104.628 300.15C105.249 298.871 105.871 297.591 106.803 296.631C106.803 296.471 106.958 296.471 107.114 296.631C107.269 296.631 107.269 296.791 107.114 296.951C106.181 298.071 105.56 299.191 104.938 300.47C101.675 307.19 99.1894 314.229 96.8588 321.269C97.0141 321.109 96.8588 321.269 96.7034 321.269Z" fill="#D2EBFF"/>
<path d="M100.588 334.388C100.432 334.388 100.432 334.388 100.588 334.388C96.3926 332.628 91.1098 330.388 86.2932 327.188C83.0303 324.948 79.9228 322.389 76.9707 319.989C76.8153 319.989 76.8153 319.829 76.9707 319.669C76.9707 319.509 77.1261 319.509 77.2814 319.669C80.2336 322.229 83.3411 324.788 86.604 326.868C91.4206 330.068 96.7034 332.308 100.743 334.068C100.899 334.068 100.898 334.228 100.898 334.388C100.743 334.388 100.588 334.388 100.588 334.388Z" fill="#D2EBFF"/>
<path d="M100.588 334.547C100.432 334.547 100.432 334.547 100.432 334.387C100.432 334.227 100.432 334.227 100.588 334.068C101.209 333.908 101.675 333.428 102.142 332.948C103.385 331.668 104.317 330.228 105.404 328.788C105.56 328.468 105.715 328.308 106.026 327.988C108.978 323.668 112.241 319.669 115.504 315.829C115.504 315.669 115.659 315.669 115.815 315.829C115.97 315.829 115.97 315.989 115.815 316.149C112.552 319.989 109.289 323.988 106.337 328.308C106.181 328.628 106.026 328.788 105.715 329.108C104.783 330.548 103.695 332.148 102.452 333.428C101.831 333.908 101.365 334.387 100.588 334.547Z" fill="#D2EBFF"/>
<path d="M105.87 351.666C99.1893 351.666 88.0023 346.707 80.5443 342.387C80.3889 342.387 80.3889 342.227 80.3889 342.067C80.3889 341.907 80.5443 341.907 80.6996 341.907C88.1577 346.227 99.034 351.186 105.715 351.186C105.87 351.186 105.87 351.346 105.87 351.346V351.666Z" fill="#D2EBFF"/>
<path d="M106.181 351.666H106.026C105.87 351.666 105.87 351.506 105.87 351.506C105.87 351.346 106.026 351.346 106.026 351.346C106.958 351.506 107.89 350.546 108.667 349.586L122.185 333.107C122.185 332.947 122.34 332.947 122.496 333.107C122.651 333.107 122.651 333.267 122.496 333.427L108.978 349.746C108.201 350.706 107.269 351.666 106.181 351.666Z" fill="#D2EBFF"/>
<path d="M90.0222 365.585L95.1496 398.222C95.9265 402.862 99.8109 406.222 104.317 406.222H120.01C124.516 406.222 128.4 402.862 129.177 398.222L134.304 365.585H90.0222Z" fill="#D2EBFF"/>
<path d="M134.304 365.585H125.603H90.0222L90.7991 370.065H124.982L120.631 398.222C119.854 402.862 115.97 406.222 111.464 406.222H120.165C124.671 406.222 128.555 402.862 129.332 398.222L133.683 370.065L134.304 365.585Z" fill="#ACCFE5"/>
<path d="M134.77 356.146H89.5561C87.0701 356.146 84.8948 358.225 84.8948 360.945C84.8948 363.505 86.9147 365.745 89.5561 365.745H134.77C137.256 365.745 139.432 363.665 139.432 360.945C139.432 358.225 137.256 356.146 134.77 356.146Z" fill="#D2EBFF"/>
<path d="M162.583 177.6V216.477C162.583 219.197 160.407 221.437 157.766 221.437H88.6238C85.9825 221.437 83.8072 219.197 83.8072 216.477V177.6C83.8072 174.88 85.9825 172.641 88.6238 172.641H157.766C160.407 172.641 162.583 174.88 162.583 177.6Z" fill="#489BFF"/>
<path d="M162.583 186.4H83.8072V197.44H162.583V186.4Z" fill="#073A93"/>
<path d="M156.523 203.678H136.946C136.013 203.678 135.236 204.478 135.236 205.438C135.236 206.398 136.013 207.197 136.946 207.197H156.523C157.455 207.197 158.232 206.398 158.232 205.438C158.232 204.638 157.455 203.678 156.523 203.678Z" fill="#073A93"/>
<path d="M156.523 210.877H147.667C146.734 210.877 145.957 211.677 145.957 212.637C145.957 213.597 146.734 214.397 147.667 214.397H156.523C157.455 214.397 158.232 213.597 158.232 212.637C158.232 211.677 157.455 210.877 156.523 210.877Z" fill="#073A93"/>
<defs>
<filter id="filter0_i" x="0.0449219" y="97.998" width="381.887" height="359.82" filterUnits="userSpaceOnUse" color-interpolation-filters="sRGB">
<feFlood flood-opacity="0" result="BackgroundImageFix"/>
<feBlend mode="normal" in="SourceGraphic" in2="BackgroundImageFix" result="shape"/>
<feColorMatrix in="SourceAlpha" type="matrix" values="0 0 0 0 0 0 0 0 0 0 0 0 0 0 0 0 0 0 127 0" result="hardAlpha"/>
<feOffset dx="8.82997" dy="8.82997"/>
<feGaussianBlur stdDeviation="2.94332"/>
<feComposite in2="hardAlpha" operator="arithmetic" k2="-1" k3="1"/>
<feColorMatrix type="matrix" values="0 0 0 0 0.849479 0 0 0 0 0.910156 0 0 0 0 0.970833 0 0 0 0.52 0"/>
<feBlend mode="normal" in2="shape" result="effect1_innerShadow"/>
</filter>
</defs>
</svg>
