<svg width="395" height="393" viewBox="0 0 395 393" fill="none" xmlns="http://www.w3.org/2000/svg">
<g filter="url(#filter0_i)">
<rect x="0.785461" y="21.3643" width="376" height="353.933" rx="44.1498" fill="#EFF7FF"/>
</g>
<path d="M43.1583 175.907V213.32C43.1583 220.08 48.6603 225.582 55.4199 225.582H189.669C196.428 225.582 201.93 220.08 201.93 213.32V181.644L218.672 164.117L55.4985 163.645C48.6603 163.645 43.1583 169.147 43.1583 175.907Z" fill="#F5F5F5"/>
<path d="M182.202 186.361L60.3716 185.81V182.038L182.202 182.588V186.361Z" fill="#E0E0E0"/>
<path d="M182.202 198.7L60.3716 198.072V194.377L182.202 194.928V198.7Z" fill="#E0E0E0"/>
<path d="M182.202 210.648L133.941 210.412L134.02 206.718L182.202 206.954V210.648Z" fill="#E0E0E0"/>
<path d="M167.582 305.283V342.696C167.582 349.456 173.084 354.958 179.844 354.958H314.092C320.852 354.958 326.354 349.456 326.354 342.696V311.02L343.096 293.493L179.922 293.021C173.084 293.021 167.582 298.523 167.582 305.283Z" fill="#F5F5F5"/>
<path d="M307.176 314.793L185.346 314.164V310.47L307.176 311.02V314.793Z" fill="#E0E0E0"/>
<path d="M307.176 327.055L185.346 326.505V322.732L307.176 323.361V327.055Z" fill="#E0E0E0"/>
<path d="M307.176 339.08L258.994 338.845V335.072L307.176 335.308V339.08Z" fill="#E0E0E0"/>
<path d="M114.92 34.8984H194.07C198 34.8984 201.144 38.0424 201.144 41.9724V80.7222C201.144 84.6522 198 87.7962 194.07 87.7962H126.867C122.937 87.7962 119.793 84.6522 119.793 80.7222V39.7716L114.92 34.8984Z" fill="#F5F5F5"/>
<path d="M160.822 72.5477V97.3853C160.822 101.866 157.207 105.56 152.648 105.56H63.6729C59.1927 105.56 55.4985 101.944 55.4985 97.3853V76.3991L44.4159 64.7663L152.648 64.4519C157.207 64.3733 160.822 68.0675 160.822 72.5477Z" fill="#E0E0E0"/>
<path d="M68.6247 79.4644L149.425 79.0714V76.6348L68.6247 76.9492V79.4644Z" fill="#F5F5F5"/>
<path d="M68.6247 87.6387L149.425 87.2457V84.7305L68.6247 85.1235V87.6387Z" fill="#F5F5F5"/>
<path d="M68.6247 95.5777L100.615 95.4205V92.9839L68.6247 93.1411V95.5777Z" fill="#F5F5F5"/>
<path d="M329.498 187.697V212.534C329.498 217.014 325.882 220.709 321.324 220.709H232.348C227.868 220.709 224.174 217.093 224.174 212.534V191.548L213.091 179.915L321.324 179.601C325.882 179.522 329.498 183.216 329.498 187.697Z" fill="#E0E0E0"/>
<path d="M237.379 194.613L318.18 194.22L318.101 191.784L237.3 192.098L237.379 194.613Z" fill="#F5F5F5"/>
<path d="M237.379 202.788L318.18 202.395L318.101 199.958L237.3 200.272L237.379 202.788Z" fill="#F5F5F5"/>
<path d="M237.379 210.727L269.29 210.569V208.133L237.3 208.29L237.379 210.727Z" fill="#F5F5F5"/>
<path d="M253.256 311.02C239.973 298.051 239.737 278.008 243.195 260.559C243.745 257.651 243.981 254.507 245.789 252.149C247.597 249.791 251.134 248.612 253.57 250.262C255.535 251.677 256.086 254.35 256.95 256.629C258.129 259.694 260.173 262.367 262.767 264.332C264.496 265.589 266.697 266.533 268.662 265.825C271.413 264.882 272.277 261.424 272.749 258.515C273.613 253.092 274.478 247.669 275.343 242.245C275.814 239.337 276.286 236.35 277.622 233.756C278.958 231.163 281.395 228.883 284.303 228.569C287.211 228.254 290.355 230.377 290.512 233.363C290.591 234.621 290.119 235.8 290.041 236.979C289.962 238.237 290.277 239.651 291.377 240.123C292.477 240.673 293.814 240.044 294.757 239.337C298.215 236.9 300.888 233.442 303.403 229.984C305.918 226.525 308.433 222.988 311.656 220.237C314.878 217.486 319.123 215.521 323.289 215.993C327.454 216.464 331.542 219.766 331.856 224.01C332.249 228.254 329.184 232.027 326.04 234.935C321.402 239.258 316.057 242.795 310.398 245.625C309.376 246.097 308.276 246.647 307.726 247.669C306.783 249.476 308.276 251.756 310.084 252.699C312.127 253.799 314.485 253.957 316.765 254.585C318.966 255.214 321.245 256.629 321.795 258.908C322.503 262.052 319.516 264.803 316.686 266.454C311.106 269.755 304.975 272.035 298.687 273.292C296.407 273.764 294.049 274.078 292.084 275.257C290.119 276.515 288.626 278.951 289.333 281.152C290.041 283.353 292.635 284.453 294.914 284.453C297.193 284.375 299.394 283.51 301.674 283.039C305.918 282.174 311.027 283.274 312.992 287.204C314.328 289.72 313.935 292.942 312.678 295.536C311.42 298.13 309.298 300.173 307.097 301.981C299.473 308.426 290.277 313.142 280.452 314.872C270.627 316.365 261.902 315.893 253.256 311.02Z" fill="#E8505B"/>
<path d="M250.898 323.911C252.706 317.072 255.535 309.134 259.544 300.724C263.553 292.313 268.74 283.432 274.478 274.393C275.893 272.113 277.308 269.912 278.722 267.712C280.137 265.511 281.552 263.31 283.045 261.266C286.032 257.179 289.176 253.406 292.32 250.027C295.464 246.568 298.53 243.424 301.438 240.516C304.346 237.608 307.097 234.935 309.769 232.577C315.036 227.861 319.673 224.639 322.974 222.517C324.625 221.416 325.961 220.709 326.826 220.159C327.219 219.923 327.612 219.687 327.847 219.608C328.083 219.451 328.162 219.451 328.24 219.451C328.24 219.451 328.162 219.53 327.926 219.687C327.69 219.844 327.376 220.08 326.904 220.316C326.04 220.866 324.782 221.652 323.131 222.752C319.909 224.953 315.271 228.254 310.084 232.892C307.49 235.25 304.739 237.922 301.831 240.83C298.923 243.739 295.857 246.961 292.792 250.341C289.726 253.799 286.504 257.494 283.596 261.581C282.102 263.624 280.766 265.747 279.351 268.026C277.936 270.227 276.522 272.506 275.107 274.707C269.369 283.746 264.181 292.628 260.173 300.959C256.086 309.37 253.256 317.23 251.448 324.068" fill="#263238"/>
<path d="M283.203 261.266C283.203 261.266 283.124 260.795 283.124 260.009C283.124 259.144 283.124 257.965 283.124 256.472C283.203 253.485 283.438 249.398 283.674 244.918C283.91 240.437 284.146 236.35 284.146 233.363C284.146 231.87 284.146 230.691 284.146 229.826C284.146 228.962 284.146 228.569 284.224 228.569C284.224 228.569 284.303 229.04 284.382 229.826C284.46 230.691 284.539 231.87 284.539 233.363C284.617 236.35 284.539 240.437 284.224 244.918C283.989 249.398 283.674 253.406 283.517 256.472C283.438 257.887 283.36 259.066 283.36 260.009C283.281 260.795 283.281 261.266 283.203 261.266Z" fill="#263238"/>
<path d="M321.795 260.402C321.795 260.402 321.245 260.402 320.302 260.323C319.359 260.245 317.944 260.166 316.215 260.087C312.756 259.93 307.883 259.773 302.617 259.93C297.272 260.087 292.477 260.402 289.019 260.716C287.29 260.873 285.875 261.031 284.932 261.109C283.989 261.188 283.438 261.266 283.438 261.266C283.438 261.266 283.989 261.109 284.932 260.952C285.875 260.795 287.29 260.559 289.019 260.323C292.477 259.852 297.351 259.459 302.695 259.38C308.04 259.223 312.913 259.38 316.372 259.694C318.101 259.852 319.516 260.009 320.459 260.166C321.245 260.245 321.795 260.323 321.795 260.402Z" fill="#263238"/>
<path d="M260.173 300.095C260.173 300.095 260.094 299.938 260.016 299.623C259.937 299.23 259.78 298.759 259.623 298.13C259.23 296.872 258.758 294.986 258.208 292.707C257.107 288.148 255.771 281.781 254.435 274.707C253.099 267.633 251.841 261.267 250.819 256.708C250.348 254.507 249.955 252.621 249.64 251.284C249.483 250.656 249.405 250.184 249.326 249.791C249.247 249.477 249.247 249.241 249.247 249.241C249.247 249.241 249.326 249.398 249.405 249.712C249.483 250.105 249.64 250.577 249.798 251.206C250.191 252.463 250.662 254.35 251.212 256.629C252.313 261.188 253.649 267.555 254.985 274.629C256.321 281.703 257.579 288.069 258.601 292.628C259.072 294.829 259.465 296.715 259.78 298.051C259.937 298.68 260.016 299.152 260.094 299.545C260.173 299.938 260.173 300.095 260.173 300.095Z" fill="#263238"/>
<path d="M312.442 292.235C312.442 292.235 312.285 292.313 311.892 292.392C311.499 292.471 310.948 292.549 310.398 292.628C308.983 292.864 307.097 293.099 304.818 293.492C300.102 294.2 293.578 295.3 286.347 296.479C279.115 297.658 272.592 298.68 267.876 299.309C265.518 299.623 263.553 299.859 262.216 300.016C261.588 300.095 261.116 300.095 260.644 300.173C260.33 300.173 260.094 300.173 260.094 300.173C260.094 300.173 260.251 300.095 260.644 300.016C261.037 299.938 261.588 299.859 262.138 299.78C263.553 299.545 265.439 299.309 267.718 298.916C272.434 298.208 278.958 297.108 286.189 295.929C293.421 294.75 299.944 293.728 304.66 293.099C307.018 292.785 308.983 292.549 310.32 292.392C310.948 292.313 311.42 292.313 311.892 292.235C312.285 292.235 312.442 292.235 312.442 292.235Z" fill="#263238"/>
<path d="M121.051 134.249C118.614 132.363 117.514 129.061 118.064 125.996C118.536 122.931 120.501 120.258 123.094 118.529C124.273 117.743 125.688 117.114 127.103 117.507C128.361 117.9 129.304 119.158 129.54 120.415C129.775 121.752 129.54 123.088 129.068 124.345C127.496 128.668 125.295 132.52 121.051 134.249Z" fill="#455A64"/>
<path d="M117.042 141.637C112.248 137.236 105.252 135.428 98.9642 136.921C97.3922 137.314 95.5844 138.179 95.27 139.751C95.0342 141.402 96.449 142.738 97.8638 143.602C103.837 147.061 111.855 146.432 117.199 142.03" fill="#455A64"/>
<path d="M93.9339 107.525C96.6063 106.818 99.5145 107.446 101.872 108.861C104.23 110.276 106.038 112.477 107.532 114.756C110.361 119.236 111.383 125.289 111.54 130.633C105.645 130.398 100.615 125.76 98.1783 123.245C94.3269 119.315 89.8467 109.804 93.9339 107.525Z" fill="#455A64"/>
<path d="M126.003 149.654C125.688 149.026 125.059 148.554 124.509 147.454C123.409 145.174 121.915 141.873 121.208 137.943C120.501 134.013 120.972 130.319 121.915 127.961C122.387 126.782 122.937 125.839 123.33 125.21C123.723 124.66 124.038 124.345 124.038 124.345C124.116 124.424 123.094 125.681 122.308 128.039C121.444 130.397 121.051 134.013 121.758 137.786C122.466 141.559 123.88 144.86 124.902 147.218" fill="#263238"/>
<path d="M126.003 149.733C125.217 148.712 124.195 147.375 122.937 145.803C120.343 142.424 116.728 137.786 112.719 132.756C108.711 127.725 105.016 123.167 102.265 119.865C101.008 118.293 99.9075 116.957 99.1215 116.014C98.4141 115.071 97.9425 114.599 98.0211 114.521C98.0211 114.521 98.4927 114.992 99.2787 115.857C100.065 116.721 101.244 117.979 102.58 119.63C105.331 122.852 109.104 127.332 113.191 132.363C117.199 137.393 120.736 142.109 123.252 145.489C124.509 147.218 125.531 148.633 126.16 149.576" fill="#263238"/>
<path d="M102.658 140.38C102.658 140.301 103.051 140.223 103.68 140.065C103.995 139.987 104.466 139.908 104.938 139.83C105.409 139.751 105.96 139.672 106.588 139.672C107.846 139.594 109.339 139.594 110.911 139.83C112.562 140.065 114.291 140.459 116.099 141.166C117.828 141.873 119.479 142.738 120.815 143.681C122.151 144.624 123.252 145.567 124.116 146.511C124.588 146.904 124.902 147.375 125.217 147.768C125.531 148.161 125.767 148.476 126.003 148.79C126.396 149.34 126.317 149.655 126.317 149.655C126.238 149.733 125.61 148.476 123.88 146.825C123.016 145.961 121.915 145.096 120.579 144.153C119.243 143.288 117.671 142.423 115.942 141.795C114.213 141.166 112.483 140.694 110.911 140.458C109.339 140.223 107.846 140.144 106.667 140.144C104.152 140.144 102.658 140.459 102.658 140.38Z" fill="#263238"/>
<path d="M234.471 340.888L143.688 340.495C132.762 340.417 123.959 331.535 124.038 320.61L124.981 92.984C125.059 82.0586 133.941 73.2554 144.867 73.2554L235.65 73.6484C246.575 73.727 255.378 82.6088 255.3 93.5342L254.356 321.238C254.356 332.164 245.396 340.967 234.471 340.888Z" fill="#263238"/>
<path d="M235.492 81.5869L217.886 81.5083C215.528 81.5083 213.642 83.4733 213.563 85.9885V89.2111C213.563 91.6477 211.598 93.6913 209.24 93.6913L174.892 93.5341C172.534 93.5341 170.647 91.4905 170.647 89.0539V85.8313C170.647 83.3947 168.761 81.3511 166.403 81.3511H160.194L144.788 81.2725C137.164 81.2725 130.876 87.4033 130.876 95.0275L129.933 317.151C129.933 324.775 136.063 331.063 143.688 331.063L234.313 331.456C241.938 331.456 248.226 325.325 248.226 317.701L249.169 95.5777C249.326 87.8749 243.195 81.6655 235.492 81.5869Z" fill="#FAFAFA"/>
<path d="M182.354 311.81C183.395 311.814 184.243 311.115 184.247 310.246C184.251 309.378 183.41 308.67 182.368 308.666C181.326 308.661 180.479 309.361 180.475 310.229C180.471 311.097 181.312 311.805 182.354 311.81Z" fill="#455A64"/>
<path d="M188.17 311.81C189.212 311.815 190.06 311.115 190.064 310.247C190.068 309.379 189.227 308.671 188.185 308.666C187.143 308.661 186.295 309.361 186.291 310.229C186.287 311.097 187.128 311.805 188.17 311.81Z" fill="#455A64"/>
<path d="M193.987 311.81C195.029 311.815 195.876 311.115 195.881 310.247C195.885 309.379 195.043 308.671 194.001 308.666C192.96 308.661 192.112 309.361 192.108 310.229C192.104 311.097 192.945 311.805 193.987 311.81Z" fill="#455A64"/>
<path d="M158.071 188.719C159.565 188.955 248.619 206.404 248.619 206.404V188.719H158.071Z" fill="#EBEBEB"/>
<path d="M130.09 300.959C130.09 300.959 227.004 287.283 226.139 287.676C225.274 288.069 130.09 287.676 130.09 287.676V300.959Z" fill="#EBEBEB"/>
<path d="M242.566 63.4304C242.697 63.4304 242.802 58.5389 242.802 52.505C242.802 46.4711 242.697 41.5796 242.566 41.5796C242.436 41.5796 242.331 46.4711 242.331 52.505C242.331 58.5389 242.436 63.4304 242.566 63.4304Z" fill="#263238"/>
<path d="M271.456 71.4158C276.976 68.9793 281.409 66.9075 281.356 66.7884C281.304 66.6692 276.786 68.5478 271.265 70.9843C265.745 73.4208 261.312 75.4926 261.365 75.6117C261.418 75.7309 265.935 73.8523 271.456 71.4158Z" fill="#263238"/>
<path d="M280.373 28.6104C280.373 28.6104 280.294 28.7676 280.137 29.0034C279.98 29.3178 279.744 29.7108 279.43 30.1824C278.88 31.2042 277.936 32.619 276.836 34.4268C274.635 37.9638 271.491 42.7584 267.876 48.0246C264.26 53.2908 261.116 58.0068 258.837 61.5438C257.736 63.273 256.793 64.6878 256.164 65.7096C255.85 66.1812 255.614 66.5742 255.457 66.81C255.3 67.0458 255.221 67.203 255.142 67.203C255.142 67.203 255.221 67.0458 255.378 66.81C255.535 66.4956 255.771 66.1026 256.086 65.631C256.636 64.6092 257.579 63.1944 258.679 61.3866C260.88 57.8496 264.024 53.055 267.64 47.7888C271.255 42.5226 274.399 37.8066 276.679 34.2696C277.779 32.5403 278.722 31.1256 279.351 30.1037C279.666 29.6321 279.901 29.2392 280.059 29.0034C280.216 28.689 280.373 28.6104 280.373 28.6104Z" fill="#263238"/>
<path d="M334.686 121.123H157.521C153.67 121.123 150.604 124.188 150.604 128.039V182.981C150.604 186.832 153.67 189.898 157.521 189.898H170.726C171.826 195.635 173.005 202.867 173.005 202.867L184.953 189.898H334.686C338.537 189.898 341.603 186.832 341.603 182.981V128.039C341.603 124.188 338.537 121.123 334.686 121.123Z" fill="#E8505B"/>
<path d="M261.588 150.912C261.588 150.991 240.523 151.148 214.506 151.148C188.49 151.148 167.425 151.069 167.425 150.912C167.425 150.833 188.49 150.676 214.506 150.676C240.523 150.755 261.588 150.833 261.588 150.912Z" fill="#F5F5F5"/>
<path d="M261.588 142.502C261.588 142.581 240.524 142.738 214.507 142.738C188.49 142.738 167.426 142.659 167.426 142.502C167.426 142.423 188.49 142.266 214.507 142.266C240.524 142.266 261.588 142.345 261.588 142.502Z" fill="#F5F5F5"/>
<path d="M261.588 159.322C261.588 159.401 240.523 159.558 214.506 159.558C188.49 159.558 167.425 159.479 167.425 159.322C167.425 159.244 188.49 159.086 214.506 159.086C240.523 159.086 261.588 159.165 261.588 159.322Z" fill="#F5F5F5"/>
<path d="M229.126 167.968C229.126 168.047 215.292 168.204 198.236 168.204C181.18 168.204 167.346 168.125 167.346 167.968C167.346 167.811 181.18 167.732 198.236 167.732C215.292 167.732 229.126 167.811 229.126 167.968Z" fill="#F5F5F5"/>
<path d="M254.671 219.923H76.0131C73.3407 219.923 71.1399 222.124 71.1399 224.796V282.96C71.1399 285.632 73.3407 287.833 76.0131 287.833H205.782L217.572 300.645C217.572 300.645 218.829 293.414 219.851 287.833H254.671C257.343 287.833 259.544 285.632 259.544 282.96V224.796C259.465 222.124 257.343 219.923 254.671 219.923Z" fill="#455A64"/>
<path d="M247.597 249.948C247.597 250.027 226.532 250.184 200.515 250.184C174.499 250.184 153.434 250.105 153.434 249.948C153.434 249.87 174.499 249.712 200.515 249.712C226.532 249.712 247.597 249.791 247.597 249.948Z" fill="#F5F5F5"/>
<path d="M247.598 241.459C247.598 241.538 226.533 241.695 200.516 241.695C174.499 241.695 153.435 241.617 153.435 241.459C153.435 241.302 174.499 241.224 200.516 241.224C226.533 241.302 247.598 241.381 247.598 241.459Z" fill="#F5F5F5"/>
<path d="M247.597 258.28C247.597 258.358 226.532 258.516 200.515 258.516C174.499 258.516 153.434 258.437 153.434 258.28C153.434 258.123 174.499 258.044 200.515 258.044C226.532 258.044 247.597 258.201 247.597 258.28Z" fill="#F5F5F5"/>
<path d="M215.135 266.926C215.135 267.004 201.301 267.162 184.245 267.162C167.189 267.162 153.355 267.083 153.355 266.926C153.355 266.847 167.189 266.69 184.245 266.69C201.301 266.769 215.135 266.847 215.135 266.926Z" fill="#F5F5F5"/>
<path d="M290.198 97.7784C290.277 96.3636 289.019 94.32 287.84 93.2196C286.661 92.0406 285.875 90.5472 286.504 88.1892C286.975 86.3814 288.154 86.5386 288.547 85.5168C288.862 84.7308 288.705 83.8662 288.783 83.0016C289.019 80.0934 292.163 77.814 294.993 78.6C295.779 75.849 298.372 73.7268 301.202 73.4124C304.032 73.098 307.018 74.67 308.355 77.1852C310.005 76.3206 312.049 76.3992 313.621 77.2638C315.193 78.1284 316.293 79.8576 316.45 81.6654C318.022 80.4864 320.459 80.958 321.717 82.4514C322.974 83.9448 323.053 86.2242 322.11 87.9534C321.166 89.6826 319.28 90.783 317.394 91.0974C315.507 91.4118 313.464 90.9402 311.734 90.0756C310.005 89.211 308.433 87.9534 307.097 86.5386" fill="#263238"/>
<path d="M303.01 188.168C321.806 188.168 337.044 173.283 337.044 154.921C337.044 136.558 321.806 121.673 303.01 121.673C284.214 121.673 268.976 136.558 268.976 154.921C268.976 173.283 284.214 188.168 303.01 188.168Z" fill="#E0E0E0"/>
<path d="M337.201 154.921L333.428 145.253L319.909 153.742L331.935 172.291C331.935 172.291 336.808 165.925 337.201 154.921Z" fill="#EB996E"/>
<path d="M299.944 134.013C304.818 134.013 308.826 130.24 309.062 125.446C309.298 121.437 309.455 117.586 309.455 117.586C309.455 117.586 316.843 117.035 317.551 109.804C318.258 102.573 318.337 85.7526 318.337 85.7526C310.162 81.4296 300.259 81.9012 292.477 86.853L291.77 87.3246L290.905 124.895C290.748 129.926 294.835 134.013 299.944 134.013Z" fill="#FFBE9D"/>
<path d="M304.189 96.914C304.739 97.0712 305.053 97.7 304.896 98.2502C304.739 98.8004 304.11 99.1148 303.56 98.9576C303.01 98.8004 302.695 98.1716 302.852 97.6214C303.01 97.0712 303.638 96.7568 304.189 96.914Z" fill="#263238"/>
<path d="M306.232 97.3069C306.075 97.4641 305.446 96.8353 304.425 96.7567C303.403 96.6781 302.617 97.1497 302.538 96.9925C302.459 96.9139 302.617 96.6781 302.931 96.5209C303.246 96.2851 303.796 96.1279 304.425 96.1279C305.053 96.2065 305.604 96.4423 305.839 96.6781C306.154 96.9925 306.232 97.2283 306.232 97.3069Z" fill="#263238"/>
<path d="M315.271 96.914C315.822 97.0712 316.136 97.7 315.979 98.2502C315.822 98.8004 315.193 99.1148 314.643 98.9576C314.092 98.8004 313.778 98.1716 313.935 97.6214C314.092 97.0712 314.721 96.7568 315.271 96.914Z" fill="#263238"/>
<path d="M317.394 97.3069C317.236 97.4641 316.608 96.8353 315.586 96.7567C314.564 96.6781 313.778 97.1497 313.699 96.9925C313.621 96.9139 313.778 96.6781 314.092 96.5209C314.407 96.2851 314.957 96.1279 315.586 96.1279C316.215 96.2065 316.765 96.4423 317.001 96.6781C317.394 97.0711 317.472 97.3069 317.394 97.3069Z" fill="#263238"/>
<path d="M309.769 105.167C309.769 105.088 310.398 105.01 311.42 104.931C311.656 104.931 311.892 104.852 311.892 104.774C311.97 104.617 311.892 104.302 311.734 103.988C311.499 103.28 311.341 102.652 311.106 101.866C310.241 98.8789 309.691 96.4423 309.848 96.3637C310.005 96.2851 310.791 98.7217 311.656 101.708C311.892 102.416 312.049 103.123 312.206 103.831C312.285 104.145 312.442 104.538 312.285 104.931C312.206 105.167 311.97 105.245 311.813 105.324C311.656 105.324 311.499 105.324 311.341 105.324C310.398 105.324 309.769 105.245 309.769 105.167Z" fill="#263238"/>
<path d="M309.376 117.507C309.376 117.507 304.739 117.507 300.023 114.049C300.023 114.049 301.831 119.472 309.219 119.394L309.376 117.507Z" fill="#EB996E"/>
<path d="M291.534 98.0143C291.534 97.4641 291.063 96.9139 290.512 96.9139C289.176 96.8353 286.897 97.3069 286.582 101.08C286.189 106.424 291.377 105.167 291.456 105.01C291.456 104.852 291.456 100.058 291.534 98.0143Z" fill="#FFBE9D"/>
<path d="M290.277 102.887C290.277 102.887 290.198 102.966 290.041 103.045C289.884 103.123 289.648 103.123 289.333 103.045C288.783 102.809 288.39 101.866 288.39 100.922C288.39 100.451 288.547 99.9793 288.783 99.5863C288.94 99.1933 289.255 98.9575 289.569 98.9575C289.884 98.8789 290.041 99.1147 290.119 99.2719C290.198 99.4291 290.119 99.5077 290.198 99.5077C290.198 99.5077 290.355 99.4291 290.277 99.1933C290.277 99.1147 290.198 98.9575 290.119 98.8789C289.962 98.8003 289.805 98.7217 289.648 98.7217C289.255 98.7217 288.862 99.0361 288.626 99.5077C288.39 99.9007 288.233 100.451 288.154 101.001C288.076 102.101 288.626 103.123 289.333 103.438C289.726 103.595 290.041 103.438 290.198 103.359C290.277 103.045 290.277 102.887 290.277 102.887Z" fill="#EB996E"/>
<path d="M301.438 94.4774C301.674 94.7918 302.617 94.6346 303.874 94.6346C305.053 94.556 305.997 94.556 306.232 94.2416C306.468 93.8486 305.289 92.984 303.796 93.0626C302.145 93.0626 301.123 94.0844 301.438 94.4774Z" fill="#263238"/>
<path d="M313.228 94.0843C313.385 94.5559 314.25 94.7131 315.271 94.7131C316.293 94.7131 317.158 94.5559 317.236 94.0843C317.394 93.6127 316.45 92.9839 315.193 92.9839C313.935 92.9839 313.071 93.6127 313.228 94.0843Z" fill="#263238"/>
<path d="M319.28 88.0321C319.28 88.0321 314.878 90.1543 309.141 87.3247C305.368 85.4383 300.966 84.4951 300.023 85.2811C299.08 86.0671 298.844 89.9185 295.15 91.0189C295.15 91.0189 295.386 98.4073 292.477 98.1715C289.491 97.9357 291.377 86.4601 291.377 86.4601L298.608 82.9231L306.468 81.4297L313.857 82.4515L319.594 84.0235L319.28 88.0321Z" fill="#263238"/>
<path d="M269.919 130.869C277.622 122.93 291.22 123.795 291.22 123.795L302.46 131.812L308.826 124.424C308.826 124.424 315.507 125.131 321.795 128.432L322.267 128.589V128.668C327.219 131.34 334.214 137.786 340.816 143.995L332.878 151.383L324.075 159.243C324.075 159.243 324.075 159.322 324.075 159.401C323.996 159.872 325.332 170.64 326.668 178.815C318.651 186.439 308.433 189.74 297.036 187.775C293.421 187.146 291.691 186.282 288.312 185.417C283.36 184.16 279.823 179.837 279.351 174.728C278.722 167.889 278.329 159.401 278.329 159.401" fill="#455A64"/>
<path d="M315.9 125.76C315.9 125.76 316.136 126.231 316.372 127.017C316.686 127.803 317.079 129.061 317.551 130.554C318.494 133.541 319.673 137.707 320.773 142.266C321.874 146.903 322.738 151.148 323.289 154.213C323.524 155.785 323.76 156.964 323.839 157.829C323.996 158.693 323.996 159.165 323.996 159.165C323.996 159.165 323.839 158.693 323.682 157.829C323.524 156.885 323.289 155.706 322.974 154.213C322.345 151.148 321.481 146.982 320.38 142.344C319.28 137.707 318.101 133.62 317.236 130.633C316.843 129.218 316.45 127.961 316.215 127.096C315.979 126.31 315.822 125.838 315.9 125.76Z" fill="#263238"/>
<path d="M330.597 147.702C326.39 151.129 323.046 153.989 323.128 154.09C323.211 154.191 326.688 151.495 330.895 148.068C335.101 144.641 338.445 141.78 338.363 141.679C338.281 141.579 334.804 144.275 330.597 147.702Z" fill="#263238"/>
<path opacity="0.2" d="M280.137 141.715L273.22 164.431L275.814 165.767L278.329 159.322C278.329 159.322 280.923 145.881 280.137 141.715Z" fill="black"/>
<g opacity="0.2">
<path opacity="0.2" d="M315.114 125.838C318.808 127.803 309.534 132.519 305.289 132.362L308.355 124.266C308.355 124.266 313.857 125.131 315.114 125.838Z" fill="black"/>
</g>
<path d="M290.119 124.267V118.293C290.119 118.293 301.831 121.28 302.302 128.354C302.302 128.354 303.796 120.572 309.848 120.179L310.713 131.105L303.639 137.236H296.486L290.827 132.362L290.119 124.817" fill="#455A64"/>
<path d="M304.896 161.995C304.896 161.995 304.896 161.523 304.896 160.737C304.896 159.872 304.896 158.693 304.896 157.2C304.896 154.213 304.818 150.126 304.425 145.646C304.032 141.166 303.481 137.078 302.931 134.17C302.695 132.755 302.46 131.576 302.302 130.712C302.145 129.926 302.067 129.454 302.145 129.454C302.145 129.454 302.302 129.926 302.46 130.712C302.695 131.498 302.931 132.677 303.167 134.17C303.717 137.078 304.346 141.166 304.739 145.724C305.132 150.283 305.132 154.37 305.053 157.357C304.975 158.851 304.975 160.03 304.896 160.894C304.975 161.602 304.896 161.995 304.896 161.995Z" fill="#263238"/>
<path d="M301.752 126.31C301.752 126.31 301.516 126.231 301.045 126.389C300.573 126.546 300.18 127.096 299.866 127.882C299.158 129.454 298.215 131.733 297.665 134.406L297.586 134.642L297.351 134.484C296.643 134.091 295.936 133.62 295.228 133.148C293.814 132.205 292.556 131.183 291.456 130.24C290.905 129.768 290.434 129.14 290.198 128.511C289.962 127.882 289.805 127.253 289.805 126.703C289.726 125.603 289.962 124.659 290.041 124.109C290.198 123.48 290.277 123.166 290.277 123.166C290.277 123.166 290.277 123.48 290.198 124.109C290.119 124.738 289.962 125.603 290.041 126.703C290.119 127.253 290.198 127.803 290.434 128.432C290.67 128.982 291.141 129.533 291.691 130.004C292.792 130.947 294.128 131.891 295.464 132.834C296.172 133.305 296.879 133.777 297.586 134.17L297.272 134.327C297.901 131.655 298.844 129.375 299.63 127.803C299.787 127.41 300.023 127.096 300.259 126.782C300.495 126.546 300.73 126.31 301.045 126.31C301.438 126.074 301.752 126.31 301.752 126.31Z" fill="#263238"/>
<path d="M309.769 120.179C309.769 120.179 309.848 120.494 309.848 121.122C309.927 121.83 309.927 122.694 310.005 123.716C310.084 124.817 310.241 126.074 310.477 127.489C310.555 128.196 310.791 128.904 310.634 129.768C310.398 130.633 309.769 131.262 309.062 131.733C308.119 132.441 307.176 132.991 306.468 133.698L306.154 134.013V133.541C305.997 131.026 305.132 128.982 304.425 127.725C303.717 126.389 303.088 125.681 303.088 125.681C303.088 125.681 303.246 125.838 303.56 126.153C303.874 126.467 304.189 126.939 304.66 127.646C305.446 128.982 306.39 131.026 306.547 133.62L306.232 133.541C306.94 132.755 307.962 132.205 308.826 131.498C309.455 131.026 310.005 130.397 310.241 129.768C310.398 129.061 310.162 128.354 310.084 127.646C309.848 126.231 309.769 124.895 309.691 123.873C309.612 122.773 309.612 121.908 309.612 121.28C309.769 120.494 309.769 120.179 309.769 120.179Z" fill="#263238"/>
<path d="M347.576 121.673C347.104 122.302 329.812 145.41 329.812 145.41L332.249 146.825L350.013 124.031L347.576 121.673Z" fill="#263238"/>
<path d="M278.172 139.987C278.172 139.987 296.329 166.161 297.429 166.632C299.551 167.654 324.468 146.118 326.826 144.074C327.14 143.602 327.847 142.738 329.184 140.851C329.184 140.851 331.149 131.891 333.271 132.598C335.393 133.306 332.092 137.157 333.507 140.537C334.843 143.917 341.131 135.821 341.367 135.114L342.939 132.991C342.939 132.991 344.589 137.786 344.511 139.751C344.118 146.196 338.065 153.742 338.065 153.742C338.065 153.742 310.87 187.461 292.163 188.483C286.818 188.797 277.229 173.549 270.862 162.152C267.011 155.235 268.897 146.589 275.343 141.873L278.172 139.987Z" fill="#FFBE9D"/>
<path d="M341.445 141.008C341.367 141.008 341.995 139.908 342.624 138.65C343.253 137.314 343.725 136.292 343.803 136.292C343.882 136.292 343.489 137.471 342.86 138.729C342.153 140.065 341.445 141.008 341.445 141.008Z" fill="#EB996E"/>
<path d="M275.107 127.175C275.107 127.175 255.614 134.092 270.076 166.946L292.635 153.349L289.412 145.646L275.107 127.175Z" fill="#455A64"/>
<path d="M273.613 127.804C273.613 127.804 274.478 127.646 275.971 128.039C276.679 128.197 277.622 128.59 278.565 129.14C279.508 129.69 280.452 130.476 281.395 131.498C283.281 133.463 285.089 136.214 286.661 139.436C288.312 142.659 289.884 146.275 291.456 150.047C291.927 151.226 292.399 152.327 292.87 153.349L292.949 153.506L292.792 153.584C286.268 157.121 280.609 160.501 276.6 162.938C274.557 164.195 272.985 165.217 271.884 165.925C271.334 166.239 270.941 166.553 270.627 166.711C270.312 166.868 270.155 166.946 270.155 166.946C270.155 166.946 270.312 166.789 270.548 166.632C270.862 166.396 271.255 166.16 271.806 165.767C272.906 164.981 274.478 163.96 276.443 162.702C280.452 160.187 286.111 156.807 292.635 153.191L292.556 153.427C292.084 152.327 291.613 151.226 291.141 150.126C289.569 146.275 287.997 142.659 286.425 139.515C284.775 136.371 283.124 133.62 281.238 131.655C280.294 130.633 279.351 129.847 278.487 129.297C277.622 128.747 276.757 128.354 275.971 128.197C274.478 127.725 273.613 127.804 273.613 127.804Z" fill="#263238"/>
<path d="M315.586 79.1504C315.586 79.1504 315.664 79.229 315.664 79.4648C315.664 79.7006 315.743 80.015 315.743 80.4866C315.664 81.3512 315.35 82.6874 314.25 83.8664C313.149 85.0454 311.106 85.8314 308.983 85.2026C307.962 84.8882 306.94 84.2594 306.311 83.2376C305.997 82.766 305.839 82.0586 305.918 81.4298C305.997 80.801 306.311 80.1722 306.861 79.7792C307.411 79.3862 308.197 79.3862 308.748 79.622C309.298 79.8578 309.848 80.3294 310.005 80.8796C310.477 82.0586 310.162 83.3162 309.455 84.1808C308.119 85.9886 305.682 86.1458 304.267 85.2812C303.56 84.9668 302.931 84.6524 302.302 84.5738C301.674 84.4166 301.202 84.5738 300.809 84.731C300.023 85.124 299.709 85.517 299.709 85.4384C299.709 85.4384 299.787 85.3598 299.944 85.2026C300.023 85.124 300.102 85.0454 300.259 84.8882C300.416 84.8096 300.573 84.6524 300.73 84.5738C301.123 84.338 301.674 84.2594 302.302 84.338C302.931 84.4166 303.639 84.731 304.346 85.0454C304.739 85.2026 305.053 85.3598 305.446 85.4384C305.839 85.517 306.311 85.517 306.704 85.4384C307.569 85.2812 308.433 84.8096 309.062 84.0236C309.612 83.2376 309.927 82.1372 309.534 81.1154C309.219 80.1722 307.883 79.5434 306.94 80.0936C306.468 80.408 306.232 80.8796 306.154 81.4298C306.075 81.98 306.232 82.4516 306.468 82.9232C307.018 83.8664 307.962 84.4166 308.905 84.731C310.87 85.2812 312.835 84.6524 313.857 83.552C314.957 82.4516 315.271 81.194 315.429 80.3294C315.664 79.622 315.507 79.1504 315.586 79.1504Z" fill="#455A64"/>
<path d="M311.341 108.783C311.341 108.861 311.106 108.94 310.634 108.94C310.241 108.94 309.612 108.861 308.983 108.547C308.355 108.232 307.962 107.839 307.726 107.446C307.49 107.053 307.411 106.818 307.49 106.818C307.569 106.739 308.119 107.682 309.219 108.154C310.241 108.783 311.263 108.625 311.341 108.783Z" fill="#263238"/>
<path d="M290.67 105.245C290.67 105.245 290.905 105.56 290.67 106.11C290.512 106.346 290.277 106.66 289.884 106.739C289.491 106.817 289.019 106.739 288.626 106.424C288.312 106.11 288.076 105.717 288.076 105.245C288.076 104.852 288.233 104.538 288.469 104.302C288.862 103.831 289.255 103.831 289.255 103.831C289.255 103.909 288.94 104.066 288.705 104.459C288.469 104.852 288.312 105.56 288.862 106.031C289.098 106.267 289.491 106.346 289.726 106.267C290.041 106.189 290.198 106.031 290.355 105.874C290.748 105.638 290.67 105.324 290.67 105.245Z" fill="#263238"/>
<path d="M316.843 81.7441C316.843 81.7441 317.158 82.2157 317.236 83.1589C317.315 84.1021 317.001 85.4383 316.057 86.5387C315.114 87.6391 313.778 88.1107 312.835 88.1893C311.892 88.2679 311.341 88.0321 311.341 88.0321C311.341 87.9535 311.892 88.0321 312.756 87.9535C313.621 87.7963 314.8 87.3247 315.664 86.3029C316.529 85.2811 316.843 84.0235 316.843 83.1589C317.001 82.2943 316.765 81.8227 316.843 81.7441Z" fill="#455A64"/>
<path d="M278.725 153.477C285.184 150.284 290.374 147.6 290.316 147.483C290.259 147.367 284.975 149.861 278.516 153.055C272.057 156.248 266.867 158.932 266.925 159.049C266.982 159.166 272.266 156.671 278.725 153.477Z" fill="#E0E0E0"/>
<path d="M275.304 144.417C281.041 141.338 285.642 138.749 285.58 138.634C285.519 138.519 280.818 140.922 275.081 144.002C269.344 147.081 264.743 149.67 264.804 149.785C264.866 149.9 269.567 147.496 275.304 144.417Z" fill="#E0E0E0"/>
<path d="M281.002 131.419C281.002 131.498 280.137 131.969 278.722 132.755C277.15 133.62 275.264 134.72 273.063 135.899C270.941 137.157 268.976 138.257 267.483 139.122C266.068 139.908 265.125 140.458 265.125 140.38C265.125 140.301 265.911 139.751 267.325 138.886C268.74 138.022 270.705 136.843 272.906 135.585C275.107 134.327 277.15 133.306 278.644 132.52C280.059 131.812 281.002 131.341 281.002 131.419Z" fill="#E0E0E0"/>
<path d="M298.215 129.69C298.215 129.768 297.587 129.69 296.722 129.297C295.857 128.904 294.678 128.196 293.578 127.253C292.478 126.231 291.613 125.21 290.984 124.502C290.355 123.716 290.041 123.245 290.12 123.245C290.198 123.245 290.591 123.638 291.22 124.345C291.849 125.052 292.792 126.074 293.814 127.017C294.914 127.961 296.015 128.668 296.879 129.14C297.665 129.454 298.294 129.611 298.215 129.69Z" fill="#E0E0E0"/>
<path d="M309.691 125.446C309.769 125.446 309.298 126.782 308.04 127.804C306.783 128.825 305.446 129.14 305.446 128.983C305.368 128.904 306.625 128.432 307.804 127.489C308.983 126.546 309.612 125.367 309.691 125.446Z" fill="#E0E0E0"/>
<path d="M330.127 137.236C330.127 137.236 329.97 137.314 329.655 137.314C329.341 137.393 328.869 137.393 328.398 137.472C327.297 137.629 325.725 137.707 323.76 137.865C319.83 138.179 314.328 138.493 308.355 138.729C302.303 138.965 296.879 139.044 292.871 138.965C290.906 138.965 289.255 138.886 288.155 138.886C287.604 138.886 287.211 138.808 286.897 138.808C286.582 138.808 286.425 138.808 286.425 138.729C286.425 138.729 286.582 138.729 286.897 138.729C287.211 138.729 287.683 138.729 288.155 138.729C289.334 138.729 290.906 138.729 292.871 138.729C296.801 138.651 302.303 138.572 308.276 138.336C314.328 138.1 319.752 137.865 323.682 137.629C325.647 137.472 327.219 137.393 328.319 137.314C328.869 137.314 329.262 137.236 329.577 137.236C329.97 137.236 330.127 137.236 330.127 137.236Z" fill="#E0E0E0"/>
<path d="M323.918 146.589C323.918 146.589 323.446 146.667 322.66 146.825C321.795 146.903 320.616 147.06 319.123 147.218C316.136 147.532 311.97 147.768 307.412 148.004C302.853 148.161 298.687 148.239 295.7 148.239C294.207 148.239 292.949 148.161 292.163 148.161C291.299 148.161 290.827 148.082 290.827 148.082C290.827 148.082 291.299 148.004 292.163 148.004C293.106 148.004 294.285 148.004 295.7 147.925C298.687 147.846 302.853 147.768 307.412 147.611C311.97 147.453 316.136 147.218 319.123 146.982C320.538 146.903 321.795 146.825 322.66 146.746C323.446 146.589 323.918 146.589 323.918 146.589Z" fill="#E0E0E0"/>
<path d="M309.848 158.064C309.848 158.143 308.826 158.3 307.254 158.457C305.604 158.615 303.403 158.772 300.966 158.929C298.53 159.086 296.25 159.086 294.6 159.086C292.949 159.086 292.006 159.008 292.006 159.008C292.006 158.929 293.028 158.929 294.6 158.85C296.329 158.772 298.53 158.693 300.966 158.536C303.403 158.379 305.525 158.3 307.254 158.222C308.826 158.064 309.848 158.064 309.848 158.064Z" fill="#E0E0E0"/>
<path d="M291.849 130.79C291.849 130.869 289.412 130.948 286.504 131.026C283.517 131.183 281.159 131.341 281.08 131.183C281.08 131.105 283.438 130.712 286.425 130.633C289.412 130.555 291.849 130.712 291.849 130.79Z" fill="#E0E0E0"/>
<path d="M318.024 130.634C321.887 130.649 325.02 130.555 325.02 130.425C325.021 130.295 321.889 130.177 318.026 130.163C314.162 130.148 311.03 130.242 311.029 130.372C311.029 130.502 314.16 130.62 318.024 130.634Z" fill="#E0E0E0"/>
<path d="M326.197 178.186C326.197 178.186 325.961 178.343 325.489 178.579C325.018 178.815 324.31 179.129 323.446 179.522C321.717 180.23 319.201 181.094 316.372 181.802C313.542 182.43 310.948 182.745 309.062 182.823C308.119 182.902 307.333 182.902 306.783 182.902C306.232 182.902 305.997 182.902 305.997 182.823C305.997 182.745 307.176 182.745 309.062 182.509C310.948 182.352 313.542 181.959 316.293 181.33C319.123 180.701 321.559 179.837 323.367 179.208C325.096 178.658 326.197 178.186 326.197 178.186Z" fill="#E0E0E0"/>
<path d="M113.898 285.161C132.695 285.161 147.932 270.627 147.932 252.699C147.932 234.771 132.695 220.237 113.898 220.237C95.1019 220.237 79.8644 234.771 79.8644 252.699C79.8644 270.627 95.1019 285.161 113.898 285.161Z" fill="#E0E0E0"/>
<path d="M106.981 174.492C101.558 174.807 99.4358 180.387 98.807 181.645C98.1782 182.902 98.0996 184.317 97.9424 185.732C97.7852 187.147 97.628 188.562 96.9206 189.819C95.7416 191.706 93.2264 192.727 92.519 194.85C91.733 197.286 93.698 199.801 93.2264 202.317C92.912 203.653 91.9688 204.753 91.6544 206.089C91.2614 207.426 91.6544 208.919 92.3618 210.177C94.1696 213.242 97.7852 214.735 101.322 214.893C104.859 215.05 108.318 213.949 111.619 212.928" fill="#263238"/>
<path d="M130.719 181.488C130.168 182.667 130.719 184.003 131.505 184.946C132.369 185.889 133.47 186.518 134.413 187.304C135.356 188.09 136.299 189.112 136.378 190.37C136.456 191.549 135.906 192.649 136.063 193.828C136.456 196.736 141.172 197.679 141.408 200.588C141.565 202.553 139.522 204.36 140.151 206.247C140.386 206.954 140.937 207.504 141.33 208.212C142.666 210.413 141.723 213.478 139.836 215.207C137.871 216.936 135.199 217.565 132.684 217.644C130.483 217.722 128.046 217.408 126.789 215.6C125.61 214.028 125.845 211.827 126.081 209.862C127.182 200.666 127.024 191.313 126.789 182.038" fill="#263238"/>
<path d="M108.396 224.089C108.475 219.216 108.396 214.186 108.396 214.186C108.396 214.186 102.187 213.085 101.008 204.911C99.8288 197.129 101.794 180.388 101.794 180.388C110.833 176.85 120.972 178.187 127.26 185.497L126.317 224.797C126.238 229.355 122.151 232.892 117.278 232.735C112.326 232.578 108.318 228.727 108.396 224.089Z" fill="#FFBE9D"/>
<path d="M103.444 193.278C103.444 193.828 103.837 194.3 104.466 194.378C105.016 194.378 105.488 193.985 105.567 193.435C105.567 192.885 105.174 192.413 104.545 192.335C103.995 192.256 103.444 192.728 103.444 193.278Z" fill="#263238"/>
<path d="M101.794 192.413C101.951 192.571 102.737 191.942 103.837 192.02C105.96 192.335 105.881 192.649 105.881 192.492C105.96 192.413 105.802 192.178 105.488 191.942C105.174 191.706 104.545 191.392 103.837 191.392C103.13 191.392 102.58 191.627 102.187 191.863C101.794 192.178 101.715 192.413 101.794 192.413Z" fill="#263238"/>
<path d="M114.92 193.593C114.92 194.143 115.313 194.614 115.942 194.693C116.492 194.693 116.964 194.3 117.042 193.75C117.042 193.2 116.649 192.728 116.02 192.649C115.47 192.649 114.92 193.042 114.92 193.593Z" fill="#263238"/>
<path d="M113.505 192.806C113.662 192.964 114.448 192.335 115.549 192.413C116.649 192.413 117.514 192.964 117.592 192.885C117.671 192.806 117.514 192.571 117.199 192.335C116.885 192.099 116.256 191.785 115.549 191.785C114.841 191.785 114.291 192.02 113.898 192.256C113.505 192.571 113.427 192.806 113.505 192.806Z" fill="#263238"/>
<path d="M109.339 200.902C109.339 200.823 108.632 200.745 107.532 200.588C107.217 200.588 106.981 200.509 106.903 200.273C106.824 200.037 106.981 199.723 107.139 199.409C107.453 198.701 107.689 197.994 108.003 197.208C109.182 194.142 110.125 191.549 109.968 191.549C109.811 191.47 108.789 193.985 107.532 197.051C107.217 197.837 106.981 198.544 106.667 199.251C106.588 199.566 106.353 199.959 106.51 200.352C106.588 200.588 106.824 200.745 106.981 200.745C107.139 200.823 107.296 200.823 107.453 200.823C108.632 200.902 109.261 200.981 109.339 200.902Z" fill="#263238"/>
<path d="M108.396 214.186C108.396 214.186 113.898 214.579 119.322 211.435C119.322 211.435 116.649 217.015 108.475 216.151L108.396 214.186Z" fill="#EB996E"/>
<path d="M109.732 203.575C110.125 203.024 110.833 202.789 111.54 202.867C112.012 202.946 112.483 203.182 112.798 203.575C113.112 203.968 113.112 204.518 112.876 204.911C112.562 205.304 111.933 205.461 111.383 205.304C110.833 205.147 110.361 204.754 109.968 204.439C109.811 204.361 109.732 204.203 109.654 204.125C109.654 203.889 109.575 203.732 109.732 203.575Z" fill="#EB996E"/>
<path d="M112.562 201.688C112.405 201.688 112.326 202.867 111.304 203.732C110.283 204.596 108.946 204.439 108.946 204.596C108.946 204.675 109.261 204.832 109.811 204.832C110.361 204.832 111.147 204.675 111.776 204.203C112.405 203.653 112.719 202.946 112.719 202.474C112.798 202.002 112.719 201.688 112.562 201.688Z" fill="#263238"/>
<path d="M123.723 179.68C120.736 183.924 112.876 188.326 107.217 189.269C107.846 188.405 111.304 186.282 112.012 185.418C109.418 187.304 105.802 189.898 102.423 190.055C102.03 190.055 101.558 190.055 101.244 189.898C100.772 189.662 100.693 189.112 100.615 188.64C100.379 186.675 100.536 183.217 100.851 181.252C101.165 179.287 102.108 177.322 103.759 175.986C105.96 174.335 109.025 173.864 112.012 173.785C114.448 173.706 117.042 173.864 119.243 174.728C121.522 175.593 123.409 177.401 123.723 179.444" fill="#263238"/>
<path d="M132.212 198.701C132.605 196.579 132.919 194.614 132.998 193.278C133.234 189.112 132.055 173.628 117.592 174.807L117.042 179.208C117.042 179.208 114.841 194.299 124.195 194.378C124.195 194.378 124.745 198.858 128.989 203.26C128.911 203.338 131.347 203.26 132.212 198.701Z" fill="#263238"/>
<path d="M124.116 194.457C124.981 194.299 125.924 194.299 126.71 194.692C127.575 195.007 128.282 195.636 128.596 196.422C128.911 197.208 128.911 198.151 128.596 199.015C128.282 199.88 127.732 200.587 127.103 201.216C126.631 201.688 126.16 202.081 125.531 202.238C124.902 202.395 124.195 202.317 123.723 201.924" fill="#FFBE9D"/>
<path d="M124.588 199.723C124.509 199.723 124.824 200.273 125.688 200.116C126.081 200.037 126.474 199.723 126.71 199.251C126.946 198.858 127.103 198.387 127.182 197.837C127.26 197.286 127.103 196.736 126.867 196.265C126.553 195.872 126.16 195.557 125.767 195.557C124.981 195.557 124.666 196.107 124.745 196.107C124.824 196.186 125.138 195.872 125.688 196.029C126.238 196.107 126.71 196.815 126.553 197.758C126.474 198.623 126.081 199.487 125.61 199.644C124.981 199.88 124.588 199.644 124.588 199.723Z" fill="#EB996E"/>
<path d="M125.688 178.108C126.789 178.737 128.125 178.894 129.382 178.58C130.64 178.265 131.74 177.401 132.369 176.3C132.762 175.593 132.998 174.728 132.841 173.942C132.526 172.842 131.505 172.134 130.404 171.82C128.832 171.427 127.024 171.82 125.845 172.92C124.666 174.021 124.116 175.829 124.666 177.401C125.217 178.973 126.789 180.073 128.439 179.994" fill="#263238"/>
<path d="M127.024 201.531C126.238 202.081 125.374 202.71 124.745 203.496C124.116 204.282 123.645 205.225 123.802 206.247C123.88 206.797 124.038 207.347 123.959 207.897C123.88 208.683 123.252 209.234 122.78 209.862C121.758 211.513 122.151 213.871 123.487 215.286C124.824 216.701 126.867 217.408 128.832 217.487C130.011 217.487 131.19 217.329 132.133 216.701C133.47 215.757 134.02 213.95 134.02 212.299" fill="#263238"/>
<path d="M128.046 181.331C128.125 181.331 127.81 181.959 127.182 182.824C126.553 183.689 125.61 184.789 124.431 185.889C123.173 186.911 121.915 187.697 120.972 188.169C120.029 188.64 119.4 188.798 119.4 188.798C119.322 188.64 121.758 187.697 124.195 185.575C126.553 183.531 127.889 181.252 128.046 181.331Z" fill="#455A64"/>
<path d="M129.54 181.252C129.618 181.252 129.54 182.038 129.304 183.217C128.989 184.396 128.439 186.047 127.496 187.697C126.474 189.348 125.374 190.605 124.431 191.391C123.487 192.177 122.859 192.57 122.78 192.57C122.701 192.492 125.217 190.684 127.182 187.461C128.989 184.317 129.382 181.252 129.54 181.252Z" fill="#455A64"/>
<path d="M98.0996 187.854C98.2568 187.854 98.414 189.19 98.807 190.841C99.2786 192.413 99.8288 193.67 99.7502 193.749C99.6716 193.828 98.8856 192.649 98.414 190.998C97.9424 189.269 98.021 187.854 98.0996 187.854Z" fill="#455A64"/>
<path d="M132.762 215.6C132.762 215.521 133.155 215.993 133.941 215.993C134.334 215.993 134.884 215.915 135.356 215.522C135.828 215.207 136.221 214.657 136.378 213.95C136.535 213.242 136.535 212.456 136.378 211.592C136.221 210.727 135.906 209.862 135.592 208.919C135.277 207.976 135.042 206.875 135.277 205.775C135.435 204.596 136.221 203.653 136.535 202.631C136.928 201.609 136.771 200.43 136.299 199.566C135.828 198.623 135.042 197.915 134.177 197.601C133.705 197.444 133.234 197.208 132.841 196.972C132.448 196.736 131.976 196.422 131.74 196.029C131.269 195.164 131.269 194.3 131.269 193.592C131.269 192.806 131.347 192.177 131.19 191.627C131.033 191.077 130.876 190.605 130.561 190.291C130.011 189.662 129.461 189.662 129.54 189.662C129.54 189.662 129.697 189.662 129.854 189.662C130.09 189.741 130.404 189.898 130.719 190.212C131.033 190.527 131.269 190.998 131.426 191.627C131.583 192.256 131.583 192.963 131.583 193.671C131.583 194.378 131.583 195.243 132.055 195.95C132.526 196.658 133.391 196.972 134.334 197.365C135.277 197.679 136.221 198.465 136.692 199.487C137.164 200.509 137.4 201.767 136.928 202.867C136.535 203.967 135.828 204.911 135.67 205.932C135.513 206.954 135.749 207.976 135.985 208.919C136.299 209.862 136.614 210.805 136.771 211.67C136.928 212.535 136.928 213.399 136.692 214.185C136.456 214.971 136.063 215.522 135.513 215.915C134.963 216.229 134.413 216.386 134.02 216.308C133.548 216.308 133.234 216.15 133.077 215.993C132.841 215.757 132.762 215.6 132.762 215.6Z" fill="#455A64"/>
<path d="M127.103 215.05C127.103 215.05 127.182 215.286 127.575 215.443C127.889 215.6 128.675 215.6 129.068 215.05C129.461 214.421 129.461 213.478 128.911 212.613C128.439 211.749 127.575 210.884 127.339 209.548C127.182 208.919 127.339 208.212 127.81 207.74C128.203 207.269 128.675 206.954 128.911 206.561C129.54 205.775 129.54 204.832 129.461 204.046C129.382 203.26 129.147 202.71 128.989 202.238C128.832 201.845 128.754 201.609 128.832 201.609C128.832 201.609 128.989 201.845 129.147 202.238C129.304 202.631 129.618 203.26 129.697 204.046C129.854 204.832 129.854 205.932 129.147 206.797C128.832 207.269 128.361 207.583 128.046 207.976C127.732 208.369 127.575 208.919 127.732 209.469C127.889 210.57 128.754 211.434 129.225 212.456C129.697 213.399 129.775 214.578 129.225 215.286C128.989 215.679 128.518 215.836 128.203 215.836C127.889 215.836 127.575 215.836 127.339 215.679C127.103 215.364 127.103 215.05 127.103 215.05Z" fill="#455A64"/>
<path d="M96.2919 213.006C96.2919 213.006 96.056 212.771 95.663 212.378C95.27 211.906 94.7199 211.277 94.3269 210.334C94.0911 209.862 94.0125 209.234 94.0125 208.605C94.0125 207.976 94.2483 207.269 94.7199 206.718C95.1915 206.168 95.8989 205.854 96.3705 205.304C96.8421 204.753 96.8421 204.046 96.6849 203.26C96.5277 202.553 96.1347 201.845 95.8203 201.216C95.5059 200.588 95.1915 199.88 95.0343 199.173C94.8771 198.465 95.0343 197.679 95.4273 197.208C95.8203 196.658 96.2133 196.343 96.6063 195.95C97.3923 195.321 97.8639 194.614 97.9425 194.064C98.0211 193.514 97.8639 193.199 97.9425 193.199C97.9425 193.199 98.021 193.278 98.0996 193.435C98.1782 193.592 98.1783 193.828 98.1783 194.142C98.0997 194.771 97.628 195.557 96.842 196.265C96.449 196.658 96.056 196.972 95.7416 197.522C95.4272 197.994 95.2701 198.623 95.4273 199.251C95.5059 199.88 95.8203 200.509 96.2133 201.216C96.5277 201.845 96.9207 202.553 97.1565 203.417C97.3137 204.203 97.3137 205.146 96.7635 205.775C96.2133 206.404 95.5059 206.64 95.1129 207.19C94.7199 207.662 94.484 208.29 94.484 208.841C94.484 209.391 94.5627 209.941 94.7199 210.413C95.1129 211.356 95.5845 211.985 95.9775 212.456C96.1347 212.771 96.2919 213.006 96.2919 213.006Z" fill="#455A64"/>
<path d="M129.068 179.129C128.989 179.208 128.439 177.95 127.182 177.086C125.924 176.143 124.666 175.907 124.666 175.828C124.666 175.75 126.081 175.75 127.417 176.771C128.754 177.715 129.147 179.129 129.068 179.129Z" fill="#E8505B"/>
<path d="M130.168 171.584C130.247 171.584 130.483 171.898 130.719 172.449C130.954 173.077 131.033 173.942 130.797 174.964C130.561 175.907 129.933 176.693 129.461 177.086C128.989 177.479 128.596 177.636 128.596 177.558C128.596 177.479 128.911 177.322 129.304 176.85C129.697 176.379 130.168 175.75 130.483 174.885C130.719 174.021 130.64 173.156 130.561 172.606C130.326 171.977 130.168 171.663 130.168 171.584Z" fill="#455A64"/>
<path opacity="0.3" d="M90.3182 268.262C90.3182 268.262 109.811 286.812 121.444 283.432C133.077 280.052 136.456 271.327 136.456 271.327L136.771 268.183L135.592 267.397L90.8684 263.782L90.3182 268.262Z" fill="black"/>
<path d="M78.764 250.891L82.5368 241.224L96.056 249.712L84.0302 268.262C83.9516 268.262 79.0784 261.974 78.764 250.891Z" fill="#EB996E"/>
<path d="M93.9338 224.246C100.222 220.945 108.318 220.001 108.318 220.001C110.676 224.717 118.143 225.346 122.623 222.124L126.396 219.53C126.396 219.53 126.946 219.53 127.968 219.608C136.849 220.394 144.159 226.997 145.967 235.8C146.596 238.944 147.146 242.638 146.91 246.018C146.439 254.585 137.557 255.371 137.557 255.371C137.557 255.371 137.085 263.86 136.535 270.698C136.063 275.807 133.47 279.659 128.754 281.781C125.295 283.353 123.33 284.139 118.85 284.846C107.453 286.654 96.5276 282.331 89.2964 274.628C90.6326 266.454 91.9688 255.843 91.8116 255.371C91.8116 255.293 91.8116 255.214 91.8116 255.214L83.0084 247.354L77.978 243.188C78.0566 243.188 89.0606 226.918 93.9338 224.246Z" fill="#E8505B"/>
<path d="M104.859 229.512C104.859 229.591 104.073 228.883 102.658 228.883C101.951 228.883 101.086 229.119 100.379 229.669C100.065 229.984 99.7502 230.377 99.3572 230.77C99.0428 231.163 98.5712 231.634 97.9424 231.713C97.3136 231.87 96.6848 231.556 96.2918 231.241C95.8202 230.927 95.4272 230.612 95.0342 230.377C94.2482 229.905 93.3836 229.984 92.7548 230.141C92.126 230.377 91.6544 230.77 91.4186 231.084C91.1828 231.398 91.1042 231.634 91.0256 231.556C91.0256 231.556 91.0256 231.32 91.2614 230.927C91.4972 230.612 91.8902 230.141 92.5976 229.826C93.305 229.512 94.3268 229.433 95.1914 229.984C95.663 230.219 96.056 230.534 96.449 230.77C96.842 231.005 97.3136 231.241 97.7852 231.163C98.2568 231.084 98.6498 230.691 98.9642 230.377C99.2786 229.984 99.593 229.591 100.065 229.276C100.851 228.647 101.794 228.49 102.58 228.49C103.366 228.49 103.916 228.726 104.23 228.962C104.781 229.355 104.859 229.512 104.859 229.512Z" fill="#FAFAFA"/>
<path d="M113.82 241.302C113.741 241.381 113.269 240.516 111.933 240.045C111.304 239.809 110.44 239.73 109.575 240.045C109.182 240.202 108.711 240.516 108.318 240.752C107.846 240.988 107.296 241.302 106.667 241.224C106.038 241.145 105.567 240.674 105.252 240.281C104.938 239.888 104.623 239.416 104.309 239.102C103.759 238.394 102.894 238.158 102.187 238.158C101.479 238.158 100.929 238.394 100.615 238.63C100.3 238.866 100.143 239.023 100.065 239.023C100.065 239.023 100.143 238.787 100.458 238.551C100.772 238.316 101.322 238.001 102.108 237.923C102.816 237.844 103.837 238.08 104.545 238.866C104.859 239.259 105.174 239.652 105.488 240.045C105.802 240.438 106.195 240.752 106.667 240.831C107.139 240.909 107.61 240.673 108.082 240.438C108.553 240.202 108.946 239.887 109.418 239.73C110.361 239.416 111.304 239.495 112.012 239.809C112.719 240.045 113.191 240.516 113.427 240.831C113.741 241.066 113.82 241.224 113.82 241.302Z" fill="#FAFAFA"/>
<path d="M133.705 224.089C133.705 224.167 132.841 223.696 131.426 223.931C130.719 224.089 129.933 224.482 129.382 225.189C129.068 225.503 128.911 225.975 128.596 226.447C128.361 226.918 127.968 227.39 127.417 227.704C126.789 227.94 126.16 227.783 125.688 227.626C125.217 227.469 124.745 227.233 124.273 227.075C123.409 226.761 122.544 226.997 121.994 227.39C121.365 227.783 121.051 228.254 120.894 228.569C120.736 228.883 120.658 229.119 120.658 229.119C120.658 229.119 120.658 228.883 120.736 228.49C120.894 228.097 121.208 227.547 121.837 227.154C122.466 226.761 123.409 226.447 124.431 226.761C124.902 226.918 125.374 227.154 125.845 227.311C126.317 227.469 126.789 227.547 127.26 227.39C127.732 227.233 128.046 226.761 128.282 226.368C128.518 225.896 128.754 225.425 129.068 225.032C129.697 224.246 130.64 223.853 131.347 223.774C132.055 223.617 132.684 223.774 133.077 223.853C133.548 223.931 133.705 224.089 133.705 224.089Z" fill="#FAFAFA"/>
<path d="M124.588 236.979C124.509 237.058 124.195 236.35 123.173 235.957C122.701 235.8 121.994 235.721 121.365 235.879C121.051 235.957 120.736 236.193 120.343 236.35C119.95 236.507 119.557 236.743 119.007 236.665C118.536 236.586 118.143 236.193 117.907 235.879C117.671 235.564 117.435 235.171 117.278 234.935C116.885 234.385 116.256 234.149 115.706 234.149C114.606 234.149 114.134 234.7 114.055 234.7C114.055 234.7 114.134 234.542 114.37 234.307C114.606 234.149 115.077 233.914 115.706 233.914C116.256 233.914 117.042 234.149 117.592 234.778C117.828 235.093 118.064 235.407 118.3 235.721C118.536 236.036 118.771 236.272 119.164 236.35C119.872 236.507 120.579 235.8 121.287 235.643C122.073 235.407 122.78 235.564 123.33 235.8C124.352 236.193 124.588 236.979 124.588 236.979Z" fill="#FAFAFA"/>
<path d="M104.309 247.826C104.23 247.905 103.916 247.197 102.894 246.804C102.423 246.647 101.715 246.569 101.086 246.726C100.772 246.804 100.458 247.04 100.065 247.197C99.6717 247.355 99.2787 247.59 98.7285 247.512C98.2569 247.433 97.8639 247.04 97.6281 246.726C97.3923 246.411 97.1565 246.018 96.9993 245.783C96.6063 245.232 95.9775 244.997 95.4273 244.997C94.3269 244.997 93.8553 245.547 93.7767 245.547C93.7767 245.547 93.8553 245.39 94.0911 245.154C94.3269 244.997 94.7985 244.761 95.4273 244.761C95.9775 244.761 96.7635 244.997 97.3137 245.625C97.5495 245.94 97.7853 246.254 98.0211 246.569C98.2569 246.883 98.4927 247.119 98.8857 247.197C99.5931 247.355 100.3 246.647 101.008 246.49C101.794 246.254 102.501 246.411 103.051 246.647C104.073 247.04 104.309 247.826 104.309 247.826Z" fill="#FAFAFA"/>
<path d="M123.252 248.062C123.252 248.14 122.701 247.59 121.601 247.59C121.051 247.59 120.422 247.669 119.872 248.14C119.636 248.376 119.322 248.612 119.086 248.926C118.771 249.241 118.457 249.555 117.907 249.634C117.357 249.712 116.964 249.477 116.571 249.241C116.256 249.005 115.942 248.769 115.627 248.533C115.077 248.14 114.37 248.14 113.898 248.298C112.876 248.612 112.562 249.398 112.562 249.319C112.562 249.319 112.562 249.162 112.719 248.848C112.876 248.612 113.269 248.219 113.82 247.983C114.37 247.747 115.156 247.747 115.863 248.14C116.178 248.376 116.492 248.612 116.806 248.848C117.121 249.084 117.435 249.241 117.828 249.162C118.536 249.084 119.007 248.219 119.636 247.747C120.265 247.276 121.051 247.197 121.601 247.197C122.78 247.433 123.252 248.062 123.252 248.062Z" fill="#FAFAFA"/>
<path d="M116.964 256.708C116.964 256.786 116.413 256.236 115.313 256.236C114.763 256.236 114.134 256.315 113.584 256.786C113.348 257.022 113.034 257.258 112.798 257.572C112.483 257.887 112.169 258.201 111.619 258.28C111.069 258.358 110.676 258.123 110.283 257.887C109.968 257.651 109.654 257.415 109.339 257.179C108.789 256.786 108.082 256.786 107.61 256.944C106.588 257.258 106.274 258.044 106.274 257.965C106.274 257.965 106.274 257.808 106.431 257.494C106.588 257.258 106.981 256.865 107.532 256.629C108.082 256.393 108.868 256.393 109.575 256.786C109.89 257.022 110.204 257.258 110.518 257.494C110.833 257.73 111.147 257.887 111.54 257.808C112.248 257.73 112.719 256.865 113.348 256.393C113.977 255.922 114.763 255.843 115.313 255.843C116.492 256.079 117.042 256.708 116.964 256.708Z" fill="#FAFAFA"/>
<path d="M103.759 278.165C103.68 278.244 103.366 277.537 102.344 277.144C101.872 276.987 101.165 276.908 100.536 277.144C100.222 277.222 99.9074 277.458 99.5144 277.615C99.1214 277.773 98.7284 278.008 98.1782 277.93C97.7066 277.851 97.3136 277.458 97.0778 277.144C96.842 276.829 96.6062 276.515 96.449 276.2C96.056 275.65 95.4272 275.414 94.877 275.414C93.7766 275.414 93.305 276.043 93.2264 275.965C93.2264 275.965 93.305 275.808 93.5408 275.572C93.7766 275.336 94.2482 275.179 94.7984 275.1C95.3486 275.1 96.1346 275.257 96.6848 275.886C96.9206 276.2 97.1564 276.515 97.3922 276.829C97.628 277.144 97.9424 277.38 98.2568 277.458C98.9642 277.537 99.6716 276.908 100.379 276.672C101.165 276.436 101.872 276.594 102.423 276.829C103.523 277.38 103.837 278.165 103.759 278.165Z" fill="#FAFAFA"/>
<path d="M119.243 282.724C119.243 282.803 118.693 282.253 117.592 282.174C117.042 282.174 116.413 282.253 115.863 282.646C115.627 282.881 115.313 283.117 115.077 283.432C114.763 283.746 114.448 284.06 113.898 284.139C113.348 284.218 112.955 283.982 112.641 283.746C112.326 283.51 112.012 283.274 111.697 283.039C111.147 282.646 110.44 282.646 109.968 282.803C108.946 283.117 108.632 283.825 108.553 283.825C108.553 283.825 108.553 283.667 108.789 283.353C108.946 283.117 109.339 282.724 109.89 282.567C110.44 282.331 111.226 282.331 111.933 282.803C112.248 283.039 112.562 283.274 112.876 283.51C113.191 283.746 113.505 283.903 113.898 283.825C114.606 283.746 115.077 282.881 115.706 282.488C116.335 282.017 117.121 281.938 117.671 282.017C118.771 282.017 119.243 282.724 119.243 282.724Z" fill="#FAFAFA"/>
<path d="M68.3103 217.722C68.7819 218.272 86.0739 241.381 86.0739 241.381L83.6373 242.796L65.8737 220.002L68.3103 217.722Z" fill="#263238"/>
<path d="M135.749 234.228C135.749 234.228 119.557 262.21 118.457 262.682C116.335 263.703 91.4186 242.167 89.0606 240.123C88.7462 239.652 88.0388 238.787 86.7026 236.901C86.7026 236.901 84.7376 227.94 82.6154 228.648C80.4932 229.355 83.7944 233.207 82.3796 236.586C81.0434 239.966 74.7554 231.87 74.5196 231.163L72.9476 229.041C72.9476 229.041 71.297 233.835 71.3756 235.8C71.7686 242.246 77.8208 249.791 77.8208 249.791C77.8208 249.791 102.423 280.681 121.129 281.703C126.474 282.017 136.771 266.533 143.137 255.136C146.989 248.219 145.181 241.224 138.814 236.586L135.749 234.228Z" fill="#FFBE9D"/>
<path d="M74.5196 236.979C74.441 236.979 73.8122 236.036 73.1048 234.7C72.476 233.364 72.083 232.263 72.1616 232.263C72.2402 232.263 72.7118 233.364 73.3406 234.621C73.9694 235.879 74.5196 236.979 74.5196 236.979Z" fill="#EB996E"/>
<path d="M135.042 226.447C134.413 226.84 119.322 254.821 119.322 254.821L138.736 269.991C138.736 269.991 143.766 257.572 146.439 247.433C147.146 244.682 146.753 237.372 145.731 234.543C144.316 230.534 142.116 231.556 138.814 229.198L135.042 226.447Z" fill="#E8505B"/>
<g opacity="0.7">
<path opacity="0.7" d="M141.408 226.447C141.408 226.447 141.251 226.368 140.858 226.132C140.465 225.975 139.915 225.739 139.129 225.739C138.343 225.739 137.478 226.132 136.614 226.761C135.749 227.39 134.884 228.333 134.098 229.512C133.312 230.612 132.605 232.027 131.74 233.442C130.954 234.857 130.09 236.429 129.147 238.001C127.339 241.223 125.295 244.76 123.173 248.455C121.915 250.734 120.658 252.856 119.479 254.9L119.4 254.664C124.666 258.83 129.225 262.445 132.526 265.039C134.098 266.297 135.435 267.319 136.299 268.105C136.692 268.419 137.085 268.733 137.321 268.969C137.557 269.126 137.635 269.284 137.635 269.284C137.635 269.284 137.478 269.205 137.242 269.048C137.007 268.812 136.614 268.576 136.221 268.262C135.277 267.554 133.941 266.533 132.369 265.275C129.068 262.681 124.431 259.144 119.164 254.978L119.007 254.9L119.086 254.743C120.265 252.699 121.522 250.498 122.78 248.297C124.902 244.603 126.946 241.066 128.754 237.922C129.697 236.35 130.561 234.778 131.347 233.363C132.212 231.949 132.919 230.612 133.705 229.433C134.57 228.333 135.435 227.39 136.299 226.682C137.242 226.054 138.186 225.661 138.972 225.661C139.758 225.661 140.386 225.896 140.701 226.132C140.858 226.211 141.015 226.368 141.094 226.368C141.33 226.368 141.408 226.447 141.408 226.447Z" fill="black"/>
</g>
<path d="M135.592 252.621C135.513 252.699 135.199 251.992 134.177 251.599C133.705 251.442 132.998 251.363 132.369 251.52C132.055 251.599 131.74 251.835 131.347 251.992C130.954 252.149 130.561 252.385 130.011 252.306C129.54 252.228 129.147 251.835 128.911 251.52C128.675 251.206 128.439 250.813 128.282 250.577C127.889 250.027 127.26 249.791 126.71 249.791C125.61 249.791 125.138 250.341 125.059 250.341C125.059 250.341 125.138 250.184 125.374 249.948C125.61 249.791 126.081 249.555 126.71 249.555C127.26 249.555 128.046 249.791 128.596 250.42C128.832 250.734 129.068 251.049 129.304 251.363C129.54 251.677 129.775 251.913 130.168 251.992C130.876 252.149 131.583 251.442 132.291 251.284C133.077 251.049 133.784 251.206 134.334 251.442C135.356 251.913 135.67 252.699 135.592 252.621Z" fill="#FAFAFA"/>
<path d="M144.474 249.005C144.395 249.005 144.238 248.298 143.373 247.669C142.98 247.355 142.351 247.119 141.644 247.119C141.33 247.119 140.937 247.276 140.544 247.355C140.151 247.433 139.679 247.512 139.207 247.276C138.736 247.04 138.5 246.569 138.343 246.176C138.186 245.783 138.107 245.39 137.95 245.075C137.714 244.446 137.164 244.053 136.614 243.896C135.592 243.582 134.884 244.053 134.884 243.975C134.884 243.975 134.963 243.818 135.277 243.739C135.592 243.582 136.063 243.503 136.614 243.66C137.164 243.818 137.871 244.211 138.186 244.997C138.343 245.39 138.421 245.704 138.579 246.097C138.736 246.49 138.893 246.804 139.207 246.962C139.836 247.276 140.701 246.804 141.487 246.804C142.273 246.804 142.98 247.119 143.373 247.512C144.474 248.219 144.474 249.084 144.474 249.005Z" fill="#FAFAFA"/>
<path d="M144.945 237.451C144.867 237.451 144.709 236.744 143.845 236.115C143.452 235.8 142.823 235.565 142.116 235.565C141.801 235.565 141.408 235.722 141.015 235.8C140.622 235.879 140.151 235.958 139.679 235.722C139.207 235.486 138.972 235.014 138.814 234.621C138.657 234.228 138.579 233.835 138.421 233.521C138.186 232.892 137.635 232.499 137.085 232.342C136.063 232.028 135.356 232.499 135.356 232.421C135.356 232.421 135.435 232.263 135.749 232.185C136.063 232.028 136.535 231.949 137.085 232.106C137.635 232.263 138.343 232.656 138.657 233.442C138.814 233.835 138.893 234.15 139.05 234.543C139.207 234.936 139.365 235.25 139.679 235.407C140.308 235.722 141.172 235.25 141.958 235.25C142.744 235.25 143.452 235.565 143.845 235.958C144.945 236.665 144.945 237.451 144.945 237.451Z" fill="#FAFAFA"/>
<path d="M140.622 264.096C140.544 264.096 140.386 263.389 139.522 262.76C139.129 262.445 138.5 262.21 137.793 262.21C137.478 262.21 137.085 262.367 136.692 262.445C136.299 262.524 135.828 262.603 135.356 262.367C134.884 262.131 134.649 261.659 134.491 261.266C134.334 260.873 134.256 260.48 134.098 260.166C133.863 259.537 133.312 259.144 132.762 258.987C131.74 258.673 131.033 259.144 131.033 259.066C131.033 259.066 131.112 258.908 131.426 258.83C131.74 258.673 132.212 258.594 132.762 258.751C133.312 258.908 134.02 259.301 134.334 260.087C134.491 260.48 134.57 260.795 134.727 261.188C134.884 261.581 135.042 261.895 135.356 262.052C135.985 262.367 136.849 261.895 137.635 261.895C138.421 261.895 139.129 262.21 139.522 262.603C140.622 263.231 140.701 264.096 140.622 264.096Z" fill="#FAFAFA"/>
<defs>
<filter id="filter0_i" x="0.785461" y="21.3643" width="381.887" height="359.82" filterUnits="userSpaceOnUse" color-interpolation-filters="sRGB">
<feFlood flood-opacity="0" result="BackgroundImageFix"/>
<feBlend mode="normal" in="SourceGraphic" in2="BackgroundImageFix" result="shape"/>
<feColorMatrix in="SourceAlpha" type="matrix" values="0 0 0 0 0 0 0 0 0 0 0 0 0 0 0 0 0 0 127 0" result="hardAlpha"/>
<feOffset dx="8.82997" dy="8.82997"/>
<feGaussianBlur stdDeviation="2.94332"/>
<feComposite in2="hardAlpha" operator="arithmetic" k2="-1" k3="1"/>
<feColorMatrix type="matrix" values="0 0 0 0 0.849479 0 0 0 0 0.910156 0 0 0 0 0.970833 0 0 0 0.52 0"/>
<feBlend mode="normal" in2="shape" result="effect1_innerShadow"/>
</filter>
</defs>
</svg>
