<svg width="1367" height="759" viewBox="0 0 1367 759" fill="none" xmlns="http://www.w3.org/2000/svg">
<mask id="mask0" mask-type="alpha" maskUnits="userSpaceOnUse" x="0" y="0" width="1367" height="759">
<path fill-rule="evenodd" clip-rule="evenodd" d="M1296.82 0.895996C1335.48 0.895996 1366.82 32.236 1366.82 70.8959V389.787V394.436V430.787L1311.79 474.549C1254.79 515.549 1140.79 597.549 1026.79 604.549C967.753 608.207 907.9 590.363 847.942 572.488C793.144 556.15 738.257 539.787 683.82 539.787C596.42 539.787 509.02 580.344 421.62 620.9C395.02 633.244 368.42 645.587 341.82 656.787C228.82 703.787 114.82 731.787 57.8197 744.787L0.819702 758.787V394.436V389.787V70.896C0.819702 32.2361 32.1598 0.895996 70.8197 0.895996H1296.82Z" fill="#F0FCFF"/>
</mask>
<g mask="url(#mask0)">
<path d="M780.157 572.733L911.064 588.994L928.244 542.138C932.246 531.293 940.481 522.585 951.011 517.82C960.919 513.318 974.238 505.201 987.164 490.643C1012.29 462.382 1025.65 432.05 1025.65 432.05L940.907 431.623C940.907 431.623 948.518 384.137 906.428 321.074C901.933 314.338 899.867 306.221 900.588 298.137L904.591 252.163C904.591 252.163 933.198 220.122 915.646 180.392C915.646 180.392 898.85 157.093 892.19 165.637C892.19 165.637 841.472 286.602 836.846 304.611C832.22 322.586 826.086 333.891 832.22 390.446C833.861 405.399 834.451 417.886 834.418 428.172C834.386 447.889 829.99 467.311 821.591 485.122L780.157 572.733Z" fill="#F6C19D"/>
<path opacity="0.2" d="M907.707 494.258C895.011 480.16 877.394 482.362 858.859 475.921C840.323 469.48 834.386 423.079 834.386 423.079C834.418 424.82 834.418 426.529 834.418 428.172C834.386 447.89 829.99 467.311 821.591 485.122L780.157 572.733L910.803 589.517L928.244 542.138C932.246 531.294 940.481 522.585 951.011 517.82C959.443 514.008 970.334 507.534 981.357 496.723C943.696 512.595 920.37 508.356 907.707 494.258Z" fill="#F6C19D"/>
<path d="M847.245 24.6909C878.674 74.3784 956.162 118.644 956.162 118.644C956.162 118.644 894.585 113.649 864.009 73.7541L875.098 64.5527C875.098 64.5527 866.306 65.4071 858.924 66.2615C852.101 54.9569 847.672 41.2863 847.245 24.6909Z" fill="#9C75C4"/>
<path d="M929.72 45.2298C924.93 47.3987 917.877 50.7178 917.877 50.7178L924.701 40.9249C916.762 34.7468 908.035 30.6062 899.374 27.9115C895.864 33.038 891.731 38.756 891.731 38.756L890.91 25.7097C867.717 20.7147 847.245 24.691 847.245 24.691C878.674 74.3785 956.162 118.644 956.162 118.644C955.801 82.134 944.68 59.3277 929.72 45.2298Z" fill="#AC8CCE"/>
<path d="M835.698 94.786C844.949 89.3309 854.332 86.4062 863.452 85.2231C866.208 88.3779 869.554 92.0584 869.554 92.0584L869.751 84.6645C904.788 82.9556 934.313 105.072 934.313 105.072C914.269 117.297 897.013 120.714 882.808 119.695C881.922 117.099 880.642 113.255 880.642 113.255L878.248 119.203C871.424 118.217 865.388 116.245 860.139 113.813C861.385 110.724 862.73 107.208 862.73 107.208L855.25 111.316C842.423 104.053 835.698 94.786 835.698 94.786Z" fill="#5B99E6"/>
<path d="M882.808 119.696C881.922 117.099 880.642 113.255 880.642 113.255L878.248 119.203C871.424 118.217 865.388 116.245 860.139 113.813C861.385 110.724 862.73 107.208 862.73 107.208L855.25 111.316C842.423 104.053 835.698 94.7861 835.698 94.7861C876.443 90.1197 934.313 105.072 934.313 105.072C914.269 117.264 897.013 120.714 882.808 119.696Z" fill="#2671D1"/>
<path d="M1180.69 89.6596L1177.73 111.973L1193.55 100.405L1241.97 75.6274L1204.5 79.078C1204.5 79.078 1185.41 83.7115 1184.39 84.6645C1183.38 85.5847 1180.69 89.6596 1180.69 89.6596Z" fill="#5CB30B"/>
<path d="M1164.09 76.1861L1241.97 75.6274L1180.69 89.6596L1164.09 76.1861Z" fill="#92CC5C"/>
<path d="M1205.72 112.104L1185.31 95.7062L1241.97 75.6274L1205.72 112.104Z" fill="#92CC5C"/>
<path d="M1172.65 101.293C1175.64 100.175 1177.83 99.9124 1177.83 99.9124L1177.7 98.5322C1177.6 98.5322 1175.31 98.7951 1172.16 99.9782L1172.65 101.293Z" fill="#141414"/>
<path d="M1123.57 225.544C1126.79 223.901 1129.84 222.159 1132.59 220.319L1133.38 221.469C1130.56 223.342 1127.51 225.15 1124.23 226.793L1123.57 225.544ZM1140.8 213.911C1143.42 211.512 1145.78 208.949 1147.78 206.254L1148.9 207.109C1146.83 209.869 1144.4 212.498 1141.71 214.963L1140.8 213.911ZM1153.16 197.381C1153.85 195.935 1154.48 194.457 1155.03 192.945C1155.66 191.236 1156.21 189.429 1156.67 187.621L1158.02 187.983C1157.53 189.856 1156.97 191.696 1156.31 193.438C1155.75 194.982 1155.1 196.527 1154.41 198.006L1153.16 197.381ZM1158.77 166.918L1160.15 166.885C1160.25 170.665 1160.12 174.148 1159.82 177.5L1158.44 177.368C1158.77 174.082 1158.87 170.664 1158.77 166.918ZM1156.8 146.051L1158.18 145.854C1158.77 149.929 1159.17 153.248 1159.49 156.337L1158.12 156.468C1157.79 153.412 1157.4 150.093 1156.8 146.051ZM1155.26 135.568C1154.71 131.821 1154.54 128.272 1154.74 124.986L1156.12 125.085C1155.92 128.24 1156.08 131.723 1156.64 135.371V135.436L1155.26 135.633V135.568ZM1157 114.503C1158.41 111.085 1160.45 108.095 1163.04 105.63L1163.99 106.649C1161.53 108.982 1159.59 111.808 1158.28 115.062L1157 114.503Z" fill="#141414"/>
<path d="M1109.27 233.07C1111.07 232.445 1112.81 231.788 1114.52 231.131L1113.99 229.849C1112.32 230.506 1110.58 231.164 1108.81 231.788L1109.27 233.07Z" fill="#141414"/>
<path d="M1102.05 84.9928C1102.05 84.9928 1131.02 65.5713 1137.61 78.3546C1144.21 91.138 1099.98 136.422 1099.98 136.422L1102.05 84.9928Z" fill="#F19A5E"/>
<path d="M1102.05 169.613C1102.05 169.613 1131.02 150.191 1137.61 162.975C1144.24 175.758 1099.98 221.042 1099.98 221.042L1102.05 169.613Z" fill="#F19A5E"/>
<path d="M1102.05 227.22C1102.05 227.22 1131.02 207.798 1137.61 220.582C1144.24 233.365 1099.98 278.649 1099.98 278.649L1102.05 227.22Z" fill="#F19A5E"/>
<path d="M1082.07 63.2383H923.061C911.218 63.2383 901.638 72.8669 901.638 84.6973V349.697V410.164C901.638 422.126 911.349 431.623 923.061 431.623H1082.04C1093.88 431.623 1103.46 422.027 1103.46 410.164V145.196V84.7301C1103.49 72.7683 1093.78 63.2383 1082.07 63.2383Z" fill="#141414"/>
<path opacity="0.2" d="M916.106 336.914C916.106 336.914 887.335 407.436 890.123 420.745C892.912 434.087 910.365 451.899 953.177 445.951C995.989 440.003 1025.58 432.05 1025.58 432.05C1025.58 432.05 1027.38 336.881 1025.58 332.051C1023.78 327.22 946.812 292.978 943.794 292.978C940.776 293.01 916.106 336.914 916.106 336.914Z" fill="#F6C19D"/>
<path d="M1093.13 92.5186H912.038V402.408H1093.13V92.5186Z" fill="white"/>
<path d="M1047.1 303.887H958.032C951.832 303.887 946.78 298.859 946.78 292.616V174.476C946.78 168.265 951.799 163.205 958.032 163.205H1047.1C1053.3 163.205 1058.35 168.232 1058.35 174.476V292.648C1058.35 298.859 1053.3 303.887 1047.1 303.887Z" fill="#DAE7F7"/>
<path d="M963.773 220.188L972.631 262.678C973.025 264.519 974.599 265.833 976.436 265.833H1028.73C1030.57 265.833 1032.14 264.519 1032.54 262.678L1041.39 220.188H963.773ZM979.389 261.725C978.208 261.725 977.257 260.772 977.257 259.589L974.271 229.455C974.271 228.272 975.223 227.319 976.404 227.319C977.585 227.319 978.536 228.272 978.536 229.455L981.521 259.589C981.521 260.772 980.57 261.725 979.389 261.725ZM990.149 261.725C988.968 261.725 988.017 260.772 988.017 259.589L986.836 229.455C986.836 228.272 987.787 227.319 988.968 227.319C990.149 227.319 991.101 228.272 991.101 229.455L992.282 259.589C992.282 260.772 991.33 261.725 990.149 261.725ZM1004.72 259.589C1004.72 260.772 1003.76 261.725 1002.58 261.725C1001.4 261.725 1000.45 260.772 1000.45 259.589V229.455C1000.45 228.272 1001.4 227.319 1002.58 227.319C1003.76 227.319 1004.72 228.272 1004.72 229.455V259.589ZM1017.15 259.589C1017.15 260.772 1016.2 261.725 1015.02 261.725C1013.84 261.725 1012.88 260.772 1012.88 259.589L1014.07 229.455C1014.07 228.272 1015.02 227.319 1016.2 227.319C1017.38 227.319 1018.33 228.272 1018.33 229.455L1017.15 259.589ZM1027.91 259.589C1027.91 260.772 1026.96 261.725 1025.78 261.725C1024.6 261.725 1023.64 260.772 1023.64 259.589L1026.63 229.455C1026.63 228.272 1027.58 227.319 1028.76 227.319C1029.94 227.319 1030.89 228.272 1030.89 229.455L1027.91 259.589Z" fill="#92CC5C"/>
<path d="M1041.92 223.605H963.248C961.346 223.605 959.837 222.06 959.837 220.187C959.837 218.281 961.378 216.77 963.248 216.77H1041.92C1043.82 216.77 1045.33 218.314 1045.33 220.187C1045.33 222.093 1043.79 223.605 1041.92 223.605Z" fill="#5CB30B"/>
<path d="M979.75 217V214.042C979.75 209.113 983.752 205.104 988.673 205.104H1016.46C1021.38 205.104 1025.38 209.113 1025.38 214.042V217C1025.38 218.051 1026.24 218.906 1027.29 218.906C1028.34 218.906 1029.19 218.051 1029.19 217V214.042C1029.19 206.977 1023.48 201.259 1016.43 201.259H988.64C981.587 201.259 975.879 206.977 975.879 214.042V217C975.879 218.051 976.732 218.906 977.782 218.906C978.897 218.939 979.75 218.084 979.75 217Z" fill="#92CC5C"/>
<path d="M1039.88 82.7913H965.512C964.659 82.7913 963.97 82.1012 963.97 81.2468V80.4581C963.97 79.6037 964.659 78.9136 965.512 78.9136H1039.88C1040.74 78.9136 1041.43 79.6037 1041.43 80.4581V81.2139C1041.46 82.0683 1040.77 82.7913 1039.88 82.7913Z" fill="white"/>
<path d="M898.03 279.964C898.03 279.964 899.112 284.039 901.605 286.043L904.525 252.228C904.525 252.228 925.587 228.666 920.502 196.888C918.763 186.011 913.35 175.988 905.083 168.726C900.359 164.585 895.175 161.792 892.124 165.702C892.124 165.702 868.274 222.587 851.806 264.157L898.03 279.964Z" fill="#F6C19D"/>
<path opacity="0.3" d="M1002.45 426.233C1007.36 426.233 1011.34 422.246 1011.34 417.327C1011.34 412.409 1007.36 408.422 1002.45 408.422C997.541 408.422 993.561 412.409 993.561 417.327C993.561 422.246 997.541 426.233 1002.45 426.233Z" fill="#DAE7F7"/>
<path d="M1005.11 421.041H999.794C999.203 421.041 998.744 420.581 998.744 419.99V414.666C998.744 414.074 999.203 413.614 999.794 413.614H1005.11C1005.7 413.614 1006.16 414.074 1006.16 414.666V419.99C1006.16 420.581 1005.7 421.041 1005.11 421.041ZM999.827 413.91C999.4 413.91 999.072 414.239 999.072 414.666V419.99C999.072 420.417 999.4 420.745 999.827 420.745H1005.14C1005.57 420.745 1005.9 420.417 1005.9 419.99V414.666C1005.9 414.239 1005.57 413.91 1005.14 413.91H999.827Z" fill="#DAE7F7"/>
<path d="M1093.13 384.071H912.038V402.408H1093.13V384.071Z" fill="#D0E1F5"/>
<path d="M1093.13 92.5186H912.038V108.95H1093.13V92.5186Z" fill="#D0E1F5"/>
<path d="M896.422 199.09C903.016 196.067 906.461 178.88 907.674 171.157C902.393 165.834 895.766 161.036 892.124 165.669C892.124 165.669 886.875 178.19 879.592 195.771C884.579 198.564 891.501 201.358 896.422 199.09Z" fill="#F19A5E"/>
<path d="M819.557 491.924C834.025 500.83 880.609 527.448 928.769 533.133C931.59 533.462 933.559 536.058 932.738 538.293L924.34 560.869C923.782 562.348 922.109 563.235 920.239 563.005C906.034 561.263 847.475 552.456 806.271 520.514C804.86 519.43 804.27 517.787 804.794 516.374L813.39 493.337C814.177 491.169 817.195 490.478 819.557 491.924Z" fill="#141414"/>
<path d="M815.325 513.515L815.161 513.449C814.308 513.121 813.882 512.201 814.21 511.346L816.801 504.412C817.129 503.558 818.048 503.131 818.901 503.459L819.065 503.525C819.918 503.854 820.345 504.774 820.016 505.628L817.425 512.562C817.13 513.384 816.178 513.811 815.325 513.515Z" fill="black"/>
<path d="M823.986 518.838L823.822 518.773C822.969 518.444 822.542 517.524 822.87 516.67L825.462 509.736C825.79 508.881 826.709 508.454 827.562 508.783L827.726 508.848C828.579 509.177 829.005 510.097 828.677 510.952L826.086 517.885C825.79 518.74 824.839 519.167 823.986 518.838Z" fill="black"/>
<path d="M832.68 524.162L832.516 524.097C831.663 523.768 831.236 522.848 831.564 521.993L834.156 515.059C834.484 514.205 835.403 513.778 836.255 514.106L836.419 514.172C837.272 514.501 837.699 515.421 837.371 516.275L834.779 523.209C834.451 524.064 833.533 524.491 832.68 524.162Z" fill="black"/>
<path d="M841.603 528.467L841.439 528.402C840.586 528.073 840.159 527.153 840.487 526.298L843.079 519.365C843.407 518.51 844.326 518.083 845.179 518.412L845.343 518.477C846.196 518.806 846.622 519.726 846.294 520.581L843.702 527.514C843.407 528.369 842.456 528.796 841.603 528.467Z" fill="black"/>
<path d="M850.395 533.495L850.231 533.429C849.378 533.101 848.951 532.181 849.28 531.326L851.871 524.392C852.199 523.538 853.118 523.111 853.971 523.439L854.135 523.505C854.988 523.834 855.414 524.754 855.086 525.608L852.495 532.542C852.166 533.397 851.248 533.824 850.395 533.495Z" fill="black"/>
<path d="M859.548 537.471L859.384 537.406C858.531 537.077 858.104 536.157 858.433 535.302L861.024 528.368C861.352 527.514 862.271 527.087 863.124 527.415L863.288 527.481C864.141 527.81 864.567 528.73 864.239 529.584L861.647 536.518C861.352 537.373 860.401 537.8 859.548 537.471Z" fill="black"/>
<path d="M868.93 540.988L868.766 540.922C867.913 540.594 867.487 539.673 867.815 538.819L870.407 531.885C870.735 531.031 871.653 530.603 872.506 530.932L872.67 530.998C873.523 531.326 873.95 532.247 873.622 533.101L871.03 540.035C870.702 540.856 869.751 541.284 868.93 540.988Z" fill="black"/>
<path d="M878.444 544.011L878.28 543.946C877.427 543.617 877.001 542.697 877.329 541.842L879.92 534.909C880.249 534.054 881.167 533.627 882.02 533.956L882.184 534.021C883.037 534.35 883.464 535.27 883.135 536.124L880.544 543.058C880.249 543.88 879.297 544.307 878.444 544.011Z" fill="black"/>
<path d="M888.385 545.983L888.221 545.917C887.368 545.589 886.941 544.668 887.269 543.814L889.861 536.88C890.189 536.026 891.108 535.599 891.96 535.927L892.125 535.993C892.977 536.322 893.404 537.242 893.076 538.096L890.484 545.03C890.156 545.851 889.205 546.279 888.385 545.983Z" fill="black"/>
<path d="M898.029 548.645L897.865 548.579C897.012 548.25 896.586 547.33 896.914 546.476L899.506 539.542C899.834 538.687 900.752 538.26 901.605 538.589L901.769 538.655C902.622 538.983 903.049 539.903 902.721 540.758L900.129 547.692C899.801 548.546 898.882 548.973 898.029 548.645Z" fill="black"/>
<path d="M908.068 550.32L907.904 550.255C907.051 549.926 906.625 549.006 906.953 548.152L909.545 541.218C909.873 540.363 910.791 539.936 911.644 540.265L911.808 540.33C912.661 540.659 913.088 541.579 912.76 542.434L910.168 549.367C909.84 550.222 908.888 550.649 908.068 550.32Z" fill="black"/>
<path d="M918.107 551.964L917.943 551.898C917.09 551.57 916.663 550.649 916.991 549.795L919.583 542.861C919.911 542.007 920.83 541.58 921.683 541.908L921.847 541.974C922.7 542.303 923.126 543.223 922.798 544.077L920.206 551.011C919.878 551.865 918.927 552.293 918.107 551.964Z" fill="black"/>
<path d="M848.164 544.176L848.197 544.077C848.033 544.044 847.902 544.011 847.738 543.978L836.354 539.706C835.239 539.279 834.681 537.965 835.14 536.749L845.408 509.177C845.868 507.961 847.147 507.304 848.263 507.731L859.646 512.003C860.302 512.266 860.762 512.825 860.959 513.515C861.844 513.91 862.763 514.304 863.681 514.698C863.977 512.398 862.796 510.13 860.663 509.342L849.28 505.07C846.786 504.149 843.932 505.563 842.915 508.29L832.647 535.861C831.63 538.556 832.844 541.514 835.337 542.467L846.721 546.739C848.427 547.363 850.297 546.903 851.642 545.687C850.493 545.129 849.312 544.668 848.164 544.176Z" fill="#AC8CCE"/>
<path d="M845.638 522.322L840.684 520.482C839.798 520.153 838.781 520.646 838.421 521.632C838.06 522.585 838.486 523.636 839.372 523.965L844.326 525.805L845.638 522.322Z" fill="white"/>
<path d="M1062.49 296.625C1062.49 296.625 1038.05 298.695 1037.16 305.202C1036.31 311.709 1038.18 323.178 1061.27 325.412H1085.19C1085.19 325.412 1078.04 305.531 1078.37 304.841C1078.73 304.15 1062.49 296.625 1062.49 296.625Z" fill="#F3A875"/>
<path d="M1023.25 393.733C1019.94 395.507 1018.79 399.681 1020.66 402.934C1031.91 422.389 1076.66 499.647 1080.69 505.924C1085.32 513.121 1096.61 530.078 1134.04 538.819C1171.5 547.56 1186.89 572.733 1186.89 572.733H1302.33C1302.33 572.733 1275.14 529.552 1252.57 417.525C1252.57 417.525 1235.11 324.492 1202.27 327.581C1202.27 327.581 1182.26 306.517 1162.78 310.624C1162.78 310.624 1125.84 288.541 1104.81 288.541L1054.29 228.732C1049.3 222.817 1040.47 221.667 1034.31 226.366C1032.34 227.878 1030.83 229.882 1030.4 232.544C1028.86 242.304 1041.69 266.984 1062.22 296.789C1082.76 326.595 1133.55 421.173 1111.47 462.776C1111.47 462.776 1088.9 445.819 1069.41 418.576C1053.07 395.737 1033.88 388.08 1023.25 393.733Z" fill="#F6C19D"/>
<path d="M1105 288.541C1111.7 294.292 1117.99 300.536 1123.93 307.075C1131.94 315.817 1142.07 328.764 1148.01 338.754C1155.49 351.111 1160.45 361.955 1162.78 375.593L1162.61 375.626C1159.92 362.842 1152.9 349.04 1146.77 339.543C1142.17 332.083 1133.71 320.286 1123.01 307.864C1117.63 301.653 1110.81 294.325 1104.91 288.64L1105 288.541Z" fill="#F19A5E"/>
<path d="M1162.45 310.46C1167.89 313.253 1172.78 317.164 1177.08 321.567C1181.44 325.971 1185.05 330.933 1188.17 336.355C1191.22 341.745 1193.55 347.528 1195.09 353.509C1196.4 359.096 1197.29 362.875 1197.42 371.748H1197.25C1196.76 365.701 1195.65 359.687 1193.94 353.838C1192.2 348.186 1189.77 342.139 1186.82 337.111C1183.87 331.82 1180.26 326.858 1176.19 322.356C1172.32 318.117 1167.27 313.549 1162.38 310.559L1162.45 310.46Z" fill="#F19A5E"/>
<path d="M1201.85 327.154C1206.67 330.802 1211.56 337.275 1213.92 341.646C1216.91 346.773 1219.27 352.753 1220.81 359.26C1221.96 363.434 1222.25 367.476 1222.42 371.748L1222.25 371.781C1221.53 367.673 1221.1 364.584 1219.63 359.622C1217.4 352.063 1215.63 348.186 1212.61 342.369C1210.8 338.787 1206.15 331.689 1201.75 327.285L1201.85 327.154Z" fill="#F19A5E"/>
<path d="M1046.54 417.656C1047.56 412.464 1041.52 404.216 1036.01 397.972C1032.57 394.094 1027.15 392.648 1022.4 394.259C1019.74 396.23 1018.92 399.977 1020.63 402.934C1023.64 408.159 1029.09 417.558 1035.52 428.632C1040.34 426.168 1045.59 422.454 1046.54 417.656Z" fill="#F19A5E"/>
<path d="M1051.4 252.195C1054.32 251.604 1067.57 247.2 1066.75 244.769L1053.7 229.291C1051.1 226.234 1047.49 224.427 1043.75 224.066C1043.72 224.066 1043.72 224.066 1043.69 224.066C1043.59 224.066 1043.33 224.033 1043 224.033C1041.26 224.033 1036.93 224.526 1035.98 229.291C1035.03 233.99 1042.8 245.393 1046.22 250.125C1047.4 251.801 1049.4 252.59 1051.4 252.195Z" fill="#F19A5E"/>
<path opacity="0.2" d="M1186.89 572.733H1302.33C1302.33 572.733 1284.52 544.438 1265.72 474.179C1257.49 525.904 1212.05 522.914 1194.01 525.806C1173.24 529.125 1092.64 512.266 1081.35 506.976C1086.37 514.665 1098.28 530.505 1134.04 538.819C1171.5 547.56 1186.89 572.733 1186.89 572.733Z" fill="#F6C19D"/>
<path opacity="0.2" d="M1068.33 306.122C1090.96 342.566 1131.58 426.233 1111.47 462.743L1124.79 475.921C1124.79 475.921 1158.48 438.524 1104.87 356.072C1092.41 336.914 1080.01 320.319 1068.33 306.122Z" fill="#F6C19D"/>
<path d="M794.198 286.241C791.803 284.17 789.802 283.184 789.802 283.152L790.425 281.903C790.524 281.936 792.591 282.987 795.117 285.189L794.198 286.241Z" fill="#141414"/>
<path d="M796.429 420.778C793.936 418.084 791.672 415.356 789.671 412.628L790.786 411.807C792.755 414.502 794.986 417.196 797.446 419.858L796.429 420.778ZM784.061 403.591C782.388 400.371 781.043 397.052 780.026 393.733L781.371 393.338C782.355 396.559 783.667 399.812 785.308 402.967L784.061 403.591ZM777.992 383.283C777.828 381.672 777.762 379.996 777.762 378.353C777.762 376.48 777.861 374.574 778.058 372.635L779.435 372.767C779.239 374.64 779.14 376.513 779.14 378.32C779.14 379.931 779.206 381.541 779.37 383.118L777.992 383.283ZM781.305 362.547L779.96 362.185C780.813 358.932 781.896 355.646 783.307 352.129L784.586 352.655C783.241 356.106 782.158 359.326 781.305 362.547ZM788.851 343.059L787.604 342.435C788.949 339.642 790.491 336.684 792.459 333.036L793.673 333.694C791.705 337.309 790.196 340.299 788.851 343.059ZM798.693 324.459L797.479 323.802L797.512 323.736C799.283 320.483 800.628 317.295 801.547 314.272L802.892 314.667C801.94 317.788 800.563 321.075 798.758 324.394L798.693 324.459ZM802.957 304.118C802.826 300.602 802.006 297.315 800.497 294.259L801.744 293.635C803.351 296.855 804.204 300.372 804.335 304.052L802.957 304.118Z" fill="#141414"/>
<path d="M808.272 431.82C806.796 430.604 805.385 429.388 804.007 428.172L804.926 427.121C806.271 428.304 807.682 429.52 809.125 430.735L808.272 431.82Z" fill="#141414"/>
<path d="M785.045 262.678L783.208 285.123L770.184 270.434L728.126 235.929L764.016 247.266C764.016 247.266 781.666 255.876 782.486 256.993C783.306 258.111 785.045 262.678 785.045 262.678Z" fill="#9369BF"/>
<path d="M804.106 253.05L728.126 235.929L785.045 262.678L804.106 253.05Z" fill="#AC8CCE"/>
<path d="M755.848 279.274L779.238 267.575L728.126 235.929L755.848 279.274Z" fill="#AC8CCE"/>
<path d="M1031.55 154.299H1031.42C1023.48 154.299 1017.05 147.858 1017.05 139.906V129.127H1045.92V139.906C1045.92 147.858 1039.49 154.299 1031.55 154.299Z" fill="#085FCC"/>
<path d="M1002.68 154.299H1002.55C994.611 154.299 988.181 147.858 988.181 139.906V129.127H1017.05V139.906C1017.05 147.858 1010.62 154.299 1002.68 154.299Z" fill="#88B2E7"/>
<path d="M973.779 154.299H973.648C965.709 154.299 959.279 147.858 959.279 139.906V129.127H988.148V139.906C988.148 147.858 981.718 154.299 973.779 154.299Z" fill="#085FCC"/>
<path d="M944.909 154.299H944.778C936.839 154.299 930.409 147.858 930.409 139.906V129.127H959.279V139.906C959.279 147.858 952.849 154.299 944.909 154.299Z" fill="#88B2E7"/>
<path d="M916.007 154.299H915.876C907.937 154.299 901.507 147.858 901.507 139.906V129.127H930.376V139.906C930.376 147.858 923.946 154.299 916.007 154.299Z" fill="#085FCC"/>
<path d="M1118.16 154.299H1118.03C1110.09 154.299 1103.66 147.858 1103.66 139.906V129.127H1132.53V139.906C1132.53 147.858 1126.1 154.299 1118.16 154.299Z" fill="#88B2E7"/>
<path d="M1089.26 154.299H1089.13C1081.19 154.299 1074.76 147.858 1074.76 139.906V129.127H1103.63V139.906C1103.63 147.858 1097.2 154.299 1089.26 154.299Z" fill="#085FCC"/>
<path d="M1060.45 154.299H1060.32C1052.38 154.299 1045.95 147.858 1045.95 139.906V129.127H1074.82V139.906C1074.82 147.858 1068.39 154.299 1060.45 154.299Z" fill="#88B2E7"/>
<path d="M887.138 154.299H887.007C879.068 154.299 872.638 147.858 872.638 139.906V129.127H901.507V139.906C901.507 147.858 895.077 154.299 887.138 154.299Z" fill="#88B2E7"/>
<path d="M1012.88 92.5186H992.348L988.148 129.127H1017.05L1012.88 92.5186Z" fill="#DAE7F7"/>
<path d="M992.348 92.5186H971.811L959.279 129.127H988.148L992.348 92.5186Z" fill="#669CDF"/>
<path d="M971.811 92.5186H951.274L930.376 129.127H959.279L971.811 92.5186Z" fill="#DAE7F7"/>
<path d="M951.274 92.5186H930.737L901.507 129.127H930.376L951.274 92.5186Z" fill="#669CDF"/>
<path d="M930.737 92.5186H910.201L872.605 129.127H901.507L930.737 92.5186Z" fill="#DAE7F7"/>
<path d="M1094.87 92.5186H1074.33L1103.63 129.127H1132.53L1094.87 92.5186Z" fill="#DAE7F7"/>
<path d="M1074.46 92.5186H1053.92L1074.76 129.127H1103.63L1074.46 92.5186Z" fill="#669CDF"/>
<path d="M1053.92 92.5186H1033.39L1045.92 129.127H1074.82L1053.92 92.5186Z" fill="#DAE7F7"/>
<path d="M1033.39 92.5186H1012.85L1017.05 129.127H1045.92L1033.39 92.5186Z" fill="#669CDF"/>
<path d="M1057.15 352.842H945.375C939.273 352.842 934.352 346.842 934.352 339.402V335.442C934.352 328.002 939.273 322.002 945.375 322.002H1057.15C1063.25 322.002 1068.17 328.002 1068.17 335.442V339.402C1068.17 346.842 1063.25 352.842 1057.15 352.842Z" fill="#4385D8"/>
</g>
</svg>
