<svg width="344" height="267" viewBox="0 0 344 267" fill="none" xmlns="http://www.w3.org/2000/svg">
<path opacity="0.26" d="M155.045 250.37C155.085 250.487 155.126 250.603 155.167 250.719C155.289 251.069 155.37 251.301 155.492 251.651C155.533 251.767 155.574 251.883 155.614 252C155.696 252.233 155.934 252.541 156.016 252.774C156.056 252.89 156.097 253.007 156.213 252.966C156.452 253.275 156.533 253.507 156.772 253.816C156.812 253.932 156.929 253.892 156.97 254.008C157.208 254.317 157.406 254.509 157.604 254.701C157.644 254.817 157.761 254.776 157.801 254.893C158.04 255.201 158.238 255.393 158.552 255.545C158.592 255.661 158.709 255.621 158.75 255.737C158.947 255.929 159.302 256.197 159.5 256.389L159.657 256.465C159.971 256.616 160.169 256.808 160.524 257.076C160.681 257.152 160.681 257.152 160.838 257.228C161.152 257.379 161.35 257.571 161.664 257.723C161.821 257.798 161.821 257.798 161.978 257.874C162.293 258.025 162.45 258.101 162.764 258.253C162.921 258.328 163.037 258.288 163.078 258.404C163.351 258.439 163.666 258.59 163.939 258.625C164.096 258.701 164.213 258.66 164.37 258.736C164.643 258.771 164.8 258.847 165.074 258.882C165.231 258.958 165.464 258.876 165.621 258.952C165.894 258.987 166.051 259.063 166.325 259.098C166.441 259.057 166.598 259.133 166.715 259.092C166.988 259.127 167.262 259.162 167.495 259.081C167.611 259.04 167.611 259.04 167.727 258.999C168.117 258.994 168.391 259.029 168.74 258.907C168.856 258.866 168.973 258.825 168.973 258.825C169.322 258.703 169.595 258.738 169.945 258.616L170.061 258.575C170.41 258.453 170.759 258.331 171.225 258.169L331.043 202.303C331.392 202.181 331.741 202.058 332.207 201.896L332.323 201.855C332.672 201.733 332.865 201.535 333.214 201.413C333.33 201.372 333.447 201.332 333.447 201.332C333.755 201.093 334.104 200.971 334.296 200.773C334.413 200.733 334.413 200.733 334.529 200.692C334.721 200.494 334.954 200.413 335.146 200.215C335.263 200.174 335.338 200.017 335.455 199.977C335.647 199.779 335.839 199.581 335.915 199.424C335.99 199.267 336.223 199.186 336.299 199.028C336.491 198.831 336.683 198.633 336.759 198.476C336.835 198.319 336.951 198.278 337.027 198.121C337.219 197.923 337.37 197.609 337.562 197.411C337.638 197.254 337.754 197.213 337.714 197.097C337.865 196.783 338.057 196.585 338.092 196.312C338.168 196.154 338.168 196.154 338.244 195.997C338.395 195.683 338.43 195.41 338.582 195.096C338.657 194.938 338.657 194.938 338.733 194.781C338.884 194.467 338.919 194.194 339.03 193.763L339.106 193.606C339.141 193.333 339.292 193.018 339.287 192.628C339.246 192.512 339.362 192.471 339.322 192.355C339.357 192.081 339.351 191.692 339.502 191.377C339.462 191.261 339.578 191.22 339.537 191.104C339.573 190.83 339.567 190.441 339.602 190.167C339.561 190.051 339.678 190.01 339.637 189.894C339.672 189.62 339.55 189.271 339.544 188.881C339.504 188.765 339.463 188.648 339.579 188.608C339.614 188.334 339.492 187.985 339.411 187.752C339.37 187.636 339.329 187.519 339.289 187.403C339.207 187.17 339.085 186.821 338.963 186.472C338.922 186.355 338.882 186.239 338.841 186.122L307.307 95.912C305.72 91.3724 301.776 88.31 297.319 87.5168C296.888 87.4061 296.498 87.4117 296.109 87.4174C295.288 87.3123 294.392 87.3643 293.653 87.4921C292.797 87.6605 291.942 87.8289 291.127 88.1138L185.203 125.141L184.226 122.347C183.901 121.416 182.801 120.886 181.87 121.211L175.817 123.327C174.886 123.653 174.356 124.752 174.681 125.684L175.658 128.477L170.769 130.186L168.897 124.832C168.002 122.271 165.332 120.984 162.771 121.879L142.517 128.959C139.956 129.854 138.669 132.525 139.564 135.085L141.436 140.44L131.309 143.98C130.494 144.265 129.72 144.666 128.946 145.067C128.172 145.468 127.555 145.945 126.979 146.538C125.517 147.964 124.295 149.697 123.619 151.501C123.095 152.99 122.768 154.672 122.831 156.348C122.889 157.634 123.063 158.879 123.511 160.16L131.771 183.789L155.045 250.37Z" fill="#C6C2C2"/>
<path d="M276.803 81.8874L117.101 137.713C110.466 140.032 106.984 147.258 109.303 153.893L140.837 244.103C143.156 250.738 150.382 254.221 157.017 251.901L316.835 196.036C323.47 193.716 326.952 186.49 324.633 179.855L293.099 89.645C290.78 83.0101 283.437 79.5681 276.803 81.8874Z" fill="#67BEFF"/>
<path d="M140.837 244.103C143.156 250.738 150.382 254.221 157.017 251.902L316.835 196.036C323.47 193.716 326.953 186.49 324.633 179.855L140.837 244.103Z" fill="#3FA3E0"/>
<path d="M301.318 113.158L293.059 89.5282C290.739 82.8934 283.513 79.4107 276.878 81.73L117.061 137.596C110.426 139.915 106.943 147.141 109.262 153.776L117.522 177.405L301.318 113.158Z" fill="#F2F0F0"/>
<path d="M208.701 110.526C179.833 120.617 164.615 152.192 174.706 181.059C184.797 209.927 216.372 225.145 245.239 215.054C274.107 204.963 289.325 173.388 279.234 144.521C269.143 115.653 237.568 100.435 208.701 110.526ZM243.937 211.329C217.165 220.687 187.789 206.529 178.431 179.757C169.072 152.985 183.231 123.609 210.003 114.251C236.775 104.892 266.15 119.05 275.509 145.823C284.867 172.595 270.709 201.97 243.937 211.329Z" fill="white"/>
<path opacity="0.53" d="M243.937 211.329C270.745 201.958 284.88 172.63 275.509 145.823C266.138 119.015 236.81 104.88 210.003 114.251C183.195 123.622 169.06 152.95 178.431 179.757C187.802 206.565 217.13 220.7 243.937 211.329Z" fill="#686767"/>
<path d="M243.937 211.329C270.745 201.958 284.88 172.63 275.509 145.823C266.138 119.015 236.81 104.88 210.003 114.251C183.195 123.622 169.06 152.95 178.431 179.757C187.802 206.565 217.13 220.7 243.937 211.329Z" fill="#CCCACA"/>
<path d="M240.316 200.969C261.402 193.599 272.52 170.53 265.149 149.444C257.778 128.358 234.71 117.24 213.624 124.611C192.538 131.981 181.42 155.05 188.791 176.136C196.161 197.222 219.23 208.34 240.316 200.969Z" fill="#F2F0F0"/>
<path d="M215.048 128.684C196.191 135.276 186.157 155.895 192.789 174.869C199.421 193.842 220 203.76 238.973 197.128C257.947 190.496 267.865 169.917 261.232 150.944C254.6 131.97 233.905 122.093 215.048 128.684ZM237.915 194.102C220.688 200.123 201.837 191.038 195.815 173.811C189.793 156.584 198.879 137.733 216.106 131.711C233.333 125.689 252.184 134.774 258.206 152.002C264.304 169.072 255.143 188.08 237.915 194.102Z" fill="#CCCACA"/>
<path d="M239.331 143.969L205.692 155.728C203.48 156.502 202.269 159.015 203.042 161.227L209.552 179.851C210.325 182.062 212.839 183.274 215.05 182.501L248.69 170.741C250.901 169.968 252.113 167.455 251.34 165.243L244.83 146.619C244.016 144.291 241.543 143.196 239.331 143.969Z" fill="#686767"/>
<path d="M233.313 148.425L213.757 155.261C211.667 158.996 211.188 163.604 212.693 167.911C214.362 172.684 218.038 176.101 222.466 177.557L240.508 171.251C243.064 167.353 243.811 162.389 242.143 157.617C240.637 153.31 237.275 150.044 233.313 148.425Z" fill="#588AA0"/>
<path d="M223.844 165.058C226.223 164.226 227.477 161.624 226.646 159.246C225.814 156.867 223.212 155.613 220.833 156.444C218.455 157.276 217.2 159.878 218.032 162.257C218.863 164.635 221.466 165.889 223.844 165.058Z" fill="#F2F0F0"/>
<path d="M233.171 168.198C235.035 167.547 236.018 165.507 235.367 163.643C234.715 161.778 232.675 160.795 230.811 161.447C228.947 162.099 227.964 164.138 228.616 166.003C229.267 167.867 231.307 168.85 233.171 168.198Z" fill="#F2F0F0"/>
<path d="M148.563 115.612L128.309 122.692C125.748 123.587 124.461 126.257 125.356 128.818L127.228 134.173L156.561 123.919L154.689 118.565C153.835 116.12 151.007 114.757 148.563 115.612Z" fill="#686767"/>
<path d="M167.662 114.944L161.609 117.06C160.678 117.386 160.148 118.485 160.473 119.416L161.45 122.21L171.111 118.833L170.135 116.039C169.693 115.149 168.593 114.619 167.662 114.944Z" fill="#686767"/>
<path opacity="0.48" d="M145.786 133.825L126.696 140.498C120.643 142.614 117.58 149.171 119.655 155.107L148.178 236.704C150.293 242.757 156.851 245.82 162.787 243.745L181.877 237.072L145.786 133.825Z" fill="white"/>
<path opacity="0.48" d="M275.572 88.4565C272.429 89.5551 270.647 93.0518 271.787 96.311L303.89 188.151C304.989 191.294 308.485 193.076 311.745 191.937C317.798 189.821 320.861 183.264 318.786 177.327L290.263 95.7305C288.182 89.4042 281.625 86.3407 275.572 88.4565Z" fill="white"/>
<path d="M146.481 141.419L129.021 147.523C125.878 148.621 124.213 152.077 125.311 155.22L126.41 158.363C127.508 161.506 130.964 163.171 134.107 162.073L151.567 155.969C154.71 154.871 156.376 151.415 155.277 148.272L154.178 145.129C153.039 141.87 149.624 140.321 146.481 141.419Z" fill="#686767"/>
<path d="M165.037 146.297C166.901 145.645 167.884 143.606 167.232 141.741C166.581 139.877 164.541 138.894 162.677 139.546C160.812 140.198 159.829 142.237 160.481 144.101C161.133 145.966 163.172 146.949 165.037 146.297Z" fill="#588AA0"/>
<path d="M281.503 99.4456L265.789 104.939C263.811 105.63 262.751 107.83 263.442 109.808C264.134 111.787 266.333 112.847 268.312 112.155L284.026 106.662C286.005 105.971 287.065 103.771 286.373 101.793C285.681 99.8138 283.482 98.7539 281.503 99.4456Z" fill="#67BEFF"/>
<path d="M87.1374 32.1395C89.7963 24.7804 99.4957 23.1883 104.368 29.3112L187.067 133.247C191.821 139.222 188.396 148.105 180.862 149.342L53.0287 170.325C45.4945 171.562 39.4095 164.24 42.0039 157.059L87.1374 32.1395Z" fill="#8994FE" fill-opacity="0.2"/>
</svg>
