<svg width="112" height="115" viewBox="0 0 112 115" fill="none" xmlns="http://www.w3.org/2000/svg">
<path opacity="0.26" d="M15.8573 90.5058L69.4148 110.831C74.9332 112.925 81.1034 110.15 83.1977 104.632L85.0495 99.7522L100.812 58.219C100.834 58.1609 100.856 58.1028 100.878 58.0447C100.922 57.9286 100.944 57.8705 100.988 57.7543C101.032 57.6381 101.054 57.58 101.098 57.4638C101.142 57.3477 101.164 57.2896 101.208 57.1734C101.208 57.1734 101.208 57.1734 101.23 57.1153C101.274 56.9991 101.297 56.9411 101.283 56.8028L101.305 56.7447C101.349 56.6286 101.313 56.5484 101.357 56.4323L101.379 56.3742C101.423 56.258 101.387 56.1779 101.431 56.0617L101.453 56.0036C101.497 55.8874 101.461 55.8073 101.505 55.6911C101.527 55.633 101.527 55.633 101.549 55.5749C101.593 55.4588 101.557 55.3786 101.601 55.2624C101.623 55.2044 101.623 55.2044 101.587 55.1242C101.631 55.008 101.595 54.9279 101.581 54.7897C101.603 54.7316 101.545 54.7096 101.567 54.6515C101.531 54.5713 101.575 54.4552 101.539 54.375C101.561 54.3169 101.525 54.2368 101.525 54.2368C101.489 54.1567 101.533 54.0405 101.497 53.9604C101.519 53.9023 101.483 53.8221 101.505 53.7641C101.469 53.6839 101.513 53.5677 101.477 53.4876C101.499 53.4295 101.463 53.3494 101.485 53.2913C101.449 53.2112 101.493 53.095 101.457 53.0149C101.421 52.9347 101.443 52.8766 101.407 52.7965C101.371 52.7164 101.393 52.6583 101.379 52.5201C101.343 52.4399 101.365 52.3818 101.329 52.3017C101.293 52.2216 101.315 52.1635 101.279 52.0833C101.243 52.0032 101.265 51.9451 101.229 51.865C101.193 51.7849 101.157 51.7047 101.179 51.6466C101.143 51.5665 101.107 51.4864 101.071 51.4062C101.035 51.3261 100.999 51.246 101.021 51.1879C100.985 51.1077 100.949 51.0276 100.913 50.9475C100.877 50.8673 100.841 50.7872 100.805 50.7071C100.769 50.6269 100.733 50.5468 100.697 50.4667C100.661 50.3865 100.625 50.3064 100.589 50.2263C100.552 50.1461 100.516 50.066 100.48 49.9859C100.444 49.9057 100.408 49.8256 100.372 49.7455C100.336 49.6653 100.3 49.5852 100.206 49.483C100.17 49.4029 100.134 49.3228 100.098 49.2426C100.062 49.1625 99.9677 49.0603 99.9317 48.9802C99.8957 48.9001 99.8596 48.8199 99.8236 48.7398C99.7875 48.6597 99.6934 48.5575 99.6573 48.4773C99.6213 48.3972 99.5853 48.3171 99.5272 48.295C99.433 48.1929 99.397 48.1127 99.3029 48.0105C99.2668 47.9304 99.2087 47.9084 99.1727 47.8282C99.0786 47.7261 99.0425 47.6459 98.9484 47.5437C98.9123 47.4636 98.8542 47.4416 98.7601 47.3394C98.666 47.2372 98.6299 47.1571 98.5358 47.0549C98.4998 46.9748 98.3836 46.9307 98.3475 46.8505C98.2534 46.7484 98.1593 46.6462 98.0651 46.544C98.0291 46.4639 97.9129 46.4198 97.8769 46.3396C97.7827 46.2375 97.6886 46.1353 97.5724 46.0912C97.5364 46.0111 97.4202 45.967 97.3842 45.8868C97.29 45.7847 97.1739 45.7406 97.0797 45.6384C97.0216 45.6164 96.9275 45.5142 96.8694 45.4921C96.7753 45.39 96.601 45.3238 96.5069 45.2216C96.4488 45.1996 96.3547 45.0974 96.2966 45.0754C96.2025 44.9732 96.0282 44.9071 95.876 44.7828C95.8179 44.7608 95.7238 44.6586 95.6657 44.6366C95.4554 44.4903 95.245 44.344 95.0127 44.2559C90.1735 41.4225 88.54 35.2204 88.0899 31.3282C87.9839 30.5569 87.6815 29.7776 87.3351 29.1145C86.9306 28.4294 86.4239 27.8383 85.7348 27.3775C85.3142 27.085 84.8135 26.8285 84.3488 26.6521L74.8804 23.0588C72.7892 22.2652 70.3733 22.6774 68.7164 24.2416C65.629 27.1237 61.0033 29.1561 55.3243 29.061L55.6329 28.2478C56.14 26.9117 55.4912 25.4693 54.1552 24.9623L44.7448 21.391C43.4088 20.884 41.9664 21.5328 41.4594 22.8688L40.291 25.9475C40.2329 25.9255 40.1528 25.9615 40.0947 25.9395C39.9565 25.9535 39.8403 25.9094 39.7021 25.9234C39.5638 25.9374 39.4477 25.8933 39.3675 25.9293C39.2293 25.9433 39.0911 25.9573 38.9749 25.9132C38.8367 25.9272 38.6985 25.9412 38.6404 25.9192C38.5022 25.9332 38.3639 25.9472 38.2838 25.9832C38.1456 25.9972 38.0074 26.0112 37.9272 26.0473C37.789 26.0613 37.7089 26.0973 37.5707 26.1113C37.4324 26.1253 37.3523 26.1614 37.2141 26.1754C37.0759 26.1893 36.9957 26.2254 36.8575 26.2394C36.7193 26.2534 36.6391 26.2894 36.5009 26.3034C36.3627 26.3174 36.2826 26.3535 36.1443 26.3675C36.0061 26.3815 35.926 26.4175 35.7657 26.4896C35.6856 26.5256 35.5474 26.5396 35.4672 26.5757C35.329 26.5897 35.2268 26.6838 35.0886 26.6978C35.0085 26.7339 34.8702 26.7479 34.7901 26.7839C34.6519 26.7979 34.5497 26.892 34.4115 26.906C34.3314 26.9421 34.1931 26.9561 34.113 26.9921C33.9748 27.0061 33.8726 27.1002 33.7123 27.1723C33.6322 27.2084 33.5521 27.2444 33.3918 27.3165C33.2315 27.3886 33.1514 27.4246 32.9911 27.4967C32.911 27.5328 32.8309 27.5688 32.7287 27.6629C32.5684 27.735 32.4883 27.7711 32.3861 27.8652C32.306 27.9012 32.2259 27.9373 32.1237 28.0314C32.0215 28.1256 31.8612 28.1976 31.7811 28.2337C31.701 28.2697 31.6208 28.3058 31.5186 28.3999C31.4165 28.494 31.2562 28.5661 31.154 28.6603C31.0739 28.6963 30.9938 28.7323 30.8916 28.8265C30.7894 28.9206 30.6292 28.9927 30.527 29.0868C30.4468 29.1229 30.3667 29.1589 30.3226 29.2751C30.2204 29.3692 30.0602 29.4413 29.958 29.5354C29.8779 29.5715 29.8558 29.6296 29.7536 29.7237C29.6514 29.8178 29.5493 29.912 29.367 30.0421C29.2868 30.0782 29.2648 30.1363 29.1626 30.2304C29.0604 30.3245 28.9362 30.4768 28.834 30.5709C28.7539 30.6069 28.7318 30.665 28.6297 30.7592C28.5275 30.8533 28.4033 31.0055 28.3011 31.0996C28.279 31.1577 28.1989 31.1938 28.1548 31.31C28.0306 31.4622 27.9284 31.5563 27.8042 31.7085C27.7822 31.7666 27.702 31.8027 27.68 31.8607C27.5558 32.013 27.4536 32.1071 27.3294 32.2593C27.3073 32.3174 27.2272 32.3535 27.2051 32.4115C27.0809 32.5638 26.9567 32.716 26.9126 32.8322C26.8905 32.8902 26.8685 32.9483 26.7884 32.9844C26.6641 33.1366 26.598 33.3109 26.4738 33.4631C26.4518 33.5212 26.4297 33.5793 26.4077 33.6374C26.2834 33.7896 26.2173 33.9638 26.0931 34.1161C26.071 34.1741 26.071 34.1741 26.049 34.2322C25.9828 34.4065 25.8366 34.6168 25.7704 34.7911L25.7484 34.8492C25.6602 35.0815 25.536 35.2337 25.4478 35.4661C25.3597 35.6984 25.2715 35.9308 25.2053 36.1051L11.5375 72.1199L9.68576 76.9993C9.02442 78.742 8.87185 80.5448 9.09793 82.2255C9.58612 85.667 12.0815 89.0729 15.8573 90.5058Z" fill="#C6C2C2"/>
<path d="M50.6569 17.7202L41.2466 14.149C39.9106 13.6419 38.4682 14.2907 37.9612 15.6268L36.418 19.6929L50.5916 25.0719L52.1347 21.0057C52.6418 19.6697 51.9349 18.2052 50.6569 17.7202Z" fill="#383838"/>
<path opacity="0.12" d="M73.2508 52.7436C71.9728 52.2587 70.5304 52.9074 70.0455 54.1854L59.3757 82.3002C58.8908 83.5781 59.5395 85.0205 60.8175 85.5055C62.0954 85.9905 63.5378 85.3417 64.0228 84.0638L74.6925 55.949C75.1775 54.671 74.5287 53.2286 73.2508 52.7436Z" fill="white"/>
<path d="M97.3633 51.1953L79.7495 97.6079C77.6552 103.126 71.4849 105.902 65.9665 103.807L12.409 83.4821C6.89062 81.3878 4.11525 75.2175 6.20951 69.6991L21.7291 28.8049C24.7051 20.963 33.4337 16.6997 41.3198 19.5596C41.5521 19.6477 41.7845 19.7359 42.0749 19.8461C52.1382 23.7981 60.4157 21.4238 65.16 16.9775C66.8169 15.4133 69.2328 15.0011 71.324 15.7947L80.7924 19.388C82.8255 20.1596 84.2655 21.9687 84.5336 24.0641C85.0637 27.9203 86.6392 34.1003 91.4563 36.9917C98.9074 41.3479 98.6258 48.2188 97.3633 51.1953Z" fill="#383838"/>
<path opacity="0.53" d="M8.06128 64.8197L6.20951 69.6991C4.11525 75.2175 6.89061 81.3878 12.409 83.4821L65.9665 103.807C71.4849 105.902 77.6552 103.126 79.7494 97.6079L81.6012 92.7285L8.06128 64.8197Z" fill="#686767"/>
<path d="M91.5144 37.0138C86.6752 34.1805 85.0417 27.9784 84.5917 24.0861C84.2875 21.9106 82.8255 20.1596 80.8505 19.41L71.3821 15.8167C69.2909 15.0231 66.875 15.4354 65.2181 16.9996C60.4959 21.3877 52.2544 23.8422 42.133 19.8682C41.9006 19.78 41.6102 19.6698 41.3779 19.5816C33.6441 16.846 25.2441 20.7687 22.0297 28.188L28.7099 30.7231C33.2988 32.4647 38.2346 32.9423 43.0664 32.1178C44.8493 31.7976 46.8344 31.8199 48.9036 32.6717L97.4074 51.0791C98.6559 47.9644 98.7332 41.2818 91.5144 37.0138Z" fill="#686767"/>
<path d="M78.5304 21.3207L71.2113 18.543C68.5973 17.551 65.7125 18.8486 64.7205 21.4626L64.1914 22.8567C63.8387 23.7861 64.3073 24.8278 65.2367 25.1806L78.6551 30.2729C79.5845 30.6256 80.6262 30.1571 80.979 29.2277L81.508 27.8335C82.4199 25.2556 81.1444 22.3127 78.5304 21.3207Z" fill="#CCCACA"/>
<path d="M35.2586 29.7527C37.2476 30.5076 39.472 29.507 40.2268 27.518C40.9817 25.529 39.9812 23.3046 37.9921 22.5497C36.0031 21.7949 33.7787 22.7954 33.0238 24.7844C32.269 26.7735 33.2695 28.9978 35.2586 29.7527Z" fill="#383838"/>
<path d="M36.052 27.6615C36.8861 27.9781 37.8189 27.5585 38.1354 26.7244C38.452 25.8903 38.0324 24.9575 37.1983 24.6409C36.3642 24.3244 35.4314 24.7439 35.1148 25.5781C34.7983 26.4122 35.2178 27.345 36.052 27.6615Z" fill="#E84343"/>
<path opacity="0.12" d="M32.4751 34.8103C31.1972 34.3253 29.7548 34.9741 29.2698 36.252L16.3515 70.2918C15.8665 71.5698 16.5153 73.0121 17.7933 73.4971C19.0712 73.9821 20.5136 73.3333 20.9986 72.0554L33.8948 38.0737C34.4019 36.7376 33.7531 35.2952 32.4751 34.8103Z" fill="white"/>
<path opacity="0.12" d="M28.1159 72.5634C27.7852 73.4347 28.1957 74.4544 29.1251 74.8071L70.7164 90.5913C71.5877 90.9219 72.6074 90.5115 72.9602 89.582C73.2908 88.7107 72.8803 87.691 71.9509 87.3383L30.3596 71.5542C29.4302 71.2015 28.4686 71.634 28.1159 72.5634Z" fill="white"/>
<path d="M35.6606 67.9173C38.3875 68.9522 41.437 67.5805 42.4719 64.8536C43.5068 62.1267 42.1351 59.0772 39.4082 58.0423C36.6813 57.0074 33.6318 58.3791 32.5969 61.106C31.562 63.8329 32.9337 66.8825 35.6606 67.9173Z" fill="#666666"/>
<path d="M36.366 66.0585C38.0663 66.7038 39.9677 65.8485 40.613 64.1482C41.2583 62.4479 40.403 60.5464 38.7027 59.9011C37.0024 59.2558 35.1009 60.1111 34.4556 61.8114C33.8104 63.5117 34.6657 65.4132 36.366 66.0585Z" fill="#383838"/>
<path d="M36.6968 65.1872C37.9158 65.6498 39.2792 65.0366 39.7418 63.8175C40.2045 62.5984 39.5913 61.2351 38.3722 60.7724C37.1531 60.3098 35.7897 60.923 35.3271 62.1421C34.8644 63.3612 35.4777 64.7245 36.6968 65.1872Z" fill="#CCCACA"/>
<path d="M51.6263 78.0301C64.8117 83.034 79.5571 76.4016 84.561 63.2162C89.565 50.0307 82.9326 35.2853 69.7471 30.2814C56.5617 25.2775 41.8163 31.9099 36.8124 45.0953C31.8084 58.2807 38.4408 73.0261 51.6263 78.0301Z" fill="#686767"/>
<path d="M52.1334 76.694C64.581 81.418 78.5012 75.1567 83.2251 62.7091C87.949 50.2616 81.6878 36.3413 69.2402 31.6174C56.7926 26.8935 42.8724 33.1548 38.1485 45.6023C33.4246 58.0499 39.6858 71.9701 52.1334 76.694Z" fill="#383838"/>
<path d="M53.1472 74.022C64.119 78.1858 76.3889 72.6669 80.5528 61.6951C84.7166 50.7233 79.1977 38.4534 68.2258 34.2895C57.254 30.1256 44.9841 35.6446 40.8203 46.6164C36.6564 57.5882 42.1753 69.8581 53.1472 74.022Z" fill="#CCCACA"/>
<path d="M54.2276 71.1756C63.6274 74.7429 74.1394 70.0147 77.7067 60.6149C81.2739 51.215 76.5457 40.7031 67.1459 37.1358C57.746 33.5685 47.2341 38.2968 43.6668 47.6966C40.0995 57.0964 44.8278 67.6083 54.2276 71.1756Z" fill="#666666"/>
<path d="M68.0275 34.8123C57.3393 30.756 45.4575 36.1486 41.4233 46.7788C37.367 57.467 42.7596 69.3488 53.3898 73.383C64.078 77.4393 75.9598 72.0467 79.994 61.4165C84.0282 50.7864 78.6577 38.8465 68.0275 34.8123ZM53.7645 72.3955C43.6571 68.5597 38.6331 57.283 42.4468 47.2337C46.2826 37.1263 57.5594 32.1022 67.6087 35.916C77.7161 39.7518 82.7401 51.0285 78.9264 61.0778C75.1126 71.1271 63.8138 76.2093 53.7645 72.3955Z" fill="#635F5F"/>
<path d="M57.1816 63.3918C62.2825 65.3276 67.987 62.7618 69.9228 57.6609C71.8586 52.5599 69.2928 46.8555 64.1919 44.9197C59.0909 42.9838 53.3865 45.5497 51.4507 50.6506C49.5148 55.7515 52.0807 61.456 57.1816 63.3918Z" fill="#383838"/>
<path opacity="0.89" d="M66.242 39.5174C58.1677 36.4532 49.1127 40.5261 46.0485 48.6004C42.9842 56.6747 47.0571 65.7298 55.1314 68.794C63.2057 71.8582 72.2608 67.7853 75.325 59.711C78.4113 51.5786 74.3163 42.5817 66.242 39.5174ZM56.1014 66.2381C49.4212 63.703 46.0111 56.2285 48.5683 49.4903C51.1035 42.8101 58.5779 39.4 65.3161 41.9572C71.9963 44.4923 75.4064 51.9667 72.8492 58.705C70.292 65.4433 62.7816 68.7733 56.1014 66.2381Z" fill="#383838"/>
<path d="M58.1329 52.6549C59.8653 53.3124 61.8026 52.441 62.4601 50.7086C63.1175 48.9762 62.2461 47.0388 60.5137 46.3814C58.7813 45.7239 56.844 46.5953 56.1865 48.3277C55.5291 50.0601 56.4005 51.9975 58.1329 52.6549Z" fill="white"/>
<path d="M62.1143 57.2228C62.8842 57.515 63.7453 57.1277 64.0375 56.3578C64.3297 55.5878 63.9424 54.7268 63.1724 54.4346C62.4025 54.1424 61.5414 54.5297 61.2492 55.2996C60.957 56.0696 61.3443 56.9306 62.1143 57.2228Z" fill="white"/>
</svg>
