<svg width="252" height="208" viewBox="0 0 252 208" fill="none" xmlns="http://www.w3.org/2000/svg">
<path d="M201.324 98.0889L206.453 109.28C206.453 109.28 205.831 109.902 204.743 110.834L200.236 99.1769C200.391 99.0215 200.547 98.866 200.547 98.866C200.547 98.866 200.857 98.5552 201.324 98.0889Z" fill="#CECECE"/>
<path d="M190.754 154.666C190.754 154.666 188.267 176.737 168.994 190.726C166.507 192.591 163.865 193.99 161.378 195.234C155.316 198.032 149.409 198.964 144.436 198.964V197.41C156.093 197.41 167.595 187.307 170.393 184.664C170.859 184.198 171.014 184.043 171.014 184.043C173.501 181.556 175.367 179.38 175.988 178.447C176.765 177.359 178.009 175.338 179.252 172.696C179.252 172.541 179.408 172.541 179.408 172.385C183.76 164.614 186.558 158.396 188.423 153.267L190.754 154.2C190.91 154.355 190.754 154.666 190.754 154.666Z" fill="#CECECE"/>
<path d="M199.303 141.455C194.174 146.273 191.842 152.024 191.065 153.889L188.734 152.957C191.221 146.118 192.464 140.833 193.863 136.17C195.884 129.797 204.277 122.337 208.163 119.228C209.251 118.295 210.028 117.829 210.028 117.829L214.38 127.31C214.38 127.31 205.52 135.548 199.303 141.455Z" fill="#CECECE"/>
<path d="M200.236 99.0215L204.743 110.679C200.702 114.254 190.288 123.58 184.226 127.621C182.827 123.58 181.118 120.005 178.942 116.896C187.024 113.632 198.215 101.353 200.236 99.0215Z" fill="#CECECE"/>
<path d="M136.042 195.39C138.84 196.944 141.638 197.566 144.591 197.566V199.12C135.887 199.275 129.67 196.633 129.67 196.633C129.67 196.633 100.293 186.374 114.904 151.091C129.514 115.808 167.129 116.896 175.211 117.829C176.299 117.984 177.698 117.673 179.097 117.052C181.273 120.16 182.983 123.735 184.382 127.777C182.983 128.709 181.739 129.331 180.962 129.642C175.833 131.196 160.912 126.067 153.762 130.263C142.415 132.595 133.089 142.387 128.892 152.179C122.675 166.635 120.499 186.841 136.042 195.39Z" fill="#CECECE"/>
<path d="M39.8297 76.4841C39.8297 76.4841 43.5601 75.707 46.5133 78.1939C44.4927 79.1265 42.6275 80.059 41.0732 81.4579L39.8297 76.4841Z" fill="#2E313D"/>
<path d="M74.3357 88.9185C82.5736 101.042 87.0812 118.295 86.7703 124.668C81.7965 137.258 75.7346 152.646 81.4856 167.723C81.3302 168.189 78.9987 176.582 64.3881 178.914C63.9218 179.069 63.3 179.069 62.8338 179.069C46.5134 181.09 33.9234 149.382 31.4364 127.466C29.4158 109.902 29.4158 91.0945 40.6069 81.7686C40.7624 81.6132 40.9178 81.4577 41.2286 81.3023C42.783 80.0589 44.6482 78.9708 46.6688 78.0382C48.2231 77.4165 49.9329 76.7948 51.7981 76.4839C53.9741 76.0176 55.9947 76.0176 58.0153 76.3285C64.3881 77.5719 69.8282 82.5458 74.3357 88.9185ZM64.6989 149.382C87.2366 137.724 70.4499 101.042 64.8544 99.7987C59.2588 98.5553 56.3056 106.016 56.3056 106.016C56.3056 106.016 55.6839 107.57 55.0621 110.368C53.3524 118.14 51.4872 134.771 62.8338 148.138C63.3 148.604 63.7663 149.226 64.2326 149.692C64.2326 149.692 64.2326 149.692 64.3881 149.692C64.3881 149.537 64.5435 149.537 64.6989 149.382Z" fill="#5DD8D2"/>
<path d="M217.178 129.331L214.38 127.31L210.028 117.829C210.028 117.829 209.251 118.451 208.163 119.228L204.899 110.679C205.987 109.747 206.609 109.125 206.609 109.125L201.479 97.9337C201.79 97.6229 202.412 97.0011 203.034 96.3794C204.899 100.576 217.333 125.445 217.178 129.331Z" fill="#2E313D"/>
<path d="M202.567 95.9131C202.567 95.9131 202.723 96.0685 202.878 96.5348C202.256 97.1565 201.79 97.6228 201.324 98.0891C200.857 98.5554 200.547 98.8663 200.547 98.8663C200.547 98.8663 200.391 99.0217 200.236 99.1772L198.837 95.4468L202.567 95.9131Z" fill="#2E313D"/>
<path d="M207.23 84.4111L212.515 85.6546C208.163 90.7838 204.899 94.3588 202.723 96.5348C202.567 96.224 202.412 95.9131 202.412 95.9131L198.681 95.4468L207.23 84.4111Z" fill="#2E313D"/>
<path d="M251.217 63.7383C253.394 75.0848 251.373 85.9651 240.804 104.617C236.762 111.456 232.566 116.741 228.835 120.471L212.515 85.6542C216.867 80.3695 222.307 73.6859 228.214 65.1371C241.736 46.1744 237.695 30.1649 235.985 25.502L251.217 63.7383Z" fill="white"/>
<path d="M212.515 85.6543L228.68 120.316C222.152 126.844 217.022 129.331 217.022 129.331C217.178 125.445 204.743 100.576 202.723 96.5345C204.899 94.3585 208.163 90.7836 212.515 85.6543Z" fill="#424556"/>
<path d="M228.369 48.3507C229.457 42.5997 229.146 36.5379 226.815 30.6314C216.556 4.8297 90.8115 19.4403 137.286 46.6409C101.847 60.0081 77.9106 85.0327 74.1802 88.9185C69.8281 82.5458 64.2326 77.5719 57.8598 76.4839C52.2643 66.07 46.047 66.6917 46.047 66.6917C74.8019 26.7456 127.649 3.58624 175.211 0.32217C226.659 -3.25277 235.363 24.1033 235.363 24.1033V24.2587C235.363 24.2587 235.363 24.2587 235.363 24.4141L235.83 25.5022C237.539 30.1651 241.425 46.1746 228.058 65.1374C221.996 73.5307 216.711 80.3697 212.359 85.6544L207.075 84.411C207.23 84.411 224.949 67.7797 228.369 48.3507Z" fill="#EDEDED"/>
<path d="M226.815 30.6317C229.146 36.5382 229.457 42.6 228.369 48.351C226.348 45.8641 212.826 31.8752 164.02 39.4914C154.539 40.8903 145.679 43.5326 137.286 46.6413C90.8114 19.4406 216.711 4.83001 226.815 30.6317Z" fill="#CECECE"/>
<path d="M170.548 132.595C188.578 141.765 181.895 163.059 181.895 163.059C182.361 159.174 181.895 154.511 180.185 149.537C177.854 143.164 172.569 138.035 165.885 136.636C161.222 135.703 155.316 136.17 148.943 141.299C133.711 153.423 126.716 176.893 142.104 188.861C152.829 197.099 163.865 190.571 170.393 184.509C167.595 187.151 155.938 197.254 144.436 197.254C141.638 197.254 138.685 196.633 135.887 195.078C120.344 186.53 122.52 166.323 128.737 151.868C132.934 142.076 142.415 132.284 153.606 129.952C159.046 129.175 164.797 129.641 170.548 132.595Z" fill="#424556"/>
<path d="M182.05 163.059C182.05 163.059 188.734 141.61 170.704 132.595C164.953 129.642 159.202 129.175 153.761 130.263C160.911 126.067 175.833 131.04 180.962 129.642C181.739 129.331 182.983 128.709 184.382 127.776C191.221 149.071 181.273 169.277 179.719 172.23C179.719 172.385 179.563 172.385 179.563 172.541C180.496 170.054 181.584 166.79 182.05 163.059Z" fill="white"/>
<path d="M182.05 163.06C181.739 166.79 180.651 170.054 179.408 172.541C178.164 175.184 176.921 177.049 176.144 178.292C175.522 179.225 173.657 181.556 171.17 183.888C171.17 183.888 171.015 184.199 170.548 184.509C164.02 190.571 152.984 197.099 142.26 188.862C126.716 176.893 133.866 153.423 149.099 141.299C155.471 136.326 161.222 135.704 166.041 136.636C172.724 138.035 178.009 143.009 180.34 149.537C182.05 154.667 182.361 159.174 182.05 163.06Z" fill="#2E313D"/>
<path d="M179.097 117.052C177.698 117.673 176.299 117.984 175.211 117.829C167.129 117.052 129.359 115.964 114.904 151.091C100.293 186.374 129.67 196.633 129.67 196.633C129.67 196.633 135.887 199.12 144.591 199.12C149.565 199.12 155.471 198.187 161.533 195.389L161.689 195.545C147.7 209.378 125.162 208.135 117.39 205.026C116.302 204.56 115.059 203.938 113.815 203.316C105.888 198.343 95.1636 186.063 97.4951 161.039C100.137 132.129 120.965 112.078 138.063 105.394C148.321 101.353 159.979 101.975 169.46 107.881C173.035 109.902 176.299 113.01 179.097 117.052Z" fill="white"/>
<path d="M169.305 107.57C159.823 101.664 148.011 101.042 137.908 105.083C120.655 111.922 99.8266 131.817 97.3397 160.728C95.1637 185.752 105.733 198.031 113.66 203.005C112.883 202.694 99.9821 196.322 93.6094 185.597C93.1431 184.975 92.8322 184.198 92.3659 183.421C86.6149 171.453 85.0606 147.671 100.448 124.357C114.593 103.062 137.441 92.4931 159.046 101.508C162.621 103.218 166.041 105.083 169.305 107.57Z" fill="#5DD8D2"/>
<path d="M159.046 101.664C137.441 92.4936 114.593 103.063 100.448 124.513C85.0605 147.827 86.7703 171.453 92.3659 183.577C86.9258 178.448 83.3508 173.163 81.3302 167.878C75.5792 152.801 81.6411 137.414 86.6149 124.824C93.2985 107.881 119.566 91.561 137.13 93.4262C154.228 94.9805 158.891 101.353 159.046 101.664Z" fill="#71FFF4"/>
<path d="M62.6783 179.225C63.3001 179.225 63.7664 179.069 64.2327 179.069C62.9892 180.779 59.5697 182.022 59.5697 182.022C47.6014 183.732 28.3278 173.474 22.5768 131.041C16.9813 89.5403 36.8766 81.9241 37.8092 81.6133L40.4515 81.9241C29.2604 91.2501 29.2604 110.057 31.281 127.621C33.768 149.693 46.358 181.245 62.6783 179.225Z" fill="#71FFF4"/>
<path d="M64.699 149.381C66.2533 148.449 71.8489 143.786 69.6728 126.688C67.1859 106.793 56.3057 105.861 56.3057 105.861C56.3057 105.861 59.2589 98.3998 64.8544 99.6432C70.45 101.042 87.2366 137.724 64.699 149.381Z" fill="#2CC6B7"/>
<path d="M69.6727 126.688C71.8488 143.786 66.2532 148.449 64.6989 149.381H64.5435C64.5435 149.381 64.3881 149.381 64.3881 149.537C64.3881 149.537 64.3881 149.537 64.2326 149.537C63.7663 149.07 63.3 148.449 62.8337 147.982C66.875 140.833 65.7869 132.595 63.7663 123.735C61.9011 115.497 55.0621 110.212 55.0621 110.212C55.6839 107.57 56.3056 105.86 56.3056 105.86C56.3056 105.86 67.1858 106.793 69.6727 126.688Z" fill="#27AD9D"/>
<path d="M59.7252 182.022L48.0677 184.043V183.887C33.6126 180.002 17.9139 153.734 18.2248 120.316C18.3802 86.7424 31.7474 82.2349 31.7474 82.2349V81.7686H37.9647C37.0321 82.0794 17.1367 89.6956 22.7323 131.196C28.3278 173.474 47.7569 183.732 59.7252 182.022Z" fill="#5DD8D2"/>
<path d="M63.7663 123.891C65.7869 132.75 66.875 140.833 62.8338 148.138C51.4872 134.771 53.3524 118.14 55.0622 110.368C55.0622 110.213 61.9011 115.497 63.7663 123.891Z" fill="#253F3B"/>
<path d="M47.9123 183.732V183.887L40.7624 185.131C40.7624 185.131 33.3017 184.354 25.2192 173.318C19.9345 166.168 14.339 154.977 10.2977 136.791C6.87821 121.714 7.65537 110.523 10.2977 102.285C15.7378 85.6542 28.7941 81.4575 28.7941 81.4575H31.5919V81.9238C31.5919 81.9238 18.2248 86.4314 18.0693 120.005C17.9139 153.733 33.4571 179.846 47.9123 183.732Z" fill="white"/>
<path d="M58.0154 76.4839C55.9947 76.173 53.9741 76.173 51.7981 76.6393C49.9329 77.1056 48.2231 77.5719 46.6688 78.1936C43.7156 75.7067 39.9852 76.4839 39.9852 76.4839C42.0058 73.0644 44.0265 69.8003 46.358 66.6916C46.2025 66.6916 52.2644 66.0699 58.0154 76.4839Z" fill="#424556"/>
<path d="M25.2192 173.474C10.1422 172.23 -0.738022 147.672 0.0391388 126.844C0.816299 106.016 10.4531 102.597 10.4531 102.597C7.81076 110.679 7.0336 121.87 10.4531 137.103C14.3389 154.977 19.9345 166.324 25.2192 173.474Z" fill="#424556"/>
</svg>
