<svg width="93" height="117" viewBox="0 0 93 117" fill="none" xmlns="http://www.w3.org/2000/svg">
<path d="M88.4735 75.4718H88.5871C89.0343 75.8213 89.4572 76.2008 89.8528 76.6077L87.2889 73.8977L85.2281 71.7071L80.928 67.1311L79.3053 65.5084L70.1045 55.7722L67.5245 53.0136L63.0133 48.2266L60.92 46.0035H60.8389L45.1312 29.3222L42.8432 26.9044L41.2205 25.1356L23.5817 6.34476L22.1862 4.8681L17.5777 0L0.198578 103.934C0.275559 103.461 0.389482 102.994 0.539331 102.538C0.575265 102.406 0.618584 102.276 0.669126 102.149C0.798942 101.776 0.944983 101.386 1.12348 100.981C1.15994 100.88 1.20334 100.783 1.25332 100.689C1.47893 100.193 1.7336 99.7103 2.016 99.2443L2.24315 98.8873C2.48655 98.4979 2.74622 98.0922 3.03831 97.7028C3.13567 97.5729 3.21679 97.4269 3.33038 97.2971C3.7036 96.7941 4.09303 96.291 4.53116 95.788L4.69344 95.6095C5.08289 95.1551 5.52102 94.7008 5.95915 94.2464L6.39726 93.8245C6.83539 93.3702 7.306 92.932 7.79281 92.4939L8.05245 92.2505C8.63662 91.7475 9.25325 91.2282 9.88611 90.7252L10.7137 90.0761L11.3303 89.6055L12.3688 88.859C12.5636 88.713 12.7583 88.567 12.9692 88.4371L13.3749 88.1451C14.0078 87.7069 14.6568 87.285 15.3384 86.8631L16.0686 86.3925C16.5554 86.0842 17.0584 85.7759 17.5777 85.4838L18.6 84.8672C19.8008 84.1857 21.034 83.5204 22.2835 82.8875L22.6243 82.709C23.8088 82.1086 25.0421 81.5244 26.2754 80.9565L26.8433 80.6969C28.0441 80.1614 29.2611 79.6259 30.4944 79.0742L31.1597 78.8145C32.393 78.3277 33.6424 77.8409 34.9081 77.3866L35.541 77.1756C36.7743 76.7375 37.9913 76.3318 39.2245 75.9424L39.614 75.8125C40.8905 75.4123 42.1725 75.0391 43.4598 74.6929L44.6606 74.3683C45.5531 74.1249 46.4456 73.914 47.338 73.703L49.123 73.2811L51.054 72.8755C52.1358 72.6483 53.2555 72.4373 54.413 72.2426L56.3278 71.9181L58.0479 71.6747L60.417 71.3826L62.0397 71.2203C62.8024 71.2203 63.5813 71.0905 64.344 71.0418L65.9667 70.9444H68.2547H69.7151C70.2019 70.9444 70.6562 70.9444 71.1106 70.9444C72.0842 70.9444 73.0254 70.9444 73.9503 71.0742C74.5832 71.0742 75.216 71.1878 75.8327 71.269C76.4493 71.3501 76.6603 71.269 77.0659 71.415C78.0558 71.5611 79.0294 71.7071 79.9544 71.9181H80.0355C81.0578 72.1452 82.0314 72.4049 82.9726 72.7132C84.2841 73.126 85.5508 73.6696 86.7535 74.3359L87.1429 74.5631C87.646 74.8876 88.0841 75.1797 88.4735 75.4718Z" fill="url(#paint0_linear)"/>
<path d="M9.10683 114.952C-6.0654 109.987 -1.84639 96.4858 18.5347 84.8186C38.9158 73.1514 67.7674 67.7316 82.9559 72.6971C98.1443 77.6625 93.9091 91.1634 73.528 102.831C53.1469 114.498 24.3602 119.966 9.10683 114.952Z" fill="url(#paint1_linear)"/>
<defs>
<linearGradient id="paint0_linear" x1="-2.02452" y1="53.4517" x2="44.4334" y2="47.0421" gradientUnits="userSpaceOnUse">
<stop offset="0.03" stop-color="#FDDBDB"/>
<stop offset="0.15" stop-color="#FACECE"/>
<stop offset="0.51" stop-color="#F4AAAD"/>
<stop offset="0.81" stop-color="#F09598"/>
<stop offset="1" stop-color="#EE8D91"/>
</linearGradient>
<linearGradient id="paint1_linear" x1="29466" y1="4856.09" x2="28901.9" y2="2031.21" gradientUnits="userSpaceOnUse">
<stop stop-color="#F8C7C8"/>
<stop offset="0.42" stop-color="#DE7C83"/>
<stop offset="0.49" stop-color="#D97781"/>
<stop offset="0.78" stop-color="#C7687A"/>
<stop offset="0.99" stop-color="#C16377"/>
</linearGradient>
</defs>
</svg>
