<svg width="286" height="325" viewBox="0 0 286 325" fill="none" xmlns="http://www.w3.org/2000/svg">
<path d="M49.2815 283.56C65.067 298.191 87.5901 303.004 118.776 289.528C124.744 287.026 130.326 283.753 135.331 279.518C147.652 269.508 156.507 255.84 168.635 245.444C190.388 226.579 219.841 220.226 246.022 208.291C254.492 204.441 262.77 199.821 268.93 193.083C325.719 129.171 221.574 30.9931 160.55 19.6353C82.97 5.3899 34.8436 73.7294 21.3682 141.684C13.4755 182.688 17.3256 253.722 49.2815 283.56Z" fill="#3B63FF"/>
<path d="M148.229 306.854C167.095 269.7 201.361 240.632 241.209 228.119" stroke="#3B63FF" stroke-width="0.846" stroke-miterlimit="10"/>
<path d="M59.4842 30.4165C59.0992 29.839 59.2918 28.8765 59.8693 28.2989C60.6393 27.9139 61.6018 28.1064 61.9868 28.6839C62.3718 29.454 62.1793 30.224 61.6017 30.8015C60.8317 31.1865 59.8692 30.994 59.4842 30.4165Z" fill="#3B63FF"/>
<path d="M52.1691 35.8061C51.5916 35.2286 51.784 34.2661 52.554 33.6885C53.324 33.111 54.0941 33.3035 54.6717 33.8811C55.2492 34.4586 55.0566 35.4211 54.2866 35.9986C53.7091 36.5761 52.7466 36.3836 52.1691 35.8061Z" fill="#3B63FF"/>
<path d="M45.2389 41.7743C44.6614 41.1968 44.6614 40.2343 45.4314 39.6568C46.009 39.0793 46.9714 39.0793 47.549 39.8493C48.1265 40.4268 47.934 41.3893 47.3565 41.9668C46.779 42.3518 45.8164 42.3519 45.2389 41.7743Z" fill="#3B63FF"/>
<path d="M38.8862 48.1269C38.3087 47.5493 38.3087 46.5868 38.8862 46.0093C39.4637 45.4318 40.4262 45.4318 41.0037 46.0093C41.5812 46.5868 41.5812 47.5493 41.0037 48.1269C40.4262 48.5119 39.4637 48.7044 38.8862 48.1269Z" fill="#3B63FF"/>
<path d="M32.9185 54.8648C32.341 54.2873 32.1484 53.3248 32.7259 52.7473C33.3034 52.1698 34.266 51.9772 34.8435 52.5548C35.4211 53.1323 35.6135 54.0948 35.036 54.6723C34.4585 55.2498 33.496 55.4423 32.9185 54.8648Z" fill="#3B63FF"/>
<path d="M27.3358 61.9869C26.7583 61.6019 26.5658 60.6394 27.1433 59.8693C27.7209 59.0993 28.6833 59.0993 29.2609 59.4843C29.8384 60.0619 30.0308 60.8319 29.4533 61.6019C28.8758 62.3719 28.1058 62.5644 27.3358 61.9869Z" fill="#3B63FF"/>
<path d="M22.3307 69.4946C21.5607 69.1096 21.3682 68.1471 21.9457 67.3771C22.3307 66.607 23.2932 66.4145 24.0632 66.992C24.8332 67.3771 25.0257 68.3396 24.4482 69.1096C23.8707 69.6871 22.9082 69.8796 22.3307 69.4946Z" fill="#3B63FF"/>
<path d="M17.7106 77.3876C16.9406 77.0026 16.7481 76.04 17.1331 75.27C17.5181 74.5 18.4806 74.3075 19.2506 74.6925C20.0206 75.0775 20.2131 76.0401 19.8281 76.8101C19.4431 77.5801 18.4806 77.7726 17.7106 77.3876Z" fill="#3B63FF"/>
<path d="M13.668 85.4731C12.8979 85.0881 12.7054 84.3181 12.8979 83.548C13.2829 82.778 14.0529 82.393 14.8229 82.778C15.593 83.163 15.7855 83.933 15.593 84.703C15.4005 85.4731 14.438 85.8581 13.668 85.4731Z" fill="#3B63FF"/>
<path d="M10.2027 93.7504C9.43269 93.3654 9.04775 92.5954 9.43276 91.8254C9.81777 91.0554 10.5878 90.6703 11.3578 91.0553C12.1278 91.4403 12.5128 92.2104 12.1278 92.9804C11.9353 93.7504 10.9727 94.1354 10.2027 93.7504Z" fill="#3B63FF"/>
<path d="M7.31513 102.413C6.54511 102.221 6.16009 101.258 6.3526 100.488C6.54511 99.7181 7.50763 99.3331 8.27766 99.5256C9.04768 99.7181 9.43269 100.681 9.24018 101.451C8.85517 102.221 8.08515 102.606 7.31513 102.413Z" fill="#3B63FF"/>
<path d="M5.00516 111.076C4.23513 110.884 3.65755 110.114 3.85005 109.344C4.04256 108.574 4.81263 107.996 5.58265 108.189C6.35267 108.381 6.93014 109.151 6.73763 109.921C6.54513 110.884 5.77518 111.269 5.00516 111.076Z" fill="#3B63FF"/>
<path d="M3.27256 119.932C2.50254 119.739 1.92507 118.969 2.11757 118.199C2.31008 117.429 3.08003 116.852 3.85005 117.044C4.62008 117.237 5.19766 118.007 5.00516 118.777C4.81265 119.547 4.04258 120.124 3.27256 119.932Z" fill="#3B63FF"/>
<path d="M1.92506 128.979C1.15504 128.979 0.577499 128.209 0.577499 127.247C0.577499 126.477 1.34762 125.707 2.11764 125.899C2.88766 126.092 3.46508 126.669 3.46508 127.632C3.46508 128.402 2.88759 128.979 1.92506 128.979Z" fill="#3B63FF"/>
<path d="M1.54002 138.027C0.769999 138.027 0 137.257 0 136.487C0 135.717 0.769999 134.947 1.54002 134.947C2.31004 134.947 3.08016 135.717 3.08016 136.487C2.88765 137.45 2.31004 138.027 1.54002 138.027Z" fill="#3B63FF"/>
<path d="M1.54002 147.075C0.769999 147.075 0 146.498 0 145.535C0 144.765 0.57754 143.995 1.34756 143.995C2.11758 143.995 2.88758 144.573 2.88758 145.535C3.08009 146.305 2.50255 147.075 1.54002 147.075Z" fill="#3B63FF"/>
<path d="M172.1 103.568C175.758 102.606 178.068 99.3331 178.645 94.1354C178.645 93.7504 179.03 93.7504 179.03 94.1354C179.608 99.3331 182.11 102.606 185.575 103.568C185.768 103.568 185.768 104.146 185.575 104.146C181.918 105.108 179.608 108.381 179.03 113.578C179.03 113.963 178.645 113.963 178.645 113.578C178.068 108.381 175.565 105.108 172.1 104.146C171.715 103.953 171.715 103.568 172.1 103.568Z" fill="white"/>
<path d="M37.7309 203.094C41.3885 202.131 43.6985 198.858 44.276 193.661C44.276 193.276 44.6611 193.276 44.6611 193.661C45.2386 198.858 47.7412 202.131 51.2063 203.094C51.3988 203.094 51.3988 203.671 51.2063 203.671C47.5487 204.634 45.2386 207.906 44.6611 213.104C44.6611 213.489 44.276 213.489 44.276 213.104C43.6985 207.906 41.196 204.634 37.7309 203.671C37.5384 203.479 37.5384 203.094 37.7309 203.094Z" fill="white"/>
<path d="M157.662 123.203C160.164 122.626 161.897 120.123 162.282 116.658C162.282 116.466 162.475 116.466 162.475 116.658C162.86 120.316 164.592 122.626 167.095 123.203C167.287 123.203 167.287 123.588 167.095 123.588C164.592 124.166 162.86 126.668 162.475 130.133C162.475 130.326 162.282 130.326 162.282 130.133C161.897 126.476 160.164 124.166 157.662 123.588V123.203Z" fill="white"/>
<path d="M93.5581 104.338L111.269 114.541L105.493 124.166C105.493 124.166 86.0504 119.738 85.8579 119.161C85.6654 118.776 93.5581 104.338 93.5581 104.338Z" fill="#E57D15"/>
<path d="M66.6072 123.011L39.8489 150.924C38.8864 151.887 38.6938 153.619 39.4639 154.774C44.2765 161.897 62.1795 184.998 90.0928 180.955C91.2478 180.762 92.2105 179.992 92.5955 178.837C94.5205 172.87 100.873 153.042 103.376 145.919C103.568 145.149 104.531 145.341 104.723 146.111L105.878 152.464L123.011 154.197L123.589 126.668C123.781 125.321 123.011 123.973 121.856 123.203L110.691 114.926C110.691 114.926 105.108 121.663 95.6755 113.963C90.8629 109.92 93.9429 103.568 93.9429 103.568L82.0077 96.83C81.0451 96.2524 79.89 96.2525 78.9275 96.6375L51.9767 107.61L57.9445 122.241L65.6447 120.893C66.6072 120.893 67.3772 122.048 66.6072 123.011Z" fill="#FF9724"/>
<path d="M66.6072 123.011L39.8489 150.924C38.8864 151.887 38.6938 153.619 39.4639 154.774C44.2765 161.897 62.1795 184.998 90.0928 180.955C91.2478 180.762 92.2105 179.992 92.5955 178.837C94.5205 172.87 100.873 153.042 103.376 145.919C103.568 145.149 104.531 145.341 104.723 146.111L105.878 152.464L123.011 154.197L123.589 126.668C123.781 125.321 123.011 123.973 121.856 123.203L110.691 114.926C110.691 114.926 105.108 121.663 95.6755 113.963C90.8629 109.92 93.9429 103.568 93.9429 103.568L82.0077 96.83C81.0451 96.2524 79.89 96.2525 78.9275 96.6375L51.9767 107.61L57.9445 122.241L65.6447 120.893C66.6072 120.893 67.3772 122.048 66.6072 123.011Z" fill="#FF9724"/>
<path d="M92.9804 107.804C93.1729 105.494 93.9429 103.761 93.9429 103.761L82.0077 97.0233C81.0452 96.4458 79.8901 96.4458 78.9275 96.8308L51.9767 107.804L57.9445 122.434C59.0995 122.434 69.8798 119.546 66.6072 123.012L56.4044 134.177C82.9701 143.995 76.6174 117.429 92.9804 107.804Z" fill="url(#paint0_linear)"/>
<path d="M111.461 112.038C108.573 110.305 94.9055 102.99 93.173 102.412C91.2479 101.835 91.2479 104.145 92.7879 105.3C94.1355 106.263 95.483 107.033 97.0231 107.61C98.3706 108.38 99.9107 109.15 101.258 109.92C104.146 111.46 106.841 113 109.728 114.54C110.691 115.118 111.846 115.118 112.424 114.348C112.809 113.77 112.424 112.615 111.461 112.038Z" fill="#3B63FF"/>
<path opacity="0.15" d="M117.814 153.812C117.814 151.694 117.429 149.769 117.044 147.651C115.889 142.646 113.001 138.026 108.381 135.524C106.456 134.561 104.338 133.791 102.221 133.598C99.3332 133.213 96.4455 133.598 93.7505 134.753C91.2479 136.101 89.1303 138.411 88.5528 141.299C88.1678 143.609 88.5528 145.919 88.7454 148.229C89.1304 153.234 87.7828 159.202 81.8151 160.742C79.89 161.319 77.7725 161.127 75.8475 160.549C70.8423 159.009 67.3772 155.159 63.7196 151.694C60.447 148.614 56.7893 145.726 52.5542 144.186C50.8217 143.609 49.0892 143.224 47.3567 143.224L39.6564 151.309C38.6939 152.272 38.5014 154.004 39.2714 155.159C44.084 162.282 61.987 185.382 89.9003 181.34C91.0554 181.147 92.0179 180.377 92.4029 179.222C94.3279 173.255 100.681 153.427 103.183 146.304C103.376 145.534 104.338 145.726 104.531 146.496L105.686 152.849L117.814 153.812Z" fill="#FF9724"/>
<path opacity="0.49" d="M108.766 122.241C110.498 121.279 112.038 119.931 113.579 118.583C113.771 118.391 114.156 118.006 114.349 117.813L111.461 115.503L111.268 115.696C109.921 117.043 108.573 118.198 107.033 119.161C103.761 121.086 100.103 121.279 96.8305 119.546C93.5579 117.813 91.4404 114.733 90.8629 111.076C90.6704 109.343 90.6703 107.611 91.0553 105.878C91.2478 104.916 91.6329 103.953 91.8254 103.183C91.8254 102.99 92.0179 102.798 92.0179 102.605L89.3229 101.065C88.7453 101.835 88.3603 102.798 88.1678 103.568C87.5902 105.301 87.2052 107.033 87.2052 108.766C87.2052 112.231 88.1678 115.696 90.2854 118.391C94.5205 124.359 102.413 125.899 108.766 122.241Z" fill="#FF9724"/>
<path d="M111.268 112.038C109.921 111.268 108.381 111.845 107.611 113C106.648 114.348 104.916 115.31 103.376 115.695C102.606 115.888 101.451 115.888 100.873 115.695C99.9107 115.503 99.1406 114.925 98.1781 114.348C97.408 113.77 96.4455 113 95.868 112.038C95.2905 111.268 95.0979 110.498 94.9054 109.728C94.7129 108.765 94.5205 107.995 94.713 107.033C94.713 107.418 94.713 106.84 94.713 106.648C94.713 106.455 94.9054 106.263 94.9054 105.878C95.0979 104.915 95.098 103.953 94.5205 103.182C93.943 102.412 93.1729 102.027 92.4029 102.22C88.9378 102.797 88.9378 108.573 89.5153 111.268C90.2853 114.733 92.5954 117.235 95.2905 119.353C100.873 123.588 108.573 121.278 112.424 115.695C113.001 114.54 112.423 112.808 111.268 112.038Z" fill="#3B63FF"/>
<path opacity="0.49" d="M123.011 149.962C122.049 149.77 121.086 149.577 120.124 149.577C118.584 149.385 116.851 149.192 115.311 149.192C113.579 149.192 112.038 149.192 110.306 149.192C109.536 149.192 108.573 148.999 107.803 149.192C106.841 149.192 106.263 149.577 105.493 149.962L105.686 151.31C106.263 151.695 107.033 152.08 107.803 152.08C108.573 152.272 109.343 152.272 110.113 152.272C111.846 152.465 113.386 152.657 115.119 152.85C116.659 153.042 118.199 153.042 119.739 153.427C120.894 153.62 122.049 153.812 123.011 154.197V149.962Z" fill="#FF9724"/>
<path opacity="0.49" d="M60.062 122.048L63.7197 121.471C60.2546 115.695 56.7894 108.188 55.8269 106.263L52.9393 107.418C57.7519 114.54 57.3669 117.813 60.062 122.048Z" fill="#FF9724"/>
<path d="M123.589 153.62C122.819 153.427 121.856 153.235 121.086 153.235C120.316 153.042 119.739 153.042 118.969 152.85C117.429 152.657 115.696 152.465 114.156 152.272C112.616 152.08 111.076 151.887 109.536 151.887C108.188 151.695 106.263 151.31 105.108 152.272C104.723 152.657 104.723 153.042 105.108 153.427C105.686 154.005 106.456 154.005 107.226 154.197C107.996 154.39 108.573 154.39 109.343 154.39C110.883 154.582 112.423 154.775 113.964 154.967C115.504 155.16 117.044 155.352 118.584 155.545C119.354 155.737 119.931 155.737 120.701 155.93C121.471 156.122 122.434 156.315 123.204 156.315C124.744 156.122 125.129 154.197 123.589 153.62Z" fill="#3B63FF"/>
<path d="M60.6395 121.856C59.292 119.16 57.9445 116.465 56.5969 113.77C56.0194 112.423 55.2494 111.075 54.6719 109.728C54.0944 108.573 53.1318 105.878 51.3992 106.455C49.2817 107.033 51.2067 110.113 51.5917 111.46C52.1692 112.808 52.7467 114.155 53.5168 115.503C54.8643 118.198 56.0194 120.893 57.5595 123.588C58.522 125.513 61.602 123.973 60.6395 121.856Z" fill="#3B63FF"/>
<path d="M194.238 41.9663C192.506 41.7738 169.982 48.8965 164.977 38.5012C161.127 30.4159 151.309 11.5504 147.459 3.65769C146.497 1.73263 143.994 0.962591 142.069 1.92512L104.146 20.2132C99.5254 22.3307 97.4078 27.7209 99.1403 32.5335C104.145 46.0089 113.963 72.1897 118.198 82.2L129.171 77.7723L127.824 48.1265C127.824 48.1265 138.604 74.8848 152.272 70.6496C165.94 66.4145 191.928 59.4843 194.238 55.2492C196.356 51.0141 195.971 42.1588 194.238 41.9663Z" fill="#FF635A"/>
<path d="M120.123 86.4352C121.086 86.2427 129.171 82.3926 129.171 82.3926L128.979 77.7725C125.899 79.12 121.086 81.0451 118.006 82.2001C119.161 84.8952 119.931 86.4352 120.123 86.4352Z" fill="#E54441"/>
<path d="M195.586 49.4736C182.688 53.7088 151.694 64.104 140.722 67.9542C143.994 70.6492 147.844 72.1893 151.887 70.8417C165.555 66.6066 191.543 59.6764 193.853 55.4413C195.008 53.7087 195.393 51.5912 195.586 49.4736Z" fill="#E54441"/>
<path d="M145.534 11.9353C145.342 11.5503 145.149 11.3578 144.764 11.1653C144.379 10.9728 144.187 10.9728 143.802 10.7803C143.417 10.7803 143.032 10.7803 142.839 10.7803C142.647 10.7803 142.454 10.9728 142.262 10.9728C142.069 11.1653 141.877 11.1653 141.684 11.3578C141.492 11.7428 141.299 11.9353 141.107 12.3203C141.107 12.7053 140.914 12.8978 141.107 13.2829C141.107 13.2829 141.107 13.2828 141.107 13.4753C141.107 13.6678 141.107 13.8604 141.107 14.0529C141.107 14.2454 141.299 14.4379 141.299 14.6304C141.492 15.0154 141.877 15.4004 142.262 15.5929C142.454 15.5929 142.647 15.7854 142.839 15.7854C143.224 15.9779 143.802 15.9779 144.187 15.7854C144.572 15.7854 144.764 15.5929 145.149 15.2079C145.534 15.0154 145.727 14.8229 145.919 14.4379C146.112 14.0529 146.112 13.8604 146.304 13.4753C146.304 13.0903 146.304 12.7053 146.304 12.5128C145.919 12.5128 145.727 12.1278 145.534 11.9353Z" fill="#E54441"/>
<path d="M150.347 21.7528C150.154 21.3678 149.769 20.9828 149.192 20.5978C148.999 20.4053 148.614 20.4052 148.422 20.2127C147.844 20.0202 147.267 20.0202 146.882 20.2127C146.497 20.4052 146.112 20.5978 145.727 20.7903C145.342 20.9828 145.149 21.3678 144.957 21.7528C144.764 22.1378 144.572 22.5228 144.572 22.9078C144.572 23.2928 144.572 23.6778 144.572 24.0629C144.764 24.2554 144.764 24.6404 144.957 24.8329C145.149 25.2179 145.534 25.6029 146.112 25.9879C146.304 26.1804 146.689 26.1804 146.882 26.3729C147.459 26.5654 148.037 26.5654 148.422 26.3729C148.807 26.1804 149.192 25.9879 149.577 25.7954C149.962 25.6029 150.154 25.2179 150.347 24.8329C150.539 24.4479 150.732 24.0629 150.732 23.6778C150.732 23.2928 150.732 22.9078 150.732 22.5228C150.539 22.1378 150.539 21.9453 150.347 21.7528Z" fill="#E54441"/>
<path d="M154.389 31.9557C154.197 31.5707 153.812 31.1857 153.427 30.9931C153.234 30.9931 153.042 30.8006 152.849 30.8006C152.464 30.6081 151.887 30.6081 151.502 30.8006C151.117 30.8006 150.924 30.9931 150.539 31.3782C150.347 31.5707 149.962 31.7632 149.962 32.1482C149.769 32.5332 149.577 32.9182 149.577 33.4957C149.577 34.0732 149.769 34.4582 149.962 34.8433C149.962 34.8433 149.962 34.8433 149.962 35.0358C150.154 35.2283 150.154 35.4208 150.347 35.6133C150.539 35.8058 150.924 35.9983 151.117 36.1908C151.309 36.3833 151.502 36.3833 151.694 36.3833C152.079 36.3833 152.464 36.3833 152.657 36.3833C152.849 36.3833 153.042 36.1908 153.234 36.1908C153.427 35.9983 153.619 35.9983 153.812 35.8058C154.004 35.6133 154.197 35.2283 154.389 35.0358C154.582 34.6508 154.582 34.4583 154.582 34.0732V33.8807C154.774 32.7257 154.582 32.3407 154.389 31.9557Z" fill="#E54441"/>
<path opacity="0.15" d="M103.183 22.7159C102.798 21.9458 101.835 22.5234 101.835 23.1009C101.643 25.4109 102.413 27.9135 102.605 30.2236C102.798 32.5337 102.99 35.0362 102.798 37.3463C102.798 38.6938 102.605 39.8489 102.22 41.1964C102.605 42.3514 102.99 43.5065 103.568 44.6615C104.338 42.3515 104.723 40.0414 104.723 37.7313C104.916 35.2287 104.723 32.7262 104.53 30.2236C104.338 27.721 104.146 25.0259 103.183 22.7159Z" fill="#E54441"/>
<path opacity="0.59" d="M146.304 14.823C147.267 14.6305 148.037 14.2455 148.999 13.668C149.384 13.4755 149.769 13.283 150.154 12.898C150.539 12.7055 151.117 12.3205 151.309 11.9355C151.309 11.9355 151.309 11.7429 151.502 11.5504C151.309 11.1654 151.117 10.9729 150.924 10.5879C150.732 10.5879 150.539 10.5879 150.347 10.5879C149.962 10.7804 149.577 11.1654 149.192 11.3579C148.807 11.5504 148.422 11.7429 148.037 12.1279C147.267 12.513 146.497 12.898 145.727 13.4755C145.149 14.053 145.534 15.0155 146.304 14.823Z" fill="#E54441"/>
<path opacity="0.59" d="M150.539 23.678C151.502 23.4855 152.464 22.908 153.427 22.3304C153.812 22.1379 154.197 21.7529 154.582 21.5604C154.967 21.1754 155.544 20.9829 155.929 20.4054C155.544 19.8279 155.352 19.2504 154.967 18.6729H154.775C154.389 18.8654 154.004 19.2504 153.619 19.6354C153.234 19.8279 152.849 20.2129 152.464 20.4054C151.694 20.9829 150.732 21.3679 149.962 21.9454C149.192 22.523 149.769 23.8705 150.539 23.678Z" fill="#E54441"/>
<path opacity="0.59" d="M154.004 35.0357C155.352 34.6507 156.507 34.0731 157.47 33.3031C158.047 32.9181 158.432 32.5331 159.01 32.1481C159.587 31.7631 160.165 31.1856 160.55 30.608C160.55 30.4155 160.742 30.4155 160.742 30.223C160.357 29.453 159.972 28.8755 159.78 28.1055C159.587 28.1055 159.395 28.1055 159.202 28.298C158.625 28.4905 158.24 29.068 157.662 29.453C157.085 29.838 156.7 30.223 156.122 30.608C155.16 31.3781 154.004 31.9556 153.042 32.7256C152.079 33.3031 153.042 35.4207 154.004 35.0357Z" fill="#E54441"/>
<path d="M154.774 16.7483C154.197 16.7483 153.812 17.1333 153.427 17.5183C152.464 18.4808 151.502 19.6358 150.347 20.4059C149.962 20.7909 149.192 21.3684 148.614 21.7534C148.229 21.9459 148.037 22.3309 147.652 22.5234C147.267 22.7159 146.882 23.101 146.689 23.486C146.304 24.0635 146.882 24.641 147.459 24.8335C148.229 24.8335 148.999 24.4485 149.769 24.0635C150.347 23.6785 150.924 23.2935 151.502 22.9084C152.657 21.9459 153.812 20.9834 154.774 20.0209C155.352 19.4433 156.122 18.6733 155.929 17.7108C155.737 16.9408 155.16 16.5558 154.774 16.7483Z" fill="#FF9724"/>
<path d="M159.78 26.9508C159.01 27.1434 158.24 27.9134 157.47 28.2984C156.892 28.8759 156.122 29.2609 155.544 29.8384C154.967 30.4159 154.197 30.801 153.619 31.186C153.234 31.3785 152.849 31.571 152.657 31.7635C152.464 31.956 152.272 31.956 152.079 32.1485C151.694 32.1485 151.309 32.341 151.117 32.726C150.924 33.111 150.924 33.6886 151.309 34.0736C152.079 35.0361 153.234 34.4586 154.197 33.8811C154.967 33.3035 155.93 32.726 156.7 32.341C157.47 31.7635 158.24 31.186 159.01 30.416C159.78 29.8384 160.742 29.0684 161.127 27.9134C161.127 27.3359 160.357 26.7583 159.78 26.9508Z" fill="#FF9724"/>
<path d="M151.502 8.66246C151.117 8.08494 150.154 7.89244 149.577 8.27746C149.192 8.46996 148.999 8.85499 148.614 9.0475C148.422 9.0475 148.422 9.23998 148.229 9.23998C148.037 9.43249 148.037 9.43249 148.229 9.23998L148.037 9.4325C147.459 9.81751 147.074 10.2025 146.497 10.5875C145.919 10.9725 145.342 11.165 144.764 11.55C144.764 11.55 144.572 11.5501 144.572 11.7426C144.379 11.9351 144.187 11.9351 143.802 12.1276C143.417 12.3201 143.224 12.5126 142.839 12.7051C141.877 13.2826 142.262 15.0152 143.417 15.0152C144.957 15.0152 146.497 14.2451 147.844 13.4751C148.422 13.0901 148.999 12.7051 149.577 12.3201C150.154 11.9351 150.924 11.3576 151.309 10.78C152.079 10.01 152.079 9.23998 151.502 8.66246Z" fill="#FF9724"/>
<path d="M103.953 20.4059C99.3328 22.5235 97.2153 27.9136 98.9478 32.7263C100.873 37.7314 103.375 44.4691 105.878 51.3993C108.188 50.6293 110.306 49.8593 112.038 48.1267C114.926 45.6241 115.888 41.1965 114.541 37.7314C113.771 35.6139 112.038 33.4963 112.231 31.1863C112.423 27.7212 116.273 25.6036 118.968 23.486C122.433 20.7909 124.744 16.7483 124.936 12.3207C124.936 11.5507 124.936 10.7806 124.936 10.2031L103.953 20.4059Z" fill="url(#paint1_linear)"/>
<path d="M144.572 1.54071C142.647 2.11823 140.914 2.88826 138.989 3.65828C137.256 4.2358 135.524 5.00582 133.599 5.58334C131.866 6.16086 130.134 6.93088 128.401 7.50839C127.439 7.89341 126.476 8.27842 125.514 8.47092C124.551 8.85593 123.781 9.04842 123.011 9.62594C122.626 10.011 122.819 10.781 123.396 10.781C125.129 10.781 127.054 9.81846 128.786 9.43345C130.519 8.85593 132.444 8.2784 134.176 7.70088C135.909 7.12337 137.834 6.54585 139.566 5.77583C141.492 5.19831 143.417 4.62081 145.342 3.65828C146.304 3.27327 145.919 1.1557 144.572 1.54071Z" fill="#E54441"/>
<path d="M142.454 0C140.529 0 138.412 1.34755 136.679 2.11757C134.946 2.8876 133.214 3.65761 131.481 4.42763C127.824 6.16018 123.974 7.89274 120.316 9.8178C116.851 11.7429 113.193 13.8604 109.921 15.978C106.456 18.0955 102.99 20.2131 100.103 23.1007C99.3329 23.6782 100.295 24.8332 101.065 24.2557C104.531 22.3307 107.996 20.0206 111.268 17.903C114.541 15.7855 118.006 13.8604 121.471 12.1279C124.936 10.2028 128.401 8.47026 132.059 6.93021C133.791 6.16019 135.716 5.39017 137.449 4.62015C139.182 3.85013 141.299 3.46511 142.839 2.11757C143.994 1.15505 143.417 0 142.454 0Z" fill="#FF9724"/>
<path d="M99.9104 23.8702C99.9104 24.0627 99.9104 24.4477 99.9104 24.6402C99.7179 24.2552 99.3328 23.8702 98.9478 24.2552C97.2153 25.4102 96.0603 27.1428 94.5202 28.8753C92.9802 30.6079 91.6325 32.3404 90.0925 34.073C87.3974 37.3456 84.8949 40.8107 82.7773 44.2758C82.0073 45.6233 80.6598 47.5484 81.8148 49.0884C83.1623 50.8209 84.8949 49.0884 85.8575 47.9334C88.36 44.8533 90.67 41.5807 92.9801 38.3081C93.7501 37.1531 94.5202 35.8055 95.0977 34.6505C94.9052 35.0355 94.9052 35.613 94.7127 35.998C94.1352 39.4631 94.1351 43.1207 95.2902 46.3933C95.4827 47.1634 97.0228 47.5484 97.4078 46.5858C100.68 39.4631 102.22 31.7629 101.643 23.8702C101.643 22.7151 99.9104 22.7151 99.9104 23.8702ZM99.9104 25.7952C99.7179 31.1854 98.7553 36.768 96.8302 41.9657C96.6377 39.8481 96.8302 37.7306 97.2152 35.613C97.9853 32.3404 98.9478 29.0678 99.9104 25.7952Z" fill="#FF9724"/>
<path opacity="0.15" d="M244.867 119.547C244.675 117.622 243.134 116.274 241.402 116.467L215.414 118.007C215.221 120.317 215.606 122.627 216.376 124.552L241.979 123.012C243.519 123.012 244.867 121.472 244.867 119.547Z" fill="#FF635A"/>
<path d="M251.412 113.002L215.414 121.087C209.061 122.627 204.441 128.402 204.441 134.755L203.671 157.855L101.065 205.789C100.873 205.789 100.68 205.982 100.488 205.982L81.6222 214.837C76.8096 216.955 74.4995 222.345 76.2321 227.35L92.98 275.284C93.75 277.401 95.4826 278.749 97.6002 278.749C97.9852 278.749 98.1777 278.749 98.5627 278.749H98.7551L205.018 261.231L207.328 275.476C208.098 280.674 204.633 285.487 199.628 286.257L102.413 302.427C100.68 302.812 99.3327 304.352 99.7177 306.277C100.103 308.01 101.643 309.357 103.568 308.972L200.783 292.994C209.446 291.647 215.414 283.369 214.066 274.514L211.178 257.188C211.178 254.686 210.986 233.895 210.793 211.95C210.793 211.565 210.793 211.18 210.793 210.795C210.601 189.041 210.601 166.711 210.601 159.973V154.775L210.408 154.968L211.178 135.14C211.178 131.675 213.489 128.595 216.954 127.825L252.952 119.739C254.685 119.354 255.84 117.622 255.455 115.697C255.07 113.579 253.337 112.424 251.412 113.002ZM204.441 231.2L187.115 234.088L184.613 218.687L204.248 215.415C204.248 220.805 204.441 226.195 204.441 231.2ZM86.0498 234.858L102.798 232.163L105.3 247.563L91.2475 249.873L86.0498 234.858ZM109.15 231.008L127.631 227.928L130.134 243.328L111.653 246.408L109.15 231.008ZM112.808 207.907C113.001 207.907 113.386 207.907 113.578 207.907L124.166 206.174L126.668 221.575L108.188 224.655L105.878 211.18L112.808 207.907ZM173.255 191.159L134.754 197.512L171.522 180.379L173.255 191.159ZM177.682 177.491L204.056 165.171C204.056 170.368 204.056 177.684 204.056 186.154L179.8 190.196L177.682 177.491ZM133.214 220.42L130.711 205.019L150.154 201.747L152.464 217.147L133.214 220.42ZM153.427 223.692L155.737 239.093L136.871 242.173L134.369 226.772L153.427 223.692ZM156.699 200.592L174.41 197.704L176.912 213.105L159.009 215.992L156.699 200.592ZM131.481 250.066L134.176 266.429L115.696 269.509L113.001 253.146L131.481 250.066ZM138.026 248.911L156.892 245.831L159.394 262.194L140.914 265.274L138.026 248.911ZM163.437 244.675L181.725 241.595L184.42 257.958L165.94 261.038L163.437 244.675ZM162.282 238.13L159.972 222.73L177.875 219.842L180.378 235.243L162.282 238.13ZM183.458 212.142L180.955 196.742L204.248 192.892C204.248 198.089 204.248 203.287 204.248 208.677L183.458 212.142ZM84.5098 220.997L99.7177 213.875L101.643 225.617L83.7397 228.505L82.5847 225.232C82.0072 223.692 82.7773 221.767 84.5098 220.997ZM93.365 256.226L106.263 254.108L108.958 270.471L98.9477 272.204L93.365 256.226ZM190.965 256.996L188.27 240.633L204.441 237.938C204.441 245.446 204.441 251.413 204.633 254.686L190.965 256.996Z" fill="#FFD7E2"/>
<path opacity="0.15" d="M210.986 211.95C210.986 211.565 210.986 211.18 210.986 210.795C210.986 198.474 210.793 185.769 210.793 175.951C208.676 176.721 206.366 177.106 204.248 177.491C204.248 180.186 204.248 183.074 204.248 185.961L179.992 190.004V189.812C177.875 192.507 176.142 195.394 174.602 198.474L177.105 213.105L171.137 214.067C170.945 216.377 170.945 218.495 170.945 220.805L178.26 219.65L180.763 235.05L167.095 237.36C166.325 238.515 165.555 239.863 164.4 240.826C160.164 244.868 154.004 246.408 148.229 246.216C142.454 246.023 136.679 244.483 131.096 243.328C130.904 243.328 130.711 243.328 130.519 243.328V243.521L112.038 246.601L111.076 241.211C109.728 241.211 108.38 241.211 107.225 241.211C106.263 241.211 105.3 241.211 104.53 241.403L105.493 247.756L91.4399 250.066L89.8999 245.446C89.5149 245.638 88.9373 246.023 88.5523 246.408C87.0123 247.563 85.6648 248.911 84.5098 250.258L93.365 275.669C94.135 277.787 95.8676 279.134 97.9852 279.134C98.3702 279.134 98.5627 279.134 98.9477 279.134H99.1401L205.403 261.616C207.521 260.076 209.446 258.536 211.563 256.996C211.178 252.761 210.986 232.933 210.986 211.95ZM108.958 270.471L98.9477 272.204L93.365 256.419L106.263 254.301L108.958 270.471ZM134.176 266.236L115.696 269.316L113.001 252.953L131.481 249.873L134.176 266.236ZM159.202 262.194L140.721 265.274L138.026 248.911L156.892 245.831L159.202 262.194ZM184.42 257.959L165.94 261.039L163.437 244.676L181.725 241.596L184.42 257.959ZM180.955 196.742L204.248 192.892C204.248 198.089 204.248 203.287 204.248 208.677L183.458 212.142L180.955 196.742ZM204.633 254.686L190.965 256.996L188.27 240.633L204.441 237.938C204.441 245.446 204.441 251.413 204.633 254.686ZM187.115 234.088L184.613 218.687L204.248 215.415C204.248 220.997 204.248 226.195 204.441 231.2L187.115 234.088Z" fill="#FF635A"/>
<path d="M131.674 324.757C135.395 324.757 138.411 321.74 138.411 318.019C138.411 314.298 135.395 311.281 131.674 311.281C127.953 311.281 124.936 314.298 124.936 318.019C124.936 321.74 127.953 324.757 131.674 324.757Z" fill="#EA4F4B"/>
<path opacity="0.62" d="M137.449 314.169C136.101 312.052 133.406 310.704 130.711 311.282C127.054 311.859 124.551 315.324 125.128 319.174C125.321 320.522 125.899 321.677 126.861 322.639C128.594 320.522 130.904 318.982 133.021 317.442C134.369 316.287 135.909 315.324 137.449 314.169Z" fill="#E54441"/>
<path d="M179.8 316.672C183.521 316.672 186.538 313.655 186.538 309.934C186.538 306.213 183.521 303.196 179.8 303.196C176.079 303.196 173.062 306.213 173.062 309.934C173.062 313.655 176.079 316.672 179.8 316.672Z" fill="#EA4F4B"/>
<path opacity="0.62" d="M185.19 306.084C183.65 303.966 181.148 302.811 178.453 303.196C174.795 303.774 172.292 307.239 172.87 311.089C173.062 312.437 173.64 313.399 174.41 314.362C176.142 312.437 178.26 310.897 180.378 309.357C182.11 308.394 183.65 307.239 185.19 306.084Z" fill="#E54441"/>
<path d="M241.402 126.669C237.359 127.247 233.509 124.744 232.739 120.702C231.969 116.659 234.472 112.616 238.707 111.846L247.177 110.114C251.22 109.344 255.262 112.039 256.032 116.081C256.802 120.124 254.3 124.167 250.065 124.937L241.594 126.669C241.594 126.669 241.594 126.669 241.402 126.669Z" fill="#FF635A"/>
<g opacity="0.15">
<path opacity="0.15" d="M249.102 118.777L240.632 120.509H240.439C237.359 121.087 234.472 119.739 232.932 117.237C232.739 118.392 232.547 119.547 232.739 120.702C233.509 124.745 237.359 127.247 241.402 126.67H241.594L250.065 124.937C254.107 124.167 256.802 120.124 256.032 116.082C255.84 115.119 255.455 114.157 254.877 113.387C254.107 116.082 251.99 118.199 249.102 118.777Z" fill="#FF635A"/>
</g>
<defs>
<linearGradient id="paint0_linear" x1="127.066" y1="176.037" x2="63.7408" y2="106.357" gradientUnits="userSpaceOnUse">
<stop stop-color="white"/>
<stop offset="1" stop-color="white" stop-opacity="0"/>
</linearGradient>
<linearGradient id="paint1_linear" x1="150.883" y1="15.4354" x2="102.751" y2="36.4161" gradientUnits="userSpaceOnUse">
<stop stop-color="white"/>
<stop offset="1" stop-color="white" stop-opacity="0"/>
</linearGradient>
</defs>
</svg>
