<svg width="250" height="215" viewBox="0 0 250 215" fill="none" xmlns="http://www.w3.org/2000/svg">
<path d="M136.616 13.4552L56.7157 131.639C54.2659 135.298 54.2876 140.839 56.7624 144.173L97.9736 199.278C98.6551 200.125 99.3922 200.823 100.24 201.223L106.429 204.078C105.581 203.678 104.891 203.097 104.162 202.132L102.024 199.355L107.066 201.637C108.613 202.35 110.558 201.753 111.783 199.924L105.594 197.07C104.583 198.569 103.243 199.244 101.828 199.151L62.8955 147.177C60.6635 144.164 60.3729 139.102 62.2641 135.483L64.1096 136.369L144.01 18.1851L142.165 17.2989L142.749 16.4589C143.176 15.7995 143.65 15.2578 144.17 14.8338C144.17 14.8338 144.17 14.8338 144.217 14.9515L185.484 69.9068C187.23 72.2764 187.202 76.2477 185.494 78.8853L191.683 81.7399C193.437 79.22 193.419 75.1311 191.672 72.7615L150.461 17.657C149.976 17.0136 149.434 16.5194 148.885 16.292L144.691 14.4098C146.243 13.4047 147.872 13.1687 149.419 13.8824L143.231 11.0277C140.984 10.0004 138.426 10.7861 136.616 13.4552Z" fill="#71FFF4"/>
<path d="M187.992 76.348L164.282 111.552L164.315 113.699L189.161 76.9324L187.992 76.348Z" fill="#71FFF4"/>
<path d="M164.887 36.9963L159.035 34.3701L177.545 59.4437L183.441 62.1837L164.887 36.9963Z" fill="#727272"/>
<path d="M177.742 59.1181L183.965 61.9886C183.815 61.9018 183.618 61.6967 183.421 61.4916L177.197 58.6211C177.292 58.8578 177.442 58.9446 177.742 59.1181Z" fill="#727272"/>
<path d="M164.996 46.9086L158.962 44.185L159.108 111.174L165.044 113.928L164.996 46.9086Z" fill="#D2FDFF"/>
<path d="M167.401 33.7875C166.899 33.055 165.935 33.1056 165.374 33.9197C164.814 34.7338 164.862 35.9918 165.363 36.7244L183.75 61.7152C184.251 62.4477 185.215 62.3971 185.776 61.583C186.336 60.7689 186.288 59.5109 185.787 58.7784L167.401 33.7875Z" fill="#727272"/>
<path d="M167.027 34.2585L160.801 31.387C160.248 31.1583 159.63 31.3479 159.201 32.0111C158.613 32.8559 158.672 34.1662 159.208 34.9318L165.433 37.8033C164.898 37.0377 164.839 35.7274 165.427 34.8826C165.856 34.2194 166.474 34.0298 167.027 34.2585Z" fill="#727272"/>
<path d="M94.6548 174.567L88.7015 171.806L98.6145 185.269L104.667 188L94.6548 174.567Z" fill="#A4F6FF"/>
<path d="M94.8548 175.018L88.662 172.162L88.6652 173.615L94.858 176.471L94.8548 175.018Z" fill="#CCE4E5"/>
<path d="M152.614 27.7689L146.212 24.8944L137.48 37.9407L143.835 40.6953L152.614 27.7689Z" fill="#A4F6FF"/>
<path d="M147.789 26.9272L139.385 39.3485L139.746 150.494L163.41 115.26L163.205 47.6914L147.789 26.9272Z" fill="#A4F6FF"/>
<path d="M138.076 40.5318L132.099 37.9269L132.19 148.123L138.211 150.842L138.076 40.5318Z" fill="#A4F6FF"/>
<path d="M98.3399 93.0025L92.4107 90.2503L92.479 172.339L98.4082 175.091L98.3399 93.0025Z" fill="#A4F6FF"/>
<path d="M66.4405 137.053L60.4771 134.354L89.0799 173.32L94.9458 176.049L66.4405 137.053Z" fill="#D2FDFF"/>
<path d="M77.6816 159.303L71.7329 156.544L82.2012 170.595L88.1499 173.354L77.6816 159.303Z" fill="#727272"/>
<path d="M79.0496 175.894L85.2671 178.762C86.1192 179.163 87.1474 178.848 87.7905 177.854C88.7508 176.498 88.6709 174.267 87.7421 173.093L81.5247 170.225C82.5004 171.518 82.5333 173.631 81.573 174.987C80.8829 175.862 79.8547 176.178 79.0496 175.894Z" fill="#727272"/>
<path d="M73.322 164.917L67.3772 162.159L77.7391 176.235L83.6838 178.993L73.322 164.917Z" fill="#727272"/>
<path d="M78.4795 176.563L84.6932 179.429C84.2909 179.287 83.9444 178.995 83.6536 178.554L77.4398 175.688C77.7306 176.13 78.1799 176.389 78.4795 176.563Z" fill="#727272"/>
<path d="M112.191 74.1117L106.268 71.362L106.323 181.181L112.343 183.899L112.191 74.1117Z" fill="#D2FDFF"/>
<path d="M141.317 40.7428L134.953 37.9839L112.53 71.168L118.836 74.0791L141.317 40.7428Z" fill="#D2FDFF"/>
<path d="M116.99 74.0824L110.756 71.207L110.953 71.4125L117.187 74.2878L116.99 74.0824Z" fill="#D2FDFF"/>
<path d="M111.609 73.7878L99.4385 91.9722L99.5577 174.229L109.568 187.661L112.04 184.064L111.798 73.9857L111.609 73.7878Z" fill="#A4F6FF"/>
<path d="M115.986 74.1396L109.686 71.2322L96.8869 90.2443L103.187 93.1517L115.986 74.1396Z" fill="#A4F6FF"/>
<path d="M77.0872 159.063L70.8726 156.196C71.1721 156.37 71.4717 156.543 71.7626 156.984L77.9772 159.85C77.6863 159.409 77.4895 159.204 77.0872 159.063Z" fill="#727272"/>
<path d="M77.0317 158.537L70.8157 155.67C69.814 155.182 68.5804 155.56 67.7789 156.735C66.7073 158.39 66.6757 160.92 67.8481 162.417L74.064 165.284C72.8917 163.787 72.9233 161.257 73.9949 159.602C74.7964 158.427 75.9272 158.08 77.0317 158.537Z" fill="#727272"/>
<path d="M88.1975 172.764C89.3154 174.21 89.2757 176.66 88.2427 178.266C87.2097 179.873 85.3546 179.94 84.3353 178.463L73.9712 164.385C72.8533 162.938 72.893 160.488 73.926 158.882C74.959 157.276 76.8141 157.208 77.8334 158.686L88.1975 172.764ZM74.1778 164.064L84.5419 178.141C85.4719 179.39 86.9865 179.301 87.7683 177.902C88.6934 176.586 88.625 174.426 87.7396 173.292L77.3755 159.214C76.4455 157.965 74.9309 158.054 74.1492 159.454C73.3674 160.853 73.3464 162.784 74.1778 164.064Z" fill="#727272"/>
<path d="M99.7118 93.2189L93.4028 90.3066L62.8825 135.3L69.2959 138.18L99.7118 93.2189Z" fill="#D2FDFF"/>
<path d="M191.859 72.3277C193.606 74.6979 193.68 78.6386 191.87 81.3083L111.95 199.52C110.195 202.041 107.3 202.269 105.553 199.899L64.3308 144.782C62.584 142.411 62.51 138.471 64.32 135.801L144.24 17.5892C145.995 15.0687 148.89 14.84 150.637 17.2102L191.859 72.3277ZM136.4 38.8894L114.355 71.5537L101.684 90.2414L71.9163 134.393L102.218 174.764L112.661 188.6L115.214 184.91L137.046 152.575L161.43 116.55L185.815 80.5254L161.052 47.4376L145.125 26.1691L136.4 38.8894ZM80.9118 163.075L91.7381 177.586C92.9056 179.077 94.684 178.927 95.7982 177.396C96.8655 175.747 96.8971 173.227 95.7296 171.736L84.9033 157.225C83.7358 155.734 81.9573 155.883 80.8432 157.415C79.7291 158.946 79.8467 161.552 80.9118 163.075ZM179.018 60.549L159.496 34.5717C158.963 33.8104 157.948 33.8579 157.363 34.698C156.778 35.5382 156.837 36.8413 157.37 37.6026L176.892 63.5799C177.425 64.3412 178.44 64.2938 179.025 63.4536C179.554 62.7626 179.597 61.4281 179.018 60.549Z" fill="#FCFCFC"/>
<path d="M135.853 40.4019L114.301 72.4493L114.492 72.649L114.927 183.552L136.27 151.828L135.853 40.4019Z" fill="#D2FDFF"/>
<path d="M97.7535 92.8656L68.6288 136.044L98.0067 175.688L97.7535 92.8656Z" fill="#D2FDFF"/>
<path d="M193.031 70.3975C195.506 73.7325 195.528 79.2738 193.078 82.9323L113.171 201.125C110.721 204.784 106.764 204.942 104.187 201.639L62.972 146.53C60.497 143.195 60.4284 137.536 62.9253 133.995L142.832 15.8022C145.282 12.1438 149.239 11.9854 151.816 15.2889L193.031 70.3975ZM64.233 135.839C62.4788 138.359 62.4972 142.449 64.2438 144.819L105.458 199.927C107.205 202.297 110.1 202.068 111.855 199.548L191.761 81.3551C193.515 78.835 193.497 74.7457 191.75 72.3759L150.536 17.2673C148.789 14.8975 145.894 15.1261 144.14 17.6462L64.233 135.839Z" fill="#5DD8D2"/>
<path d="M165.615 46L165.802 113.589L189.671 78.3757L165.615 46Z" fill="#D2FDFF"/>
<path d="M77.4788 159.2C76.5517 157.953 75.041 158.043 74.2606 159.44C73.3374 160.755 73.4046 162.911 74.2872 164.043L84.6183 178.097C85.5453 179.344 87.056 179.254 87.8364 177.856C88.7597 176.542 88.6925 174.386 87.8099 173.253L77.4788 159.2Z" fill="#FCFCFC"/>
</svg>
