<svg width="154" height="166" viewBox="0 0 154 166" fill="none" xmlns="http://www.w3.org/2000/svg">
<path d="M118.602 2.46533L122.322 7.39071L122.404 7.49289L118.684 2.57774L118.602 2.46533Z" fill="#9D7677"/>
<path d="M118.685 2.57764L122.404 7.49284L122.588 7.78919L118.868 2.86376L118.685 2.57764Z" fill="#A2797B"/>
<path d="M118.868 2.86377L122.587 7.78922C122.641 7.88845 122.689 7.99082 122.731 8.09579L119.021 3.18055L118.868 2.86377Z" fill="#A77D7E"/>
<path d="M119.021 3.18066L122.731 8.09587C122.731 8.20827 122.823 8.32066 122.864 8.43307L119.185 3.51788L119.062 3.18066" fill="#AC8182"/>
<path d="M119.185 3.51758L122.904 8.43279C122.942 8.5535 122.973 8.67634 122.996 8.80066L119.287 3.87524C119.259 3.75436 119.225 3.63498 119.185 3.51758Z" fill="#B18486"/>
<path d="M119.246 3.87549L122.955 8.80092L119.236 3.8857" fill="#B6888A"/>
<path d="M4.54135 156.594L8.26104 161.509C7.57893 161.541 6.89866 161.416 6.27187 161.145C5.64508 160.874 5.08822 160.464 4.64355 159.946L0.934082 155.031C1.37816 155.547 1.93345 155.956 2.55823 156.227C3.183 156.497 3.86103 156.623 4.54135 156.594Z" fill="#806061"/>
<path d="M115.089 0.942908C117.245 1.01444 118.829 1.96477 119.259 3.90632L150.078 145.456C151.396 151.505 140.421 161.336 132.706 161.06L4.59452 156.594C-0.218484 156.42 -1.16881 152.129 2.46905 147.009L99.7612 9.92514C103.665 4.33551 110.593 0.779409 115.089 0.942908Z" fill="url(#paint0_linear)"/>
<path d="M146.775 153.651L134.921 160.886C134.191 161.029 133.447 161.087 132.704 161.06L123.936 160.753L149.984 144.853L150.117 145.456C150.597 147.878 149.146 150.913 146.775 153.651ZM119.716 6.04221L119.246 3.90651C119.112 3.23149 118.783 2.61056 118.3 2.12028C117.817 1.63 117.201 1.29183 116.528 1.14746L97.8377 12.5617L89.2745 24.63L119.716 6.04221ZM123.66 24.1191L122.342 18.0798L72.1377 48.7359L63.5745 60.8042L123.66 24.1191ZM134.165 72.4024L0.443359 154.08C0.954294 155.562 2.33382 156.512 4.53084 156.594L7.35121 156.686L135.535 78.4621L134.165 72.4024ZM127.595 42.2266L126.338 36.218L46.499 84.9612L37.9357 97.0295L127.595 42.2266ZM131.539 60.3341L130.221 54.2949L20.7581 121.197L12.1847 133.265L131.539 60.3341ZM143.362 114.646L142.054 108.607L60.3045 158.505L70.9013 158.873L143.362 114.646ZM147.306 132.754L145.988 126.725L92.1153 159.619L102.712 159.987L147.306 132.754ZM139.428 96.5492L138.11 90.5406L28.555 157.432L39.1518 157.8L139.428 96.5492Z" fill="url(#paint1_linear)"/>
<path d="M153.929 151.515V151.137C153.924 151.1 153.924 151.062 153.929 151.025C153.929 150.974 153.929 150.933 153.929 150.882C153.934 150.834 153.934 150.786 153.929 150.739L153.867 150.381L122.966 8.7906C122.863 8.27088 122.643 7.78155 122.322 7.35999L118.602 2.43457C118.922 2.86092 119.142 3.35319 119.246 3.87541L150.066 145.425C150.1 145.593 150.124 145.764 150.137 145.936C150.137 145.936 150.137 146.028 150.137 146.069C150.148 146.232 150.148 146.396 150.137 146.559C150.147 146.74 150.147 146.92 150.137 147.101V147.295C150.137 147.417 150.137 147.55 150.076 147.673L150.015 147.928C150.015 148.031 150.015 148.143 149.933 148.255L149.81 148.623L149.718 148.899C149.626 149.157 149.52 149.409 149.402 149.655V149.727C149.269 150.013 149.116 150.309 148.942 150.606L148.819 150.82C148.656 151.106 148.482 151.382 148.288 151.658V151.709C148.083 152.006 147.869 152.302 147.644 152.588L147.47 152.803C147.245 153.079 147.021 153.355 146.775 153.62C146.78 153.637 146.78 153.655 146.775 153.671C146.551 153.927 146.305 154.182 146.06 154.438C145.966 154.542 145.868 154.64 145.764 154.734C145.662 154.836 145.559 154.928 145.467 155.03L145.089 155.368L144.844 155.603L144.231 156.134L143.587 156.655L143.403 156.788L142.913 157.156L142.729 157.299L142.065 157.759L141.39 158.188L141.206 158.311L140.654 158.638L140.501 158.719L139.817 159.097L139.653 159.179L139.101 159.445L138.876 159.557L138.355 159.782L138.141 159.874C137.957 159.956 137.763 160.027 137.579 160.089L137.384 160.17L136.925 160.324L136.598 160.426H136.495L135.668 160.64L135.443 160.692C135.035 160.784 134.622 160.852 134.206 160.896H134.074C133.652 160.926 133.228 160.926 132.807 160.896L4.69472 156.43C4.01441 156.459 3.3364 156.334 2.71164 156.063C2.08687 155.792 1.5316 155.383 1.08752 154.867L4.79692 159.782C5.24158 160.3 5.79843 160.71 6.42521 160.981C7.05199 161.252 7.73224 161.377 8.41434 161.346L136.526 165.821C136.946 165.83 137.365 165.813 137.783 165.77H137.926C138.342 165.726 138.755 165.658 139.163 165.566H139.275H139.387L140.215 165.341H140.297L140.624 165.229L141.053 165.086L141.247 165.014L141.727 164.83H141.799L142.024 164.738L142.361 164.585L142.545 164.503L142.77 164.401L142.964 164.309L143.322 164.125L143.485 164.043H143.546C143.73 163.951 143.924 163.849 144.108 163.737H144.17L144.323 163.645L144.66 163.451L144.875 163.318L145.059 163.205L145.202 163.113L145.723 162.776L146.254 162.408L146.377 162.316C146.446 162.274 146.511 162.227 146.571 162.173L146.796 162.01L147.062 161.805C147.124 161.767 147.182 161.722 147.235 161.673L147.327 161.601L147.879 161.162L148.421 160.702L148.482 160.63L148.737 160.405L149.013 160.15L149.105 160.058L149.412 159.772L149.637 159.547L149.708 159.465C149.953 159.22 150.199 158.965 150.424 158.709C150.669 158.433 150.894 158.168 151.118 157.892L151.282 157.667C151.517 157.381 151.731 157.084 151.936 156.798V156.747L152.467 155.909L152.59 155.684C152.753 155.388 152.917 155.102 153.05 154.806C153.05 154.806 153.05 154.806 153.05 154.755C153.168 154.505 153.274 154.249 153.367 153.988C153.367 153.988 153.367 153.917 153.367 153.876C153.367 153.835 153.367 153.773 153.418 153.722L153.54 153.344C153.536 153.29 153.536 153.235 153.54 153.181V153.017L153.602 152.772V152.619V152.384V152.2C153.602 152.2 153.602 152.139 153.602 152.118C153.612 151.965 153.612 151.811 153.602 151.658L153.929 151.515Z" fill="url(#paint2_linear)"/>
<path style="mix-blend-mode:overlay" opacity="0.8" d="M150.066 145.456L119.246 3.90633C118.817 1.94433 117.202 1.01444 115.077 0.942908C110.601 0.779409 103.673 4.33551 99.7488 9.92514L2.40563 147.009C-1.222 152.118 -0.271671 156.42 4.54133 156.594L132.653 161.05C140.409 161.336 151.384 151.505 150.066 145.456ZM146.775 152.486C143.168 156.972 137.231 160.355 132.97 160.355H132.673L4.56176 155.879C3.90648 155.923 3.25148 155.789 2.66658 155.49C2.08169 155.191 1.58885 154.739 1.24068 154.183C0.464064 152.599 1.11806 150.095 2.9983 147.428L100.29 10.3441C104.153 4.89754 110.693 1.64799 114.791 1.64799H115.097C117.08 1.71952 118.255 2.5268 118.592 4.04939L149.401 145.599C149.769 147.438 148.819 149.942 146.775 152.486Z" fill="url(#paint3_linear)"/>
<defs>
<linearGradient id="paint0_linear" x1="35.6389" y1="22.0036" x2="98.627" y2="170.205" gradientUnits="userSpaceOnUse">
<stop stop-color="#F8C7C8"/>
<stop offset="0.42" stop-color="#DE7C83"/>
<stop offset="0.49" stop-color="#D97781"/>
<stop offset="0.78" stop-color="#C7687A"/>
<stop offset="0.99" stop-color="#C16377"/>
</linearGradient>
<linearGradient id="paint1_linear" x1="120.247" y1="174.508" x2="45.6304" y2="56.3591" gradientUnits="userSpaceOnUse">
<stop stop-color="#1C0C5E"/>
<stop offset="0.21" stop-color="#36286F"/>
<stop offset="0.39" stop-color="#47397D"/>
<stop offset="0.51" stop-color="#5F4CAA"/>
<stop offset="0.76" stop-color="#6D53D5"/>
<stop offset="1" stop-color="#8468F5"/>
</linearGradient>
<linearGradient id="paint2_linear" x1="26.6547" y1="196.845" x2="157.311" y2="55.9602" gradientUnits="userSpaceOnUse">
<stop stop-color="#F8C7C8"/>
<stop offset="0.25" stop-color="#DE7C83"/>
<stop offset="0.29" stop-color="#D2707B"/>
<stop offset="0.39" stop-color="#B65468"/>
<stop offset="0.49" stop-color="#A4435D"/>
<stop offset="0.56" stop-color="#9E3D59"/>
<stop offset="0.69" stop-color="#A1405B"/>
<stop offset="0.79" stop-color="#AA4961"/>
<stop offset="0.88" stop-color="#BA586B"/>
<stop offset="0.96" stop-color="#D06E7A"/>
<stop offset="1" stop-color="#DE7C83"/>
</linearGradient>
<linearGradient id="paint3_linear" x1="26.9611" y1="60.4055" x2="116.743" y2="110.6" gradientUnits="userSpaceOnUse">
<stop stop-color="#FEEAEA"/>
<stop offset="0.09" stop-color="#FEE9E9" stop-opacity="0.97"/>
<stop offset="0.22" stop-color="#FEE6E6" stop-opacity="0.89"/>
<stop offset="0.38" stop-color="#FEE0E0" stop-opacity="0.75"/>
<stop offset="0.57" stop-color="#FED9D9" stop-opacity="0.56"/>
<stop offset="0.77" stop-color="#FDCFD0" stop-opacity="0.31"/>
<stop offset="0.99" stop-color="#FDC4C5" stop-opacity="0.02"/>
<stop offset="1" stop-color="#FDC3C4" stop-opacity="0"/>
</linearGradient>
</defs>
</svg>
