<svg width="312" height="281" viewBox="0 0 312 281" fill="none" xmlns="http://www.w3.org/2000/svg">
<path d="M170.802 22.4363L70.5787 170.681C67.5058 175.269 67.533 182.22 70.6372 186.402L122.33 255.523C123.185 256.585 124.11 257.461 125.174 257.963L132.937 261.544C131.873 261.042 131.007 260.314 130.093 259.103L127.411 255.619L133.736 258.482C135.676 259.377 138.115 258.628 139.652 256.334L131.889 252.753C130.62 254.634 128.94 255.481 127.165 255.363L78.3303 190.17C75.5306 186.391 75.1661 180.041 77.5384 175.502L79.8533 176.614L180.076 28.3693L177.761 27.2577L178.495 26.2041C179.03 25.377 179.624 24.6975 180.277 24.1656C180.277 24.1656 180.277 24.1656 180.336 24.3133L232.099 93.2464C234.289 96.2187 234.254 101.2 232.112 104.509L239.875 108.089C242.075 104.928 242.052 99.7994 239.861 96.8271L188.168 27.7069C187.559 26.8999 186.88 26.2799 186.191 25.9947L180.93 23.6338C182.877 22.373 184.92 22.077 186.861 22.9722L179.098 19.3914C176.281 18.1028 173.071 19.0884 170.802 22.4363Z" fill="#71FFF4"/>
<path d="M235.245 101.325L205.504 145.482L205.546 148.176L236.711 102.058L235.245 101.325Z" fill="#71FFF4"/>
<path d="M206.263 51.9646L198.923 48.6704L222.141 80.1214L229.537 83.5583L206.263 51.9646Z" fill="#727272"/>
<path d="M222.387 79.7132L230.194 83.3138C230.006 83.205 229.759 82.9477 229.511 82.6904L221.704 79.0898C221.823 79.3868 222.011 79.4956 222.387 79.7132Z" fill="#727272"/>
<path d="M206.4 64.3973L198.831 60.981L199.014 145.008L206.459 148.463L206.4 64.3973Z" fill="#D2FDFF"/>
<path d="M209.416 47.9396C208.787 47.0207 207.577 47.0843 206.874 48.1054C206.171 49.1265 206.232 50.7045 206.86 51.6234L229.923 82.9707C230.552 83.8896 231.761 83.826 232.464 82.8049C233.168 81.7838 233.107 80.2058 232.479 79.2869L209.416 47.9396Z" fill="#727272"/>
<path d="M208.947 48.5304L201.138 44.9287C200.444 44.6418 199.669 44.8797 199.13 45.7115C198.393 46.7712 198.467 48.4148 199.139 49.375L206.948 52.9767C206.276 52.0165 206.202 50.3729 206.94 49.3132C207.478 48.4814 208.253 48.2435 208.947 48.5304Z" fill="#727272"/>
<path d="M118.167 224.526L110.7 221.062L123.134 237.951L130.726 241.375L118.167 224.526Z" fill="#A4F6FF"/>
<path d="M118.418 225.093L110.65 221.51L110.654 223.332L118.422 226.915L118.418 225.093Z" fill="#CCE4E5"/>
<path d="M190.868 40.3904L182.838 36.7847L171.885 53.1495L179.856 56.6047L190.868 40.3904Z" fill="#A4F6FF"/>
<path d="M184.816 39.3353L174.275 54.9159L174.727 194.331L204.41 150.135L204.153 65.3808L184.816 39.3353Z" fill="#A4F6FF"/>
<path d="M172.633 56.4L165.136 53.1326L165.25 191.357L172.802 194.767L172.633 56.4Z" fill="#A4F6FF"/>
<path d="M122.79 122.216L115.352 118.763L115.438 221.731L122.876 225.183L122.79 122.216Z" fill="#A4F6FF"/>
<path d="M82.7769 177.471L75.2968 174.086L111.175 222.962L118.533 226.385L82.7769 177.471Z" fill="#D2FDFF"/>
<path d="M96.8772 205.381L89.4154 201.919L102.546 219.544L110.008 223.005L96.8772 205.381Z" fill="#727272"/>
<path d="M98.5932 226.191L106.392 229.788C107.461 230.292 108.751 229.896 109.557 228.65C110.762 226.949 110.662 224.15 109.497 222.677L101.698 219.08C102.922 220.702 102.963 223.352 101.758 225.053C100.893 226.151 99.6031 226.546 98.5932 226.191Z" fill="#727272"/>
<path d="M91.4087 212.423L83.9519 208.963L96.9493 226.62L104.406 230.079L91.4087 212.423Z" fill="#727272"/>
<path d="M97.878 227.029L105.672 230.624C105.168 230.446 104.733 230.081 104.368 229.527L96.5739 225.933C96.9386 226.486 97.5022 226.812 97.878 227.029Z" fill="#727272"/>
<path d="M140.163 98.5198L132.735 95.0708L132.803 232.822L140.355 236.232L140.163 98.5198Z" fill="#D2FDFF"/>
<path d="M176.698 56.6642L168.716 53.2037L140.589 94.8278L148.5 98.4793L176.698 56.6642Z" fill="#D2FDFF"/>
<path d="M146.184 98.4841L138.364 94.8774L138.611 95.1351L146.431 98.7418L146.184 98.4841Z" fill="#D2FDFF"/>
<path d="M139.435 98.1135L124.168 120.923L124.317 224.102L136.874 240.95L139.974 236.438L139.671 98.3618L139.435 98.1135Z" fill="#A4F6FF"/>
<path d="M144.924 98.556L137.022 94.9091L120.967 118.757L128.869 122.404L144.924 98.556Z" fill="#A4F6FF"/>
<path d="M96.1314 205.078L88.3362 201.482C88.712 201.7 89.0877 201.917 89.4526 202.47L97.2478 206.066C96.883 205.512 96.6361 205.255 96.1314 205.078Z" fill="#727272"/>
<path d="M96.0619 204.419L88.2649 200.823C87.0083 200.21 85.4611 200.685 84.4557 202.158C83.1115 204.235 83.0719 207.408 84.5425 209.286L92.3395 212.882C90.8689 211.004 90.9085 207.831 92.2527 205.755C93.2581 204.281 94.6764 203.846 96.0619 204.419Z" fill="#727272"/>
<path d="M110.068 222.264C111.47 224.079 111.42 227.152 110.125 229.167C108.829 231.182 106.502 231.266 105.223 229.413L92.223 211.755C90.8208 209.94 90.8705 206.867 92.1663 204.852C93.4621 202.837 95.789 202.753 97.0675 204.606L110.068 222.264ZM92.4822 211.352L105.482 229.01C106.649 230.576 108.549 230.465 109.529 228.709C110.69 227.059 110.604 224.35 109.493 222.927L96.4932 205.269C95.3266 203.702 93.4268 203.814 92.4462 205.569C91.4655 207.325 91.4393 209.747 92.4822 211.352Z" fill="#727272"/>
<path d="M124.511 122.488L116.597 118.834L78.3139 175.272L86.3586 178.884L124.511 122.488Z" fill="#D2FDFF"/>
<path d="M240.096 96.2825C242.287 99.2555 242.38 104.199 240.109 107.547L139.862 255.826C137.661 258.988 134.029 259.274 131.837 256.301L80.1308 187.165C77.9396 184.192 77.8468 179.249 80.1172 175.9L180.365 27.6213C182.565 24.4597 186.198 24.1729 188.389 27.1459L240.096 96.2825ZM170.53 54.3392L142.878 95.3115L126.985 118.752L89.6456 174.134L127.655 224.773L140.754 242.129L143.956 237.5L171.341 196.941L201.927 151.753L232.514 106.565L201.452 65.0616L181.475 38.3835L170.53 54.3392ZM100.929 210.111L114.509 228.313C115.973 230.183 118.204 229.995 119.602 228.075C120.941 226.006 120.98 222.846 119.516 220.975L105.936 202.773C104.471 200.903 102.241 201.09 100.843 203.011C99.4455 204.932 99.593 208.201 100.929 210.111ZM223.988 81.5079L199.5 48.9233C198.832 47.9684 197.559 48.0279 196.826 49.0817C196.092 50.1356 196.166 51.7702 196.834 52.7251L221.322 85.3097C221.99 86.2646 223.263 86.2051 223.996 85.1513C224.66 84.2845 224.715 82.6105 223.988 81.5079Z" fill="#FCFCFC"/>
<path d="M169.844 56.2364L142.811 96.435L143.05 96.6855L143.596 235.796L170.368 196.004L169.844 56.2364Z" fill="#D2FDFF"/>
<path d="M122.054 122.045L85.5218 176.206L122.372 225.933L122.054 122.045Z" fill="#D2FDFF"/>
<path d="M241.565 93.861C244.67 98.0441 244.697 104.995 241.624 109.584L141.393 257.839C138.32 262.428 133.356 262.627 130.124 258.483L78.4261 189.358C75.3216 185.174 75.2356 178.076 78.3675 173.635L178.598 25.3794C181.671 20.7905 186.635 20.5918 189.868 24.7356L241.565 93.861ZM80.0078 175.948C77.8074 179.109 77.8306 184.238 80.0214 187.211L131.719 256.336C133.91 259.309 137.541 259.022 139.742 255.861L239.972 107.606C242.173 104.444 242.15 99.3151 239.959 96.3426L188.261 27.2171C186.071 24.2446 182.439 24.5314 180.238 27.6925L80.0078 175.948Z" fill="#5DD8D2"/>
<path d="M207.176 63.2578L207.411 148.037L237.35 103.868L207.176 63.2578Z" fill="#D2FDFF"/>
<path d="M96.6227 205.251C95.4598 203.687 93.5649 203.799 92.586 205.553C91.428 207.201 91.5122 209.906 92.6193 211.327L105.578 228.955C106.741 230.518 108.636 230.406 109.615 228.653C110.773 227.004 110.689 224.299 109.581 222.879L96.6227 205.251Z" fill="#FCFCFC"/>
</svg>
