<svg width="344" height="267" viewBox="0 0 344 267" fill="none" xmlns="http://www.w3.org/2000/svg">
<path d="M87.1374 32.139C89.7963 24.7799 99.4957 23.1878 104.368 29.3107L187.067 133.247C191.821 139.222 188.396 148.105 180.862 149.341L53.0287 170.325C45.4945 171.561 39.4095 164.24 42.0039 157.059L87.1374 32.139Z" fill="#8994FE" fill-opacity="0.2"/>
<path opacity="0.26" d="M155.045 250.371C155.086 250.487 155.126 250.604 155.167 250.72C155.289 251.069 155.37 251.302 155.492 251.651C155.533 251.768 155.574 251.884 155.614 252.001C155.696 252.233 155.934 252.542 156.016 252.775C156.056 252.891 156.097 253.007 156.213 252.967C156.452 253.275 156.533 253.508 156.772 253.817C156.813 253.933 156.929 253.892 156.97 254.009C157.208 254.317 157.406 254.509 157.604 254.701C157.644 254.818 157.761 254.777 157.801 254.894C158.04 255.202 158.238 255.394 158.552 255.546C158.592 255.662 158.709 255.621 158.75 255.738C158.947 255.93 159.302 256.198 159.5 256.39L159.657 256.466C159.971 256.617 160.169 256.809 160.524 257.077C160.681 257.153 160.681 257.153 160.838 257.228C161.152 257.38 161.35 257.572 161.664 257.723C161.821 257.799 161.821 257.799 161.978 257.875C162.293 258.026 162.45 258.102 162.764 258.253C162.921 258.329 163.037 258.288 163.078 258.405C163.352 258.44 163.666 258.591 163.939 258.626C164.096 258.702 164.213 258.661 164.37 258.737C164.643 258.772 164.8 258.848 165.074 258.883C165.231 258.958 165.464 258.877 165.621 258.953C165.894 258.988 166.051 259.063 166.325 259.098C166.441 259.058 166.598 259.133 166.715 259.093C166.988 259.128 167.262 259.163 167.495 259.081C167.611 259.041 167.611 259.041 167.727 259C168.117 258.994 168.391 259.029 168.74 258.907C168.856 258.867 168.973 258.826 168.973 258.826C169.322 258.704 169.595 258.739 169.945 258.617L170.061 258.576C170.41 258.454 170.759 258.332 171.225 258.169L331.043 202.303C331.392 202.181 331.741 202.059 332.207 201.896L332.323 201.856C332.673 201.734 332.865 201.536 333.214 201.414C333.33 201.373 333.447 201.332 333.447 201.332C333.755 201.094 334.104 200.972 334.296 200.774C334.413 200.733 334.413 200.733 334.529 200.693C334.721 200.495 334.954 200.414 335.146 200.216C335.263 200.175 335.338 200.018 335.455 199.977C335.647 199.78 335.839 199.582 335.915 199.425C335.99 199.268 336.223 199.186 336.299 199.029C336.491 198.831 336.683 198.634 336.759 198.477C336.835 198.319 336.951 198.279 337.027 198.122C337.219 197.924 337.37 197.61 337.562 197.412C337.638 197.255 337.754 197.214 337.714 197.098C337.865 196.784 338.057 196.586 338.092 196.312C338.168 196.155 338.168 196.155 338.244 195.998C338.395 195.684 338.43 195.41 338.582 195.096C338.657 194.939 338.657 194.939 338.733 194.782C338.884 194.468 338.92 194.194 339.03 193.764L339.106 193.607C339.141 193.333 339.292 193.019 339.287 192.629C339.246 192.513 339.362 192.472 339.322 192.356C339.357 192.082 339.351 191.692 339.503 191.378C339.462 191.262 339.578 191.221 339.538 191.105C339.573 190.831 339.567 190.441 339.602 190.168C339.561 190.051 339.678 190.011 339.637 189.894C339.672 189.621 339.55 189.272 339.544 188.882C339.504 188.765 339.463 188.649 339.579 188.608C339.614 188.335 339.492 187.986 339.411 187.753C339.37 187.636 339.329 187.52 339.289 187.404C339.207 187.171 339.085 186.822 338.963 186.472C338.923 186.356 338.882 186.24 338.841 186.123L307.307 95.9128C305.72 91.3732 301.776 88.3107 297.319 87.5175C296.888 87.4068 296.498 87.4125 296.109 87.4181C295.288 87.3131 294.392 87.3651 293.653 87.4928C292.797 87.6612 291.942 87.8297 291.127 88.1145L185.203 125.141L184.226 122.348C183.901 121.417 182.801 120.887 181.87 121.212L175.817 123.328C174.886 123.653 174.356 124.753 174.681 125.684L175.658 128.478L170.769 130.187L168.897 124.832C168.002 122.272 165.332 120.985 162.771 121.88L142.517 128.96C139.956 129.855 138.669 132.525 139.564 135.086L141.436 140.44L131.309 143.98C130.494 144.265 129.72 144.666 128.946 145.068C128.172 145.469 127.555 145.946 126.979 146.539C125.518 147.964 124.295 149.698 123.619 151.502C123.095 152.991 122.768 154.673 122.832 156.349C122.889 157.635 123.063 158.88 123.511 160.161L131.771 183.79L155.045 250.371Z" fill="#C6C2C2"/>
<path d="M276.803 81.8871L117.101 137.712C110.466 140.032 106.983 147.258 109.303 153.893L140.837 244.103C143.156 250.738 150.382 254.22 157.017 251.901L316.835 196.035C323.47 193.716 326.952 186.49 324.633 179.855L293.099 89.6447C290.78 83.0099 283.437 79.5678 276.803 81.8871Z" fill="#67BEFF"/>
<path d="M140.837 244.104C143.156 250.738 150.382 254.221 157.017 251.902L316.835 196.036C323.47 193.717 326.952 186.49 324.633 179.856L140.837 244.104Z" fill="#3FA3E0"/>
<path d="M301.318 113.158L293.058 89.5285C290.739 82.8937 283.513 79.4109 276.878 81.7302L117.06 137.596C110.426 139.915 106.943 147.142 109.262 153.776L117.522 177.406L301.318 113.158Z" fill="#F2F0F0"/>
<path d="M208.7 110.527C179.833 120.617 164.615 152.192 174.706 181.06C184.797 209.927 216.372 225.145 245.239 215.054C274.106 204.963 289.325 173.388 279.234 144.521C269.143 115.654 237.568 100.436 208.7 110.527ZM243.937 211.329C217.165 220.688 187.789 206.53 178.431 179.758C169.072 152.986 183.23 123.61 210.003 114.251C236.775 104.893 266.15 119.051 275.509 145.823C284.867 172.595 270.709 201.971 243.937 211.329Z" fill="white"/>
<path opacity="0.53" d="M243.937 211.329C270.744 201.959 284.88 172.63 275.509 145.823C266.138 119.016 236.81 104.881 210.003 114.251C183.195 123.622 169.06 152.95 178.431 179.758C187.802 206.565 217.13 220.7 243.937 211.329Z" fill="#686767"/>
<path d="M243.937 211.329C270.744 201.959 284.88 172.63 275.509 145.823C266.138 119.016 236.81 104.881 210.003 114.251C183.195 123.622 169.06 152.95 178.431 179.758C187.802 206.565 217.13 220.7 243.937 211.329Z" fill="#CCCACA"/>
<path d="M240.316 200.97C261.402 193.599 272.52 170.53 265.149 149.444C257.778 128.359 234.71 117.24 213.624 124.611C192.538 131.982 181.42 155.051 188.79 176.136C196.161 197.222 219.23 208.341 240.316 200.97Z" fill="#F2F0F0"/>
<path d="M215.048 128.685C196.191 135.277 186.156 155.896 192.789 174.869C199.421 193.842 220 203.761 238.973 197.128C257.946 190.496 267.865 169.917 261.232 150.944C254.6 131.971 233.905 122.093 215.048 128.685ZM237.915 194.102C220.688 200.124 201.837 191.039 195.815 173.811C189.793 156.584 198.879 137.733 216.106 131.711C233.333 125.689 252.184 134.775 258.206 152.002C264.304 169.072 255.142 188.08 237.915 194.102Z" fill="#CCCACA"/>
<path d="M239.331 143.97L205.692 155.729C203.48 156.502 202.269 159.016 203.042 161.227L209.552 179.851C210.325 182.063 212.839 183.274 215.05 182.501L248.69 170.742C250.901 169.969 252.113 167.456 251.34 165.244L244.83 146.62C244.016 144.292 241.543 143.197 239.331 143.97Z" fill="#686767"/>
<path d="M233.313 148.425L213.757 155.261C211.667 158.996 211.188 163.605 212.693 167.911C214.362 172.684 218.038 176.101 222.466 177.558L240.508 171.251C243.064 167.353 243.811 162.389 242.143 157.617C240.637 153.31 237.275 150.044 233.313 148.425Z" fill="#588AA0"/>
<path d="M223.844 165.058C226.223 164.227 227.477 161.625 226.645 159.246C225.814 156.867 223.212 155.613 220.833 156.445C218.454 157.276 217.2 159.878 218.032 162.257C218.863 164.636 221.465 165.89 223.844 165.058Z" fill="#F2F0F0"/>
<path d="M233.171 168.199C235.035 167.547 236.018 165.508 235.367 163.644C234.715 161.779 232.675 160.796 230.811 161.448C228.947 162.1 227.964 164.139 228.615 166.004C229.267 167.868 231.307 168.851 233.171 168.199Z" fill="#F2F0F0"/>
<path d="M148.563 115.613L128.309 122.692C125.748 123.588 124.461 126.258 125.356 128.819L127.228 134.173L156.561 123.92L154.689 118.565C153.835 116.121 151.007 114.758 148.563 115.613Z" fill="#686767"/>
<path d="M167.662 114.945L161.609 117.061C160.678 117.386 160.148 118.486 160.473 119.417L161.45 122.211L171.111 118.833L170.134 116.04C169.693 115.149 168.593 114.619 167.662 114.945Z" fill="#686767"/>
<path opacity="0.48" d="M145.785 133.825L126.696 140.498C120.643 142.614 117.579 149.171 119.655 155.107L148.178 236.704C150.293 242.757 156.85 245.821 162.787 243.745L181.877 237.072L145.785 133.825Z" fill="white"/>
<path opacity="0.48" d="M275.572 88.4568C272.429 89.5554 270.647 93.052 271.787 96.3112L303.89 188.151C304.989 191.294 308.485 193.076 311.745 191.937C317.797 189.821 320.861 183.264 318.786 177.327L290.263 95.7307C288.182 89.4044 281.625 86.3409 275.572 88.4568Z" fill="white"/>
<path d="M146.481 141.419L129.021 147.523C125.878 148.621 124.212 152.077 125.311 155.22L126.41 158.363C127.508 161.506 130.964 163.172 134.107 162.073L151.567 155.97C154.71 154.871 156.375 151.415 155.277 148.272L154.178 145.129C153.039 141.87 149.624 140.321 146.481 141.419Z" fill="#686767"/>
<path d="M165.036 146.298C166.901 145.646 167.884 143.607 167.232 141.742C166.58 139.878 164.541 138.895 162.677 139.547C160.812 140.198 159.829 142.238 160.481 144.102C161.133 145.966 163.172 146.949 165.036 146.298Z" fill="#588AA0"/>
<path d="M281.503 99.4458L265.789 104.939C263.811 105.631 262.751 107.83 263.442 109.809C264.134 111.787 266.333 112.847 268.312 112.156L284.026 106.663C286.005 105.971 287.065 103.772 286.373 101.793C285.681 99.8141 283.482 98.7541 281.503 99.4458Z" fill="#67BEFF"/>
</svg>
