<svg width="339" height="320" viewBox="0 0 339 320" fill="none" xmlns="http://www.w3.org/2000/svg">
<path d="M90.8488 319.512C138.669 319.303 148.317 292.036 157.336 281.13C189.007 242.958 251.089 258.478 289.052 229.325C342.955 188.006 329.112 53.5633 239.344 53.3535C210.82 53.3535 180.617 56.9191 157.965 74.3274C130.699 95.5111 120.632 130.328 97.5605 154.867C85.1859 168.29 73.021 166.822 58.7587 174.792C-9.82591 213.175 10.9383 319.932 90.8488 319.512Z" fill="#3B63FF"/>
<path d="M202.64 279.663C207.464 244.636 148.527 290.15 164.048 308.187C170.34 315.528 198.236 312.382 202.64 279.663Z" fill="#3B63FF"/>
<path d="M259.899 196.186C265.562 194.718 269.337 189.265 270.386 181.085C270.386 180.666 271.015 180.666 271.015 181.085C272.064 189.265 275.839 194.718 281.502 196.186C281.921 196.186 281.921 197.025 281.502 197.025C275.839 198.493 272.064 203.947 271.015 212.126C271.015 212.546 270.386 212.546 270.386 212.126C269.337 203.947 265.562 198.493 259.899 197.025C259.689 196.816 259.689 196.186 259.899 196.186Z" fill="white"/>
<path d="M69.0369 240.022C74.6999 238.554 78.4752 233.101 79.5238 224.921C79.5238 224.502 80.1531 224.502 80.1531 224.921C81.2018 233.101 84.9771 238.554 90.64 240.022C91.0595 240.022 91.0595 240.861 90.64 240.861C84.9771 242.329 81.2018 247.783 80.1531 255.962C80.1531 256.382 79.5238 256.382 79.5238 255.962C78.4752 247.783 74.6999 242.329 69.0369 240.861C68.6174 240.861 68.6174 240.022 69.0369 240.022Z" fill="white"/>
<path d="M93.1563 262.463C96.5122 261.624 98.6095 258.478 99.2388 253.654C99.2388 253.445 99.6582 253.445 99.6582 253.654C100.287 258.478 102.385 261.624 105.741 262.463C105.95 262.463 105.95 262.883 105.741 262.883C102.385 263.722 100.287 266.868 99.6582 271.692C99.6582 271.902 99.2388 271.902 99.2388 271.692C98.6095 266.868 96.5122 263.722 93.1563 262.883C92.9466 263.093 92.9466 262.673 93.1563 262.463Z" fill="white"/>
<path d="M182.296 132.425C182.296 128.86 182.925 124.246 182.925 123.826C184.184 114.807 185.652 98.238 204.738 103.901C230.955 111.661 205.787 140.186 205.787 140.186" stroke="#F44945" stroke-width="0.8321" stroke-miterlimit="10" stroke-linecap="round"/>
<path d="M220.468 244.845L200.124 242.328L209.981 232.89L220.259 230.583L220.468 244.845Z" fill="#BA8E9E"/>
<path d="M146.64 125.295L225.083 147.527L201.592 255.333C201.592 255.333 151.884 258.689 106.161 214.644C105.951 215.063 146.64 125.295 146.64 125.295Z" fill="#FFD7E2"/>
<path d="M235.57 142.283L220.468 244.846L215.225 236.876L201.592 255.542L225.083 147.527L235.57 142.283Z" fill="#E2AABF"/>
<path d="M175.584 142.284C175.375 141.445 174.955 140.815 174.326 140.186C174.116 139.976 173.697 139.767 173.487 139.557C172.858 139.137 172.019 138.928 171.18 138.928C170.551 138.928 169.921 139.137 169.502 139.347C168.873 139.557 168.453 139.767 168.034 140.186C167.614 140.606 167.195 141.025 167.195 141.654C166.985 142.284 166.775 142.703 166.775 143.332L166.985 144.591C167.195 145.43 167.614 146.059 168.243 146.688C168.453 146.898 168.873 147.108 169.082 147.317C169.712 147.737 170.551 147.946 171.39 147.946C172.019 147.946 172.648 147.737 173.067 147.527C173.697 147.317 174.116 147.108 174.536 146.688C174.955 146.269 175.375 145.849 175.375 145.22C175.584 144.591 175.794 144.171 175.794 143.542L175.584 142.284Z" fill="#FF635A"/>
<path d="M197.607 148.995C197.397 148.785 197.187 148.366 196.978 148.156C196.558 147.737 196.139 147.317 195.51 147.107C195.09 146.898 194.671 146.898 194.461 146.898C193.832 146.688 193.202 146.688 192.573 146.898C192.154 147.107 191.944 147.107 191.525 147.317C191.315 147.527 190.895 147.737 191.105 147.737C190.895 147.946 190.895 147.946 190.686 148.156C190.476 148.366 190.266 148.785 190.056 148.995C189.637 149.624 189.427 150.463 189.427 151.092C189.427 151.512 189.427 151.931 189.637 152.351C189.847 153.19 190.266 153.819 190.895 154.448C191.315 154.868 191.524 155.077 191.734 155.077C192.154 155.287 192.363 155.497 192.783 155.497C193.622 155.707 194.461 155.707 195.09 155.497C195.929 155.287 196.558 154.868 196.978 154.238C197.607 153.609 198.026 152.98 198.236 152.351C198.446 151.931 198.446 151.512 198.446 151.092C198.236 150.673 198.026 149.414 197.607 148.995Z" fill="#FF635A"/>
<path d="M172.648 140.815C172.648 140.815 172.228 100.126 196.139 109.564C219.839 119.002 194.671 150.673 194.671 150.673" stroke="#F44945" stroke-width="0.8321" stroke-miterlimit="10" stroke-linecap="round"/>
<path d="M169.292 122.358L146.64 125.295L167.824 131.377L169.502 122.358H169.292Z" fill="#EA433F"/>
<path d="M169.502 122.358L167.824 131.377L177.262 134.104C177.262 133.684 177.472 133.475 177.682 133.055C177.891 132.426 178.101 132.006 178.521 131.587C178.94 131.167 179.36 130.748 179.989 130.748C180.618 130.538 181.038 130.328 181.667 130.328C182.506 130.328 183.345 130.538 183.974 130.958C184.184 131.167 184.603 131.377 184.813 131.587C185.442 132.216 185.862 132.845 186.071 133.684L186.281 134.943C186.281 135.572 186.071 136.201 185.862 136.621L200.124 140.606V140.396C200.334 140.186 200.543 139.767 200.753 139.557C200.963 139.347 200.963 139.347 201.172 139.138C200.963 139.347 201.382 138.928 201.592 138.718C202.011 138.508 202.221 138.508 202.641 138.299C203.27 138.089 203.899 138.089 204.528 138.299C204.948 138.299 205.367 138.508 205.577 138.508C206.206 138.718 206.626 138.928 207.045 139.557C207.255 139.767 207.465 140.186 207.674 140.396C208.094 141.025 208.304 142.074 208.304 142.703C208.304 142.913 208.304 142.913 208.304 143.123L224.663 147.737L235.15 142.493L169.502 122.358Z" fill="#FF635A"/>
<path d="M157.337 170.598H157.127C156.918 170.598 156.708 170.598 156.498 170.807H156.288C156.079 170.807 155.869 171.017 155.659 171.017C155.24 171.227 154.82 171.646 154.191 171.856C153.771 172.276 153.142 172.485 152.723 172.905C152.513 173.115 152.303 173.324 152.094 173.324C151.884 173.534 151.674 173.744 151.464 174.163C151.255 174.583 151.255 175.212 151.464 175.422C151.674 175.841 152.303 176.051 152.723 175.841C153.352 175.631 153.771 175.212 154.191 175.002C154.82 174.583 155.24 174.163 155.659 173.953C156.079 173.534 156.498 173.324 156.918 172.905C157.127 172.695 157.127 172.695 157.337 172.485C157.337 172.485 157.337 172.485 157.337 172.276C157.547 172.066 157.756 171.646 157.756 171.437C157.966 171.017 157.756 170.598 157.337 170.598Z" fill="#FF635A"/>
<path d="M196.139 174.792C195.929 174.582 195.929 174.373 195.719 174.163C195.3 173.534 194.67 173.114 194.041 172.695C192.993 172.066 191.944 171.436 190.685 171.227C190.266 171.227 189.637 171.227 189.427 171.856C189.217 172.275 189.427 172.904 189.846 173.114C190.266 173.324 190.895 173.534 191.315 173.953C191.524 174.163 191.734 174.163 191.944 174.373L192.154 174.582C192.154 174.582 192.154 174.582 192.363 174.792C192.783 175.212 193.202 175.421 193.622 175.841C193.832 176.051 194.041 176.26 194.251 176.26C194.461 176.47 194.67 176.68 194.88 176.68C195.09 176.68 195.09 176.68 195.3 176.68C195.719 176.68 196.139 176.47 196.348 176.051C196.348 175.841 196.348 175.631 196.348 175.631C196.348 175.212 196.139 175.002 196.139 174.792Z" fill="#FF635A"/>
<path d="M187.749 193.46C187.33 193.25 187.12 193.25 186.7 193.46C186.491 193.67 186.071 193.67 185.861 193.88C185.652 194.089 185.232 194.299 185.022 194.509C184.813 194.718 184.603 194.718 184.393 194.928C183.554 195.767 183.135 196.816 182.715 197.865C182.715 198.074 182.715 198.494 182.925 198.704C183.135 198.913 183.345 199.123 183.554 199.123C183.974 199.333 184.813 199.123 185.022 198.704C185.232 198.284 185.442 197.865 185.861 197.445C186.071 197.235 186.281 197.026 186.281 196.816C186.491 196.606 186.7 196.396 186.91 196.187C187.12 195.977 187.33 195.767 187.539 195.557C187.749 195.348 187.749 195.348 187.959 195.138C188.169 194.928 188.169 194.718 188.169 194.509C188.378 193.88 188.169 193.67 187.749 193.46Z" fill="#FF635A"/>
<path d="M174.955 163.886C174.955 163.467 174.955 163.047 174.955 162.628C174.955 162.418 174.745 161.998 174.536 161.789C174.326 161.579 173.906 161.369 173.697 161.369C173.067 161.369 172.648 161.789 172.438 162.628C172.438 163.047 172.438 163.467 172.438 163.886C172.438 164.096 172.438 164.515 172.438 164.725C172.438 165.144 172.648 165.564 172.858 165.983C173.067 166.193 173.277 166.403 173.697 166.403C173.906 166.403 174.326 166.193 174.536 165.983C174.745 165.774 174.955 165.354 174.955 164.935C174.955 164.515 174.955 164.096 174.955 163.886Z" fill="#FF635A"/>
<path d="M156.498 145.639C156.288 145.639 155.869 145.639 155.659 145.639C155.659 145.639 155.449 145.639 155.659 145.639C155.449 145.639 155.24 145.639 155.24 145.639C155.03 145.639 154.82 145.639 154.61 145.848C153.981 146.058 153.352 146.268 152.723 146.687C152.093 146.897 151.674 147.317 151.045 147.526C150.416 147.946 149.996 148.365 149.367 148.785C148.947 149.204 148.947 149.833 149.367 150.043C149.786 150.463 150.206 150.463 150.625 150.253C151.255 150.043 151.674 149.624 152.303 149.414C152.932 148.995 153.352 148.785 153.981 148.575C154.61 148.365 155.03 147.946 155.659 147.736C155.869 147.526 156.078 147.526 156.078 147.317L156.288 147.107C156.498 146.897 156.708 146.687 156.917 146.478C157.127 146.058 156.917 145.639 156.498 145.639Z" fill="#FF635A"/>
<path d="M141.397 200.171C141.397 199.962 141.187 199.752 141.187 199.542C140.977 199.332 140.977 198.913 140.768 198.703L139.719 197.025C139.509 196.606 138.88 196.396 138.46 196.606C138.041 196.815 137.831 197.445 138.041 197.864C138.46 198.493 138.67 198.913 139.09 199.542C139.299 199.752 139.509 200.171 139.719 200.381C139.929 200.591 139.929 200.801 140.138 200.801C140.348 200.801 140.348 201.01 140.558 201.01C140.977 201.22 141.397 201.01 141.397 200.591C141.397 200.591 141.397 200.381 141.397 200.171Z" fill="#FF635A"/>
<path d="M178.521 216.74C178.311 216.74 177.891 216.74 177.682 216.74C177.472 216.95 177.052 216.95 176.843 216.95C176.423 217.16 175.794 217.579 175.375 217.999C174.536 218.628 173.906 219.677 173.277 220.516C172.858 220.935 173.067 221.774 173.697 221.984C174.326 222.193 174.955 222.193 175.165 221.564L175.375 221.354C175.584 221.145 175.794 220.935 175.794 220.725C176.214 220.306 176.423 220.096 176.843 219.677C177.262 219.467 177.472 219.047 177.891 218.838C178.101 218.628 178.101 218.628 178.311 218.418C178.311 218.418 178.311 218.418 178.521 218.208C178.73 217.999 178.94 217.789 178.94 217.579C179.36 217.369 178.94 216.95 178.521 216.74Z" fill="#FF635A"/>
<path d="M213.547 158.013C213.337 157.594 213.337 157.384 213.128 156.965C212.918 156.335 212.708 155.496 212.289 154.867C212.079 154.448 211.659 154.028 211.24 154.028C210.82 154.028 210.191 154.448 210.401 155.077C210.401 155.706 210.611 156.545 210.611 157.174C210.82 158.223 210.82 159.482 211.659 160.111C211.869 160.32 212.289 160.53 212.708 160.32C212.918 160.32 213.128 159.901 213.337 159.691C213.547 159.272 213.547 158.643 213.547 158.013Z" fill="#FF635A"/>
<path d="M211.869 184.861C211.659 184.861 211.45 184.651 211.03 184.861C210.82 184.861 210.82 185.071 210.611 185.071C210.401 185.071 210.191 185.28 209.981 185.28C209.772 185.28 209.772 185.49 209.562 185.49C208.933 185.909 208.513 186.119 207.884 186.539C207.465 186.748 207.255 187.378 207.465 187.797C207.674 188.217 208.304 188.426 208.723 188.217C209.352 187.797 209.772 187.587 210.401 187.168C210.82 186.958 211.03 186.748 211.45 186.539C211.659 186.539 211.659 186.329 211.869 186.119C212.079 185.91 212.079 185.7 212.079 185.49C212.289 185.28 212.079 184.861 211.869 184.861Z" fill="#FF635A"/>
<path d="M177.052 183.602C177.052 183.182 177.052 182.973 177.052 182.763C177.052 182.973 177.052 182.973 177.052 183.182V182.973C177.052 182.763 177.052 182.763 177.052 182.553V182.343C177.052 182.134 177.052 182.134 177.052 181.924C177.052 181.924 177.052 181.714 177.052 181.924C177.052 181.504 177.052 181.295 176.633 181.085C176.213 180.875 175.794 181.085 175.584 181.295C175.374 181.295 175.165 181.504 175.165 181.714C175.165 181.714 175.165 181.924 174.955 181.924L175.165 181.714C175.165 181.924 174.955 181.924 174.955 182.134C174.745 182.343 174.745 182.763 174.745 182.973C174.745 183.182 174.745 183.602 174.745 183.812C174.955 184.441 175.165 185.07 175.794 185.28C176.213 185.489 176.633 185.489 176.843 185.28C177.262 185.07 177.262 184.65 177.472 184.231C177.052 184.021 177.052 183.812 177.052 183.602Z" fill="#FF635A"/>
<path d="M151.464 217.58C151.045 217.58 150.625 217.37 150.416 217.58C150.206 217.58 149.786 217.789 149.577 217.789C148.947 217.999 148.318 218.418 147.899 218.838C146.85 219.467 146.011 220.306 145.172 221.355C144.753 221.774 144.753 222.404 145.172 222.823C145.592 223.242 146.221 223.242 146.64 222.823C146.85 222.613 147.06 222.404 147.27 222.194C147.479 222.194 147.479 221.984 147.689 221.984C148.108 221.565 148.528 221.355 149.157 221.145C149.577 220.935 150.206 220.516 150.625 220.306C150.835 220.096 151.045 220.096 151.255 219.887C151.674 219.677 151.674 219.467 152.094 219.048C152.303 218.209 152.094 217.58 151.464 217.58Z" fill="#FF635A"/>
<path d="M163 193.669C163 193.46 162.79 193.25 162.79 193.04C162.58 192.83 162.58 192.621 162.371 192.621C162.161 192.411 161.951 192.201 161.742 192.201C161.532 192.201 161.322 191.991 161.322 191.991C160.483 191.572 159.854 191.362 159.015 191.362C158.805 191.362 158.386 191.362 158.176 191.362C157.966 191.572 157.756 191.782 157.756 191.991C157.547 192.411 157.966 193.04 158.386 193.25C158.805 193.25 159.015 193.46 159.434 193.46C159.644 193.46 159.854 193.669 159.854 193.669C159.854 193.669 160.064 193.669 160.064 193.879C160.273 193.879 160.483 194.089 160.693 194.089C160.903 194.089 161.112 194.299 161.322 194.299C161.532 194.299 161.532 194.508 161.742 194.508C161.951 194.508 162.161 194.508 162.371 194.508C162.79 194.508 163.21 194.089 163 193.669Z" fill="#FF635A"/>
<path d="M136.782 177.729V177.519V177.729C136.782 177.519 136.782 177.519 136.782 177.31C136.782 177.1 136.783 176.89 136.573 176.68C136.363 176.471 136.153 176.471 135.944 176.471C135.734 176.471 135.524 176.68 135.314 176.68C135.105 176.68 135.105 176.89 134.895 177.1C134.895 177.1 134.895 177.1 134.895 177.31C134.475 177.729 134.266 178.149 134.056 178.568C133.636 179.407 133.427 180.246 133.007 181.085C132.797 181.714 133.217 182.553 133.846 182.763C134.475 182.973 135.314 182.553 135.524 181.924C135.734 181.295 135.944 180.875 136.153 180.246C136.153 180.036 136.363 179.827 136.363 179.617C136.573 179.197 136.782 178.778 136.782 178.358C136.782 178.568 136.782 178.568 136.782 178.778V178.568C136.782 178.358 136.782 178.149 136.782 177.729C136.782 177.939 136.782 177.939 136.782 177.729Z" fill="#FF635A"/>
<path d="M120.633 206.464C120.633 206.044 120.633 205.834 120.423 205.415C120.213 204.995 120.003 204.786 119.794 204.576C119.584 204.576 119.584 204.576 119.374 204.366C119.164 204.366 118.955 204.366 118.745 204.366C118.535 204.366 118.535 204.366 118.326 204.366C118.116 204.366 117.906 204.576 117.906 204.576C117.696 204.786 117.487 205.205 117.487 205.625C117.487 205.834 117.487 205.834 117.487 206.044C117.487 205.834 117.487 205.834 117.487 205.625C117.487 205.834 117.487 206.044 117.487 206.254V206.464C117.487 206.673 117.487 207.093 117.487 207.303V206.883C117.487 207.093 117.487 207.093 117.487 207.303C117.487 207.512 117.487 207.722 117.487 207.932C117.487 207.932 117.487 208.142 117.696 208.142C117.696 208.142 117.696 207.932 117.487 207.932C117.487 208.142 117.696 208.351 117.906 208.561L118.116 208.771C118.326 208.771 118.535 208.98 118.535 208.98C118.745 208.98 118.955 208.98 119.164 208.771C119.164 208.771 119.164 208.771 119.374 208.771C119.584 208.561 119.794 208.561 119.794 208.351V208.142C119.794 208.142 119.794 207.932 120.003 207.932C120.003 207.722 120.213 207.512 120.213 207.303C120.633 206.883 120.633 206.673 120.633 206.464Z" fill="#FF635A"/>
<path d="M194.88 239.183C193.622 240.022 192.783 241.28 191.944 242.539C191.315 243.797 190.476 245.056 189.847 246.104C189.427 246.733 189.637 247.363 190.266 247.782C190.895 248.202 191.524 247.992 191.944 247.363C192.783 246.104 193.412 245.056 194.251 243.797C194.671 243.168 194.88 242.539 195.3 241.909C195.51 241.49 195.509 241.28 195.719 240.861C195.929 240.441 195.929 240.022 195.929 239.602C195.929 239.183 195.3 238.973 194.88 239.183Z" fill="#FF635A"/>
<path d="M175.165 235.617C174.955 235.617 174.955 235.407 174.745 235.407C174.536 235.407 174.326 235.407 174.116 235.407H174.326C173.697 235.198 172.858 235.617 172.228 236.037C171.809 236.246 171.389 236.456 170.97 236.876C170.551 237.085 170.341 237.714 170.551 238.134C170.76 238.553 171.18 238.763 171.599 238.763C172.019 238.553 172.438 238.553 172.858 238.344C173.067 238.344 173.487 238.134 173.697 237.924C174.116 237.714 174.326 237.505 174.536 237.085L174.326 237.295C174.536 237.085 174.536 237.085 174.745 236.876C174.745 236.666 174.955 236.666 174.955 236.456C175.584 236.037 175.375 235.617 175.165 235.617Z" fill="#FF635A"/>
<path d="M202.221 211.077C202.221 210.867 202.011 210.658 202.011 210.448C201.802 210.238 201.592 210.238 201.382 210.238C200.963 210.238 200.753 210.448 200.543 210.658L200.333 210.867C199.914 211.077 199.704 211.497 199.494 211.706C199.285 211.916 199.285 212.126 199.075 212.336C198.655 213.175 198.236 214.223 198.026 215.062C198.026 215.482 198.026 215.691 198.236 216.111C198.446 216.321 198.655 216.53 199.075 216.74C199.704 216.95 200.543 216.53 200.753 215.901C200.753 215.482 200.963 215.062 201.172 214.643C201.172 214.643 201.172 214.433 201.382 214.433C201.382 214.223 201.592 214.014 201.592 213.804C201.592 213.594 201.802 213.384 201.802 213.175C202.011 212.965 202.011 212.545 202.221 212.336L202.431 212.126C202.221 211.706 202.221 211.497 202.221 211.077Z" fill="#FF635A"/>
<path d="M169.502 205.834C169.292 205.625 169.082 205.415 168.663 205.205C168.453 205.205 168.243 205.205 168.034 205.205C167.824 205.205 167.824 205.205 167.614 205.205C166.985 205.205 166.356 205.205 165.936 205.205C165.307 205.205 164.888 205.625 164.888 206.254C164.888 206.883 165.307 207.302 165.936 207.302C166.565 207.302 167.195 207.302 167.614 207.302C167.824 207.302 167.824 207.302 168.034 207.302C168.243 207.302 168.453 207.302 168.663 207.302C169.082 207.302 169.292 207.093 169.502 206.673C169.502 206.464 169.712 206.254 169.712 206.254C169.502 206.254 169.502 206.044 169.502 205.834Z" fill="#FF635A"/>
<path d="M130.281 217.999C130.281 217.16 130.071 216.321 130.071 215.483C130.071 215.063 129.651 214.644 129.232 214.644C128.812 214.644 128.393 215.063 128.393 215.483L128.183 217.999C128.183 218.419 128.183 218.838 128.183 219.258C128.183 219.468 128.183 219.887 128.393 220.097C128.393 220.307 128.603 220.516 128.603 220.516C128.812 220.726 128.812 221.355 129.442 221.355C129.861 221.355 130.071 220.936 130.281 220.516C130.49 220.307 130.49 220.307 130.49 220.097C130.49 219.887 130.7 219.468 130.7 219.258C130.49 218.629 130.49 218.419 130.281 217.999Z" fill="#FF635A"/>
<path d="M142.655 160.74C142.445 160.53 142.445 160.53 142.236 160.53H142.026H141.816C141.607 160.53 141.397 160.53 141.187 160.53C140.977 160.53 140.558 160.53 140.348 160.53H140.138C139.929 160.53 139.719 160.74 139.719 160.74C139.719 160.74 139.509 160.74 139.509 160.95C139.299 160.95 139.299 161.159 139.299 161.159C139.299 161.159 139.09 161.16 139.09 161.369C138.67 161.579 138.67 161.998 138.67 162.418C138.67 162.837 139.09 163.047 139.299 163.257H139.509C139.509 163.257 139.719 163.467 139.929 163.467H140.138C140.348 163.467 140.558 163.467 140.768 163.467H140.977C141.187 163.467 141.397 163.467 141.606 163.467C141.816 163.467 142.026 163.257 142.026 163.257C142.236 163.257 142.445 163.047 142.445 163.047C142.655 163.047 142.865 162.837 142.865 162.628C143.075 162.418 143.075 162.208 143.075 161.998C143.075 161.16 142.865 160.74 142.655 160.74Z" fill="#FF635A"/>
<path d="M151.674 132.216C151.464 132.216 151.255 132.216 151.255 132.216H151.045C150.835 132.216 150.625 132.216 150.416 132.426C150.206 132.635 149.996 132.635 149.996 132.845C149.786 133.055 149.577 133.265 149.367 133.474C148.947 133.894 148.738 134.523 148.318 135.152C148.108 135.362 148.108 135.572 148.318 135.991C148.318 136.201 148.528 136.411 148.738 136.62C149.157 136.83 149.786 136.83 149.996 136.201C149.996 135.991 150.206 135.991 150.416 135.781C150.625 135.572 150.835 135.152 151.045 134.942C151.255 134.733 151.255 134.733 151.464 134.523L151.674 134.313C151.884 134.103 151.884 133.894 151.884 133.684L152.094 133.474C152.094 133.265 152.094 133.265 152.303 133.055C152.303 132.635 151.884 132.216 151.674 132.216Z" fill="#FF635A"/>
<path d="M218.581 167.242C218.371 167.242 218.161 167.032 217.952 167.032H217.742C217.322 166.822 216.693 167.032 216.064 167.242C215.644 167.452 215.225 167.452 214.806 167.661C214.596 167.871 214.386 167.871 214.176 168.081C213.967 168.291 213.967 168.291 213.757 168.5C213.547 168.71 213.337 169.13 213.547 169.549C213.757 169.969 213.967 170.178 214.386 170.178C214.596 170.178 214.806 170.178 215.015 170.178C215.225 170.178 215.644 170.178 215.854 170.178C216.274 170.178 216.693 169.969 216.903 169.759C217.322 169.549 217.952 169.339 218.161 169.13C218.161 169.13 218.371 169.13 218.371 168.92C218.581 168.71 218.791 168.5 218.791 168.291C219.21 167.871 219 167.452 218.581 167.242Z" fill="#FF635A"/>
<path d="M229.697 162.628C229.487 162.209 229.277 161.999 229.068 161.789C228.858 161.789 228.648 161.789 228.438 161.789C228.229 161.789 228.229 161.999 228.019 161.999C227.809 162.209 227.6 162.418 227.6 162.628C227.6 162.838 227.39 163.048 227.39 163.048C227.18 163.257 227.18 163.467 227.18 163.886V164.096C227.18 164.306 227.18 164.306 227.18 164.516C227.18 164.725 227.18 164.935 227.18 165.145C227.18 165.355 227.39 165.564 227.39 165.564C227.6 165.564 227.6 165.774 227.809 165.774C228.019 165.774 228.019 165.774 228.229 165.774C228.648 165.774 229.068 165.564 229.068 165.145V164.935C229.277 164.725 229.277 164.516 229.277 164.306V164.096C229.277 163.886 229.487 163.677 229.487 163.467C229.487 163.257 229.487 163.047 229.697 162.838V162.628C229.697 162.838 229.697 163.047 229.697 162.628Z" fill="#FF635A"/>
<path d="M221.937 194.928C221.937 194.718 221.937 194.508 221.727 194.298C221.517 194.089 221.517 194.089 221.307 193.879C221.098 193.879 220.888 193.879 220.888 193.879C220.678 193.879 220.468 193.879 220.259 193.879C220.049 193.879 219.839 194.089 219.839 194.089C219.629 194.089 219.629 194.298 219.42 194.298C219.21 194.508 219.21 194.508 219 194.718L218.79 194.928C218.581 195.137 218.581 195.347 218.371 195.557V195.767C218.371 195.976 218.371 196.186 218.371 196.396C218.581 196.606 218.581 196.815 218.79 196.815C219 196.815 219.42 197.025 219.629 196.815H219.839C220.049 196.815 220.259 196.606 220.259 196.606C220.468 196.606 220.468 196.396 220.678 196.396C220.888 196.186 220.888 196.186 221.098 195.976C221.307 195.767 221.307 195.557 221.517 195.347C221.937 195.137 221.937 195.137 221.937 194.928Z" fill="#FF635A"/>
<path d="M218.581 216.112C218.581 215.902 218.581 215.902 218.581 215.692C218.581 215.483 218.581 215.273 218.371 215.063C218.161 214.853 217.952 214.854 217.742 214.854C217.532 214.854 217.322 214.854 217.113 214.854C216.903 214.854 216.903 214.853 216.693 215.063H216.483C216.274 215.063 216.064 215.273 215.644 215.483C215.435 215.483 215.435 215.692 215.225 215.692C214.805 215.902 214.596 216.322 214.386 216.741C214.386 216.951 214.176 216.951 214.176 217.161C214.176 217.37 213.966 217.37 213.966 217.58C213.757 218 213.547 218.209 213.547 218.629C213.547 219.048 213.547 219.258 213.757 219.678C213.966 219.887 214.386 220.097 214.805 219.887C215.644 219.678 216.274 219.048 216.903 218.629C217.322 218.419 217.532 218 217.742 217.58C217.742 217.37 217.951 217.37 217.951 217.161C218.161 216.951 218.161 216.531 218.161 216.322C218.581 216.322 218.581 216.112 218.581 216.112Z" fill="#FF635A"/>
<path d="M222.356 206.253C222.356 206.043 222.356 206.043 222.356 205.834C222.356 205.834 222.356 205.834 222.146 205.624L221.937 205.414H221.727C221.727 205.414 221.727 205.414 221.517 205.414H221.307C221.098 205.414 221.098 205.414 220.888 205.414H220.049C219.839 205.414 219.629 205.414 219.42 205.624C219.21 205.834 219.21 206.043 219.21 206.253C219.21 206.463 219.21 206.672 219.42 206.882C219.629 207.092 219.839 207.092 220.049 207.092C220.259 207.092 220.468 207.092 220.888 207.092C221.098 207.092 221.307 207.092 221.517 207.092H221.727H221.937L222.146 206.882C222.146 206.882 222.356 206.882 222.356 206.672C222.146 206.463 222.356 206.463 222.356 206.253Z" fill="#FF635A"/>
<path d="M223.405 178.568C223.405 178.358 223.405 178.148 223.195 177.939C222.985 177.729 222.985 177.519 222.566 177.309C222.356 177.1 222.146 177.1 221.727 177.1C221.727 177.1 221.727 177.1 221.517 177.1C221.307 177.1 221.098 177.1 220.888 177.309C220.678 177.309 220.468 177.519 220.468 177.519C220.259 177.729 220.259 177.729 220.259 177.939C220.259 178.148 220.049 178.358 220.049 178.568C220.049 178.778 220.049 178.778 220.049 178.987C220.049 179.197 220.259 179.407 220.468 179.616L220.678 179.826C220.888 180.036 221.098 180.036 221.517 180.036C221.517 180.036 221.517 180.036 221.727 180.036C221.937 180.036 222.146 180.036 222.566 179.826C222.776 179.616 222.985 179.616 223.195 179.197C223.405 178.987 223.405 178.778 223.405 178.568Z" fill="#FF635A"/>
<path d="M233.472 147.946C233.472 147.946 233.472 147.736 233.472 147.946C233.472 147.736 233.472 147.736 233.472 147.946C233.472 147.736 233.472 147.736 233.472 147.526C233.472 147.317 233.263 147.107 233.263 147.107L233.053 146.897C232.843 146.897 232.843 146.897 232.633 146.688C232.424 146.688 232.214 146.688 232.004 146.688H231.794C231.794 146.688 231.794 146.688 231.585 146.688C231.375 146.688 231.375 146.687 231.165 146.897C230.955 146.897 230.955 147.107 230.746 147.317C230.746 147.317 230.536 147.317 230.536 147.526L230.326 147.736C230.326 147.736 230.116 147.946 230.116 148.156V148.365C230.116 148.575 230.116 148.575 230.116 148.785C230.116 148.995 230.326 149.204 230.326 149.204C230.536 149.414 230.746 149.414 230.955 149.414C231.165 149.624 231.375 149.624 231.585 149.624C231.794 149.624 232.004 149.624 232.214 149.624H232.424C232.633 149.624 232.633 149.624 232.633 149.414C232.843 149.414 232.843 149.204 232.843 149.204C232.843 149.204 232.843 149.204 233.053 148.995L233.263 148.575C233.472 148.365 233.472 148.365 233.472 147.946C233.682 148.156 233.472 147.946 233.472 147.946Z" fill="#FF635A"/>
<path d="M196.978 227.018C196.768 226.808 196.558 226.599 196.348 226.389C196.139 226.389 196.139 226.179 195.929 226.179C196.139 226.389 195.929 226.179 195.719 225.969C195.3 225.76 194.671 225.55 194.251 225.34C193.412 225.13 192.363 224.921 191.524 224.711C191.105 224.711 190.685 224.711 190.476 225.13C190.266 225.55 190.476 225.969 190.895 226.179C191.734 226.599 192.783 227.018 193.622 227.438C194.041 227.647 194.67 227.857 195.09 227.857H195.3C195.509 227.857 195.509 227.857 195.719 227.857C196.139 227.857 196.348 227.857 196.558 227.647C196.768 227.857 197.187 227.228 196.978 227.018Z" fill="#FF635A"/>
<path d="M160.693 229.115C160.483 228.906 160.064 228.906 159.854 229.115C159.644 229.115 159.644 229.325 159.434 229.325C159.225 229.535 159.015 229.535 158.805 229.745C158.805 229.745 158.595 229.745 158.595 229.954C158.386 230.164 158.176 230.164 157.966 230.374C157.337 230.793 156.918 231.422 156.498 231.842C156.079 232.261 155.449 232.891 155.03 233.31C154.82 233.52 154.61 233.73 154.61 233.939C154.82 233.73 154.61 233.939 154.61 233.939L154.401 234.149C154.191 234.569 153.981 234.778 153.771 235.198C153.562 235.407 153.562 235.827 153.771 236.246C153.981 236.456 154.401 236.666 154.61 236.456C155.03 236.246 155.449 236.246 155.659 236.037C156.079 235.827 156.288 235.617 156.708 235.198C157.337 234.778 157.756 234.149 158.386 233.73C158.805 233.1 159.434 232.681 159.854 232.052C160.064 231.632 160.273 231.422 160.483 231.003C160.693 230.583 160.903 230.374 160.903 229.954C161.112 229.745 161.112 229.325 160.693 229.115Z" fill="#FF635A"/>
<path d="M129.232 190.942C129.022 190.732 128.603 190.732 128.393 190.732H128.183C127.974 190.732 127.764 190.732 127.764 190.732C127.135 190.732 126.505 190.942 126.086 190.942C125.457 191.152 125.037 191.362 124.408 191.571C123.989 191.781 123.569 191.991 123.15 192.41C122.311 192.83 122.94 194.088 123.779 193.879C124.198 193.669 124.828 193.669 125.247 193.459C125.666 193.459 126.296 193.249 126.715 193.04C127.135 192.83 127.554 192.83 128.183 192.62C128.393 192.62 128.603 192.41 128.813 192.41C129.232 192.201 129.442 192.201 129.652 191.781C129.652 191.571 129.652 190.942 129.232 190.942Z" fill="#FF635A"/>
<path d="M140.558 229.324C140.348 229.324 140.348 229.534 140.138 229.534H139.929H139.719C139.509 229.534 139.509 229.744 139.299 229.744L139.09 229.954C138.67 230.373 138.251 230.793 138.041 231.212C137.831 231.422 138.041 231.841 138.251 232.051C138.67 232.261 138.88 232.051 139.09 231.841C139.09 231.631 139.299 231.631 139.299 231.422C139.299 231.422 139.299 231.422 139.299 231.212C139.509 231.002 139.719 230.793 139.719 230.583L139.929 230.373L140.138 230.163V229.954V229.744L140.348 229.534C140.977 229.534 140.768 229.115 140.558 229.324Z" fill="#FF635A"/>
<path opacity="0.09" d="M201.592 255.542L221.517 163.466C217.742 161.789 213.128 161.579 209.772 164.096C205.577 167.032 204.528 172.485 202.641 177.1C199.285 185.07 192.993 191.991 185.023 195.557C181.247 197.444 176.843 198.703 174.536 202.058C171.809 206.043 172.648 211.287 172.228 215.901C171.599 225.339 164.678 234.987 155.24 235.826C149.786 236.246 144.543 233.939 140.138 230.793C135.734 227.647 131.959 223.662 127.764 220.306C123.359 216.74 118.326 213.804 112.872 211.916C111.404 211.287 109.726 210.867 108.258 210.448C107 213.384 106.161 215.062 106.37 215.062C151.884 258.898 201.592 255.542 201.592 255.542Z" fill="#FF635A"/>
<path d="M146.64 125.295C146.64 125.295 135.944 148.995 125.457 171.857C126.505 172.696 127.764 173.535 128.812 174.374C135.524 178.569 146.011 178.149 150.206 171.438C152.303 168.291 152.513 164.097 154.82 161.16C157.547 157.595 162.58 156.546 167.195 156.756C171.809 156.966 176.213 158.014 180.828 157.595C189.637 156.756 197.607 149.205 198.446 140.396L146.64 125.295Z" fill="url(#paint0_linear)"/>
<g opacity="0.15">
<path opacity="0.15" d="M123.149 154.238H50.999C49.3211 154.238 47.8529 152.77 47.8529 151.092V107.676C47.8529 105.998 49.3211 104.53 50.999 104.53H123.149C124.827 104.53 126.295 105.998 126.295 107.676V151.092C126.295 152.77 124.827 154.238 123.149 154.238Z" fill="#15357C"/>
<path opacity="0.15" d="M126.295 132.006H48.0625V141.234H126.295V132.006Z" fill="#15357C"/>
<path opacity="0.15" d="M126.295 126.763H48.0625V130.328H126.295V126.763Z" fill="#15357C"/>
<path opacity="0.15" d="M126.295 143.542H48.0625V146.478H126.295V143.542Z" fill="#15357C"/>
<path opacity="0.15" d="M50.999 104.53C49.3211 104.53 47.8529 105.998 47.8529 107.676V110.193C51.2087 110.403 54.5645 111.242 57.7106 112.291C63.5833 114.178 69.456 116.276 75.5384 116.276C81.6209 116.276 88.1228 112.92 90.0104 107.257C90.2202 106.418 90.4299 105.579 90.6397 104.53H50.999Z" fill="#15357C"/>
<path opacity="0.15" d="M117.486 111.032C111.194 111.871 104.482 113.759 101.127 119.002C98.4 123.197 98.6097 128.65 95.6734 132.635C89.8007 141.025 76.3774 138.298 68.1976 144.171C65.2612 146.268 63.1638 149.414 61.4859 152.56C61.2762 152.98 61.0664 153.609 60.8567 154.238H123.149C124.827 154.238 126.295 152.77 126.295 151.092V109.983C123.359 110.193 120.423 110.613 117.486 111.032Z" fill="#15357C"/>
</g>
<path d="M116.857 147.946H44.7068C43.0288 147.946 41.5607 146.478 41.5607 144.8V101.384C41.5607 99.7065 43.0288 98.2383 44.7068 98.2383H116.857C118.535 98.2383 120.003 99.7065 120.003 101.384V144.8C120.003 146.478 118.535 147.946 116.857 147.946Z" fill="#3B63FF"/>
<path d="M120.003 125.714H41.7704V134.942H120.003V125.714Z" fill="#FFD7E2"/>
<path opacity="0.15" d="M120.003 120.471H41.7704V124.036H120.003V120.471Z" fill="#3B63FF"/>
<path d="M120.003 137.25H41.7704V140.186H120.003V137.25Z" fill="#FFD7E2"/>
<path d="M44.7068 98.2383C43.0288 98.2383 41.5607 99.7065 41.5607 101.384V103.901C44.9165 104.111 48.2723 104.95 51.4184 105.999C57.2911 107.886 63.1638 109.984 69.2462 109.984C75.3286 109.984 81.8306 106.628 83.7182 100.965C83.9279 100.126 84.1377 99.287 84.3474 98.2383H44.7068Z" fill="url(#paint1_linear)"/>
<path d="M111.194 104.74C104.902 105.579 98.1903 107.467 94.8345 112.71C92.1079 116.905 92.3176 122.358 89.3812 126.343C83.5086 134.733 70.0853 132.006 61.9054 137.879C58.9691 139.976 56.8717 143.122 55.1938 146.268C54.9841 146.688 54.7743 147.317 54.5646 147.946H116.857C118.535 147.946 120.003 146.478 120.003 144.8V103.691C117.067 103.901 114.13 104.321 111.194 104.74Z" fill="url(#paint2_linear)"/>
<path d="M170.13 14.5519L131.119 0.289617C129.021 -0.549339 126.924 0.499353 126.085 2.59674L117.905 25.0388C117.066 27.1362 118.115 29.2336 120.212 30.0726L143.913 38.6719L144.962 47.4809C145.171 48.5296 146.22 48.9491 147.059 48.3198L154.61 42.4472L159.014 44.1251C161.111 44.964 163.209 43.9153 164.048 41.8179L172.228 19.3759C173.276 17.4882 172.228 15.3908 170.13 14.5519Z" fill="#FF635A"/>
<path opacity="0.15" d="M169.291 21.0539C166.565 20.6344 163.628 22.1026 162.37 24.6195C161.531 26.5071 161.741 28.6045 161.531 30.7019C161.321 32.7993 160.482 34.8967 158.804 35.9454C156.497 36.9941 153.771 35.7356 151.883 34.0577C149.995 32.3798 148.108 30.4922 145.591 30.2824C142.864 30.0727 140.347 31.9603 137.621 31.7506C134.684 31.5408 132.587 28.6045 131.748 25.8779C130.909 22.9415 131.119 20.0052 130.909 17.0689C130.699 15.8104 130.49 14.552 129.86 13.5033C128.602 11.4059 126.085 10.5669 123.778 10.1475H123.568L117.905 25.4584C117.066 27.5558 118.115 29.6532 120.212 30.4921L143.913 39.0915L144.962 47.9005C145.171 48.9492 146.22 49.3687 147.059 48.7395L154.61 42.8668L159.014 44.5447C161.111 45.3836 163.209 44.3349 164.048 42.2375L171.389 22.1026C170.969 21.4734 170.13 21.2636 169.291 21.0539Z" fill="#FF635A"/>
<path d="M131.119 0.289528C129.86 -0.12995 128.602 0.0797828 127.763 0.709C130.699 2.59665 132.587 6.16221 134.894 8.46934C138.04 11.6154 142.654 13.7128 146.849 12.4544C149.156 11.6154 151.254 9.93751 153.771 9.51803C154.61 9.30829 155.658 9.30829 156.497 9.51803L131.119 0.289528Z" fill="url(#paint3_linear)"/>
<path d="M135.523 14.9718L135.733 17.4886C135.733 17.4886 135.733 17.6984 135.943 17.6984L138.25 18.9568C138.46 18.9568 138.46 19.3763 138.25 19.3763L135.943 20.425C135.943 20.425 135.733 20.425 135.733 20.6347L135.314 23.1516C135.314 23.3613 135.104 23.3613 134.894 23.3613L133.216 21.4737H133.006L130.49 21.8932C130.28 21.8932 130.07 21.6834 130.28 21.4737L131.538 19.1665V18.9568L130.49 16.6497C130.49 16.4399 130.49 16.2302 130.699 16.2302L133.216 16.8594H133.426L135.314 14.9718C135.314 14.762 135.523 14.762 135.523 14.9718Z" fill="#FFB869"/>
<path d="M133.636 20.4247C134.684 20.4247 135.943 20.2149 136.572 19.1663C136.782 18.9565 136.992 18.537 136.992 18.3273L135.943 17.6981L135.733 17.4883L135.523 14.9715C135.523 14.7617 135.314 14.7617 135.104 14.7617L133.216 16.6494H133.006L130.49 16.0202C130.28 16.0202 130.07 16.2299 130.28 16.4396L131.329 18.7468V18.9565L130.909 19.7955C131.748 20.0052 132.797 20.4247 133.636 20.4247Z" fill="url(#paint4_linear)"/>
<path d="M146.22 18.957L146.43 21.4739C146.43 21.4739 146.43 21.6836 146.639 21.6836L148.946 22.9421C149.156 22.9421 149.156 23.3616 148.946 23.3616L146.639 24.4103C146.639 24.4103 146.43 24.4103 146.43 24.62L146.01 27.1369C146.01 27.3466 145.8 27.3466 145.591 27.3466L143.913 25.459H143.703L141.186 25.8784C140.976 25.8784 140.767 25.6687 140.976 25.459L142.235 23.1518V22.9421L141.186 20.6349C141.186 20.4252 141.186 20.2155 141.396 20.2155L143.913 20.8447H144.122L146.01 18.957C146.01 18.5376 146.22 18.7473 146.22 18.957Z" fill="#FFB869"/>
<path d="M144.332 24.2001C145.381 24.2001 146.639 23.9903 147.269 22.9416C147.478 22.7319 147.688 22.3124 147.688 22.1027L146.639 21.4735L146.43 21.2637L146.22 18.7469C146.22 18.5371 146.01 18.5371 145.8 18.5371L143.913 20.4248H143.703L141.186 19.7956C140.976 19.7956 140.767 20.0053 140.976 20.215L142.025 22.5222V22.7319L141.606 23.5709C142.445 23.9903 143.284 24.2001 144.332 24.2001Z" fill="url(#paint5_linear)"/>
<path d="M156.917 22.7315L157.126 25.2484C157.126 25.2484 157.126 25.4581 157.336 25.4581L159.643 26.7166C159.853 26.7166 159.853 27.1361 159.643 27.1361L157.336 28.1848C157.336 28.1848 157.126 28.1847 157.126 28.3945L156.707 30.9114C156.707 31.1211 156.497 31.1211 156.287 31.1211L154.61 29.2334H154.4L151.883 29.6529C151.673 29.6529 151.463 29.4432 151.673 29.2334L152.932 26.9263V26.7166L151.883 24.4094C151.883 24.1997 151.883 23.99 152.093 23.99L154.61 24.6192H154.819L156.707 22.7315C156.497 22.5218 156.707 22.5218 156.917 22.7315Z" fill="#FFB869"/>
<path d="M155.029 28.1844C156.078 28.1844 157.336 27.9747 157.965 26.926C158.175 26.7162 158.385 26.2968 158.385 26.087L157.336 25.4578L157.126 25.2481L156.917 22.7312C156.917 22.5215 156.707 22.5215 156.497 22.5215L154.61 24.4091H154.4L151.883 23.7799C151.673 23.7799 151.463 23.9896 151.673 24.1994L152.722 26.5065V26.7163L152.302 27.5552C153.141 27.7649 153.98 28.1844 155.029 28.1844Z" fill="url(#paint6_linear)"/>
<path d="M334.776 132.426C334.776 132.426 352.185 201.43 308.349 238.344" stroke="#3B63FF" stroke-miterlimit="10"/>
<path d="M32.9617 170.388C32.3325 169.759 32.5422 168.71 33.3812 168.081C34.2201 167.452 35.2688 167.662 35.6883 168.291C36.3175 168.92 36.1078 169.969 35.2688 170.598C34.4299 171.227 33.5909 171.227 32.9617 170.388Z" fill="#3B63FF"/>
<path d="M25.4111 177.099C24.7819 176.47 24.7819 175.421 25.4111 174.792C26.0403 174.163 27.089 174.163 27.7182 174.792C28.3475 175.421 28.3475 176.47 27.7182 177.099C27.089 177.729 26.0403 177.729 25.4111 177.099Z" fill="#3B63FF"/>
<path d="M18.6994 184.441C18.0702 183.812 17.8604 182.763 18.4897 182.134C19.1189 181.504 20.1676 181.295 20.7968 181.924C21.426 182.553 21.6357 183.602 21.0065 184.231C20.587 185.07 19.5384 185.07 18.6994 184.441Z" fill="#3B63FF"/>
<path d="M13.0364 192.621C12.1975 192.201 11.9877 191.153 12.617 190.314C13.0364 189.475 14.0851 189.265 14.9241 189.894C15.5533 190.314 15.763 191.362 15.3436 192.201C14.7144 192.831 13.6656 193.25 13.0364 192.621Z" fill="#3B63FF"/>
<path d="M8.21238 201.43C7.37343 201.01 6.95395 199.962 7.37343 199.123C7.7929 198.284 8.84159 197.864 9.68055 198.284C10.5195 198.703 10.7293 199.752 10.3098 200.381C10.1 201.43 9.05134 201.849 8.21238 201.43Z" fill="#3B63FF"/>
<path d="M4.64682 210.867C3.80787 210.658 3.38839 209.609 3.59813 208.77C3.80787 207.931 4.85656 207.302 5.69552 207.721C6.53447 207.931 6.95395 208.98 6.74421 209.819C6.53447 210.658 5.48578 211.077 4.64682 210.867Z" fill="#3B63FF"/>
<path d="M2.54945 220.726C1.71049 220.516 1.08128 219.677 1.29102 218.838C1.50076 217.999 2.33972 217.37 3.17867 217.58C4.01763 217.789 4.64684 218.628 4.4371 219.467C4.22736 220.097 3.3884 220.726 2.54945 220.726Z" fill="#3B63FF"/>
<path d="M1.50077 230.583C0.661816 230.583 -0.177142 229.744 0.0325971 228.905C0.0325971 228.067 0.871552 227.228 1.71051 227.228C2.54946 227.228 3.17868 228.067 3.17868 228.905C3.17868 229.954 2.54947 230.583 1.50077 230.583Z" fill="#3B63FF"/>
<path d="M1.92023 240.651C1.08127 240.651 0.24231 240.022 0.24231 239.183C0.24231 238.344 0.871528 237.505 1.71048 237.295C2.54944 237.295 3.38839 237.924 3.38839 238.763C3.38839 239.812 2.75918 240.441 1.92023 240.651Z" fill="#3B63FF"/>
<path d="M3.38838 250.508C2.54942 250.718 1.71047 250.089 1.50073 249.25C1.29099 248.411 1.92022 247.362 2.75917 247.362C3.59813 247.152 4.43707 247.781 4.64681 248.62C4.85655 249.459 4.43707 250.298 3.38838 250.508Z" fill="#3B63FF"/>
<defs>
<linearGradient id="paint0_linear" x1="125.492" y1="151.184" x2="198.574" y2="151.184" gradientUnits="userSpaceOnUse">
<stop stop-color="white"/>
<stop offset="1" stop-color="white" stop-opacity="0"/>
</linearGradient>
<linearGradient id="paint1_linear" x1="154.063" y1="228.145" x2="57.6898" y2="93.4819" gradientUnits="userSpaceOnUse">
<stop stop-color="white"/>
<stop offset="1" stop-color="white" stop-opacity="0"/>
</linearGradient>
<linearGradient id="paint2_linear" x1="158.343" y1="225.082" x2="61.9701" y2="90.4185" gradientUnits="userSpaceOnUse">
<stop stop-color="white"/>
<stop offset="1" stop-color="white" stop-opacity="0"/>
</linearGradient>
<linearGradient id="paint3_linear" x1="143.211" y1="-25.6586" x2="141.366" y2="23.8559" gradientUnits="userSpaceOnUse">
<stop stop-color="white"/>
<stop offset="1" stop-color="white" stop-opacity="0"/>
</linearGradient>
<linearGradient id="paint4_linear" x1="129.836" y1="8.97343" x2="134.845" y2="21.2201" gradientUnits="userSpaceOnUse">
<stop stop-color="white"/>
<stop offset="1" stop-color="white" stop-opacity="0"/>
</linearGradient>
<linearGradient id="paint5_linear" x1="140.445" y1="12.8426" x2="145.455" y2="25.0897" gradientUnits="userSpaceOnUse">
<stop stop-color="white"/>
<stop offset="1" stop-color="white" stop-opacity="0"/>
</linearGradient>
<linearGradient id="paint6_linear" x1="151.055" y1="16.7118" x2="156.065" y2="28.9587" gradientUnits="userSpaceOnUse">
<stop stop-color="white"/>
<stop offset="1" stop-color="white" stop-opacity="0"/>
</linearGradient>
</defs>
</svg>
