<svg width="112" height="115" viewBox="0 0 112 115" fill="none" xmlns="http://www.w3.org/2000/svg">
<path opacity="0.26" d="M15.8571 90.5058L69.4146 110.831C74.933 112.925 81.1033 110.15 83.1976 104.632L85.0493 99.7522L100.811 58.219C100.833 58.1609 100.855 58.1029 100.878 58.0448C100.922 57.9286 100.944 57.8705 100.988 57.7543C101.032 57.6381 101.054 57.5801 101.098 57.4639C101.142 57.3477 101.164 57.2896 101.208 57.1734C101.208 57.1734 101.208 57.1734 101.23 57.1154C101.274 56.9992 101.296 56.9411 101.282 56.8029L101.304 56.7448C101.349 56.6286 101.312 56.5485 101.357 56.4323L101.379 56.3742C101.423 56.258 101.387 56.1779 101.431 56.0617L101.453 56.0036C101.497 55.8874 101.461 55.8073 101.505 55.6911C101.527 55.633 101.527 55.633 101.549 55.575C101.593 55.4588 101.557 55.3786 101.601 55.2625C101.623 55.2044 101.623 55.2044 101.587 55.1243C101.631 55.0081 101.595 54.9279 101.581 54.7897C101.603 54.7316 101.545 54.7096 101.567 54.6515C101.531 54.5714 101.575 54.4552 101.539 54.3751C101.561 54.317 101.525 54.2368 101.525 54.2368C101.489 54.1567 101.533 54.0405 101.497 53.9604C101.519 53.9023 101.483 53.8222 101.505 53.7641C101.469 53.6839 101.513 53.5678 101.477 53.4876C101.499 53.4295 101.463 53.3494 101.485 53.2913C101.449 53.2112 101.493 53.095 101.457 53.0149C101.421 52.9347 101.443 52.8767 101.407 52.7965C101.371 52.7164 101.393 52.6583 101.379 52.5201C101.343 52.44 101.365 52.3819 101.329 52.3017C101.293 52.2216 101.315 52.1635 101.279 52.0834C101.243 52.0032 101.265 51.9452 101.229 51.865C101.193 51.7849 101.157 51.7048 101.179 51.6467C101.143 51.5665 101.107 51.4864 101.071 51.4063C101.035 51.3261 100.999 51.246 101.021 51.1879C100.985 51.1078 100.949 51.0276 100.913 50.9475C100.877 50.8674 100.841 50.7872 100.805 50.7071C100.769 50.627 100.733 50.5468 100.697 50.4667C100.66 50.3866 100.624 50.3064 100.588 50.2263C100.552 50.1462 100.516 50.066 100.48 49.9859C100.444 49.9058 100.408 49.8256 100.372 49.7455C100.336 49.6654 100.3 49.5852 100.206 49.4831C100.17 49.4029 100.134 49.3228 100.098 49.2427C100.062 49.1625 99.9676 49.0604 99.9316 48.9802C99.8955 48.9001 99.8595 48.82 99.8235 48.7398C99.7874 48.6597 99.6933 48.5575 99.6572 48.4774C99.6212 48.3972 99.5851 48.3171 99.5271 48.2951C99.4329 48.1929 99.3969 48.1128 99.3027 48.0106C99.2667 47.9304 99.2086 47.9084 99.1726 47.8283C99.0784 47.7261 99.0424 47.646 98.9483 47.5438C98.9122 47.4636 98.8541 47.4416 98.76 47.3394C98.6659 47.2372 98.6298 47.1571 98.5357 47.0549C98.4996 46.9748 98.3835 46.9307 98.3474 46.8506C98.2533 46.7484 98.1591 46.6462 98.065 46.544C98.029 46.4639 97.9128 46.4198 97.8768 46.3397C97.7826 46.2375 97.6885 46.1353 97.5723 46.0912C97.5363 46.0111 97.4201 45.967 97.3841 45.8869C97.2899 45.7847 97.1737 45.7406 97.0796 45.6384C97.0215 45.6164 96.9274 45.5142 96.8693 45.4922C96.7752 45.39 96.6009 45.3239 96.5068 45.2217C96.4487 45.1996 96.3545 45.0974 96.2965 45.0754C96.2023 44.9732 96.0281 44.9071 95.8759 44.7829C95.8178 44.7608 95.7236 44.6587 95.6655 44.6366C95.4552 44.4903 95.2449 44.3441 95.0126 44.2559C90.1734 41.4226 88.5398 35.2205 88.0898 31.3282C87.9838 30.557 87.6814 29.7777 87.335 29.1146C86.9304 28.4294 86.4237 27.8384 85.7347 27.3775C85.3141 27.085 84.8133 26.8285 84.3486 26.6521L74.8802 23.0588C72.7891 22.2652 70.3731 22.6775 68.7163 24.2417C65.6289 27.1237 61.0032 29.1562 55.3242 29.061L55.6328 28.2478C56.1398 26.9118 55.4911 25.4694 54.155 24.9623L44.7447 21.3911C43.4087 20.884 41.9663 21.5328 41.4592 22.8689L40.2909 25.9475C40.2328 25.9255 40.1526 25.9615 40.0946 25.9395C39.9563 25.9535 39.8402 25.9094 39.7019 25.9234C39.5637 25.9374 39.4475 25.8933 39.3674 25.9294C39.2292 25.9434 39.091 25.9574 38.9748 25.9133C38.8366 25.9273 38.6983 25.9413 38.6403 25.9192C38.502 25.9332 38.3638 25.9472 38.2837 25.9833C38.1455 25.9973 38.0072 26.0113 37.9271 26.0473C37.7889 26.0613 37.7088 26.0973 37.5705 26.1113C37.4323 26.1253 37.3522 26.1614 37.214 26.1754C37.0757 26.1894 36.9956 26.2254 36.8574 26.2394C36.7192 26.2534 36.639 26.2895 36.5008 26.3035C36.3626 26.3175 36.2824 26.3535 36.1442 26.3675C36.006 26.3815 35.9259 26.4175 35.7656 26.4896C35.6855 26.5257 35.5472 26.5397 35.4671 26.5757C35.3289 26.5897 35.2267 26.6839 35.0885 26.6978C35.0084 26.7339 34.8701 26.7479 34.79 26.7839C34.6518 26.7979 34.5496 26.8921 34.4114 26.9061C34.3312 26.9421 34.193 26.9561 34.1129 26.9921C33.9747 27.0061 33.8725 27.1003 33.7122 27.1724C33.6321 27.2084 33.552 27.2445 33.3917 27.3165C33.2314 27.3886 33.1513 27.4247 32.991 27.4968C32.9109 27.5328 32.8308 27.5688 32.7286 27.663C32.5683 27.7351 32.4882 27.7711 32.386 27.8652C32.3059 27.9013 32.2257 27.9373 32.1236 28.0315C32.0214 28.1256 31.8611 28.1977 31.781 28.2337C31.7009 28.2698 31.6207 28.3058 31.5185 28.3999C31.4163 28.4941 31.2561 28.5662 31.1539 28.6603C31.0738 28.6963 30.9936 28.7324 30.8915 28.8265C30.7893 28.9206 30.629 28.9927 30.5269 29.0869C30.4467 29.1229 30.3666 29.1589 30.3225 29.2751C30.2203 29.3693 30.06 29.4413 29.9579 29.5355C29.8777 29.5715 29.8557 29.6296 29.7535 29.7237C29.6513 29.8179 29.5492 29.912 29.3668 30.0422C29.2867 30.0782 29.2647 30.1363 29.1625 30.2304C29.0603 30.3246 28.9361 30.4768 28.8339 30.5709C28.7538 30.607 28.7317 30.6651 28.6295 30.7592C28.5274 30.8533 28.4031 31.0055 28.301 31.0997C28.2789 31.1578 28.1988 31.1938 28.1547 31.31C28.0305 31.4622 27.9283 31.5563 27.8041 31.7086C27.782 31.7666 27.7019 31.8027 27.6799 31.8608C27.5556 32.013 27.4535 32.1071 27.3292 32.2594C27.3072 32.3174 27.2271 32.3535 27.205 32.4116C27.0808 32.5638 26.9566 32.716 26.9125 32.8322C26.8904 32.8903 26.8684 32.9484 26.7882 32.9844C26.664 33.1366 26.5979 33.3109 26.4737 33.4631C26.4516 33.5212 26.4296 33.5793 26.4075 33.6374C26.2833 33.7896 26.2172 33.9639 26.093 34.1161C26.0709 34.1742 26.0709 34.1742 26.0489 34.2323C25.9827 34.4065 25.8365 34.6168 25.7703 34.7911L25.7483 34.8492C25.6601 35.0815 25.5359 35.2338 25.4477 35.4661C25.3595 35.6985 25.2714 35.9308 25.2052 36.1051L11.5374 72.1199L9.68564 76.9993C9.0243 78.742 8.87173 80.5448 9.0978 82.2255C9.58599 85.6671 12.0814 89.0729 15.8571 90.5058Z" fill="#C6C2C2"/>
<path d="M50.6568 17.7202L41.2465 14.149C39.9104 13.6419 38.4681 14.2907 37.961 15.6267L36.4179 19.6929L50.5915 25.0719L52.1346 21.0057C52.6416 19.6696 51.9348 18.2052 50.6568 17.7202Z" fill="#383838"/>
<path opacity="0.12" d="M73.2507 52.7436C71.9727 52.2586 70.5303 52.9074 70.0453 54.1854L59.3756 82.3001C58.8906 83.5781 59.5394 85.0205 60.8174 85.5055C62.0953 85.9905 63.5377 85.3417 64.0227 84.0637L74.6924 55.9489C75.1774 54.671 74.5286 53.2286 73.2507 52.7436Z" fill="white"/>
<path d="M97.3632 51.1952L79.7493 97.6079C77.6551 103.126 71.4848 105.902 65.9664 103.807L12.4089 83.482C6.89049 81.3877 4.11513 75.2175 6.20939 69.6991L21.729 28.8048C24.705 20.9629 33.4336 16.6996 41.3196 19.5595C41.552 19.6477 41.7843 19.7358 42.0748 19.8461C52.1381 23.798 60.4156 21.4237 65.1599 16.9774C66.8168 15.4132 69.2327 15.001 71.3239 15.7946L80.7923 19.3879C82.8254 20.1595 84.2654 21.9686 84.5334 24.064C85.0636 27.9202 86.6391 34.1003 91.4562 36.9917C98.9073 41.3478 98.6257 48.2187 97.3632 51.1952Z" fill="#383838"/>
<path opacity="0.53" d="M8.06104 64.8198L6.20927 69.6993C4.115 75.2177 6.89037 81.3879 12.4088 83.4822L65.9663 103.808C71.4847 105.902 77.6549 103.126 79.7492 97.608L81.601 92.7286L8.06104 64.8198Z" fill="#686767"/>
<path d="M91.5143 37.0136C86.6751 34.1803 85.0416 27.9782 84.5915 24.086C84.2874 21.9104 82.8254 20.1594 80.8504 19.4099L71.382 15.8166C69.2908 15.023 66.8749 15.4352 65.218 16.9994C60.4958 21.3876 52.2543 23.8421 42.1329 19.868C41.9005 19.7799 41.6101 19.6696 41.3777 19.5815C33.6439 16.8458 25.2439 20.7686 22.0296 28.1878L28.7097 30.723C33.2987 32.4645 38.2345 32.9421 43.0663 32.1176C44.8492 31.7974 46.8343 31.8198 48.9034 32.6715L97.4073 51.079C98.6558 47.9642 98.733 41.2816 91.5143 37.0136Z" fill="#686767"/>
<path d="M78.5303 21.3206L71.2111 18.543C68.5972 17.5509 65.7124 18.8485 64.7203 21.4625L64.1913 22.8566C63.8386 23.786 64.3071 24.8278 65.2365 25.1805L78.655 30.2728C79.5844 30.6256 80.6261 30.157 80.9788 29.2276L81.5079 27.8335C82.4198 25.2555 81.1443 22.3126 78.5303 21.3206Z" fill="#CCCACA"/>
<path d="M35.2583 29.7529C37.2474 30.5077 39.4717 29.5072 40.2266 27.5181C40.9814 25.5291 39.9809 23.3047 37.9919 22.5499C36.0028 21.795 33.7785 22.7955 33.0236 24.7846C32.2687 26.7736 33.2693 28.998 35.2583 29.7529Z" fill="#383838"/>
<path d="M36.0518 27.6616C36.886 27.9782 37.8187 27.5586 38.1353 26.7245C38.4518 25.8904 38.0323 24.9576 37.1982 24.641C36.3641 24.3245 35.4313 24.7441 35.1147 25.5782C34.7981 26.4123 35.2177 27.3451 36.0518 27.6616Z" fill="#E84343"/>
<path opacity="0.12" d="M32.475 34.81C31.1971 34.325 29.7547 34.9738 29.2697 36.2518L16.3514 70.2916C15.8664 71.5695 16.5152 73.0119 17.7932 73.4969C19.0711 73.9819 20.5135 73.3331 20.9985 72.0552L33.8947 38.0734C34.4018 36.7374 33.753 35.295 32.475 34.81Z" fill="white"/>
<path opacity="0.12" d="M28.1157 72.5635C27.785 73.4348 28.1955 74.4545 29.1249 74.8072L70.7162 90.5913C71.5875 90.922 72.6072 90.5115 72.9599 89.5821C73.2906 88.7108 72.8801 87.6911 71.9507 87.3384L30.3594 71.5543C29.43 71.2016 28.4684 71.6341 28.1157 72.5635Z" fill="white"/>
<path d="M35.6605 67.9173C38.3874 68.9522 41.4369 67.5805 42.4718 64.8536C43.5067 62.1267 42.135 59.0771 39.4081 58.0423C36.6812 57.0074 33.6316 58.3791 32.5968 61.106C31.5619 63.8329 32.9336 66.8824 35.6605 67.9173Z" fill="#666666"/>
<path d="M36.3658 66.0582C38.0662 66.7035 39.9676 65.8482 40.6129 64.1479C41.2582 62.4475 40.4029 60.5461 38.7026 59.9008C37.0023 59.2555 35.1008 60.1108 34.4555 61.8111C33.8102 63.5114 34.6655 65.4129 36.3658 66.0582Z" fill="#383838"/>
<path d="M36.6965 65.187C37.9156 65.6496 39.2789 65.0364 39.7416 63.8173C40.2042 62.5982 39.591 61.2349 38.3719 60.7723C37.1528 60.3096 35.7895 60.9228 35.3268 62.1419C34.8642 63.361 35.4774 64.7243 36.6965 65.187Z" fill="#CCCACA"/>
<path d="M51.6262 78.0298C64.8116 83.0337 79.557 76.4013 84.5609 63.2159C89.5649 50.0305 82.9325 35.2851 69.747 30.2811C56.5616 25.2772 41.8162 31.9096 36.8122 45.095C31.8083 58.2805 38.4407 73.0259 51.6262 78.0298Z" fill="#686767"/>
<path d="M52.1332 76.694C64.5807 81.4179 78.501 75.1566 83.2249 62.7091C87.9488 50.2615 81.6875 36.3413 69.24 31.6174C56.7924 26.8935 42.8722 33.1547 38.1483 45.6023C33.4243 58.0498 39.6856 71.9701 52.1332 76.694Z" fill="#383838"/>
<path d="M53.1472 74.0218C64.119 78.1857 76.3889 72.6667 80.5528 61.6949C84.7166 50.7231 79.1977 38.4532 68.2258 34.2893C57.254 30.1255 44.9841 35.6444 40.8203 46.6162C36.6564 57.5881 42.1753 69.858 53.1472 74.0218Z" fill="#CCCACA"/>
<path d="M54.2273 71.1752C63.6272 74.7425 74.1391 70.0143 77.7064 60.6145C81.2737 51.2146 76.5455 40.7027 67.1456 37.1354C57.7458 33.5681 47.2339 38.2963 43.6666 47.6962C40.0993 57.096 44.8275 67.6079 54.2273 71.1752Z" fill="#666666"/>
<path d="M68.0274 34.8121C57.3391 30.7558 45.4574 36.1483 41.4232 46.7785C37.3669 57.4668 42.7594 69.3485 53.3896 73.3828C64.0779 77.439 75.9597 72.0465 79.9939 61.4163C84.0281 50.7861 78.6576 38.8463 68.0274 34.8121ZM53.7644 72.3953C43.657 68.5595 38.633 57.2827 42.4467 47.2334C46.2825 37.126 57.5593 32.102 67.6086 35.9157C77.7159 39.7515 82.74 51.0283 78.9262 61.0776C75.1125 71.1269 63.8137 76.209 53.7644 72.3953Z" fill="#635F5F"/>
<path d="M57.1814 63.3913C62.2823 65.3271 67.9867 62.7613 69.9225 57.6604C71.8584 52.5594 69.2926 46.855 64.1916 44.9192C59.0907 42.9834 53.3863 45.5492 51.4504 50.6501C49.5146 55.7511 52.0804 61.4555 57.1814 63.3913Z" fill="#383838"/>
<path opacity="0.89" d="M66.2418 39.5172C58.1675 36.453 49.1124 40.5259 46.0482 48.6002C42.984 56.6745 47.0569 65.7295 55.1312 68.7938C63.2055 71.858 72.2605 67.7851 75.3248 59.7108C78.411 51.5784 74.3161 42.5814 66.2418 39.5172ZM56.1012 66.2379C49.421 63.7027 46.0108 56.2283 48.5681 49.49C51.1032 42.8099 58.5776 39.3997 65.3159 41.9569C71.9961 44.4921 75.4062 51.9665 72.849 58.7048C70.2918 65.443 62.7813 68.773 56.1012 66.2379Z" fill="#383838"/>
<path d="M58.1328 52.6549C59.8652 53.3123 61.8025 52.4409 62.46 50.7085C63.1174 48.9761 62.246 47.0388 60.5136 46.3813C58.7812 45.7239 56.8439 46.5953 56.1864 48.3277C55.529 50.0601 56.4004 51.9974 58.1328 52.6549Z" fill="white"/>
<path d="M62.1143 57.2226C62.8842 57.5148 63.7453 57.1275 64.0375 56.3576C64.3297 55.5876 63.9424 54.7265 63.1724 54.4343C62.4025 54.1421 61.5414 54.5294 61.2492 55.2994C60.957 56.0693 61.3443 56.9304 62.1143 57.2226Z" fill="white"/>
</svg>
