<svg width="253" height="159" viewBox="0 0 253 159" fill="none" xmlns="http://www.w3.org/2000/svg">
<path d="M205.347 117.505C205.542 117.066 205.704 116.628 205.883 116.19C206.061 115.752 206.418 114.957 206.662 114.34C206.905 113.724 207.311 112.718 207.619 111.874C207.927 111.03 208.074 110.689 208.284 110.105C208.577 109.261 208.836 108.482 209.112 107.622C209.274 107.071 209.469 106.535 209.631 106C209.891 105.107 210.118 104.247 210.345 103.387C210.459 102.933 210.605 102.462 210.719 102.024C210.994 100.888 211.222 99.7685 211.433 98.6812C211.433 98.519 211.433 98.3405 211.546 98.1782C211.773 96.9287 211.952 95.6955 212.098 94.4785C212.098 94.1052 212.098 93.7482 212.211 93.3912C212.293 92.5637 212.374 91.7685 212.406 90.9409C212.406 90.4866 212.406 90.0485 212.406 89.6104C212.406 88.9126 212.406 88.2148 212.406 87.5333C212.406 86.8518 212.406 86.6246 212.406 86.1864C212.406 85.7483 212.406 84.9208 212.293 84.2879C212.179 83.6551 212.179 83.4116 212.13 82.9573C212.082 82.5029 211.952 81.7889 211.854 81.2048C211.757 80.6206 211.692 80.361 211.595 79.939C211.497 79.5171 211.335 78.8356 211.173 78.3163L210.832 77.1318C210.654 76.5963 210.459 76.0771 210.264 75.5091L209.826 74.4219C209.599 73.9026 209.339 73.3996 209.08 72.9128C208.82 72.426 208.755 72.2637 208.577 71.9392C208.398 71.6146 207.944 70.9168 207.603 70.4138C207.441 70.1704 207.295 69.9108 207.116 69.6674C206.589 68.9374 206.02 68.2385 205.412 67.5741L186.183 46.479C186.764 47.1453 187.305 47.8442 187.806 48.5723C187.985 48.8157 188.131 49.0753 188.309 49.3187C188.634 49.8218 188.974 50.3248 189.283 50.8603C189.591 51.3958 189.607 51.4932 189.786 51.8177C189.964 52.1422 190.289 52.8075 190.516 53.3268C190.743 53.8461 190.808 54.057 190.954 54.414C191.1 54.771 191.344 55.4526 191.522 56.0367C191.701 56.6209 191.765 56.8318 191.879 57.2213C191.993 57.6107 192.171 58.3085 192.301 58.844C192.431 59.3795 192.479 59.6878 192.561 60.1097C192.642 60.5316 192.739 61.2781 192.82 61.8785C192.901 62.4788 192.934 62.7547 192.982 63.1928C193.031 63.631 193.08 64.4585 193.112 65.0914C193.145 65.7242 193.112 65.9839 193.112 66.4382C193.112 66.8926 193.112 67.8175 193.112 68.5153C193.112 68.9534 193.112 69.3915 193.112 69.8459C193.112 70.641 192.982 71.4686 192.901 72.2962C192.901 72.6531 192.901 73.0102 192.804 73.3834C192.658 74.6004 192.463 75.8337 192.236 77.0831L192.139 77.5862C191.928 78.6734 191.684 79.793 191.408 80.9289L191.051 82.2757C190.824 83.152 190.597 84.012 190.321 84.9045C190.159 85.44 189.981 85.9755 189.802 86.5272C189.542 87.3386 189.267 88.1661 188.974 89.0099C188.763 89.5941 188.553 90.1783 188.325 90.7787C188.098 91.3791 187.709 92.4014 187.368 93.2452L186.589 95.0951C186.2 96.02 185.794 96.945 185.356 97.8699C185.177 98.2756 184.999 98.6812 184.804 99.0869C184.155 100.482 183.457 101.878 182.727 103.306L201.956 124.401C202.702 122.973 203.384 121.578 204.033 120.182C204.228 119.776 204.406 119.371 204.601 118.981L205.347 117.505Z" fill="url(#paint0_linear)"/>
<path d="M25.7637 147.265L26.4939 146.048C27.5324 144.344 28.5872 142.64 29.7393 140.937C31.1132 138.773 32.5358 136.609 34.007 134.446L35.3863 132.515C36.3762 131.103 37.366 129.691 38.3883 128.296C39.0211 127.436 39.6702 126.592 40.3031 125.748C41.1469 124.612 41.9258 123.493 42.8669 122.357C43.8081 121.221 44.2949 120.539 45.0089 119.631C45.7229 118.722 46.6316 117.635 47.4267 116.629L49.7147 113.886C50.5099 112.929 51.3374 111.955 52.1325 111.014C52.9277 110.073 53.7553 109.164 54.5504 108.255L56.9845 105.513C57.812 104.588 58.6071 103.679 59.4834 102.771C60.3596 101.862 61.1061 100.986 61.9824 100.11C62.8586 99.2333 63.6862 98.3083 64.5624 97.4158L67.1101 94.8033L69.7389 92.1907L72.3676 89.6268L75.0613 87.0792C75.97 86.2192 76.8625 85.4565 77.7875 84.5316L80.4974 82.0651L83.3209 79.5499L85.9821 77.2619C87.0044 76.3694 88.043 75.4931 89.0815 74.6169L91.694 72.4587C92.8137 71.55 93.9334 70.6251 95.0693 69.7326L97.6331 67.7042L101.414 64.7995L103.799 63.0308C105.974 61.4081 108.148 59.7854 110.29 58.2925L110.988 57.7895C111.426 57.4812 111.864 57.2053 112.286 56.897C113.73 55.9072 115.175 54.9173 116.635 53.9599L118.696 52.6293C119.864 51.8504 121.049 51.0066 122.233 50.3413L125.479 48.394L128.367 46.6415L131.612 44.7916L134.485 43.1689L137.73 41.4164L140.602 39.8911C141.673 39.3231 142.76 38.8039 143.848 38.2684L146.687 36.8566L149.933 35.3313C150.874 34.9094 151.815 34.455 152.74 34.0494C153.665 33.6437 154.931 33.1082 155.985 32.6376L158.744 31.4693L161.989 30.2036L164.699 29.1488C165.819 28.7431 166.923 28.3862 168.042 27.9967C168.902 27.7046 169.778 27.3801 170.638 27.1042C172.715 26.4389 174.793 25.806 176.853 25.2381L178.103 24.9135C179.726 24.4754 181.348 24.0535 182.971 23.6803C184.594 23.3071 186.427 22.9176 188.147 22.5931C189.867 22.2685 191.231 22.0414 192.74 21.8304C194.119 21.6357 195.466 21.4734 196.796 21.3274L198.095 21.2138L200.934 21.084H202.103C203.06 21.084 203.985 21.084 204.91 21.0029H205.884C207.068 21.0029 208.22 21.0029 209.356 21.0029H210.054C210.833 21.0029 211.595 21.1002 212.342 21.1651C213.494 21.2625 214.614 21.3923 215.701 21.5383L216.691 21.6681C218.07 21.8791 219.401 22.1225 220.683 22.4146L221.607 22.658C222.549 22.8852 223.49 23.1448 224.399 23.4207L225.648 23.8426C226.411 24.1022 227.157 24.3781 227.904 24.6701L229.121 25.1732C229.851 25.4977 230.581 25.8385 231.295 26.1955C231.62 26.3578 231.977 26.52 232.301 26.6985C233.307 27.2502 234.313 27.8344 235.254 28.4511C236.212 29.0839 237.121 29.7654 237.997 30.4794C238.273 30.6904 238.532 30.9176 238.792 31.1448C239.409 31.6802 240.009 32.2157 240.577 32.7675C241.145 33.3192 241.551 33.6923 242.005 34.1954L222.776 13.1003C222.451 12.7433 222.127 12.4025 221.786 12.0618L221.348 11.6723C220.78 11.1044 220.18 10.5689 219.563 10.0496C219.368 9.9036 219.206 9.72507 219.027 9.5628L218.768 9.38433C217.892 8.67034 216.983 8.005 216.025 7.37215C215.084 6.75552 214.094 6.17137 213.072 5.61965L212.812 5.47361C212.585 5.3438 212.309 5.24643 212.066 5.11662C211.368 4.75962 210.638 4.41885 209.892 4.09431L209.372 3.83467L208.675 3.59128C207.944 3.29919 207.198 3.02334 206.419 2.76371L205.656 2.47161L205.17 2.34179C204.261 2.06593 203.336 1.8063 202.379 1.57912C202.135 1.57912 201.908 1.43308 201.648 1.3844H201.47C200.172 1.09232 198.841 0.848899 197.478 0.637948H197.251H196.488C195.385 0.491905 194.265 0.362096 193.129 0.264734H192.48L190.857 0.183594H190.176C189.17 0.183594 188.164 0.183594 187.125 0.183594H185.713L182.922 0.264734H181.754H180.91L178.963 0.443232L177.681 0.556833C176.334 0.702876 174.987 0.865142 173.608 1.05987C172.099 1.27082 170.574 1.53045 169.016 1.82254C167.458 2.11462 165.884 2.43915 164.294 2.79614L163.839 2.90974C162.217 3.28296 160.594 3.70486 158.971 4.14299L157.689 4.46752C155.628 5.03547 153.568 5.66834 151.491 6.33364H151.28L148.878 7.16124C147.775 7.55068 146.671 7.90768 145.551 8.32958C144.432 8.75148 143.734 9.01109 142.842 9.36809L139.596 10.6338C138.671 11.007 137.746 11.4127 136.821 11.8184C135.896 12.2241 134.647 12.7271 133.576 13.2139C132.505 13.7007 131.694 14.0739 130.752 14.5121L127.507 16.0212L124.667 17.4329C123.58 17.9846 122.509 18.5039 121.422 19.0556L118.566 20.581C117.479 21.1651 116.408 21.733 115.321 22.3334L112.432 23.9561L109.187 25.8061L106.315 27.5585C105.244 28.2076 104.189 28.8405 103.069 29.5058L102.307 29.9764L99.5155 31.7938L97.4708 33.1244C96.0104 34.0818 94.5662 35.0717 93.122 36.0615C92.6839 36.3698 92.2458 36.6457 91.8239 36.954L91.6778 37.0514L91.1099 37.457C88.9463 38.9932 86.7827 40.5726 84.6191 42.1953L83.6941 42.8607L82.2499 43.9641L78.4528 46.8687C77.9984 47.2419 77.5279 47.5827 77.0573 47.9559L75.8889 48.8971L72.5137 51.6394C71.962 52.0775 71.4102 52.5157 70.891 52.97L69.9174 53.7814L66.8342 56.4264L65.0168 57.9517L64.1568 58.7144L61.3495 61.2296L59.451 62.9335L58.6234 63.6961C57.7146 64.5399 56.806 65.3188 55.9135 66.2437L54.0149 68.0125L53.2198 68.7914L50.591 71.3553C49.9744 71.9557 49.3415 72.5561 48.7411 73.1727L47.946 73.9678L45.3983 76.5804L43.5323 78.2842L42.7533 79.128L40.2868 81.7892L38.5505 83.6553L37.7879 84.5316C36.9603 85.4403 36.1652 86.349 35.3538 87.274C34.7859 87.8906 34.2179 88.5234 33.7311 89.1563L33.0009 90.0325C32.1896 90.9737 31.3782 91.9311 30.5831 92.8885L28.9604 94.8195L28.2789 95.6633C27.4675 96.6531 26.6561 97.6592 25.8773 98.6491C25.358 99.3144 24.8225 99.9635 24.2545 100.613L23.6704 101.375C22.8104 102.495 21.9666 103.631 21.1227 104.75C20.6197 105.416 20.1005 106.065 19.6136 106.73L19.208 107.314C18.1857 108.71 17.1958 110.105 16.206 111.517C15.8165 112.085 15.3946 112.637 15.0052 113.14L14.8267 113.399C13.3662 115.563 11.9383 117.727 10.5428 119.89L10.4129 120.085C9.37438 121.708 8.35207 123.33 7.36222 124.953L6.63203 126.154L5.75576 127.598C5.17159 128.604 4.60365 129.61 4.0357 130.616L3.40283 131.704C2.51034 133.326 1.65035 134.949 0.806542 136.572L0.319702 137.497L19.5487 158.592C20.5386 156.677 21.5771 154.778 22.6481 152.863L23.2647 151.776C24.0598 150.235 24.8874 148.742 25.7637 147.265Z" fill="url(#paint1_linear)"/>
<path d="M19.451 158.543C52.5378 94.7057 128.042 33.8544 188.114 22.6253C248.187 11.3963 270.061 54.0246 236.974 117.862L202.021 124.352C224.479 81.0264 209.631 52.0936 168.869 59.7203C128.107 67.347 76.8621 108.645 54.4201 151.955L19.451 158.543Z" fill="url(#paint2_linear)"/>
<defs>
<linearGradient id="paint0_linear" x1="13164.1" y1="23042.8" x2="9912.25" y2="25377.3" gradientUnits="userSpaceOnUse">
<stop stop-color="#F8C7C8"/>
<stop offset="0.42" stop-color="#DE7C83"/>
<stop offset="0.49" stop-color="#D97781"/>
<stop offset="0.78" stop-color="#C7687A"/>
<stop offset="0.99" stop-color="#C16377"/>
</linearGradient>
<linearGradient id="paint1_linear" x1="100.44" y1="-31.4915" x2="122.444" y2="93.4077" gradientUnits="userSpaceOnUse">
<stop stop-color="#FEEDED"/>
<stop offset="1" stop-color="#EE8D91"/>
</linearGradient>
<linearGradient id="paint2_linear" x1="93194" y1="50723.7" x2="92639.4" y2="39739" gradientUnits="userSpaceOnUse">
<stop stop-color="#F8C7C8"/>
<stop offset="0.42" stop-color="#DE7C83"/>
<stop offset="0.49" stop-color="#D97781"/>
<stop offset="0.78" stop-color="#C7687A"/>
<stop offset="0.99" stop-color="#C16377"/>
</linearGradient>
</defs>
</svg>
