<svg width="250" height="215" viewBox="0 0 250 215" fill="none" xmlns="http://www.w3.org/2000/svg">
<path d="M136.616 13.4554L56.7157 131.64C54.2659 135.298 54.2876 140.839 56.7624 144.173L97.9736 199.278C98.6551 200.125 99.3922 200.824 100.24 201.224L106.429 204.078C105.581 203.678 104.891 203.098 104.162 202.133L102.024 199.355L107.066 201.637C108.613 202.351 110.558 201.754 111.783 199.925L105.594 197.07C104.583 198.569 103.243 199.245 101.828 199.151L62.8955 147.177C60.6635 144.164 60.3729 139.102 62.2641 135.483L64.1096 136.37L144.01 18.1854L142.165 17.2991L142.749 16.4592C143.176 15.7998 143.65 15.2581 144.17 14.8341C144.17 14.8341 144.17 14.8341 144.217 14.9518L185.484 69.9071C187.23 72.2767 187.202 76.2479 185.494 78.8856L191.683 81.7402C193.437 79.2203 193.419 75.1313 191.672 72.7617L150.461 17.6573C149.976 17.0139 149.434 16.5196 148.885 16.2922L144.691 14.4101C146.243 13.405 147.872 13.1689 149.419 13.8826L143.231 11.028C140.984 10.0006 138.426 10.7863 136.616 13.4554Z" fill="#71FFF4"/>
<path d="M187.992 76.3472L164.282 111.551L164.316 113.698L189.161 76.9317L187.992 76.3472Z" fill="#71FFF4"/>
<path d="M164.887 36.9956L159.035 34.3694L177.546 59.443L183.442 62.183L164.887 36.9956Z" fill="#727272"/>
<path d="M177.741 59.1181L183.965 61.9886C183.815 61.9018 183.618 61.6967 183.421 61.4916L177.197 58.6211C177.291 58.8578 177.441 58.9446 177.741 59.1181Z" fill="#727272"/>
<path d="M164.996 46.9079L158.962 44.1843L159.108 111.173L165.044 113.928L164.996 46.9079Z" fill="#D2FDFF"/>
<path d="M167.401 33.7873C166.899 33.0547 165.935 33.1054 165.374 33.9194C164.814 34.7335 164.862 35.9915 165.363 36.7241L183.75 61.7149C184.251 62.4475 185.215 62.3968 185.776 61.5828C186.336 60.7687 186.288 59.5107 185.787 58.7781L167.401 33.7873Z" fill="#727272"/>
<path d="M167.027 34.2583L160.801 31.3868C160.248 31.158 159.63 31.3476 159.201 32.0108C158.612 32.8556 158.672 34.166 159.207 34.9315L165.433 37.803C164.897 37.0375 164.838 35.7272 165.426 34.8823C165.856 34.2191 166.473 34.0295 167.027 34.2583Z" fill="#727272"/>
<path d="M94.6549 174.566L88.7017 171.805L98.6146 185.269L104.667 187.999L94.6549 174.566Z" fill="#A4F6FF"/>
<path d="M94.8548 175.018L88.662 172.162L88.6652 173.615L94.858 176.471L94.8548 175.018Z" fill="#CCE4E5"/>
<path d="M152.614 27.7687L146.212 24.8942L137.48 37.9405L143.835 40.695L152.614 27.7687Z" fill="#A4F6FF"/>
<path d="M147.789 26.9277L139.385 39.349L139.746 150.494L163.41 115.26L163.205 47.6919L147.789 26.9277Z" fill="#A4F6FF"/>
<path d="M138.076 40.5318L132.099 37.9269L132.19 148.123L138.211 150.842L138.076 40.5318Z" fill="#A4F6FF"/>
<path d="M98.3398 93.002L92.4106 90.2498L92.4789 172.339L98.4081 175.091L98.3398 93.002Z" fill="#A4F6FF"/>
<path d="M66.4405 137.053L60.4771 134.355L89.0799 173.32L94.9458 176.049L66.4405 137.053Z" fill="#D2FDFF"/>
<path d="M77.6814 159.303L71.7327 156.544L82.2009 170.595L88.1497 173.354L77.6814 159.303Z" fill="#727272"/>
<path d="M79.0496 175.894L85.2671 178.762C86.1192 179.163 87.1474 178.848 87.7905 177.854C88.7508 176.498 88.6709 174.267 87.7421 173.093L81.5247 170.225C82.5004 171.518 82.5333 173.631 81.573 174.987C80.8829 175.862 79.8547 176.178 79.0496 175.894Z" fill="#727272"/>
<path d="M73.3222 164.918L67.3774 162.16L77.7393 176.236L83.6841 178.994L73.3222 164.918Z" fill="#727272"/>
<path d="M78.4794 176.563L84.6931 179.429C84.2908 179.287 83.9443 178.995 83.6535 178.554L77.4397 175.688C77.7305 176.13 78.1798 176.389 78.4794 176.563Z" fill="#727272"/>
<path d="M112.191 74.1112L106.268 71.3615L106.323 181.18L112.343 183.899L112.191 74.1112Z" fill="#D2FDFF"/>
<path d="M141.317 40.7423L134.953 37.9835L112.53 71.1675L118.836 74.0786L141.317 40.7423Z" fill="#D2FDFF"/>
<path d="M116.99 74.0826L110.756 71.2073L110.953 71.4127L117.187 74.2881L116.99 74.0826Z" fill="#D2FDFF"/>
<path d="M111.609 73.787L99.4385 91.9715L99.5577 174.229L109.568 187.66L112.04 184.063L111.798 73.985L111.609 73.787Z" fill="#A4F6FF"/>
<path d="M115.986 74.1401L109.686 71.2327L96.8869 90.2448L103.187 93.1522L115.986 74.1401Z" fill="#A4F6FF"/>
<path d="M77.0872 159.062L70.8726 156.196C71.1721 156.369 71.4717 156.542 71.7626 156.983L77.9772 159.849C77.6863 159.408 77.4895 159.204 77.0872 159.062Z" fill="#727272"/>
<path d="M77.0317 158.537L70.8157 155.67C69.814 155.182 68.5804 155.56 67.7789 156.735C66.7073 158.39 66.6757 160.92 67.8481 162.417L74.064 165.284C72.8917 163.787 72.9233 161.257 73.9949 159.602C74.7964 158.427 75.9272 158.08 77.0317 158.537Z" fill="#727272"/>
<path d="M88.1976 172.764C89.3155 174.21 89.2758 176.66 88.2428 178.267C87.2098 179.873 85.3547 179.94 84.3354 178.463L73.9713 164.385C72.8534 162.939 72.8931 160.488 73.9261 158.882C74.9592 157.276 76.8142 157.209 77.8335 158.686L88.1976 172.764ZM74.1779 164.064L84.542 178.142C85.4721 179.39 86.9866 179.301 87.7684 177.902C88.6935 176.586 88.6251 174.426 87.7398 173.292L77.3757 159.214C76.4456 157.965 74.9311 158.054 74.1493 159.454C73.3675 160.853 73.3465 162.784 74.1779 164.064Z" fill="#727272"/>
<path d="M99.7116 93.2185L93.4026 90.3061L62.8823 135.3L69.2957 138.18L99.7116 93.2185Z" fill="#D2FDFF"/>
<path d="M191.859 72.3275C193.606 74.6976 193.68 78.6384 191.87 81.3081L111.95 199.52C110.196 202.04 107.3 202.269 105.553 199.899L64.331 144.781C62.5841 142.411 62.5101 138.47 64.3201 135.801L144.24 17.5889C145.995 15.0684 148.891 14.8398 150.637 17.2099L191.859 72.3275ZM136.4 38.8891L114.355 71.5534L101.684 90.2412L71.9164 134.393L102.218 174.764L112.661 188.6L115.214 184.91L137.046 152.575L161.43 116.55L185.815 80.5251L161.052 47.4374L145.126 26.1689L136.4 38.8891ZM80.9119 163.074L91.7382 177.586C92.9057 179.077 94.6842 178.927 95.7983 177.396C96.8656 175.747 96.8972 173.227 95.7297 171.736L84.9034 157.225C83.7359 155.733 81.9575 155.883 80.8433 157.414C79.7292 158.946 79.8468 161.552 80.9119 163.074ZM179.018 60.5488L159.496 34.5715C158.963 33.8102 157.948 33.8576 157.363 34.6978C156.779 35.538 156.837 36.8411 157.37 37.6024L176.892 63.5797C177.425 64.341 178.44 64.2935 179.025 63.4534C179.554 62.7624 179.598 61.4278 179.018 60.5488Z" fill="#FCFCFC"/>
<path d="M135.853 40.4017L114.302 72.4491L114.492 72.6488L114.928 183.552L136.27 151.828L135.853 40.4017Z" fill="#D2FDFF"/>
<path d="M97.7535 92.8656L68.6288 136.044L98.0067 175.688L97.7535 92.8656Z" fill="#D2FDFF"/>
<path d="M193.031 70.3968C195.506 73.7317 195.527 79.2731 193.077 82.9315L113.171 201.125C110.721 204.783 106.764 204.941 104.186 201.638L62.9718 146.529C60.4968 143.194 60.4283 137.535 62.9251 133.995L142.832 15.8015C145.282 12.143 149.239 11.9847 151.816 15.2882L193.031 70.3968ZM64.2329 135.839C62.4786 138.359 62.4971 142.448 64.2437 144.818L105.458 199.926C107.205 202.296 110.1 202.068 111.854 199.547L191.761 81.3543C193.515 78.8342 193.497 74.745 191.75 72.3752L150.536 17.2666C148.789 14.8968 145.894 15.1254 144.139 17.6455L64.2329 135.839Z" fill="#5DD8D2"/>
<path d="M165.615 45.999L165.802 113.588L189.671 78.3748L165.615 45.999Z" fill="#D2FDFF"/>
<path d="M77.4786 159.2C76.5516 157.953 75.0409 158.043 74.2605 159.44C73.3373 160.755 73.4045 162.911 74.2871 164.043L84.6182 178.097C85.5452 179.344 87.0559 179.254 87.8363 177.856C88.7595 176.542 88.6923 174.386 87.8097 173.253L77.4786 159.2Z" fill="#FCFCFC"/>
</svg>
