<svg width="154" height="166" viewBox="0 0 154 166" fill="none" xmlns="http://www.w3.org/2000/svg">
<path d="M118.603 2.46564L122.322 7.39102L122.404 7.4932L118.684 2.57804L118.603 2.46564Z" fill="#9D7677"/>
<path d="M118.685 2.578L122.404 7.49321L122.588 7.78956L118.869 2.86413L118.685 2.578Z" fill="#A2797B"/>
<path d="M118.868 2.86414L122.588 7.78959C122.642 7.88881 122.689 7.99119 122.731 8.09616L119.021 3.18092L118.868 2.86414Z" fill="#A77D7E"/>
<path d="M119.021 3.18091L122.731 8.09611C122.731 8.20852 122.823 8.32091 122.864 8.43331L119.185 3.51813L119.062 3.18091" fill="#AC8182"/>
<path d="M119.185 3.51813L122.905 8.43334C122.943 8.55405 122.973 8.67688 122.997 8.80121L119.287 3.87579C119.26 3.75491 119.225 3.63553 119.185 3.51813Z" fill="#B18486"/>
<path d="M119.247 3.87579L122.955 8.80122L119.236 3.88601" fill="#B6888A"/>
<path d="M4.54135 156.594L8.26104 161.509C7.57893 161.541 6.89866 161.416 6.27187 161.145C5.64508 160.874 5.08822 160.464 4.64355 159.946L0.934082 155.031C1.37816 155.547 1.93345 155.956 2.55823 156.227C3.183 156.497 3.86103 156.623 4.54135 156.594Z" fill="#806061"/>
<path d="M115.089 0.94303C117.245 1.01456 118.829 1.96489 119.259 3.90645L150.078 145.456C151.396 151.505 140.421 161.336 132.706 161.06L4.59452 156.594C-0.218484 156.421 -1.16881 152.129 2.46905 147.009L99.7612 9.92526C103.665 4.33563 110.593 0.779531 115.089 0.94303Z" fill="url(#paint0_linear)"/>
<path d="M146.775 153.651L134.921 160.886C134.191 161.029 133.447 161.087 132.704 161.06L123.936 160.753L149.984 144.853L150.117 145.456C150.597 147.878 149.146 150.913 146.775 153.651ZM119.716 6.04215L119.246 3.90644C119.112 3.23143 118.783 2.61049 118.3 2.12022C117.817 1.62994 117.201 1.29177 116.528 1.1474L97.8377 12.5617L89.2745 24.63L119.716 6.04215ZM123.66 24.119L122.342 18.0798L72.1377 48.7359L63.5745 60.8041L123.66 24.119ZM134.165 72.4024L0.443359 154.08C0.954294 155.562 2.33382 156.512 4.53084 156.594L7.35121 156.686L135.535 78.462L134.165 72.4024ZM127.595 42.2265L126.338 36.2179L46.499 84.9611L37.9357 97.0294L127.595 42.2265ZM131.539 60.3341L130.221 54.2948L20.7581 121.197L12.1847 133.265L131.539 60.3341ZM143.362 114.646L142.054 108.607L60.3045 158.505L70.9013 158.873L143.362 114.646ZM147.306 132.754L145.988 126.725L92.1153 159.619L102.712 159.987L147.306 132.754ZM139.428 96.5491L138.11 90.5405L28.555 157.432L39.1518 157.8L139.428 96.5491Z" fill="url(#paint1_linear)"/>
<path d="M153.929 151.516V151.137C153.924 151.1 153.924 151.062 153.929 151.025C153.929 150.974 153.929 150.933 153.929 150.882C153.934 150.834 153.934 150.786 153.929 150.739L153.867 150.381L122.966 8.79097C122.863 8.27125 122.643 7.78191 122.322 7.36036L118.603 2.43494C118.922 2.86129 119.142 3.35355 119.246 3.87578L150.066 145.425C150.101 145.594 150.124 145.764 150.137 145.936C150.137 145.936 150.137 146.028 150.137 146.069C150.148 146.232 150.148 146.396 150.137 146.559C150.147 146.74 150.147 146.921 150.137 147.101V147.295C150.137 147.418 150.137 147.551 150.076 147.673L150.015 147.929C150.015 148.031 150.015 148.143 149.933 148.256L149.81 148.624L149.719 148.9C149.626 149.157 149.52 149.409 149.402 149.656V149.727C149.269 150.013 149.116 150.31 148.942 150.606L148.819 150.821C148.656 151.107 148.482 151.383 148.288 151.659V151.71C148.084 152.006 147.869 152.302 147.644 152.589L147.47 152.803C147.246 153.079 147.021 153.355 146.776 153.621C146.78 153.637 146.78 153.655 146.776 153.672C146.551 153.927 146.305 154.183 146.06 154.438C145.967 154.542 145.868 154.641 145.764 154.734C145.662 154.837 145.56 154.929 145.468 155.031L145.089 155.368L144.844 155.603L144.231 156.134L143.587 156.656L143.403 156.788L142.913 157.156L142.729 157.299L142.065 157.759L141.39 158.188L141.206 158.311L140.655 158.638L140.501 158.72L139.817 159.098L139.653 159.18L139.101 159.445L138.877 159.558L138.355 159.782L138.141 159.874C137.957 159.956 137.763 160.028 137.579 160.089L137.385 160.171L136.925 160.324L136.598 160.426H136.496L135.668 160.641L135.443 160.692C135.035 160.784 134.622 160.852 134.207 160.896H134.074C133.652 160.927 133.228 160.927 132.807 160.896L4.69484 156.431C4.01453 156.46 3.33652 156.334 2.71176 156.063C2.087 155.792 1.53172 155.383 1.08765 154.867L4.79704 159.782C5.24171 160.301 5.79855 160.711 6.42533 160.982C7.05211 161.253 7.73236 161.377 8.41446 161.346L136.526 165.822C136.946 165.83 137.366 165.813 137.783 165.771H137.926C138.342 165.727 138.755 165.658 139.163 165.566H139.275H139.387L140.215 165.341H140.297L140.624 165.229L141.053 165.086L141.247 165.014L141.728 164.831H141.799L142.024 164.739L142.361 164.585L142.545 164.504L142.77 164.401L142.964 164.309L143.322 164.125L143.485 164.044H143.546C143.73 163.952 143.925 163.85 144.108 163.737H144.17L144.323 163.645L144.66 163.451L144.875 163.318L145.059 163.206L145.202 163.114L145.723 162.777L146.254 162.409L146.377 162.317C146.446 162.275 146.511 162.227 146.571 162.174L146.796 162.01L147.062 161.806C147.124 161.767 147.182 161.723 147.235 161.673L147.327 161.601L147.879 161.162L148.421 160.702L148.482 160.631L148.738 160.406L149.013 160.15L149.105 160.058L149.412 159.772L149.637 159.547L149.708 159.466C149.954 159.22 150.199 158.965 150.424 158.709C150.669 158.434 150.894 158.168 151.118 157.892L151.282 157.667C151.517 157.381 151.732 157.085 151.936 156.799V156.748L152.467 155.91L152.59 155.685C152.753 155.388 152.917 155.102 153.05 154.806C153.05 154.806 153.05 154.806 153.05 154.755C153.168 154.505 153.274 154.249 153.367 153.988C153.367 153.988 153.367 153.917 153.367 153.876C153.367 153.835 153.367 153.774 153.418 153.723L153.54 153.345C153.536 153.29 153.536 153.236 153.54 153.181V153.018L153.602 152.772V152.619V152.384V152.2C153.602 152.2 153.602 152.139 153.602 152.118C153.612 151.965 153.612 151.812 153.602 151.659L153.929 151.516Z" fill="url(#paint2_linear)"/>
<path style="mix-blend-mode:overlay" opacity="0.8" d="M150.066 145.456L119.246 3.90651C118.817 1.94452 117.202 1.01462 115.077 0.943091C110.601 0.779592 103.673 4.33569 99.7489 9.92532L2.40575 147.009C-1.22188 152.119 -0.271549 156.421 4.54145 156.594L132.653 161.05C140.409 161.336 151.384 151.505 150.066 145.456ZM146.775 152.486C143.168 156.972 137.231 160.355 132.97 160.355H132.674L4.56188 155.879C3.90661 155.923 3.2516 155.789 2.66671 155.49C2.08181 155.192 1.58897 154.74 1.24081 154.183C0.464186 152.599 1.11818 150.095 2.99842 147.428L100.291 10.3443C104.153 4.89773 110.693 1.64817 114.791 1.64817H115.097C117.08 1.7197 118.255 2.52698 118.592 4.04957L149.402 145.599C149.769 147.438 148.819 149.942 146.775 152.486Z" fill="url(#paint3_linear)"/>
<defs>
<linearGradient id="paint0_linear" x1="35.6389" y1="22.0038" x2="98.627" y2="170.206" gradientUnits="userSpaceOnUse">
<stop stop-color="#F8C7C8"/>
<stop offset="0.42" stop-color="#DE7C83"/>
<stop offset="0.49" stop-color="#D97781"/>
<stop offset="0.78" stop-color="#C7687A"/>
<stop offset="0.99" stop-color="#C16377"/>
</linearGradient>
<linearGradient id="paint1_linear" x1="120.247" y1="174.508" x2="45.6304" y2="56.359" gradientUnits="userSpaceOnUse">
<stop stop-color="#1C0C5E"/>
<stop offset="0.21" stop-color="#36286F"/>
<stop offset="0.39" stop-color="#47397D"/>
<stop offset="0.51" stop-color="#5F4CAA"/>
<stop offset="0.76" stop-color="#6D53D5"/>
<stop offset="1" stop-color="#8468F5"/>
</linearGradient>
<linearGradient id="paint2_linear" x1="26.6548" y1="196.846" x2="157.311" y2="55.9606" gradientUnits="userSpaceOnUse">
<stop stop-color="#F8C7C8"/>
<stop offset="0.25" stop-color="#DE7C83"/>
<stop offset="0.29" stop-color="#D2707B"/>
<stop offset="0.39" stop-color="#B65468"/>
<stop offset="0.49" stop-color="#A4435D"/>
<stop offset="0.56" stop-color="#9E3D59"/>
<stop offset="0.69" stop-color="#A1405B"/>
<stop offset="0.79" stop-color="#AA4961"/>
<stop offset="0.88" stop-color="#BA586B"/>
<stop offset="0.96" stop-color="#D06E7A"/>
<stop offset="1" stop-color="#DE7C83"/>
</linearGradient>
<linearGradient id="paint3_linear" x1="26.9613" y1="60.4057" x2="116.743" y2="110.6" gradientUnits="userSpaceOnUse">
<stop stop-color="#FEEAEA"/>
<stop offset="0.09" stop-color="#FEE9E9" stop-opacity="0.97"/>
<stop offset="0.22" stop-color="#FEE6E6" stop-opacity="0.89"/>
<stop offset="0.38" stop-color="#FEE0E0" stop-opacity="0.75"/>
<stop offset="0.57" stop-color="#FED9D9" stop-opacity="0.56"/>
<stop offset="0.77" stop-color="#FDCFD0" stop-opacity="0.31"/>
<stop offset="0.99" stop-color="#FDC4C5" stop-opacity="0.02"/>
<stop offset="1" stop-color="#FDC3C4" stop-opacity="0"/>
</linearGradient>
</defs>
</svg>
