<svg width="197" height="176" viewBox="0 0 197 176" fill="none" xmlns="http://www.w3.org/2000/svg">
<path d="M0.0974293 101.247C0.0974293 115.182 10.1344 140.323 14.4221 150.068C16.7608 155.233 21.6331 159.325 29.2339 162.736L29.6237 161.859C29.039 161.567 28.4543 161.372 27.9671 161.079C23.4846 158.741 19.9765 154.843 17.5404 150.458C14.5195 145.293 12.668 139.446 11.0114 133.794C9.25739 127.753 7.89315 121.711 6.82123 115.474C6.23656 112.161 5.74931 108.751 5.55441 105.437C5.35952 103.001 5.0672 99.5906 6.334 97.3494C6.91868 96.3749 7.99059 95.4979 9.15995 95.4004L8.96504 93.8413C0.779531 94.6209 0.0974236 99.7855 -2.28882e-05 101.052C0.0974236 101.15 0.0974293 101.247 0.0974293 101.247Z" fill="#D6DDEA"/>
<path d="M123.075 169.265C123.465 168.388 123.66 167.511 123.66 166.439C123.172 152.894 115.864 125.998 110.797 111.479C105.73 96.9592 95.6925 95.8873 95.6925 95.8873L80.296 94.1333L80.7832 91.5022C80.7832 91.5022 81.0755 91.5022 81.4653 91.5022L81.5628 89.8457C63.1454 89.0661 15.2017 87.0197 12.7655 87.312C9.84213 87.6044 10.4268 89.8457 10.4268 89.8457L20.4638 89.3584L14.9093 91.6971C11.3038 91.5023 8.57533 91.892 6.4315 92.4767C3.05176e-05 94.4256 0.0974808 99.0056 0.0974808 99.0056C3.05176e-05 99.6878 2.28882e-05 100.272 2.28882e-05 101.052C0.0974731 99.7852 0.779579 94.718 8.96509 93.841C10.5242 93.6461 12.3757 93.6461 14.4221 93.9384C29.3314 95.4975 91.8921 99.0056 91.8921 99.0056C91.8921 99.0056 101.832 97.6414 106.314 112.746C110.797 127.752 120.541 158.643 118.885 167.121C117.326 175.696 88.8713 175.404 88.8713 175.404C105.34 176.671 120.054 175.599 123.075 169.265Z" fill="#EFEFEF"/>
<path d="M6.43147 97.2517C5.16466 99.493 5.45699 102.904 5.65188 105.34C5.84677 108.653 6.33402 112.064 6.9187 115.377C7.89317 121.516 9.25741 127.655 11.1089 133.697C12.7655 139.349 14.617 145.195 17.6378 150.36C20.1714 154.648 23.582 158.546 28.0646 160.982C28.5518 161.274 29.1365 161.566 29.7212 161.761C30.8905 162.249 32.1574 162.541 33.2293 162.054C34.4961 161.566 34.7884 160.3 34.3012 159.13C33.9114 158.156 32.9369 157.279 32.1573 156.499C31.2803 155.525 30.4033 154.453 29.5263 153.381C27.6748 151.14 26.0182 148.801 24.4591 146.267C21.4382 141.492 18.9046 136.523 16.9557 131.261C12.9604 120.736 11.2063 109.53 11.8885 98.3236C11.8885 98.1287 11.6936 96.1798 10.914 95.5951C10.4268 95.2054 9.84209 95.1079 9.25741 95.1079C8.08805 95.4002 6.9187 96.2773 6.43147 97.2517Z" fill="white"/>
<path d="M6.52889 92.3795C8.57527 91.7949 11.3038 91.405 15.0068 91.5999L20.5612 89.2612L10.5242 89.7485L6.52889 92.3795Z" fill="white"/>
<path d="M9.06256 93.7438L9.25747 95.3029C9.84215 95.2055 10.3294 95.4004 10.914 95.7902C11.6936 96.3749 11.8885 98.3238 11.8885 98.5187C11.2064 109.725 12.9604 120.931 16.9557 131.456C18.9047 136.718 21.4383 141.688 24.4591 146.462C26.0183 148.899 27.6749 151.237 29.5263 153.576C30.4034 154.648 31.2804 155.622 32.1574 156.694C32.8395 157.474 33.814 158.351 34.3012 159.325C34.7884 160.495 34.4961 161.761 33.2293 162.249C32.1574 162.736 30.8906 162.346 29.7212 161.956L29.3315 162.833C36.7374 166.147 46.6769 168.875 59.345 171.409C68.4075 173.26 79.0292 174.819 89.1636 175.599C89.1636 175.599 117.618 175.891 119.177 167.316C120.736 158.741 111.089 127.948 106.607 112.941C102.124 97.8365 92.1845 99.2008 92.1845 99.2008C92.1845 99.2008 29.5264 95.5953 14.7145 94.1336C12.3758 93.6463 10.6217 93.6463 9.06256 93.7438ZM16.4685 97.4467C15.9813 97.3493 15.8838 96.5697 16.4685 96.5697C42.5842 98.1289 68.6998 99.5906 94.8155 101.15C95.4002 101.15 99.5904 106.509 78.0547 104.658C71.3309 104.073 64.6071 103.099 57.7858 102.319C44.0459 100.662 30.3059 99.1033 16.4685 97.4467ZM94.5232 119.275C93.7436 117.911 92.1845 115.572 92.3794 113.915C92.5742 112.843 93.4513 112.161 94.6206 112.161C95.0104 112.161 95.9849 112.454 96.1798 112.551C99.2006 115.085 102.709 119.177 103.391 123.173C103.586 124.342 103.196 125.706 102.027 126.193C100.662 126.778 99.3955 125.609 98.5185 124.732C96.9593 123.173 95.6925 121.224 94.5232 119.275Z" fill="#D6DDEA"/>
<path d="M12.7655 87.2148C15.2017 86.9225 63.1454 88.9689 81.5628 89.7484C81.8551 89.7484 82.05 89.7484 82.3423 89.7484L103.001 82.4399C103.001 82.4399 120.834 80.8808 127.558 91.5025L125.024 103.488L122.198 111.284L131.748 146.267C131.748 146.267 136.912 160.982 128.727 167.024C129.312 166.731 138.959 161.274 145.585 148.996C152.504 136.328 155.622 129.117 155.622 129.117L154.843 127.168L152.406 130.481C152.406 130.481 148.411 108.166 144.513 97.3492L151.432 91.5999C151.529 91.405 152.114 89.651 151.627 87.6046C151.627 87.6046 146.56 80.3936 129.409 77.1778C127.46 76.788 125.511 76.4957 123.27 76.3008C122.978 76.3008 122.685 76.2034 122.393 76.2034C121.711 76.1059 121.029 76.0085 120.346 76.0085C99.6878 73.9621 84.6811 75.1314 84.6811 75.1314L84.4862 76.2034H81.4653L61.976 75.911C61.2939 75.8136 60.4169 75.7161 59.3449 75.7161C59.1501 75.7161 58.8577 75.7161 58.5654 75.7161C55.642 75.6187 51.7441 75.6187 47.9437 75.7161C42.2918 75.911 36.8348 76.3982 34.8859 76.9829C30.8906 78.0548 12.7655 87.2148 12.7655 87.2148Z" fill="white"/>
<path d="M16.4685 96.5698C15.8838 96.5698 15.9812 97.3494 16.4685 97.4468C30.2084 99.1034 44.0458 100.76 57.7858 102.319C64.5096 103.099 71.2334 104.171 78.0547 104.658C99.6878 106.509 95.4002 101.15 94.8155 101.15C68.7973 99.6881 42.5841 98.129 16.4685 96.5698Z" fill="white"/>
<path d="M58.468 75.5209C58.7603 75.5209 58.9552 75.5209 59.2475 75.5209C60.3195 75.5209 61.1965 75.6184 61.8786 75.7158L81.3679 76.0082C81.3679 76.0082 79.6139 68.4073 82.05 56.1291C83.6092 48.3334 86.7275 38.6862 93.0615 27.8696C101.344 13.7398 111.187 6.82113 118.885 3.4105C123.367 1.46157 127.07 0.681988 129.409 0.389648L106.509 2.1437C66.3611 15.8837 62.0735 66.6533 61.8786 70.6486C61.6837 73.3771 60.1246 74.7414 59.2475 75.2286C58.7603 75.4235 58.468 75.5209 58.468 75.5209Z" fill="#424556"/>
<path d="M80.7832 91.4048L80.296 94.0358L95.5951 95.8873C95.5951 95.8873 105.632 96.9592 110.699 111.479C115.766 125.998 123.075 152.894 123.562 166.439C123.562 167.511 123.367 168.388 122.978 169.265C124.147 169.07 125.219 168.777 126.096 168.388C126.486 168.095 131.845 163.515 129.604 154.648C127.265 145.39 113.818 106.022 113.818 106.022C113.818 106.022 111.089 94.6205 100.37 93.1588C91.5023 91.9895 83.804 91.5997 81.4653 91.4048C81.0755 91.5022 80.7832 91.4048 80.7832 91.4048Z" fill="white"/>
<path d="M81.9526 56.1294C79.5164 68.5051 81.2704 76.0085 81.2704 76.0085L84.2913 76.1059L84.4862 75.034L84.7785 73.28C84.7785 73.28 81.5628 69.6745 83.2194 63.7302C84.8759 57.786 82.1474 56.1294 82.1474 56.1294H81.9526Z" fill="#393E49"/>
<path d="M81.5628 89.7485L81.4654 91.4051C83.8041 91.5026 91.4049 91.8924 100.37 93.1592C111.089 94.6209 113.818 106.022 113.818 106.022C113.818 106.022 127.265 145.391 129.604 154.648C131.845 163.613 126.486 168.096 126.096 168.388C127.07 167.998 127.85 167.608 128.532 167.024C136.815 160.982 131.553 146.268 131.553 146.268L122.003 111.284L124.829 103.489L119.177 106.704C118.008 103.294 114.792 96.5698 108.458 93.1592C102.124 89.846 88.4815 90.1383 88.4815 90.1383C88.4815 90.1383 86.0453 90.0409 82.1475 89.846C82.05 89.7485 81.8551 89.7485 81.5628 89.7485Z" fill="#DDDDDD"/>
<path d="M103.001 82.4397L82.3424 89.7482C86.3377 89.9431 88.6764 90.0405 88.6764 90.0405C88.6764 90.0405 102.319 89.7482 108.653 93.0613C114.987 96.3745 118.105 103.196 119.372 106.606L125.024 103.391L127.558 91.5022C120.834 80.8805 103.001 82.4397 103.001 82.4397Z" fill="#424556"/>
<path d="M83.3168 63.8273C81.6602 69.7716 84.8759 73.3771 84.8759 73.3771L84.5836 75.1311C84.5836 75.1311 99.5903 73.9618 120.249 76.0081L143.929 66.5558L136.23 42.7789L137.4 39.8555C103.586 49.8925 83.3168 63.8273 83.3168 63.8273Z" fill="#424556"/>
<path d="M92.4768 113.915C92.1845 115.669 93.7436 117.91 94.6206 119.275C95.6925 121.224 97.0568 123.173 98.5185 124.732C99.3955 125.609 100.662 126.681 102.027 126.193C103.196 125.706 103.586 124.342 103.391 123.173C102.806 119.08 99.2006 115.085 96.1798 112.551C96.0823 112.453 95.1078 112.161 94.6206 112.161C93.5487 112.161 92.6717 112.843 92.4768 113.915Z" fill="white"/>
<path d="M122.295 76.2032C122.588 76.2032 122.88 76.3007 123.172 76.3007C125.414 76.593 127.46 76.8853 129.312 77.1777C129.312 77.1777 135.256 76.3006 143.344 77.8598C151.334 79.4189 155.525 85.8504 155.525 85.8504L155.72 86.0453C156.207 85.5581 156.889 85.0708 157.668 84.3887C157.668 84.3887 151.822 78.2496 145.293 76.0083C138.666 73.8645 122.295 76.2032 122.295 76.2032Z" fill="#25282D"/>
<path d="M118.787 3.41063C118.787 3.41063 135.743 9.15997 142.272 17.5404C146.949 16.7608 158.74 15.5914 158.74 15.5914C158.74 15.5914 165.367 19.6842 166.439 25.4336L167.218 24.8489L168.68 23.7769L169.167 23.3872L168.193 20.951C168.193 20.951 150.555 0.877019 131.943 0H131.845L129.214 0.194905C129.214 0.194905 129.214 0.194905 129.117 0.194905C126.973 0.682138 123.27 1.4617 118.787 3.41063Z" fill="#272B3A"/>
<path d="M143.344 77.8596C135.353 76.3004 129.312 77.1775 129.312 77.1775C146.56 80.3932 151.529 87.6042 151.529 87.6042C152.017 89.6506 151.432 91.4046 151.334 91.5995L154.258 87.117C154.258 87.117 154.745 86.7272 155.525 86.0451L155.33 85.8502C155.525 85.9476 151.432 79.4187 143.344 77.8596Z" fill="#323642"/>
<path d="M137.4 39.856L136.23 42.7794L143.929 66.5564L145.488 70.6491C145.488 70.6491 164.003 68.1155 174.722 69.4797C175.696 68.6027 176.573 67.7257 177.548 66.9461L153.186 67.141C152.991 61.9763 147.534 39.856 147.534 39.856L172.188 38.979C176.476 45.8977 178.327 65.7768 178.327 66.264C178.717 65.9717 179.009 65.5819 179.399 65.2895C180.763 64.0227 182.03 62.7559 183.102 61.684L181.835 40.2458C181.835 40.2458 174.429 34.8862 172.578 34.3015C170.824 33.7169 170.044 32.4501 170.044 32.4501L169.46 30.7935L147.826 31.573C147.924 31.9628 148.021 32.3526 148.021 32.6449C148.021 33.7168 137.4 39.856 137.4 39.856Z" fill="#697084"/>
<path d="M142.272 17.5404C141.2 17.7353 140.42 17.9302 140.42 18.0277C140.323 18.6124 148.801 26.0183 148.801 26.0183L166.439 25.5311C165.269 19.7817 158.74 15.689 158.74 15.689C158.74 15.689 146.949 16.8583 142.272 17.5404Z" fill="#323642"/>
<path d="M151.432 91.6969L144.513 97.4463C148.411 108.263 152.406 130.578 152.406 130.578L154.843 127.265L155.622 129.214C157.863 129.214 158.838 125.316 159.423 125.316C160.007 125.316 161.371 125.706 161.371 125.706C161.371 125.706 168.485 122.782 170.142 121.613C171.798 120.444 172.188 117.228 172.188 117.228C172.188 117.228 171.701 115.571 171.019 113.038C168.875 105.437 164.587 90.0403 163.808 87.7016C162.833 84.4859 161.566 84.9731 161.566 84.9731L154.55 87.2144L151.432 91.6969Z" fill="#424556"/>
<path d="M148.898 26.0184C146.56 26.8954 146.852 27.9673 146.852 28.2597C146.852 28.4546 147.437 30.2086 147.826 31.5728L169.46 30.7933L167.316 25.0439L166.536 25.6286L148.898 26.0184Z" fill="#393E49"/>
<path d="M172.188 38.9785L147.534 39.8555C147.534 39.8555 152.991 61.9759 153.186 67.1406L177.548 66.9457C177.84 66.6533 178.035 66.4584 178.327 66.1661C178.327 65.6789 176.378 45.8972 172.188 38.9785Z" fill="#323642"/>
<path d="M172.188 111.089C172.48 110.602 181.056 92.6718 179.399 65.1919C179.107 65.4842 178.717 65.874 178.327 66.1664C178.035 66.4587 177.84 66.6536 177.548 66.946C176.671 67.7255 175.696 68.6025 174.722 69.4796C168.68 74.9366 161.664 81.0757 157.668 84.4863C156.889 85.1685 156.207 85.6557 155.72 86.1429C154.843 86.825 154.453 87.2148 154.453 87.2148L161.469 84.9736C161.469 84.9736 162.736 84.4863 163.71 87.7021C164.49 90.1382 168.777 105.535 170.921 113.038C170.921 113.038 171.506 112.453 172.383 111.382L172.188 111.089Z" fill="#272B3A"/>
<path d="M182.615 37.7119L174.332 32.8396C174.332 32.8396 171.993 32.06 171.214 29.8188C170.434 27.5775 168.777 23.8745 168.777 23.8745L167.316 24.9464L169.459 30.6958L170.044 32.3524C170.044 32.3524 170.726 33.6192 172.578 34.2039C174.332 34.7885 181.835 40.1481 181.835 40.1481L184.076 38.394L182.615 37.7119Z" fill="#323642"/>
<path d="M172.188 111.089L172.48 111.381C176.086 107.191 185.538 96.3745 191.385 91.015C198.693 84.2912 196.355 80.6857 196.355 80.6857C191.093 67.0431 189.534 36.6398 188.267 37.0296C187 37.4194 186.805 45.0202 187.877 49.113C188.949 53.2057 187.877 54.57 186.415 57.9806C186.318 58.2729 185.928 58.8576 185.246 59.4423C184.661 60.027 183.979 60.8066 183.199 61.5861C182.128 62.658 180.861 63.8274 179.497 65.1916C181.056 92.6716 172.383 110.602 172.188 111.089Z" fill="#424556"/>
<path d="M181.835 40.2455L183.102 61.6837C183.979 60.8067 184.661 60.1246 185.148 59.5399L183.979 38.5889L181.835 40.2455Z" fill="#323642"/>
<path d="M182.615 37.712L183.979 38.4916L185.148 59.4426C185.733 58.7604 186.123 58.2732 186.318 57.9809C187.779 54.5702 188.851 53.206 187.779 49.1132C186.708 45.0205 187 37.4196 188.169 37.0299C188.267 37.0299 184.564 36.5426 182.615 37.712Z" fill="#697084"/>
</svg>
