<svg width="1366" height="807" viewBox="0 0 1366 807" fill="none" xmlns="http://www.w3.org/2000/svg">
<path opacity="0.1" d="M70 49.896C31.3401 49.896 0 81.236 0 119.896V806.418C153.813 790.596 282.718 750.723 420.8 688.513C508.2 649.137 595.6 609.761 683 609.761C737.356 609.761 791.713 624.992 845.961 640.192C905.486 656.87 964.88 681.512 1024 677.956C1138 671.16 1271 551.547 1328 511.741L1366 471.934V119.896C1366 81.2361 1334.66 49.896 1296 49.896H70Z" fill="#7478F2"/>
<path fill-rule="evenodd" clip-rule="evenodd" d="M70 0.679688C31.3401 0.679688 0 32.0197 0 70.6797V435.571V444.219V804.571L57 790.571C114 777.571 228 749.571 341 702.571C367.6 691.371 394.2 679.027 420.8 666.684C508.2 626.127 595.6 585.571 683 585.571C737.356 585.571 791.713 601.258 845.961 616.913C905.486 634.092 964.88 651.233 1024 647.571C1138 640.571 1252 558.571 1309 517.571L1366 476.571V444.219V435.571V70.6797C1366 32.0198 1334.66 0.679688 1296 0.679688H70Z" fill="#F0FCFF"/>
<g opacity="0.06">
<rect width="4.51266" height="135.944" rx="2.25633" transform="matrix(-0.819152 0.573576 0.573576 0.819152 444.073 111.635)" fill="url(#paint0_linear)"/>
<rect width="3.3845" height="102.099" rx="1.69225" transform="matrix(-0.819152 0.573576 0.573576 0.819152 653.551 101.481)" fill="url(#paint1_linear)"/>
<rect width="5.07675" height="39.4858" rx="2.53837" transform="matrix(-0.819152 0.573576 0.573576 0.819152 825.855 192.299)" fill="url(#paint2_linear)"/>
<rect width="16.9225" height="225.633" rx="8.46125" transform="matrix(-0.819152 0.573576 0.573576 0.819152 463.827 100.917)" fill="url(#paint3_linear)"/>
<rect width="12.9739" height="169.225" rx="6.48695" transform="matrix(-0.819152 0.573576 0.573576 0.819152 489.925 38.8682)" fill="url(#paint4_linear)"/>
<rect width="10.7176" height="225.633" rx="5.35879" transform="matrix(-0.819152 0.573576 0.573576 0.819152 1007.03 54.6626)" fill="url(#paint5_linear)"/>
<rect width="10.7176" height="225.633" rx="5.35879" transform="matrix(-0.819152 0.573576 0.573576 0.819152 857.551 457.418)" fill="url(#paint6_linear)"/>
<rect opacity="0.312783" width="2.73412" height="135.944" rx="1.36706" transform="matrix(-0.809017 0.587785 0.587785 0.809017 629.299 422.445)" fill="url(#paint7_linear)"/>
<rect opacity="0.312783" width="2.73412" height="135.944" rx="1.36706" transform="matrix(-0.809017 0.587785 0.587785 0.809017 711.656 624.386)" fill="url(#paint8_linear)"/>
<rect opacity="0.312783" width="2.73412" height="135.944" rx="1.36706" transform="matrix(-0.809017 0.587785 0.587785 0.809017 816.011 504.801)" fill="url(#paint9_linear)"/>
<rect width="2.73412" height="56.4083" rx="1.36706" transform="matrix(-0.809017 0.587785 0.587785 0.809017 599.403 405.522)" fill="url(#paint10_linear)"/>
<rect opacity="0.169044" width="3.86397" height="42.3062" rx="1.93198" transform="matrix(-0.809017 0.587785 0.587785 0.809017 324.48 196.65)" fill="url(#paint11_linear)"/>
<rect opacity="0.312783" width="4.51266" height="135.944" rx="2.25633" transform="matrix(-0.809017 0.587785 0.587785 0.809017 706.325 452.905)" fill="url(#paint12_linear)"/>
<rect width="2.73412" height="135.944" rx="1.36706" transform="matrix(-0.809017 0.587785 0.587785 0.809017 269.414 306.244)" fill="url(#paint13_linear)"/>
<rect opacity="0.143965" width="6.769" height="135.944" rx="3.3845" transform="matrix(-0.809017 0.587785 0.587785 0.809017 251.244 306.244)" fill="url(#paint14_linear)"/>
</g>
<defs>
<linearGradient id="paint0_linear" x1="-2.56228" y1="-226.377" x2="-19.7094" y2="-226.175" gradientUnits="userSpaceOnUse">
<stop stop-color="#8468F5"/>
<stop offset="1" stop-color="#EC74E7"/>
</linearGradient>
<linearGradient id="paint1_linear" x1="13.8634" y1="-456.292" x2="-15.0036" y2="-456.108" gradientUnits="userSpaceOnUse">
<stop stop-color="#8468F5"/>
<stop offset="1" stop-color="#EC74E7"/>
</linearGradient>
<linearGradient id="paint2_linear" x1="0.0582001" y1="-115.647" x2="-26.4725" y2="-114.094" gradientUnits="userSpaceOnUse">
<stop stop-color="#8468F5"/>
<stop offset="1" stop-color="#EC74E7"/>
</linearGradient>
<linearGradient id="paint3_linear" x1="-9.60857" y1="-375.729" x2="-73.8736" y2="-374.019" gradientUnits="userSpaceOnUse">
<stop stop-color="#8468F5"/>
<stop offset="1" stop-color="#EC74E7"/>
</linearGradient>
<linearGradient id="paint4_linear" x1="45.1606" y1="-878.34" x2="-90.9756" y2="-876.869" gradientUnits="userSpaceOnUse">
<stop stop-color="#8468F5"/>
<stop offset="0.946455" stop-color="#E673E8"/>
<stop offset="1" stop-color="#EC74E7"/>
</linearGradient>
<linearGradient id="paint5_linear" x1="-6.08543" y1="-375.729" x2="-46.8039" y2="-375.043" gradientUnits="userSpaceOnUse">
<stop stop-color="#8468F5"/>
<stop offset="1" stop-color="#EC74E7"/>
</linearGradient>
<linearGradient id="paint6_linear" x1="-6.08543" y1="-375.729" x2="-46.8039" y2="-375.043" gradientUnits="userSpaceOnUse">
<stop stop-color="#8468F5"/>
<stop offset="1" stop-color="#EC74E7"/>
</linearGradient>
<linearGradient id="paint7_linear" x1="-1.55243" y1="-226.377" x2="-11.9424" y2="-226.303" gradientUnits="userSpaceOnUse">
<stop stop-color="#8468F5"/>
<stop offset="1" stop-color="#EC74E7"/>
</linearGradient>
<linearGradient id="paint8_linear" x1="-1.55243" y1="-226.377" x2="-11.9424" y2="-226.303" gradientUnits="userSpaceOnUse">
<stop stop-color="#8468F5"/>
<stop offset="1" stop-color="#EC74E7"/>
</linearGradient>
<linearGradient id="paint9_linear" x1="-1.55243" y1="-226.377" x2="-11.9424" y2="-226.303" gradientUnits="userSpaceOnUse">
<stop stop-color="#8468F5"/>
<stop offset="1" stop-color="#EC74E7"/>
</linearGradient>
<linearGradient id="paint10_linear" x1="-1.55243" y1="-93.9323" x2="-11.9398" y2="-93.7537" gradientUnits="userSpaceOnUse">
<stop stop-color="#8468F5"/>
<stop offset="1" stop-color="#EC74E7"/>
</linearGradient>
<linearGradient id="paint11_linear" x1="-2.19396" y1="-70.4493" x2="-16.8628" y2="-69.9738" gradientUnits="userSpaceOnUse">
<stop stop-color="#8468F5"/>
<stop offset="1" stop-color="#EC74E7"/>
</linearGradient>
<linearGradient id="paint12_linear" x1="-2.56228" y1="-226.377" x2="-19.7094" y2="-226.175" gradientUnits="userSpaceOnUse">
<stop stop-color="#8468F5"/>
<stop offset="1" stop-color="#EC74E7"/>
</linearGradient>
<linearGradient id="paint13_linear" x1="-1.55243" y1="-226.377" x2="-11.9424" y2="-226.303" gradientUnits="userSpaceOnUse">
<stop stop-color="#8468F5"/>
<stop offset="1" stop-color="#EC74E7"/>
</linearGradient>
<linearGradient id="paint14_linear" x1="-3.84343" y1="-226.377" x2="-29.5596" y2="-225.922" gradientUnits="userSpaceOnUse">
<stop stop-color="#8468F5"/>
<stop offset="1" stop-color="#EC74E7"/>
</linearGradient>
</defs>
</svg>
